<?xml version="1.0" encoding="utf-8" standalone="yes"?>
<!DOCTYPE svg PUBLIC "-//W3C//DTD SVG 1.1//EN" "http://www.w3.org/Graphics/SVG/1.1/DTD/svg11.dtd">
<svg style="fill:none;stroke:none;fill-rule:evenodd;clip-rule:evenodd;stroke-linecap:round;stroke-linejoin:round;stroke-miterlimit:1.5;" version="1.1" xmlns="http://www.w3.org/2000/svg" xmlns:xlink="http://www.w3.org/1999/xlink" width="698" height="536" viewBox="0 0 698 536"><style class="text-font-style fontImports" data-font-family="Roboto">@import url(https://fonts.googleapis.com/css2?family=Roboto:wght@400;700&amp;amp;display=block);</style><g id="items" style="isolation: isolate"><g id="blend" style="mix-blend-mode: normal"><g id="g-root-sy_6_Vector_4m0wy1i7gxky-fill" data-item-order="-147836" transform="translate(248.4200439453125, 114.8199462890625)"></g><g id="g-root-sy_6_Vector_4m0wy1i7gxky-stroke" data-item-order="-147836" transform="translate(248.4200439453125, 114.8199462890625)"><g id="sy_6_Vector_4m0wy1i7gxky-stroke" fill="none" stroke-linecap="round" stroke-linejoin="round" stroke-miterlimit="4" stroke="#000000" stroke-width="1" stroke-opacity="1"><g><path d="M 88.007905 92.96957L 83.824905 111.51057L 65.676905 105.86257L 71.891905 102.27357L 58.829905 79.65057C 42.594905 85.86157 23.797905 79.53957 14.828905 64.00657C 4.887905 46.78757 10.787905 24.77057 28.005905 14.82957C 45.224905 4.88757 67.241905 10.78757 77.182905 28.00657C 86.138905 43.51857 82.237905 62.92557 68.786905 73.88857L 81.853905 96.52257L 88.007905 92.96957Z"></path></g></g></g><g id="g-root-sy_5_Vector_1qapjqa1i7gv0r-fill" data-item-order="-147832" transform="translate(164.25003051757812, 260)"></g><g id="g-root-sy_5_Vector_1qapjqa1i7gv0r-stroke" data-item-order="-147832" transform="translate(164.25003051757812, 260)"><g id="sy_5_Vector_1qapjqa1i7gv0r-stroke" fill="none" stroke-linecap="round" stroke-linejoin="round" stroke-miterlimit="4" stroke="#000000" stroke-width="1" stroke-opacity="1"><g><path d="M 107.735 58.893L 121.701 46L 107.735 33.108L 107.735 40.284L 81.549 40.284C 78.81 23.118 63.937 10 46 10C 26.118 10 10 26.118 10 46C 10 65.882 26.118 82 46 82C 63.912 82 78.769 68.918 81.537 51.788L 107.735 51.788L 107.735 58.893Z"></path></g></g></g><g id="g-root-sy_4_Vector_1luw1lu1i7gvt0-fill" data-item-order="-147828" transform="translate(248.24002075195312, 375.929931640625)"></g><g id="g-root-sy_4_Vector_1luw1lu1i7gvt0-stroke" data-item-order="-147828" transform="translate(248.24002075195312, 375.929931640625)"><g id="sy_4_Vector_1luw1lu1i7gvt0-stroke" fill="none" stroke-linecap="round" stroke-linejoin="round" stroke-miterlimit="4" stroke="#000000" stroke-width="1" stroke-opacity="1"><g><path d="M 88.039119 28.54101L 83.856119 10.00001L 65.708119 15.64801L 71.923119 19.23601L 58.830119 41.91401C 42.595119 35.70301 23.798119 42.02401 14.829119 57.55801C 4.888119 74.77701 10.787119 96.79401 28.006119 106.73501C 45.225119 116.67601 67.242119 110.77701 77.183119 93.55801C 86.139119 78.04601 82.238119 58.63901 68.787119 47.67601L 81.886119 24.98801L 88.039119 28.54101Z"></path></g></g></g><g id="g-root-sy_3_Vector_18jfj8i1i7gxdx-fill" data-item-order="-147824" transform="translate(410.2200927734375, 375.929931640625)"></g><g id="g-root-sy_3_Vector_18jfj8i1i7gxdx-stroke" data-item-order="-147824" transform="translate(410.2200927734375, 375.929931640625)"><g id="sy_3_Vector_18jfj8i1i7gxdx-stroke" fill="none" stroke-linecap="round" stroke-linejoin="round" stroke-miterlimit="4" stroke="#000000" stroke-width="1" stroke-opacity="1"><g><path d="M 32.330928 15.64801L 14.182928 10.00001L 9.999928 28.54001L 16.214928 24.95201L 29.307928 47.63001C 15.811928 58.58501 11.887928 78.02401 20.855928 93.55801C 30.796928 110.77701 52.813928 116.67601 70.032928 106.73501C 87.251928 96.79401 93.150928 74.77701 83.209928 57.55801C 74.253928 42.04601 55.495928 35.72101 39.276928 41.88801L 26.177928 19.20001L 32.330928 15.64801Z"></path></g></g></g><g id="g-root-sy_2_Vector_zof02q1i7gv0u-fill" data-item-order="-147820" transform="translate(460.2501220703125, 260)"></g><g id="g-root-sy_2_Vector_zof02q1i7gv0u-stroke" data-item-order="-147820" transform="translate(460.2501220703125, 260)"><g id="sy_2_Vector_zof02q1i7gv0u-stroke" fill="none" stroke-linecap="round" stroke-linejoin="round" stroke-miterlimit="4" stroke="#000000" stroke-width="1" stroke-opacity="1"><g><path d="M 23.964939 58.893L 9.999939 46L 23.964939 33.108L 23.964939 40.284L 50.088939 40.284C 52.827939 23.118 67.700939 10 85.637939 10C 105.519939 10 121.637939 26.118 121.637939 46C 121.637939 65.882 105.519939 82 85.637939 82C 67.725939 82 52.868939 68.918 50.099939 51.788L 23.964939 51.788L 23.964939 58.893Z"></path></g></g></g><g id="g-root-sy_1_Vector_v8lhya1i7gvt3-fill" data-item-order="-147816" transform="translate(410.07000732421875, 114.8199462890625)"></g><g id="g-root-sy_1_Vector_v8lhya1i7gvt3-stroke" data-item-order="-147816" transform="translate(410.07000732421875, 114.8199462890625)"><g id="sy_1_Vector_v8lhya1i7gvt3-stroke" fill="none" stroke-linecap="round" stroke-linejoin="round" stroke-miterlimit="4" stroke="#000000" stroke-width="1" stroke-opacity="1"><g><path d="M 32.331014 105.86257L 14.183014 111.51057L 10.000014 92.96957L 16.215014 96.55757L 29.277014 73.93457C 15.781014 62.97957 11.856014 43.53957 20.825014 28.00657C 30.766014 10.78757 52.783014 4.88757 70.002014 14.82957C 87.220014 24.77057 93.120014 46.78757 83.179014 64.00657C 74.223014 79.51857 55.465014 85.84357 39.245014 79.67557L 26.178014 102.30957L 32.331014 105.86257Z"></path></g></g></g><g id="g-root-cr_0_cr-big_qsrztu1i7gwlc-fill" data-item-order="-147812" transform="translate(296.25, 224)"></g><g id="g-root-cr_0_cr-big_qsrztu1i7gwlc-stroke" data-item-order="-147812" transform="translate(296.25, 224)"><g id="cr_0_cr-big_qsrztu1i7gwlc-stroke" fill="none" stroke-linecap="round" stroke-linejoin="round" stroke-miterlimit="4" stroke="#000000" stroke-width="1" stroke-opacity="1"><g><path d="M 10.000031 82C 10.000031 121.764503 42.235529 154.000001 82.000031 154.000001C 121.764533 154.000001 154.000031 121.764503 154.000031 82.000001C 154.000031 42.235499 121.764533 10.000001 82.000031 10.000001C 42.235529 10.000001 10.000031 42.235499 10.000031 82.000001Z"></path></g></g></g><g id="g-root-tx_integrac_zrjdia1i7gw7b-fill" data-item-order="0" transform="translate(72.67974853515625, 38)"><g id="tx_integrac_zrjdia1i7gw7b-fill-merged" stroke="none" fill="#000000" fill-opacity="1"><g><text style="font: bold 25px Roboto, sans-serif; white-space: pre;" transform="translate(305.5703125, 25)" font-weight="bold" font-size="25px" font-family="Roboto, sans-serif"><tspan x="-293.57" y="15" dominant-baseline="ideographic">Integración de Información para Hardware Complejo</tspan></text></g></g></g><g id="g-root-tx_integrac_zrjdia1i7gw7b-stroke" data-item-order="0" transform="translate(72.67974853515625, 38)"></g><g id="g-root-ic_idea_quni8y1i748p7-fill" data-item-order="0" transform="translate(260.2500305175781, 126.510009765625)"></g><g id="g-root-ic_idea_quni8y1i748p7-stroke" data-item-order="0" transform="translate(260.2500305175781, 126.510009765625)"><g id="ic_idea_quni8y1i748p7-stroke" fill="none" stroke-linecap="round" stroke-linejoin="round" stroke-miterlimit="4" stroke="#000000" stroke-width="1" stroke-opacity="1"><g><path d="M 56 57L 56 55C 56.024189 53.420605 55.27803 51.928295 54.000004 51.000004C 51.330002 48.962002 45.459999 45 34 45C 22.540001 45 16.67 48.962002 14 51C 12.721972 51.928295 11.975817 53.420605 12 55.000004L 12 57M 34 57L 44.644001 46.355999M 34 57L 23.355999 46.355999M 37 54L 34 45L 31 54M 21.332001 47.001999L 19 54L 25 57M 46.667999 47.001999L 49 54L 43 57M 38 41L 30 41M 34 11L 34 13M 50 25L 48 25M 48 15L 46 17M 18 25L 20 25M 20 15L 22 17M 48 35L 46 33M 20 35L 22 33M 43 26C 43.018871 21.556046 39.791313 17.763567 35.401527 17.071566C 31.01174 16.379564 26.774008 18.995224 25.424856 23.229473C 24.075705 27.463722 26.019062 32.048851 30 34.024002L 30 36C 30 36.552284 30.447716 37 31 37L 37 37C 37.552284 37 38 36.552284 38 36L 38 34.024002C 41.054688 32.515297 42.9916 29.406937 43 26Z"></path></g></g></g><g id="g-root-ic_pyra_1uo18o21i78h6t-fill" data-item-order="0" transform="translate(428.25006103515625, 126.510009765625)"></g><g id="g-root-ic_pyra_1uo18o21i78h6t-stroke" data-item-order="0" transform="translate(428.25006103515625, 126.510009765625)"><g id="ic_pyra_1uo18o21i78h6t-stroke" fill="none" stroke-linecap="round" stroke-linejoin="round" stroke-miterlimit="4" stroke="#000000" stroke-width="1" stroke-opacity="1"><g><path d="M 52.414001 19C 52.789101 19.374985 52.999886 19.88361 53 20.414L 53 55C 53 56.104568 52.104568 57 51 57L 17 57C 15.895431 57 15 56.104568 15 55L 15 13C 15 11.895431 15.895431 11 17 11L 43.585999 11C 44.11639 11.000113 44.625015 11.210901 45 11.586ZM 25 45C 25 47.209141 29.029438 49 34 49C 38.970562 49 43 47.209141 43 45C 43 42.790859 38.970562 41 34 41C 29.029438 41 25 42.790859 25 45ZM 25.632 43.523998L 33.080002 26.143999C 33.237091 25.775246 33.599182 25.535919 34 25.535919C 34.400818 25.535919 34.762909 25.775246 34.919998 26.143999L 42.368 43.523998"></path></g></g></g><g id="g-root-tx_conocimi_dhxyjm1i7gv0h-fill" data-item-order="0" transform="translate(84.40628051757812, 143)"><g id="tx_conocimi_dhxyjm1i7gv0h-fill-merged" stroke="none" fill="#000000" fill-opacity="1"><g><text style="font: 15px Roboto, sans-serif; white-space: pre;" transform="translate(161.84375, 19)" font-size="15px" font-family="Roboto, sans-serif"><tspan x="-149.84" y="9" dominant-baseline="ideographic">Conocimiento Experto</tspan></text></g></g></g><g id="g-root-tx_conocimi_dhxyjm1i7gv0h-stroke" data-item-order="0" transform="translate(84.40628051757812, 143)"></g><g id="g-root-tx_cad_1d2desi1i7gxs6-fill" data-item-order="0" transform="translate(500.25006103515625, 143)"><g id="tx_cad_1d2desi1i7gxs6-fill-merged" stroke="none" fill="#000000" fill-opacity="1"><g><text style="font: 15px Roboto, sans-serif; white-space: pre;" transform="translate(10, 19)" font-size="15px" font-family="Roboto, sans-serif"><tspan x="2" y="9" dominant-baseline="ideographic">CAD</tspan></text></g></g></g><g id="g-root-tx_cad_1d2desi1i7gxs6-stroke" data-item-order="0" transform="translate(500.25006103515625, 143)"></g><g id="g-root-ic_wren_zpo1eq1i6x7ns-fill" data-item-order="0" transform="translate(176.25003051757812, 272)"></g><g id="g-root-ic_wren_zpo1eq1i6x7ns-stroke" data-item-order="0" transform="translate(176.25003051757812, 272)"><g id="ic_wren_zpo1eq1i6x7ns-stroke" fill="none" stroke-linecap="round" stroke-linejoin="round" stroke-miterlimit="4" stroke="#000000" stroke-width="1" stroke-opacity="1"><g><path d="M 21.130901 33.013397C 21.7309 32.413399 22.130901 31.413401 22.130901 30.6134C 22.130901 29.613359 21.7309 28.81336 21.130901 28.21336L 19.330921 26.613359C 18.330921 25.613361 17.930941 24.213341 18.530941 22.813339C 19.130939 21.61334 20.33094 20.61334 21.73094 20.813339L 24.130901 21.01334C 25.130901 21.01334 25.930939 20.61334 26.73094 20.01334C 27.33094 19.41334 27.73094 18.41334 27.73094 17.41334L 27.530939 15.01334C 27.530939 13.61334 28.33094 12.41334 29.530939 11.813336C 30.731001 11.213336 32.331001 11.613356 33.331001 12.613359L 34.930801 14.41334C 35.5308 15.01334 36.530998 15.41334 37.331001 15.41334C 38.331001 15.41334 39.131001 15.01334 39.731003 14.41334L 41.331001 12.613359C 42.331001 11.613356 43.730999 11.213336 45.131001 11.813336C 46.331001 12.41334 47.331001 13.61334 47.131001 15.01334L 46.930801 17.41334C 46.930801 18.41334 47.330799 19.213341 47.930801 20.01334C 48.5308 20.61334 49.530998 21.01334 50.530998 21.01334L 52.930801 20.813339C 54.330799 20.813339 55.530998 21.61334 56.131001 22.813339C 56.730999 24.01334 56.331001 25.613361 55.331001 26.613359L 53.530998 28.21336C 52.931 28.81336 52.530998 29.81336 52.530998 30.6134C 52.530998 31.6134 52.931 32.413399 53.530998 33.013397L 55.331001 34.6134C 56.331001 35.6134 56.730999 37.013397 56.131001 38.413399C 55.530998 39.6134 54.330799 40.6134 52.930801 40.413399L 50.530998 40.213402C 49.530998 40.213402 48.730801 40.6134 47.930801 41.213402C 47.330799 41.8134 46.930801 42.8134 46.930801 43.8134L 47.131001 46.213402C 47.131001 47.6134 46.331001 48.8134 45.131001 49.413399C 43.931 50.013401 42.331001 49.6134 41.331001 48.6134L 39.731003 46.8134C 39.131001 46.213402 38.131001 45.8134 37.331001 45.8134C 36.331001 45.8134 35.5308 46.213402 34.930801 46.8134L 33.331001 48.6134M 10 10M 40.731201 31.6134L 44.59 27.75452C 45.695801 30.5268 45.278999 34.065399 42.931198 36.413399C 40.731201 38.6134 37.5312 39.213402 34.731201 38.213402L 26.93112 46.013401C 27.93112 48.8134 27.33112 52.013401 25.131119 54.213402C 22.7694 56.575001 19.439259 57.000198 16.474899 55.869598L 20.331081 52.013401C 21.53108 50.8134 21.53108 49.013401 20.331081 47.8134C 19.131081 46.6134 17.33112 46.6134 16.131121 47.8134L 12.2685 51.675999C 10.949776 48.709999 11.567672 45.376801 13.93112 43.013401C 16.131121 40.8134 19.33112 40.213402 22.131119 41.213402L 29.93112 33.413399C 28.93112 30.6134 29.531099 27.41338 31.731199 25.213379C 34.080002 22.86446 37.434998 22.44956 40.387199 23.55718L 36.530998 27.413361C 35.331001 28.613359 35.331001 30.413401 36.530998 31.6134C 37.731003 32.8134 39.5312 32.8134 40.731201 31.6134Z"></path></g></g></g><g id="g-root-ic_cata_mg2v4y1i7gxs8-fill" data-item-order="0" transform="translate(332.25006103515625, 260)"></g><g id="g-root-ic_cata_mg2v4y1i7gxs8-stroke" data-item-order="0" transform="translate(332.25006103515625, 260)"><g id="ic_cata_mg2v4y1i7gxs8-stroke" fill="none" stroke-linecap="round" stroke-linejoin="round" stroke-miterlimit="4" stroke="#000000" stroke-width="1" stroke-opacity="1"><g><path d="M 10 10M 59.5 50.1973L 46 57.6973L 32.5 50.1973L 32.5 35.797359L 46 28.297359L 59.5 35.797359L 59.5 50.1973ZM 59.5 35.797359L 46 43.297302L 32.5 35.797359M 46 43.297302L 46 57.6973M 22.9375 22.83202C 28.4725 16.29607 36.775002 12.25 46 12.25C 55.224998 12.25 63.527504 16.29607 69.0625 22.83202M 52.093601 73C 66.207397 70.238503 76.6819 57.660099 76.6819 42.9328C 76.6819 39.664089 76.106201 36.39529 75.233803 33.405281M 39.88282 73.023399C 25.769171 70.262199 15.31831 57.6595 15.31831 42.932198C 15.31831 39.864159 15.93193 36.795967 16.54558 33.72781L 16.633539 33.339371M 46 79.750298C 49.389099 79.750298 52.136497 77.002899 52.136497 73.6138C 52.136497 70.225006 49.389099 67.4776 46 67.4776C 42.611202 67.4776 39.86377 70.225006 39.86377 73.6138C 39.86377 77.002899 42.611202 79.750298 46 79.750298ZM 72.539795 34.027359C 75.928894 34.027359 78.6763 31.28002 78.6763 27.89101C 78.6763 24.50197 75.928894 21.754631 72.539795 21.754631C 69.150696 21.754631 66.403297 24.50197 66.403297 27.89101C 66.403297 31.28002 69.150696 34.027359 72.539795 34.027359ZM 19.46047 34.027359C 22.84948 34.027359 25.596819 31.28002 25.596819 27.89101C 25.596819 24.50197 22.84948 21.754631 19.46047 21.754631C 16.07143 21.754631 13.32409 24.50197 13.32409 27.89101C 13.32409 31.28002 16.07143 34.027359 19.46047 34.027359Z"></path></g></g></g><g id="g-root-ic_1_deto9u1i71gy1-fill" data-item-order="0" transform="translate(512.2500610351562, 272)"></g><g id="g-root-ic_1_deto9u1i71gy1-stroke" data-item-order="0" transform="translate(512.2500610351562, 272)"><g id="ic_1_deto9u1i71gy1-stroke" fill="none" stroke-linecap="round" stroke-linejoin="round" stroke-miterlimit="4" stroke="#000000" stroke-width="1" stroke-opacity="1"><g><path d="M 45.499802 17.90004C 45.278999 17.90004 45.0998 17.72094 45.0998 17.50004C 45.0998 17.279119 45.278999 17.10004 45.499802 17.10004M 45.499802 17.90004C 45.720798 17.90004 45.900002 17.72094 45.900002 17.50004C 45.900002 17.279119 45.720798 17.10004 45.499802 17.10004M 40.220001 42.5L 54.5 42.5C 55.700001 42.5 56.5 41.700001 56.5 40.5L 56.5 19.5C 56.5 18.299999 55.700001 17.5 54.5 17.5L 51.5 17.5C 51.5 14.1 48.900002 11.5 45.5 11.5C 42.099998 11.5 39.5 14.1 39.5 17.5L 36.5 17.5C 35.299999 17.5 34.5 18.299999 34.5 19.5L 34.5 24.16646M 46.0998 24.5L 50.499802 24.5M 46.0998 30.5L 50.499802 30.5M 46.0998 36.5L 50.499802 36.5M 40.5 24.5L 41.099998 24.5M 40.5 30.5L 41.099998 30.5M 40.5 36.5L 41.099998 36.5M 24.10004 29.5L 24.10004 23.5M 13.09986 35.299999L 35.0998 35.299999M 36.900002 56.5C 35.099998 51.299999 30.1 47.5 24.299999 47.5C 18.5 47.5 13.3 51.299999 11.5 56.5M 15.89986 37.5C 16.099861 41.900002 19.699841 45.5 24.09984 45.5C 28.699841 45.5 32.299801 41.900002 32.299801 37.299999L 32.299801 33.700001C 32.299801 29.1 28.699841 25.5 24.09984 25.5C 19.699841 25.5 16.099861 29.1 15.89986 33.5L 15.89986 37.5Z"></path></g></g></g><g id="g-root-tx_mantenim_1qbyhwi1i7gx6y-fill" data-item-order="0" transform="translate(47.562530517578125, 287)"><g id="tx_mantenim_1qbyhwi1i7gx6y-fill-merged" stroke="none" fill="#000000" fill-opacity="1"><g><text style="font: 15px Roboto, sans-serif; white-space: pre;" transform="translate(114.6875, 19)" font-size="15px" font-family="Roboto, sans-serif"><tspan x="-102.69" y="9" dominant-baseline="ideographic">Mantenimiento</tspan></text></g></g></g><g id="g-root-tx_mantenim_1qbyhwi1i7gx6y-stroke" data-item-order="0" transform="translate(47.562530517578125, 287)"></g><g id="g-root-tx_bom_1utnfaa1i7gvf1-fill" data-item-order="0" transform="translate(584.2500610351562, 287)"><g id="tx_bom_1utnfaa1i7gvf1-fill-merged" stroke="none" fill="#000000" fill-opacity="1"><g><text style="font: 15px Roboto, sans-serif; white-space: pre;" transform="translate(10, 19)" font-size="15px" font-family="Roboto, sans-serif"><tspan x="2" y="9" dominant-baseline="ideographic">BOM</tspan></text></g></g></g><g id="g-root-tx_bom_1utnfaa1i7gvf1-stroke" data-item-order="0" transform="translate(584.2500610351562, 287)"></g><g id="g-root-ic_2_zistgi1i773f0-fill" data-item-order="0" transform="translate(260.2500305175781, 417.489990234375)"></g><g id="g-root-ic_2_zistgi1i773f0-stroke" data-item-order="0" transform="translate(260.2500305175781, 417.489990234375)"><g id="ic_2_zistgi1i773f0-stroke" fill="none" stroke-linecap="round" stroke-linejoin="round" stroke-miterlimit="4" stroke="#000000" stroke-width="1" stroke-opacity="1"><g><path d="M 27 51C 25.799999 51 25 50.200001 25 49L 25 19C 25 17.799999 25.799999 17 27 17L 41 17C 42.200001 17 43 17.799999 43 19L 43 49C 43 50.200001 42.200001 51 41 51L 27 51ZM 29 17L 29 12M 39 17L 39 12M 29 56L 29 51M 39 56L 39 51M 37 28C 37 29.200001 36.200001 30 35 30L 33 30C 31.799999 30 31 29.200001 31 28L 31 26C 31 24.799999 31.799999 24 33 24L 35 24C 36.200001 24 37 24.799999 37 26L 37 28ZM 37 42C 37 43.200001 36.200001 44 35 44L 33 44C 31.799999 44 31 43.200001 31 42L 31 40C 31 38.799999 31.799999 38 33 38L 35 38C 36.200001 38 37 38.799999 37 40L 37 42ZM 16.6 22.6L 19.4 24.6M 51.400002 22.6L 48.599998 24.6M 16.6 46.599998L 19.4 44.599998M 51.400002 46.599998L 48.599998 44.599998M 12.6 34.599998L 17.4 34.599998M 55.400002 34.599998L 50.599998 34.599998"></path></g></g></g><g id="g-root-ic_page_1luw4rm1i72waq-fill" data-item-order="0" transform="translate(428.25006103515625, 417.489990234375)"></g><g id="g-root-ic_page_1luw4rm1i72waq-stroke" data-item-order="0" transform="translate(428.25006103515625, 417.489990234375)"><g id="ic_page_1luw4rm1i72waq-stroke" fill="none" stroke-linecap="round" stroke-linejoin="round" stroke-miterlimit="4" stroke="#000000" stroke-width="1" stroke-opacity="1"><g><path d="M 34 19.966C 34 19.966 38.799999 14.714001 54.986 14.504C 55.253635 14.500253 55.5116 14.603952 55.702175 14.791897C 55.89275 14.979841 56.000027 15.23634 56 15.504L 56 40.503998L 48 48.504002C 37.374001 49.821999 34 53.504002 34 53.504002L 34 19.966C 34 19.966 29.200001 14.714001 13.014 14.504C 12.746367 14.500253 12.4884 14.603952 12.297826 14.791897C 12.10725 14.979841 11.999973 15.23634 12 15.504L 12 47.034C 11.999947 47.580864 12.43919 48.026344 12.986 48.034C 29.200001 48.240002 34 53.495998 34 53.495998M 48 48.490002L 48 40.489998C 48 39.937714 48.447716 39.489998 49 39.489998L 56 39.489998"></path></g></g></g><g id="g-root-tx_sensores_18layhu1i7gweb-fill" data-item-order="0" transform="translate(170.1561279296875, 431)"><g id="tx_sensores_18layhu1i7gweb-fill-merged" stroke="none" fill="#000000" fill-opacity="1"><g><text style="font: 15px Roboto, sans-serif; white-space: pre;" transform="translate(76.09375, 19)" font-size="15px" font-family="Roboto, sans-serif"><tspan x="-64.09" y="9" dominant-baseline="ideographic">Sensores</tspan></text></g></g></g><g id="g-root-tx_sensores_18layhu1i7gweb-stroke" data-item-order="0" transform="translate(170.1561279296875, 431)"></g><g id="g-root-tx_manuales_hz0eua1i7gwec-fill" data-item-order="0" transform="translate(500.25006103515625, 431)"><g id="tx_manuales_hz0eua1i7gwec-fill-merged" stroke="none" fill="#000000" fill-opacity="1"><g><text style="font: 15px Roboto, sans-serif; white-space: pre;" transform="translate(10, 19)" font-size="15px" font-family="Roboto, sans-serif"><tspan x="2" y="9" dominant-baseline="ideographic">Manuales</tspan></text></g></g></g><g id="g-root-tx_manuales_hz0eua1i7gwec-stroke" data-item-order="0" transform="translate(500.25006103515625, 431)"></g></g></g></svg>