<?xml version="1.0" encoding="utf-8" standalone="yes"?>
<!DOCTYPE svg PUBLIC "-//W3C//DTD SVG 1.1//EN" "http://www.w3.org/Graphics/SVG/1.1/DTD/svg11.dtd">
<svg style="fill:none;stroke:none;fill-rule:evenodd;clip-rule:evenodd;stroke-linecap:round;stroke-linejoin:round;stroke-miterlimit:1.5;" version="1.1" xmlns="http://www.w3.org/2000/svg" xmlns:xlink="http://www.w3.org/1999/xlink" width="1034" height="816" viewBox="0 0 1034 816"><style class="text-font-style fontImports" data-font-family="Roboto">@import url(https://fonts.googleapis.com/css2?family=Roboto:wght@400;700&amp;amp;display=block);</style><g id="items" style="isolation: isolate"><g id="blend" style="mix-blend-mode: normal"><g id="g-root-cp_0-1_lines_1um660z1s6msjy-fill" data-item-order="-677935" transform="translate(14, 128)"></g><g id="g-root-cp_0-1_lines_1um660z1s6msjy-stroke" data-item-order="-677935" transform="translate(14, 128)"><g id="cp_0-1_lines_1um660z1s6msjy-stroke" fill="none" stroke-linecap="round" stroke-linejoin="round" stroke-miterlimit="4" stroke="#000000" stroke-width="1" stroke-opacity="1"><g><path d="M 10 10L 395 10L 395 82L 10 82L 10 10Z"></path></g></g></g><g id="g-root-cp_0-2_lines_2_1hapnnn1s6mu4v-fill" data-item-order="-677925" transform="translate(615, 128)"></g><g id="g-root-cp_0-2_lines_2_1hapnnn1s6mu4v-stroke" data-item-order="-677925" transform="translate(615, 128)"><g id="cp_0-2_lines_2_1hapnnn1s6mu4v-stroke" fill="none" stroke-linecap="round" stroke-linejoin="round" stroke-miterlimit="4" stroke="#000000" stroke-width="1" stroke-opacity="1"><g><path d="M 395 10L 10 10L 10 82L 395 82L 395 10Z"></path></g></g></g><g id="g-root-cp_0-1_g-0-1_vlines_v48m4j1s6mu4g-fill" data-item-order="-677915" transform="translate(327, 200)"></g><g id="g-root-cp_0-1_g-0-1_vlines_v48m4j1s6mu4g-stroke" data-item-order="-677915" transform="translate(327, 200)"><g id="cp_0-1_g-0-1_vlines_v48m4j1s6mu4g-stroke" fill="none" stroke-linecap="round" stroke-linejoin="round" stroke-miterlimit="4" stroke="#000000" stroke-width="1" stroke-opacity="1"><g><path d="M 82 10L 82 454L 10 454L 10 10L 82 10Z"></path></g></g></g><g id="g-root-cp_0-2_g-0-2_vlines_m8llvn1s6mux5-fill" data-item-order="-677909" transform="translate(615, 200)"></g><g id="g-root-cp_0-2_g-0-2_vlines_m8llvn1s6mux5-stroke" data-item-order="-677909" transform="translate(615, 200)"><g id="cp_0-2_g-0-2_vlines_m8llvn1s6mux5-stroke" fill="none" stroke-linecap="round" stroke-linejoin="round" stroke-miterlimit="4" stroke="#000000" stroke-width="1" stroke-opacity="1"><g><path d="M 10 10L 10 454L 82 454L 82 10L 10 10Z"></path></g></g></g><g id="g-root-tx_gemelodi_mah14z1s6mtxg-fill" data-item-order="0" transform="translate(627, 150.5)"><g id="tx_gemelodi_mah14z1s6mtxg-fill-merged" stroke="none" fill="#000000" fill-opacity="1"><g><text style="font: bold 22.5px Roboto, sans-serif; white-space: pre;" transform="translate(10, 23.5)" font-weight="bold" font-size="22.5px" font-family="Roboto, sans-serif"><tspan x="2" y="13.5" dominant-baseline="ideographic">Gemelo Digital Operacional</tspan></text></g></g></g><g id="g-root-tx_gemelodi_mah14z1s6mtxg-stroke" data-item-order="0" transform="translate(627, 150.5)"></g><g id="g-root-tx_gemelode_1cwrksj1s6mtxf-fill" data-item-order="0" transform="translate(108.6875, 150.5)"><g id="tx_gemelode_1cwrksj1s6mtxf-fill-merged" stroke="none" fill="#000000" fill-opacity="1"><g><text style="font: bold 22.5px Roboto, sans-serif; white-space: pre;" transform="translate(288.3125, 23.5)" font-weight="bold" font-size="22.5px" font-family="Roboto, sans-serif"><tspan x="-276.31" y="13.5" dominant-baseline="ideographic">Gemelo de Producto Visual</tspan></text></g></g></g><g id="g-root-tx_gemelode_1cwrksj1s6mtxf-stroke" data-item-order="0" transform="translate(108.6875, 150.5)"></g><g id="g-root-tx_cmosedeb_4hy2gz1s6mu4i-fill" data-item-order="0" transform="translate(190.3203125, 38)"><g id="tx_cmosedeb_4hy2gz1s6mu4i-fill-merged" stroke="none" fill="#000000" fill-opacity="1"><g><text style="font: bold 25px Roboto, sans-serif; white-space: pre;" transform="translate(326.6796875, 25)" font-weight="bold" font-size="25px" font-family="Roboto, sans-serif"><tspan x="-314.68" y="15" dominant-baseline="ideographic">¿Cómo se debe clasificar la versión actual del proyecto?</tspan></text></g></g></g><g id="g-root-tx_cmosedeb_4hy2gz1s6mu4i-stroke" data-item-order="0" transform="translate(190.3203125, 38)"></g><g id="g-root-ic_cata_4l2fwj1s6muj3-fill" data-item-order="0" transform="translate(339, 236)"></g><g id="g-root-ic_cata_4l2fwj1s6muj3-stroke" data-item-order="0" transform="translate(339, 236)"><g id="ic_cata_4l2fwj1s6muj3-stroke" fill="none" stroke-linecap="round" stroke-linejoin="round" stroke-miterlimit="4" stroke="#000000" stroke-width="1" stroke-opacity="1"><g><path d="M 10 10M 43 36.798203L 34 41.798203L 25 36.798203L 25 27.19824L 34 22.19824L 43 27.19824L 43 36.798203ZM 43 27.19824L 34 32.1982L 25 27.19824M 34 32.1982L 34 41.798203M 18.625 18.55468C 22.314999 14.19738 27.85 11.5 34 11.5C 40.150002 11.5 45.685001 14.19738 49.375 18.55468M 38.062401 52C 47.4716 50.159 54.454601 41.773399 54.454601 31.9552C 54.454601 29.77606 54.070801 27.596861 53.489201 25.603519M 29.921881 52.015598C 20.512779 50.174801 13.54554 41.773003 13.54554 31.9548C 13.54554 29.909439 13.95462 27.863979 14.36372 25.818539L 14.422359 25.55958M 34 56.500198C 36.259399 56.500198 38.091 54.668598 38.091 52.409199C 38.091 50.150002 36.259399 48.318401 34 48.318401C 31.740801 48.318401 29.90918 50.150002 29.90918 52.409199C 29.90918 54.668598 31.740801 56.500198 34 56.500198ZM 51.693199 26.01824C 53.952599 26.01824 55.784199 24.18668 55.784199 21.92734C 55.784199 19.66798 53.952599 17.83642 51.693199 17.83642C 49.4338 17.83642 47.6022 19.66798 47.6022 21.92734C 47.6022 24.18668 49.4338 26.01824 51.693199 26.01824ZM 16.30698 26.01824C 18.56632 26.01824 20.397881 24.18668 20.397881 21.92734C 20.397881 19.66798 18.56632 17.83642 16.30698 17.83642C 14.04762 17.83642 12.21606 19.66798 12.21606 21.92734C 12.21606 24.18668 14.04762 26.01824 16.30698 26.01824Z"></path></g></g></g><g id="g-root-ic_sett_1cu9og31s6sgef-fill" data-item-order="0" transform="translate(627, 236)"></g><g id="g-root-ic_sett_1cu9og31s6sgef-stroke" data-item-order="0" transform="translate(627, 236)"><g id="ic_sett_1cu9og31s6sgef-stroke" fill="none" stroke-linecap="round" stroke-linejoin="round" stroke-miterlimit="4" stroke="#000000" stroke-width="1" stroke-opacity="1"><g><path d="M 51.133598 17.62278C 54.152802 17.62278 56.600399 16.252159 56.600399 14.56142C 56.600399 12.87066 54.152802 11.500046 51.133598 11.500046C 48.114399 11.500046 45.666801 12.87066 45.666801 14.56142C 45.666801 16.252159 48.114399 17.62278 51.133598 17.62278ZM 45.666801 14.5612L 45.666801 22.87064C 45.666801 24.61998 48.072201 25.931999 51.133598 25.931999C 54.195 25.931999 56.600399 24.61998 56.600399 22.87064L 56.600399 14.5612M 34.109398 17.62278C 37.128601 17.62278 39.576202 16.252159 39.576202 14.56142C 39.576202 12.87066 37.128601 11.500046 34.109398 11.500046C 31.0902 11.500046 28.6427 12.87066 28.6427 14.56142C 28.6427 16.252159 31.0902 17.62278 34.109398 17.62278ZM 28.6427 14.5612L 28.6427 22.87064C 28.6427 24.61998 31.048 25.931999 34.109398 25.931999C 37.170799 25.931999 39.576202 24.61998 39.576202 22.87064L 39.576202 14.5612M 16.866381 17.62278C 19.88558 17.62278 22.33312 16.252159 22.33312 14.56142C 22.33312 12.87066 19.88558 11.500046 16.866381 11.500046C 13.8472 11.500046 11.399658 12.87066 11.399658 14.56142C 11.399658 16.252159 13.8472 17.62278 16.866381 17.62278ZM 22.33312 18.764641C 22.33312 20.4554 19.88558 21.826019 16.866381 21.826019C 13.8472 21.826019 11.399658 20.4554 11.399658 18.764641M 39.576202 18.764641C 39.576202 20.4554 37.128601 21.826019 34.109398 21.826019C 31.0902 21.826019 28.6427 20.4554 28.6427 18.764641M 56.600399 18.764641C 56.600399 20.4554 54.152802 21.826019 51.133598 21.826019C 48.114399 21.826019 45.666801 20.4554 45.666801 18.764641M 11.399658 14.5612L 11.399658 22.87064C 11.399658 24.61998 13.80502 25.931999 16.866381 25.931999C 19.927761 25.931999 22.33312 24.61998 22.33312 22.87064L 22.33312 14.5612M 11.5 56.5C 14.48672 56.5 17.473461 56.5 20.46018 53.5C 23.446899 56.5 26.43362 56.5 27.23008 56.5C 28.026541 56.5 31.013201 56.5 34 53.5C 36.986801 56.5 39.9734 56.5 40.77 56.5C 41.566399 56.5 44.553001 56.5 47.539799 53.5C 50.5266 56.5 53.513199 56.5 56.5 56.5M 25.100079 51.155998C 25.100079 50.556 24.90008 50.155998 24.50008 49.756001L 23.50008 48.756001C 22.90008 48.155998 22.700081 47.355999 23.100079 46.556C 23.50008 45.756001 24.100079 45.355999 25.100079 45.355999L 26.50008 45.355999C 27.10008 45.355999 27.500059 45.155998 27.900061 44.756001C 28.30006 44.355999 28.50008 43.756001 28.50008 43.355999L 28.50008 41.956001C 28.50008 41.155998 28.900061 40.356003 29.70006 39.956001C 30.5 39.556 31.299999 39.756001 31.9 40.356003L 32.900002 41.356003C 33.299999 41.756001 33.700001 41.956001 34.299999 41.956001C 34.900002 41.956001 35.299999 41.756001 35.700001 41.356003L 36.700001 40.356003C 37.299999 39.756001 38.099998 39.556 38.900002 39.956001C 39.700001 40.356003 40.099998 40.956001 40.099998 41.956001L 40.099998 43.355999C 40.099998 43.956001 40.299999 44.355999 40.700001 44.756001C 41.099998 45.155998 41.700001 45.355999 42.099998 45.355999L 43.5 45.355999C 44.299999 45.355999 45.099998 45.756001 45.5 46.556C 45.900002 47.355999 45.700001 48.155998 45.099998 48.756001L 43.700001 49.756001C 43.299999 50.155998 43.099998 50.556 43.099998 51.155998M 30.299999 51.1562C 30.299999 49.1562 31.9 47.356201 34.099998 47.356201C 36.099998 47.356201 37.900002 48.9562 37.900002 51.1562M 10 10M 46.099998 39.747803L 51.099998 35.747803L 51.099998 30.747801M 10 10M 22.1001 39.747803L 17.1001 35.747803L 17.1001 30.747801M 34 36.425201L 34 29.7479"></path></g></g></g><g id="g-root-tx_permitel_1upajgj1s6mtqd-fill" data-item-order="0" transform="translate(58.125, 236)"><g id="tx_permitel_1upajgj1s6mtqd-fill-merged" stroke="none" fill="#000000" fill-opacity="1"><g><text style="font: bold 15px Roboto, sans-serif; white-space: pre;" transform="translate(254.875, 37)" font-weight="bold" font-size="15px" font-family="Roboto, sans-serif"><tspan x="-242.67" y="-9" dominant-baseline="ideographic">Permite la visualización técnica y la </tspan><tspan x="-242.88" y="9" dominant-baseline="ideographic">preparación semántica de hardware </tspan><tspan x="-68.52" y="27" dominant-baseline="ideographic">complejo.</tspan></text></g></g></g><g id="g-root-tx_permitel_1upajgj1s6mtqd-stroke" data-item-order="0" transform="translate(58.125, 236)"></g><g id="g-root-tx_funciona_4pfrib1s6r212-fill" data-item-order="0" transform="translate(455.9140625, 248)"><g id="tx_funciona_4pfrib1s6r212-fill-merged" stroke="none" fill="#000000" fill-opacity="1"><g><text style="font: bold 15px Roboto, sans-serif; white-space: pre;" transform="translate(61.0859375, 28)" font-weight="bold" font-size="15px" font-family="Roboto, sans-serif"><tspan x="-49.09" y="0" dominant-baseline="ideographic">Funcionalidad </tspan><tspan x="-31.76" y="18" dominant-baseline="ideographic">Principal</tspan></text></g></g></g><g id="g-root-tx_funciona_4pfrib1s6r212-stroke" data-item-order="0" transform="translate(455.9140625, 248)"></g><g id="g-root-tx_requiere_1ur5ypv1s6v9je-fill" data-item-order="0" transform="translate(711, 236)"><g id="tx_requiere_1ur5ypv1s6v9je-fill-merged" stroke="none" fill="#000000" fill-opacity="1"><g><text style="font: bold 15px Roboto, sans-serif; white-space: pre;" transform="translate(10, 37)" font-weight="bold" font-size="15px" font-family="Roboto, sans-serif"><tspan x="2" y="-9" dominant-baseline="ideographic">Requiere datos en tiempo real, </tspan><tspan x="2" y="9" dominant-baseline="ideographic">validación e integración con sistemas </tspan><tspan x="2" y="27" dominant-baseline="ideographic">externos.</tspan></text></g></g></g><g id="g-root-tx_requiere_1ur5ypv1s6v9je-stroke" data-item-order="0" transform="translate(711, 236)"></g><g id="g-root-tx_secentra_v7czk31s6muj2-fill" data-item-order="0" transform="translate(44.046875, 302)"><g id="tx_secentra_v7czk31s6muj2-fill-merged" stroke="none" fill="#000000" fill-opacity="1"><g><text style="font: 15px Roboto, sans-serif; white-space: pre;" transform="translate(268.953125, 28)" font-size="15px" font-family="Roboto, sans-serif"><tspan x="-256.95" y="0" dominant-baseline="ideographic">Se centra en la inspección, selección y </tspan><tspan x="-67.52" y="18" dominant-baseline="ideographic">medición.</tspan></text></g></g></g><g id="g-root-tx_secentra_v7czk31s6muj2-stroke" data-item-order="0" transform="translate(44.046875, 302)"></g><g id="g-root-tx_secentra_144vf2b1s6v9jf-fill" data-item-order="0" transform="translate(711, 302)"><g id="tx_secentra_144vf2b1s6v9jf-fill-merged" stroke="none" fill="#000000" fill-opacity="1"><g><text style="font: 15px Roboto, sans-serif; white-space: pre;" transform="translate(10, 28)" font-size="15px" font-family="Roboto, sans-serif"><tspan x="2" y="0" dominant-baseline="ideographic">Se centra en la sincronización operativa </tspan><tspan x="2" y="18" dominant-baseline="ideographic">y la telemetría en vivo.</tspan></text></g></g></g><g id="g-root-tx_secentra_144vf2b1s6v9jf-stroke" data-item-order="0" transform="translate(711, 302)"></g><g id="g-root-ic_corn_146qubn1s6v8jq-fill" data-item-order="0" transform="translate(339, 386)"></g><g id="g-root-ic_corn_146qubn1s6v8jq-stroke" data-item-order="0" transform="translate(339, 386)"><g id="ic_corn_146qubn1s6v8jq-stroke" fill="none" stroke-linecap="round" stroke-linejoin="round" stroke-miterlimit="4" stroke="#000000" stroke-width="1" stroke-opacity="1"><g><path d="M 34.059998 13L 34.059998 22M 34.059998 22L 18.060001 29L 34.059998 36L 50.060001 29L 34.059998 22ZM 18.060001 29L 18.060001 48L 34.059998 55L 50.060001 48L 50.060001 29M 34.059998 36L 34.059998 55M 12.059999 50.992001L 18.060001 48M 50.060001 48L 56 50.964001"></path></g></g></g><g id="g-root-ic_sync_4hbldv1s70weh-fill" data-item-order="0" transform="translate(627, 386)"></g><g id="g-root-ic_sync_4hbldv1s70weh-stroke" data-item-order="0" transform="translate(627, 386)"><g id="ic_sync_4hbldv1s70weh-stroke" fill="none" stroke-linecap="round" stroke-linejoin="round" stroke-miterlimit="4" stroke="#000000" stroke-width="1" stroke-opacity="1"><g><path d="M 11 19C 11 23.418278 19.50659 27 30 27C 40.493408 27 49 23.418278 49 19C 49 14.581722 40.493408 11 30 11C 19.50659 11 11 14.581722 11 19M 30 35C 19.5 35 11 31.42 11 27M 28 44C 18.439999 43.540001 11 40.139999 11 36M 26 52.82C 17.42 52 11 48.84 11 45L 11 19M 49 19L 49 29M 48.18 40.279999L 54.259998 43L 57 36.860001M 32.639999 40.52C 34.336945 35.570831 39.24939 32.469467 44.447311 33.065716C 49.645233 33.661964 53.72781 37.795128 54.260002 43M 38.760002 49.720001L 32.68 47L 29.940001 53.139999M 54.299999 49.459999C 52.605865 54.408039 47.697712 57.511337 42.501217 56.920063C 37.304718 56.328785 33.219208 52.202156 32.68 47"></path></g></g></g><g id="g-root-tx_represen_dikver1s6v9jg-fill" data-item-order="0" transform="translate(31.765625, 386)"><g id="tx_represen_dikver1s6v9jg-fill-merged" stroke="none" fill="#000000" fill-opacity="1"><g><text style="font: bold 15px Roboto, sans-serif; white-space: pre;" transform="translate(281.234375, 28)" font-weight="bold" font-size="15px" font-family="Roboto, sans-serif"><tspan x="-269.23" y="0" dominant-baseline="ideographic">Representa el estado implementado del </tspan><tspan x="-65.14" y="18" dominant-baseline="ideographic">proyecto.</tspan></text></g></g></g><g id="g-root-tx_represen_dikver1s6v9jg-stroke" data-item-order="0" transform="translate(31.765625, 386)"></g><g id="g-root-tx_estadoac_v3m51f1s70weg-fill" data-item-order="0" transform="translate(444.3828125, 398)"><g id="tx_estadoac_v3m51f1s70weg-fill-merged" stroke="none" fill="#000000" fill-opacity="1"><g><text style="font: bold 15px Roboto, sans-serif; white-space: pre;" transform="translate(72.6171875, 28)" font-weight="bold" font-size="15px" font-family="Roboto, sans-serif"><tspan x="-60.62" y="0" dominant-baseline="ideographic">Estado Actual del </tspan><tspan x="-36.48" y="18" dominant-baseline="ideographic">Desarrollo</tspan></text></g></g></g><g id="g-root-tx_estadoac_v3m51f1s70weg-stroke" data-item-order="0" transform="translate(444.3828125, 398)"></g><g id="g-root-tx_represen_v9v2831s6in0h-fill" data-item-order="0" transform="translate(711, 386)"><g id="tx_represen_v9v2831s6in0h-fill-merged" stroke="none" fill="#000000" fill-opacity="1"><g><text style="font: bold 15px Roboto, sans-serif; white-space: pre;" transform="translate(10, 28)" font-weight="bold" font-size="15px" font-family="Roboto, sans-serif"><tspan x="2" y="0" dominant-baseline="ideographic">Representa la hoja de ruta futura del </tspan><tspan x="2" y="18" dominant-baseline="ideographic">proyecto.</tspan></text></g></g></g><g id="g-root-tx_represen_v9v2831s6in0h-stroke" data-item-order="0" transform="translate(711, 386)"></g><g id="g-root-tx_validado_1lxedqb1s6v9cd-fill" data-item-order="0" transform="translate(64.984375, 434)"><g id="tx_validado_1lxedqb1s6v9cd-fill-merged" stroke="none" fill="#000000" fill-opacity="1"><g><text style="font: 15px Roboto, sans-serif; white-space: pre;" transform="translate(248.015625, 37)" font-size="15px" font-family="Roboto, sans-serif"><tspan x="-232.41" y="-9" dominant-baseline="ideographic">Validado como el posicionamiento </tspan><tspan x="-236.02" y="9" dominant-baseline="ideographic">académico correcto para la versión </tspan><tspan x="-46.95" y="27" dominant-baseline="ideographic">actual.</tspan></text></g></g></g><g id="g-root-tx_validado_1lxedqb1s6v9cd-stroke" data-item-order="0" transform="translate(64.984375, 434)"></g><g id="g-root-tx_consider_4nkikj1s6in0i-fill" data-item-order="0" transform="translate(711, 434)"><g id="tx_consider_4nkikj1s6in0i-fill-merged" stroke="none" fill="#000000" fill-opacity="1"><g><text style="font: 15px Roboto, sans-serif; white-space: pre;" transform="translate(10, 28)" font-size="15px" font-family="Roboto, sans-serif"><tspan x="2" y="0" dominant-baseline="ideographic">Considerado un término no defendible </tspan><tspan x="2" y="18" dominant-baseline="ideographic">para la versión actual.</tspan></text></g></g></g><g id="g-root-tx_consider_4nkikj1s6in0i-stroke" data-item-order="0" transform="translate(711, 434)"></g><g id="g-root-tx_depended_v98oar1s6mupt-fill" data-item-order="0" transform="translate(711, 584)"><g id="tx_depended_v98oar1s6mupt-fill-merged" stroke="none" fill="#000000" fill-opacity="1"><g><text style="font: 15px Roboto, sans-serif; white-space: pre;" transform="translate(10, 28)" font-size="15px" font-family="Roboto, sans-serif"><tspan x="2" y="0" dominant-baseline="ideographic">Depende de bucles de retroalimentación </tspan><tspan x="2" y="18" dominant-baseline="ideographic">continuos e integración de sistemas.</tspan></text></g></g></g><g id="g-root-tx_depended_v98oar1s6mupt-stroke" data-item-order="0" transform="translate(711, 584)"></g><g id="g-root-ic_moni_qqapkz1s6y32b-fill" data-item-order="0" transform="translate(627, 536)"></g><g id="g-root-ic_moni_qqapkz1s6y32b-stroke" data-item-order="0" transform="translate(627, 536)"><g id="ic_moni_qqapkz1s6y32b-stroke" fill="none" stroke-linecap="round" stroke-linejoin="round" stroke-miterlimit="4" stroke="#000000" stroke-width="1" stroke-opacity="1"><g><path d="M 56.5 27.5C 56.5 28.700001 55.700001 29.5 54.5 29.5L 36.5 29.5C 35.299999 29.5 34.5 28.700001 34.5 27.5L 34.5 13.5C 34.5 12.3 35.299999 11.5 36.5 11.5L 54.5 11.5C 55.700001 11.5 56.5 12.3 56.5 13.5L 56.5 27.5ZM 45.5 29.5L 45.5 35.5M 41.5 35.5L 49.5 35.5M 10 10M 40.200001 23.5L 42.799999 18.9L 47.799999 22.9L 50.799999 17.5M 43.400002 54.400002L 39 50L 43.400002 45.599998M 51 44C 51 47.400002 48.400002 50 45 50L 39 50M 10 10M 22.39996 13.59998L 26.99996 17.999981L 22.39996 22.399979M 14.99994 24C 14.99994 20.6 17.599939 18 20.999939 18L 26.999941 18M 20.8999 48.099998C 24.7659 48.099998 27.8999 44.966 27.8999 41.099998C 27.8999 37.234001 24.7659 34.099998 20.8999 34.099998C 17.03392 34.099998 13.8999 37.234001 13.8999 41.099998C 13.8999 44.966 17.03392 48.099998 20.8999 48.099998ZM 27.8999 40.900002C 26.6999 41.299999 25.499901 41.5 24.2999 41.5C 20.6999 41.5 17.2999 39.900002 14.8999 37.5M 30.299999 56.5C 28.9 52.700001 25.299999 50.099998 20.9 50.099998C 16.5 50.099998 12.9 52.900002 11.5 56.5"></path></g></g></g><g id="g-root-tx_utilizad_1d2e0w31s6imtf-fill" data-item-order="0" transform="translate(34.078125, 536)"><g id="tx_utilizad_1d2e0w31s6imtf-fill-merged" stroke="none" fill="#000000" fill-opacity="1"><g><text style="font: bold 15px Roboto, sans-serif; white-space: pre;" transform="translate(278.921875, 28)" font-weight="bold" font-size="15px" font-family="Roboto, sans-serif"><tspan x="-266.92" y="0" dominant-baseline="ideographic">Utiliza datos semánticos estáticos para </tspan><tspan x="-181.58" y="18" dominant-baseline="ideographic">la identificación de piezas.</tspan></text></g></g></g><g id="g-root-tx_utilizad_1d2e0w31s6imtf-stroke" data-item-order="0" transform="translate(34.078125, 536)"></g><g id="g-root-tx_requisit_1lsercz1s6y2a2-fill" data-item-order="0" transform="translate(437.9453125, 548)"><g id="tx_requisit_1lsercz1s6y2a2-fill-merged" stroke="none" fill="#000000" fill-opacity="1"><g><text style="font: bold 15px Roboto, sans-serif; white-space: pre;" transform="translate(79.0546875, 19)" font-weight="bold" font-size="15px" font-family="Roboto, sans-serif"><tspan x="-67.05" y="9" dominant-baseline="ideographic">Requisitos de Datos</tspan></text></g></g></g><g id="g-root-tx_requisit_1lsercz1s6y2a2-stroke" data-item-order="0" transform="translate(437.9453125, 548)"></g><g id="g-root-tx_exigeflu_1qbcq2r1s6mtxk-fill" data-item-order="0" transform="translate(711, 536)"><g id="tx_exigeflu_1qbcq2r1s6mtxk-fill-merged" stroke="none" fill="#000000" fill-opacity="1"><g><text style="font: bold 15px Roboto, sans-serif; white-space: pre;" transform="translate(10, 28)" font-weight="bold" font-size="15px" font-family="Roboto, sans-serif"><tspan x="2" y="0" dominant-baseline="ideographic">Exige flujos de datos en vivo y modelos </tspan><tspan x="2" y="18" dominant-baseline="ideographic">calibrados.</tspan></text></g></g></g><g id="g-root-tx_exigeflu_1qbcq2r1s6mtxk-stroke" data-item-order="0" transform="translate(711, 536)"></g><g id="g-root-tx_sebasaen_mg3h8j1s6imtg-fill" data-item-order="0" transform="translate(31.546875, 584)"><g id="tx_sebasaen_mg3h8j1s6imtg-fill-merged" stroke="none" fill="#000000" fill-opacity="1"><g><text style="font: 15px Roboto, sans-serif; white-space: pre;" transform="translate(281.453125, 28)" font-size="15px" font-family="Roboto, sans-serif"><tspan x="-269.45" y="0" dominant-baseline="ideographic">Se basa en taxonomías preparadas para </tspan><tspan x="-214.52" y="18" dominant-baseline="ideographic">el aislamiento de componentes.</tspan></text></g></g></g><g id="g-root-tx_sebasaen_mg3h8j1s6imtg-stroke" data-item-order="0" transform="translate(31.546875, 584)"></g><g id="g-root-ic_kit_1uuwzk31s6immd-fill" data-item-order="0" transform="translate(339, 536)"></g><g id="g-root-ic_kit_1uuwzk31s6immd-stroke" data-item-order="0" transform="translate(339, 536)"><g id="ic_kit_1uuwzk31s6immd-stroke" fill="none" stroke-linecap="round" stroke-linejoin="round" stroke-miterlimit="4" stroke="#000000" stroke-width="1" stroke-opacity="1"><g><path d="M 10 10M 26.213539 26.106199L 12.86538 33.682198C 12.23938 34.037399 11.8526 34.701797 11.8526 35.4216L 11.8526 41.738197C 11.8526 42.458 12.2394 43.122398 12.86538 43.4776L 33.012802 54.912601C 33.625 55.260201 34.375 55.260201 34.987198 54.912601L 55.134602 43.4776C 55.760601 43.122398 56.1474 42.458 56.1474 41.738197L 56.1474 35.4216C 56.1474 34.701797 55.760601 34.037399 55.134602 33.682198L 49.906799 30.715M 56.1474 34.749802L 34 47.32L 11.852652 34.749802M 10 10M 34.000198 54.437401L 34.000198 47.32M 45.901199 15.9519L 45.901199 29.29434C 45.901199 30.0816 45.191799 30.802601 44.014801 31.3606C 42.897202 31.8904 41.637398 31.9622 41.1926 31.980801M 29.872 15.732C 29.871384 17.5028 33.459553 18.938446 37.886002 18.938446C 42.312447 18.938446 45.900616 17.5028 45.899998 15.732C 45.900616 13.961201 42.312447 12.525554 37.886002 12.525554C 33.459553 12.525554 29.871384 13.961201 29.872 15.732M 39.422001 36.433399C 39.422001 38.043999 36.157799 39.349602 32.131203 39.349602C 28.10454 39.349602 24.84034 38.043999 24.84034 36.433399L 32.131203 24.03894L 39.422001 36.433399ZM 10 10M 29.87158 15.95192L 29.87158 21.341759"></path></g></g></g></g></g></svg>