<?xml version="1.0" encoding="utf-8" standalone="yes"?>
<!DOCTYPE svg PUBLIC "-//W3C//DTD SVG 1.1//EN" "http://www.w3.org/Graphics/SVG/1.1/DTD/svg11.dtd">
<svg style="fill:none;stroke:none;fill-rule:evenodd;clip-rule:evenodd;stroke-linecap:round;stroke-linejoin:round;stroke-miterlimit:1.5;" version="1.1" xmlns="http://www.w3.org/2000/svg" xmlns:xlink="http://www.w3.org/1999/xlink" width="739" height="510" viewBox="0 0 739 510"><style class="text-font-style fontImports" data-font-family="Roboto">@import url(https://fonts.googleapis.com/css2?family=Roboto:wght@400;700&amp;amp;display=block);</style><g id="items" style="isolation: isolate"><g id="blend" style="mix-blend-mode: normal"><g id="g-root-sy_0_cu_mdkvmq1k4ymth-fill" data-item-order="-102602" transform="translate(236.27001953125, 176)"></g><g id="g-root-sy_0_cu_mdkvmq1k4ymth-stroke" data-item-order="-102602" transform="translate(236.27001953125, 176)"><g id="sy_0_cu_mdkvmq1k4ymth-stroke" fill="none" stroke-linecap="round" stroke-linejoin="round" stroke-miterlimit="4" stroke="#000000" stroke-width="1" stroke-opacity="1"><g><path d="M 25.7548 70.52C 15.7296 88.0524 10 108.3571 10 130C 10 151.6431 15.7297 171.948 25.7551 189.4805M 69.52 26.333C 87.2784 15.9502 107.9443 10 130 10C 151.2327 10 171.1774 15.5145 188.4801 25.1894M 234.2453 70.5201C 244.2704 88.0525 250 108.3571 250 130C 250 151.6431 244.2703 171.948 234.2449 189.4805M 188.4805 234.8104C 171.1778 244.4854 151.2329 250 130 250C 107.9443 250 87.2784 244.0497 69.5199 233.6669"></path></g></g></g><g id="g-root-sy_4_cu_cu_92quci1k4yl8m-fill" data-item-order="-102598" transform="translate(199.7900390625, 140.52001953125)"></g><g id="g-root-sy_4_cu_cu_92quci1k4yl8m-stroke" data-item-order="-102598" transform="translate(199.7900390625, 140.52001953125)"><g id="sy_4_cu_cu_92quci1k4yl8m-stroke" fill="none" stroke-linecap="round" stroke-linejoin="round" stroke-miterlimit="4" stroke="#000000" stroke-width="1" stroke-opacity="1"><g><path d="M 58.0004 106C 45.716 106.0001 33.4316 101.3138 24.0589 91.9411C 5.3137 73.196 5.3137 42.804 24.0589 24.0589C 42.804 5.3137 73.196 5.3137 91.9411 24.0589C 101.3137 33.4315 106 45.7157 106 58L 106.0004 106L 58.0114 106C 58.0077 106 58.0041 106 58.0004 106Z"></path></g></g></g><g id="g-root-sy_3_cu_cu_73u3m1k4ym1b-fill" data-item-order="-102594" transform="translate(199.7900390625, 355.47998046875)"></g><g id="g-root-sy_3_cu_cu_73u3m1k4ym1b-stroke" data-item-order="-102594" transform="translate(199.7900390625, 355.47998046875)"><g id="sy_3_cu_cu_73u3m1k4ym1b-stroke" fill="none" stroke-linecap="round" stroke-linejoin="round" stroke-miterlimit="4" stroke="#000000" stroke-width="1" stroke-opacity="1"><g><path d="M 106 57.999985C 106.0001 70.284385 101.3138 82.568785 91.9411 91.941485C 73.196 110.686685 42.804 110.686685 24.0589 91.941485C 5.3137 73.196385 5.3137 42.804385 24.0589 24.059285C 33.4315 14.686685 45.7157 10.000385 58 10.000385L 106 9.999985L 106 57.988985C 106 57.992685 106 57.996285 106 57.999985Z"></path></g></g></g><g id="g-root-sy_2_cu_cu_1qckvtu1k4yneo-fill" data-item-order="-102590" transform="translate(414.75, 355.47998046875)"></g><g id="g-root-sy_2_cu_cu_1qckvtu1k4yneo-stroke" data-item-order="-102590" transform="translate(414.75, 355.47998046875)"><g id="sy_2_cu_cu_1qckvtu1k4yneo-stroke" fill="none" stroke-linecap="round" stroke-linejoin="round" stroke-miterlimit="4" stroke="#000000" stroke-width="1" stroke-opacity="1"><g><path d="M 10 57.999984C 9.9999 70.284384 14.6862 82.568784 24.0589 91.941484C 42.804 110.686684 73.1959 110.686684 91.9411 91.941484C 110.6863 73.196384 110.6863 42.804384 91.9411 24.059284C 82.5685 14.686684 70.2843 10.000384 58 10.000384L 10 9.999984L 10 57.988984C 10 57.992684 10 57.996284 10 57.999984Z"></path></g></g></g><g id="g-root-sy_1_cu_cu_1hhkco21k4yl1l-fill" data-item-order="-102586" transform="translate(414.75, 140.52001953125)"></g><g id="g-root-sy_1_cu_cu_1hhkco21k4yl1l-stroke" data-item-order="-102586" transform="translate(414.75, 140.52001953125)"><g id="sy_1_cu_cu_1hhkco21k4yl1l-stroke" fill="none" stroke-linecap="round" stroke-linejoin="round" stroke-miterlimit="4" stroke="#000000" stroke-width="1" stroke-opacity="1"><g><path d="M 58 106C 70.2844 106.0001 82.5688 101.3138 91.9415 91.9411C 110.6867 73.196 110.6867 42.804 91.9415 24.0589C 73.1964 5.3137 42.8044 5.3137 24.0593 24.0589C 14.6867 33.4315 10.0004 45.7157 10.0004 58L 10 106L 57.989 106C 57.9927 106 57.9963 106 58 106Z"></path></g></g></g><g id="g-root-tx_dimensio_1d1qujm1k4yltu-fill" data-item-order="0" transform="translate(147.55126953125, 38)"><g id="tx_dimensio_1d1qujm1k4yltu-fill-merged" stroke="none" fill="#000000" fill-opacity="1"><g><text style="font: bold 25px Roboto, sans-serif; white-space: pre;" transform="translate(235.71875, 25)" font-weight="bold" font-size="25px" font-family="Roboto, sans-serif"><tspan x="-223.72" y="15" dominant-baseline="ideographic">Dimensiones del Problema del Proyecto</tspan></text></g></g></g><g id="g-root-tx_dimensio_1d1qujm1k4yltu-stroke" data-item-order="0" transform="translate(147.55126953125, 38)"></g><g id="g-root-tx_fragment_1qa32n61k4ueis-fill" data-item-order="0" transform="translate(70.11376953125, 128)"><g id="tx_fragment_1qa32n61k4ueis-fill-merged" stroke="none" fill="#000000" fill-opacity="1"><g><text style="font: bold 15px Roboto, sans-serif; white-space: pre;" transform="translate(115.15625, 28)" font-weight="bold" font-size="15px" font-family="Roboto, sans-serif"><tspan x="-103.16" y="0" dominant-baseline="ideographic">Fragmentación </tspan><tspan x="-73.66" y="18" dominant-baseline="ideographic">Semántica</tspan></text></g></g></g><g id="g-root-tx_fragment_1qa32n61k4ueis-stroke" data-item-order="0" transform="translate(70.11376953125, 128)"></g><g id="g-root-ic_2_93zsiq1k4yner-fill" data-item-order="0" transform="translate(223.27001953125, 164)"></g><g id="g-root-ic_2_93zsiq1k4yner-stroke" data-item-order="0" transform="translate(223.27001953125, 164)"><g id="ic_2_93zsiq1k4yner-stroke" fill="none" stroke-linecap="round" stroke-linejoin="round" stroke-miterlimit="4" stroke="#000000" stroke-width="1" stroke-opacity="1"><g><path d="M 28 28L 28 18C 28.000002 14.134007 31.134008 11 35 11C 38.865993 11 42 14.134007 42 18L 42 28C 42 31.865993 38.865997 35 35 35M 42 38L 42 48C 42 51.865993 38.865993 55 35 55C 31.134008 55 28.000002 51.865993 28.000002 48L 28 38C 28 34.13401 31.134008 31 35 31M 20.875999 23.998001L 23.473999 25.498001M 19 30.997999L 22 30.997999M 20.875999 37.998001L 23.473999 36.498001M 49.124001 37.998001L 46.526001 36.498001M 51 30.997999L 48 30.997999M 49.124001 23.998001L 46.526001 25.498001"></path></g></g></g><g id="g-root-ic_lock_me7cpu1k5718u-fill" data-item-order="0" transform="translate(439.27001953125, 164)"></g><g id="g-root-ic_lock_me7cpu1k5718u-stroke" data-item-order="0" transform="translate(439.27001953125, 164)"><g id="ic_lock_me7cpu1k5718u-stroke" fill="none" stroke-linecap="round" stroke-linejoin="round" stroke-miterlimit="4" stroke="#000000" stroke-width="1" stroke-opacity="1"><g><path d="M 16.059999 27L 52 27M 16.059999 41L 52 41M 37.84 22.439999C 37.668159 22.780132 37.321053 22.996109 36.939999 23L 31.18 23C 30.798944 22.996109 30.451838 22.780132 30.279999 22.439999L 29.280001 20.439999C 29.139334 20.129063 29.163492 19.768379 29.344366 19.478979C 29.525242 19.189579 29.838865 19.009811 30.18 19L 38 19C 38.351048 18.997955 38.67746 19.180138 38.860001 19.48C 39.031487 19.777023 39.031487 20.142975 38.860001 20.439999ZM 37.84 36.440002C 37.668159 36.780132 37.321053 36.996109 36.939999 37L 31.18 37C 30.798944 36.996109 30.451838 36.780132 30.279999 36.439999L 29.280001 34.440002C 29.108511 34.142975 29.108511 33.777023 29.279999 33.479996C 29.456003 33.183311 29.775034 33.001007 30.120001 33L 38 33C 38.351048 32.997955 38.67746 33.180138 38.860001 33.48C 39.031487 33.777023 39.031487 34.142975 38.860001 34.439999ZM 37.84 52.439999C 37.668159 52.780132 37.321053 52.996109 36.939999 53L 31.18 53C 30.798944 52.996109 30.451838 52.780132 30.279999 52.439999L 29.280001 50.439999C 29.139334 50.129063 29.163492 49.768379 29.344366 49.478977C 29.525242 49.189579 29.838865 49.009811 30.18 49L 38 49C 38.351048 48.997955 38.67746 49.180138 38.860001 49.48C 39.031487 49.777023 39.031487 50.142971 38.860001 50.439999ZM 52 55C 52 56.104568 51.104568 57 50 57L 18 57C 16.895432 57 16 56.104568 16 55L 16 13C 16 11.895431 16.895432 11 18 11L 50 11C 51.104568 11 52 11.895431 52 13Z"></path></g></g></g><g id="g-root-tx_huellade_dhbhgi1k4udqm-fill" data-item-order="0" transform="translate(535.27001953125, 146)"><g id="tx_huellade_dhbhgi1k4udqm-fill-merged" stroke="none" fill="#000000" fill-opacity="1"><g><text style="font: bold 15px Roboto, sans-serif; white-space: pre;" transform="translate(10, 19)" font-weight="bold" font-size="15px" font-family="Roboto, sans-serif"><tspan x="2" y="9" dominant-baseline="ideographic">Huella de Datos</tspan></text></g></g></g><g id="g-root-tx_huellade_dhbhgi1k4udqm-stroke" data-item-order="0" transform="translate(535.27001953125, 146)"></g><g id="g-root-tx_faltadec_v2z86a1k4uf4f-fill" data-item-order="0" transform="translate(45.36376953125, 176)"><g id="tx_faltadec_v2z86a1k4uf4f-fill-merged" stroke="none" fill="#000000" fill-opacity="1"><g><text style="font: 15px Roboto, sans-serif; white-space: pre;" transform="translate(139.90625, 37)" font-size="15px" font-family="Roboto, sans-serif"><tspan x="-127.91" y="-9" dominant-baseline="ideographic">Falta de contexto y </tspan><tspan x="-108.52" y="9" dominant-baseline="ideographic">relaciones entre </tspan><tspan x="-93.67" y="27" dominant-baseline="ideographic">componentes</tspan></text></g></g></g><g id="g-root-tx_faltadec_v2z86a1k4uf4f-stroke" data-item-order="0" transform="translate(45.36376953125, 176)"></g><g id="g-root-tx_modelosc_1q87ndu1k4ufii-fill" data-item-order="0" transform="translate(535.27001953125, 176)"><g id="tx_modelosc_1q87ndu1k4ufii-fill-merged" stroke="none" fill="#000000" fill-opacity="1"><g><text style="font: 15px Roboto, sans-serif; white-space: pre;" transform="translate(10, 37)" font-size="15px" font-family="Roboto, sans-serif"><tspan x="2" y="-9" dominant-baseline="ideographic">Modelos CAD pesados </tspan><tspan x="2" y="9" dominant-baseline="ideographic">que requieren limpieza y </tspan><tspan x="2" y="27" dominant-baseline="ideographic">simplificación</tspan></text></g></g></g><g id="g-root-tx_modelosc_1q87ndu1k4ufii-stroke" data-item-order="0" transform="translate(535.27001953125, 176)"></g><g id="g-root-ic_puzz_dbp4iq1k5b8jv-fill" data-item-order="0" transform="translate(307.27001953125, 248)"></g><g id="g-root-ic_puzz_dbp4iq1k5b8jv-stroke" data-item-order="0" transform="translate(307.27001953125, 248)"><g id="ic_puzz_dbp4iq1k5b8jv-stroke" fill="none" stroke-linecap="round" stroke-linejoin="round" stroke-miterlimit="4" stroke="#000000" stroke-width="1" stroke-opacity="1"><g><path d="M 91.959999 58C 91.959999 57.68 91.959999 57.32 91.959999 57C 91.959999 52.029438 87.930565 48 82.959999 48C 77.989441 48 73.959999 52.029438 73.959999 57C 73.959999 57.32 73.959999 57.68 73.959999 58L 63 58L 63 70L 64 70C 68.970566 70 73 74.029434 73 79C 73 83.970566 68.970566 88 64 88L 63 88L 63 100L 100 100C 102.209137 100 104 98.209137 104 96L 104 58ZM 64 70L 63 70L 63 58L 52.959999 58C 52.959999 58.32 52.959999 58.68 52.959999 59C 52.959999 63.970562 48.930565 68 43.959999 68C 38.989437 68 34.959999 63.970562 34.959999 59C 34.959999 58.68 34.959999 58.32 34.959999 58L 22 58L 22 70L 21 70C 16.029438 70 12 74.029434 12 79C 12 83.970566 16.029438 88 21 88L 22 88L 22 96C 22 98.209137 23.790861 100 26 100L 63 100L 63 88L 64 88C 68.970566 88 73 83.970566 73 79C 73 74.029434 68.970566 70 64 70ZM 63 46L 62 46C 57.029438 46 53 41.970566 53 37C 53 32.029438 57.029438 28 62 28L 63 28L 63 16L 26 16C 23.790861 16 22 17.790861 22 20L 22 28L 23 28C 27.970562 28 32 32.029438 32 37C 32 41.970566 27.970562 46 23 46L 22 46L 22 58L 35.040001 58C 35.040001 58.32 35.040001 58.68 35.040001 59C 35.040001 63.970562 39.069435 68 44.040001 68C 49.010563 68 53.040001 63.970562 53.040001 59C 53.040001 58.68 53.040001 58.32 53.040001 58L 63.080002 58ZM 91.959999 16C 91.959999 16.32 91.959999 16.68 91.959999 17C 91.959999 21.970562 87.930565 26 82.959999 26C 77.989441 26 73.959999 21.970562 73.959999 17C 73.959999 16.68 73.959999 16.32 73.959999 16L 63 16L 63 28L 62 28C 57.029438 28 53 32.029438 53 37C 53 41.970566 57.029438 46 62 46L 63 46L 63 58L 74 58C 74 57.68 74 57.32 74 57C 74 52.029438 78.029434 48 83 48C 87.970566 48 92 52.029438 92 57C 92 57.32 92 57.68 92 58L 104 58L 104 20C 104 17.790861 102.209137 16 100 16Z"></path></g></g></g><g id="g-root-tx_latencia_143m1421k4udql-fill" data-item-order="0" transform="translate(14.00439453125, 362)"><g id="tx_latencia_143m1421k4udql-fill-merged" stroke="none" fill="#000000" fill-opacity="1"><g><text style="font: bold 15px Roboto, sans-serif; white-space: pre;" transform="translate(171.265625, 19)" font-weight="bold" font-size="15px" font-family="Roboto, sans-serif"><tspan x="-159.27" y="9" dominant-baseline="ideographic">Latencia de Interacción</tspan></text></g></g></g><g id="g-root-tx_latencia_143m1421k4udql-stroke" data-item-order="0" transform="translate(14.00439453125, 362)"></g><g id="g-root-tx_rendimie_mb32g21k4udxn-fill" data-item-order="0" transform="translate(535.27001953125, 344)"><g id="tx_rendimie_mb32g21k4udxn-fill-merged" stroke="none" fill="#000000" fill-opacity="1"><g><text style="font: bold 15px Roboto, sans-serif; white-space: pre;" transform="translate(10, 28)" font-weight="bold" font-size="15px" font-family="Roboto, sans-serif"><tspan x="2" y="0" dominant-baseline="ideographic">Rendimiento en Tiempo </tspan><tspan x="2" y="18" dominant-baseline="ideographic">Real</tspan></text></g></g></g><g id="g-root-tx_rendimie_mb32g21k4udxn-stroke" data-item-order="0" transform="translate(535.27001953125, 344)"></g><g id="g-root-ic_cloc_18n6ale1k501e5-fill" data-item-order="0" transform="translate(223.27001953125, 380)"></g><g id="g-root-ic_cloc_18n6ale1k501e5-stroke" data-item-order="0" transform="translate(223.27001953125, 380)"><g id="ic_cloc_18n6ale1k501e5-stroke" fill="none" stroke-linecap="round" stroke-linejoin="round" stroke-miterlimit="4" stroke="#000000" stroke-width="1" stroke-opacity="1"><g><path d="M 45.007999 15.006001L 45.007999 19.006001L 47.007999 19.006001M 39.007999 18.006001C 39.008003 21.31971 41.69429 24.006001 45.007999 24.006001C 48.321709 24.006001 51.007999 21.31971 51.007999 18.006001C 51.007999 14.692291 48.321709 12.006001 45.007999 12.006001C 41.69429 12.006001 39.008003 14.692291 39.008003 18.006001ZM 25 30.966C 25 29.861431 25.895432 28.966 27 28.966C 28.10457 28.966 29 29.861431 29 30.966L 29 40.473999L 31 40.966L 34 31.334C 34.299187 30.39852 35.274155 29.856876 36.22649 30.097076C 37.178825 30.337276 37.780281 31.276527 37.600002 32.242001L 35 41.966C 37.040001 42.91 39.16 43.518002 38.622002 45.852001C 38.362 46.98 37.129997 53.852001 36.922001 55.006001L 24.695999 55.006001L 18.576 45.826C 16.146 42.110001 22.248001 40.826 25.007999 47.006001ZM 20 30C 19.99589 26.964767 21.948328 24.272711 24.834705 23.33383C 27.721081 22.394949 30.883657 23.423191 32.666 25.880001M 37.038002 25.076C 39.632965 25.472042 41.78978 27.283543 42.62809 29.771103C 43.4664 32.258659 42.845951 35.006104 41.019997 36.891998"></path></g></g></g><g id="g-root-ic_stop_908y021k52ubk-fill" data-item-order="0" transform="translate(439.27001953125, 380)"></g><g id="g-root-ic_stop_908y021k52ubk-stroke" data-item-order="0" transform="translate(439.27001953125, 380)"><g id="ic_stop_908y021k52ubk-stroke" fill="none" stroke-linecap="round" stroke-linejoin="round" stroke-miterlimit="4" stroke="#000000" stroke-width="1" stroke-opacity="1"><g><path d="M 15 38.001999C 15 48.495411 23.50659 57.001999 34 57.001999C 44.493412 57.001999 53 48.495411 53 38.001999C 53 27.508591 44.493412 19.001999 34 19.001999C 23.50659 19.001999 15 27.508591 15 38.001999ZM 28 11.002L 40 11.002M 47.433998 24.568001L 51 21.001999M 31 19.236L 31 11.002L 37 11.002L 37 19.237999M 50 20.001999L 52 22.001999M 34 38.001999L 25 29.002001"></path></g></g></g><g id="g-root-tx_retrasos_1ums7c21k4udc0-fill" data-item-order="0" transform="translate(16.2359619140625, 392)"><g id="tx_retrasos_1ums7c21k4udc0-fill-merged" stroke="none" fill="#000000" fill-opacity="1"><g><text style="font: 15px Roboto, sans-serif; white-space: pre;" transform="translate(169.03125, 37)" font-size="15px" font-family="Roboto, sans-serif"><tspan x="-157.03" y="-9" dominant-baseline="ideographic">Retrasos en soluciones </tspan><tspan x="-155.5" y="9" dominant-baseline="ideographic">remotas que afectan la </tspan><tspan x="-74.25" y="27" dominant-baseline="ideographic">inspección</tspan></text></g></g></g><g id="g-root-tx_retrasos_1ums7c21k4udc0-stroke" data-item-order="0" transform="translate(16.2359619140625, 392)"></g><g id="g-root-tx_mantener_qp15b61k4uewx-fill" data-item-order="0" transform="translate(535.27001953125, 392)"><g id="tx_mantener_qp15b61k4uewx-fill-merged" stroke="none" fill="#000000" fill-opacity="1"><g><text style="font: 15px Roboto, sans-serif; white-space: pre;" transform="translate(10, 37)" font-size="15px" font-family="Roboto, sans-serif"><tspan x="2" y="-9" dominant-baseline="ideographic">Mantener una </tspan><tspan x="2" y="9" dominant-baseline="ideographic">experiencia fluida en </tspan><tspan x="2" y="27" dominant-baseline="ideographic">aplicaciones WebGL</tspan></text></g></g></g><g id="g-root-tx_mantener_qp15b61k4uewx-stroke" data-item-order="0" transform="translate(535.27001953125, 392)"></g></g></g></svg>