<?xml version="1.0" encoding="utf-8" standalone="yes"?>
<!DOCTYPE svg PUBLIC "-//W3C//DTD SVG 1.1//EN" "http://www.w3.org/Graphics/SVG/1.1/DTD/svg11.dtd">
<svg style="fill:none;stroke:none;fill-rule:evenodd;clip-rule:evenodd;stroke-linecap:round;stroke-linejoin:round;stroke-miterlimit:1.5;" version="1.1" xmlns="http://www.w3.org/2000/svg" xmlns:xlink="http://www.w3.org/1999/xlink" width="656" height="845" viewBox="0 0 656 845"><style class="text-font-style fontImports" data-font-family="Roboto">@import url(https://fonts.googleapis.com/css2?family=Roboto:wght@400;700&amp;amp;display=block);</style><g id="items" style="isolation: isolate"><g id="blend" style="mix-blend-mode: normal"><g id="g-root-cp_1_lines-1_1448y521sqt0cl-fill" data-item-order="-403826" transform="translate(88.09375, 317.701171875)"></g><g id="g-root-cp_1_lines-1_1448y521sqt0cl-stroke" data-item-order="-403826" transform="translate(88.09375, 317.701171875)"><g id="cp_1_lines-1_1448y521sqt0cl-stroke" fill="none" stroke-linecap="round" stroke-linejoin="round" stroke-miterlimit="4" stroke="#000000" stroke-width="1" stroke-opacity="1"><g><path d="M 16 10L 14 10C 11.7909 10 10 11.7909 10 14L 10 16M 10 16L 10 45.596863M 135.8125 16L 135.8125 45.596863M 16 10L 129.8125 10M 129.8125 10L 131.8125 10C 134.0216 10 135.8125 11.7909 135.8125 14L 135.8125 16M 135.8125 45.596863L 135.8125 46.283363C 135.8125 49.080063 132.938156 51.154064 130.032654 50.592762C 119.946495 48.644463 97.815224 45.830463 72.90625 51.905964C 45.533833 58.582264 21.51556 54.523861 13.149602 52.675861C 11.259078 52.258263 10 50.655064 10 48.824062L 10 45.596863"></path></g></g></g><g id="g-root-cp_2_lines-2_hx5fiu1sqt2q6-fill" data-item-order="-403782" transform="translate(285.90625, 98)"></g><g id="g-root-cp_2_lines-2_hx5fiu1sqt2q6-stroke" data-item-order="-403782" transform="translate(285.90625, 98)"><g id="cp_2_lines-2_hx5fiu1sqt2q6-stroke" fill="none" stroke-linecap="round" stroke-linejoin="round" stroke-miterlimit="4" stroke="#000000" stroke-width="1" stroke-opacity="1"><g><path d="M 10.000283 18.000304C 9.999717 27.777685 10.000094 38.349632 10.000283 47.800003M 134.6875 47.800003C 134.6875 38.349632 134.6875 29.03628 134.6875 18"></path></g></g><g id="cp_2_lines-2_hx5fiu1sqt2q6-stroke" fill="none" stroke-linecap="round" stroke-linejoin="round" stroke-miterlimit="4" stroke="#000000" stroke-width="1" stroke-opacity="1"><g><path d="M 134.6875 18C 134.6875 13.5817 106.775253 10 72.34375 10C 37.912241 10 10 13.5817 10 18M 134.6875 18.000001C 134.6875 22.4183 106.775253 26 72.34375 26C 37.912241 26 10 22.4183 10 18M 134.6875 47.800003C 134.6875 52.218304 106.775253 55.800003 72.34375 55.800003C 37.912241 55.800003 10 52.218304 10 47.800003"></path></g></g></g><g id="g-root-cp_3_lines-3_6hw461sqt1xj-fill" data-item-order="-403744" transform="translate(285.90625, 190.201171875)"></g><g id="g-root-cp_3_lines-3_6hw461sqt1xj-stroke" data-item-order="-403744" transform="translate(285.90625, 190.201171875)"><g id="cp_3_lines-3_6hw461sqt1xj-stroke" fill="none" stroke-linecap="round" stroke-linejoin="round" stroke-miterlimit="4" stroke="#000000" stroke-width="1" stroke-opacity="1"><g><path d="M 10.000279 18.000414C 9.999721 31.320246 10.000093 45.722523 10.000279 58.596863M 132.953125 58.596863C 132.953125 45.722523 132.953125 33.034842 132.953125 18"></path></g></g><g id="cp_3_lines-3_6hw461sqt1xj-stroke" fill="none" stroke-linecap="round" stroke-linejoin="round" stroke-miterlimit="4" stroke="#000000" stroke-width="1" stroke-opacity="1"><g><path d="M 132.953125 18C 132.953125 13.5817 105.429131 10 71.476563 10C 37.523989 10 10 13.5817 10 18M 132.953125 18.000001C 132.953125 22.4183 105.429131 26 71.476563 26C 37.523989 26 10 22.4183 10 18M 132.953125 58.596863C 132.953125 63.015163 105.429131 66.596863 71.476563 66.596863C 37.523989 66.596863 10 63.015163 10 58.596863"></path></g></g></g><g id="g-root-cp_4_lines-4_18lbefq1sqt1qg-fill" data-item-order="-403706" transform="translate(285.90625, 434.201171875)"></g><g id="g-root-cp_4_lines-4_18lbefq1sqt1qg-stroke" data-item-order="-403706" transform="translate(285.90625, 434.201171875)"><g id="cp_4_lines-4_18lbefq1sqt1qg-stroke" fill="none" stroke-linecap="round" stroke-linejoin="round" stroke-miterlimit="4" stroke="#000000" stroke-width="1" stroke-opacity="1"><g><path d="M 10.000292 18.000414C 9.999708 31.320246 10.000097 45.722523 10.000292 58.596863M 138.34375 58.596863C 138.34375 45.722523 138.34375 33.034842 138.34375 18"></path></g></g><g id="cp_4_lines-4_18lbefq1sqt1qg-stroke" fill="none" stroke-linecap="round" stroke-linejoin="round" stroke-miterlimit="4" stroke="#000000" stroke-width="1" stroke-opacity="1"><g><path d="M 138.34375 18C 138.34375 13.5817 109.613029 10 74.171875 10C 38.730721 10 10 13.5817 10 18M 138.34375 18.000001C 138.34375 22.4183 109.613029 26 74.171875 26C 38.730721 26 10 22.4183 10 18M 138.34375 58.596863C 138.34375 63.015163 109.613029 66.596863 74.171875 66.596863C 38.730721 66.596863 10 63.015163 10 58.596863"></path></g></g></g><g id="g-root-cp_5_lines-5_qunv121sqt0xt-fill" data-item-order="-403668" transform="translate(285.90625, 683.599609375)"></g><g id="g-root-cp_5_lines-5_qunv121sqt0xt-stroke" data-item-order="-403668" transform="translate(285.90625, 683.599609375)"><g id="cp_5_lines-5_qunv121sqt0xt-stroke" fill="none" stroke-linecap="round" stroke-linejoin="round" stroke-miterlimit="4" stroke="#000000" stroke-width="1" stroke-opacity="1"><g><path d="M 10.000282 18.000525C 9.999718 34.862812 10.000094 53.095421 10.000282 69.393742M 134.171875 69.393742C 134.171875 53.095421 134.171875 37.033411 134.171875 18"></path></g></g><g id="cp_5_lines-5_qunv121sqt0xt-stroke" fill="none" stroke-linecap="round" stroke-linejoin="round" stroke-miterlimit="4" stroke="#000000" stroke-width="1" stroke-opacity="1"><g><path d="M 134.171875 18C 134.171875 13.5817 106.375053 10 72.085938 10C 37.796814 10 10 13.5817 10 18M 134.171875 18.000001C 134.171875 22.4183 106.375053 26 72.085938 26C 37.796814 26 10 22.4183 10 18M 134.171875 69.393738C 134.171875 73.812038 106.375053 77.393738 72.085938 77.393738C 37.796814 77.393738 10 73.812038 10 69.393738"></path></g></g></g><g id="g-root-cp_6_lines-6_8dbdi1sqt0xu-fill" data-item-order="-403630" transform="translate(486.25, 106.5)"></g><g id="g-root-cp_6_lines-6_8dbdi1sqt0xu-stroke" data-item-order="-403630" transform="translate(486.25, 106.5)"><g id="cp_6_lines-6_8dbdi1sqt0xu-stroke" fill="none" stroke-linecap="round" stroke-linejoin="round" stroke-miterlimit="4" stroke="#000000" stroke-width="1" stroke-opacity="1"><g><path d="M 16 10L 14 10C 11.7909 10 10 11.7909 10 14L 10 16M 10 16L 10 32.800003M 66.953125 16L 66.953125 32.800003M 16 10L 60.953125 10M 16 38.800003L 14 38.800003C 11.7909 38.800003 10 37.009103 10 34.800003L 10 32.800003M 60.953125 10L 62.953125 10C 65.162225 10 66.953125 11.7909 66.953125 14L 66.953125 16M 60.953125 38.800003L 16 38.800003M 60.953125 38.800003L 62.953125 38.800003C 65.162225 38.800003 66.953125 37.009103 66.953125 34.800003L 66.953125 32.800003"></path></g></g></g><g id="g-root-cp_7_lines-7_18n6tp21sqt0qr-fill" data-item-order="-403580" transform="translate(486.25, 155.30078125)"></g><g id="g-root-cp_7_lines-7_18n6tp21sqt0qr-stroke" data-item-order="-403580" transform="translate(486.25, 155.30078125)"><g id="cp_7_lines-7_18n6tp21sqt0qr-stroke" fill="none" stroke-linecap="round" stroke-linejoin="round" stroke-miterlimit="4" stroke="#000000" stroke-width="1" stroke-opacity="1"><g><path d="M 16 10L 14 10C 11.7909 10 10 11.7909 10 14L 10 16M 10 16L 10 32.800003M 55.78125 16L 55.78125 32.800003M 16 10L 49.78125 10M 16 38.800003L 14 38.800003C 11.7909 38.800003 10 37.009103 10 34.800003L 10 32.800003M 49.78125 10L 51.78125 10C 53.99035 10 55.78125 11.7909 55.78125 14L 55.78125 16M 49.78125 38.800003L 16 38.800003M 49.78125 38.800003L 51.78125 38.800003C 53.99035 38.800003 55.78125 37.009103 55.78125 34.800003L 55.78125 32.800003"></path></g></g></g><g id="g-root-cp_8_lines-8_mg3b2u1sqt34c-fill" data-item-order="-403530" transform="translate(486.25, 204.099609375)"></g><g id="g-root-cp_8_lines-8_mg3b2u1sqt34c-stroke" data-item-order="-403530" transform="translate(486.25, 204.099609375)"><g id="cp_8_lines-8_mg3b2u1sqt34c-stroke" fill="none" stroke-linecap="round" stroke-linejoin="round" stroke-miterlimit="4" stroke="#000000" stroke-width="1" stroke-opacity="1"><g><path d="M 16 10L 14 10C 11.7909 10 10 11.7909 10 14L 10 16M 10 16L 10 32.800003M 126.65625 16L 126.65625 32.800003M 16 10L 120.65625 10M 16 38.800003L 14 38.800003C 11.7909 38.800003 10 37.009103 10 34.800003L 10 32.800003M 120.65625 10L 122.65625 10C 124.86535 10 126.65625 11.7909 126.65625 14L 126.65625 16M 120.65625 38.800003L 16 38.800003M 120.65625 38.800003L 122.65625 38.800003C 124.86535 38.800003 126.65625 37.009103 126.65625 34.800003L 126.65625 32.800003"></path></g></g></g><g id="g-root-cp_9_lines-9_1uuwtee1sqt2x9-fill" data-item-order="-403480" transform="translate(486.25, 252.900390625)"></g><g id="g-root-cp_9_lines-9_1uuwtee1sqt2x9-stroke" data-item-order="-403480" transform="translate(486.25, 252.900390625)"><g id="cp_9_lines-9_1uuwtee1sqt2x9-stroke" fill="none" stroke-linecap="round" stroke-linejoin="round" stroke-miterlimit="4" stroke="#000000" stroke-width="1" stroke-opacity="1"><g><path d="M 16 10L 14 10C 11.7909 10 10 11.7909 10 14L 10 16M 10 16L 10 32.799988M 65.78125 16L 65.78125 32.799988M 16 10L 59.78125 10M 16 38.799988L 14 38.799988C 11.7909 38.799988 10 37.009088 10 34.799988L 10 32.799988M 59.78125 10L 61.78125 10C 63.99035 10 65.78125 11.7909 65.78125 14L 65.78125 16M 59.78125 38.799988L 16 38.799988M 59.78125 38.799988L 61.78125 38.799988C 63.99035 38.799988 65.78125 37.009088 65.78125 34.799988L 65.78125 32.799988"></path></g></g></g><g id="g-root-cp_10_lines-10_1cu9oly1squgp2-fill" data-item-order="-403430" transform="translate(486.25, 301.69921875)"></g><g id="g-root-cp_10_lines-10_1cu9oly1squgp2-stroke" data-item-order="-403430" transform="translate(486.25, 301.69921875)"><g id="cp_10_lines-10_1cu9oly1squgp2-stroke" fill="none" stroke-linecap="round" stroke-linejoin="round" stroke-miterlimit="4" stroke="#000000" stroke-width="1" stroke-opacity="1"><g><path d="M 16 10L 14 10C 11.7909 10 10 11.7909 10 14L 10 16M 10 16L 10 32.799988M 58.15625 16L 58.15625 32.799988M 16 10L 52.15625 10M 16 38.799988L 14 38.799988C 11.7909 38.799988 10 37.009088 10 34.799988L 10 32.799988M 52.15625 10L 54.15625 10C 56.36535 10 58.15625 11.7909 58.15625 14L 58.15625 16M 52.15625 38.799988L 16 38.799988M 52.15625 38.799988L 54.15625 38.799988C 56.36535 38.799988 58.15625 37.009088 58.15625 34.799988L 58.15625 32.799988"></path></g></g></g><g id="g-root-cp_11_lines-11_qnsn2u1squfwv-fill" data-item-order="-403380" transform="translate(486.25, 350.5)"></g><g id="g-root-cp_11_lines-11_qnsn2u1squfwv-stroke" data-item-order="-403380" transform="translate(486.25, 350.5)"><g id="cp_11_lines-11_qnsn2u1squfwv-stroke" fill="none" stroke-linecap="round" stroke-linejoin="round" stroke-miterlimit="4" stroke="#000000" stroke-width="1" stroke-opacity="1"><g><path d="M 16 10L 14 10C 11.7909 10 10 11.7909 10 14L 10 16M 10 16L 10 32.799988M 80.875 16L 80.875 32.799988M 16 10L 74.875 10M 16 38.799988L 14 38.799988C 11.7909 38.799988 10 37.009088 10 34.799988L 10 32.799988M 74.875 10L 76.875 10C 79.0841 10 80.875 11.7909 80.875 14L 80.875 16M 74.875 38.799988L 16 38.799988M 74.875 38.799988L 76.875 38.799988C 79.0841 38.799988 80.875 37.009088 80.875 34.799988L 80.875 32.799988"></path></g></g></g><g id="g-root-cp_12_lines-12_8x53o61squf48-fill" data-item-order="-403330" transform="translate(486.25, 399.30078125)"></g><g id="g-root-cp_12_lines-12_8x53o61squf48-stroke" data-item-order="-403330" transform="translate(486.25, 399.30078125)"><g id="cp_12_lines-12_8x53o61squf48-stroke" fill="none" stroke-linecap="round" stroke-linejoin="round" stroke-miterlimit="4" stroke="#000000" stroke-width="1" stroke-opacity="1"><g><path d="M 16 10L 14 10C 11.7909 10 10 11.7909 10 14L 10 16M 10 16L 10 32.800018M 68.859375 16L 68.859375 32.800018M 16 10L 62.859375 10M 16 38.800018L 14 38.800018C 11.7909 38.800018 10 37.009118 10 34.800018L 10 32.800018M 62.859375 10L 64.859375 10C 67.068475 10 68.859375 11.7909 68.859375 14L 68.859375 16M 62.859375 38.800018L 16 38.800018M 62.859375 38.800018L 64.859375 38.800018C 67.068475 38.800018 68.859375 37.009118 68.859375 34.800018L 68.859375 32.800018"></path></g></g></g><g id="g-root-cp_13_lines-13_1hbylzq1squex5-fill" data-item-order="-403280" transform="translate(486.25, 448.099609375)"></g><g id="g-root-cp_13_lines-13_1hbylzq1squex5-stroke" data-item-order="-403280" transform="translate(486.25, 448.099609375)"><g id="cp_13_lines-13_1hbylzq1squex5-stroke" fill="none" stroke-linecap="round" stroke-linejoin="round" stroke-miterlimit="4" stroke="#000000" stroke-width="1" stroke-opacity="1"><g><path d="M 16 10L 14 10C 11.7909 10 10 11.7909 10 14L 10 16M 10 16L 10 32.799988M 52 16L 52 32.799988M 16 10L 46 10M 16 38.799988L 14 38.799988C 11.7909 38.799988 10 37.009088 10 34.799988L 10 32.799988M 46 10L 48 10C 50.2091 10 52 11.7909 52 14L 52 16M 46 38.799988L 16 38.799988M 46 38.799988L 48 38.799988C 50.2091 38.799988 52 37.009088 52 34.799988L 52 32.799988"></path></g></g></g><g id="g-root-cp_14_lines-14_zkolhy1squhaa-fill" data-item-order="-403230" transform="translate(486.25, 496.900390625)"></g><g id="g-root-cp_14_lines-14_zkolhy1squhaa-stroke" data-item-order="-403230" transform="translate(486.25, 496.900390625)"><g id="cp_14_lines-14_zkolhy1squhaa-stroke" fill="none" stroke-linecap="round" stroke-linejoin="round" stroke-miterlimit="4" stroke="#000000" stroke-width="1" stroke-opacity="1"><g><path d="M 16 10L 14 10C 11.7909 10 10 11.7909 10 14L 10 16M 10 16L 10 32.799988M 53.96875 16L 53.96875 32.799988M 16 10L 47.96875 10M 16 38.799988L 14 38.799988C 11.7909 38.799988 10 37.009088 10 34.799988L 10 32.799988M 47.96875 10L 49.96875 10C 52.17785 10 53.96875 11.7909 53.96875 14L 53.96875 16M 47.96875 38.799988L 16 38.799988M 47.96875 38.799988L 49.96875 38.799988C 52.17785 38.799988 53.96875 37.009088 53.96875 34.799988L 53.96875 32.799988"></path></g></g></g><g id="g-root-cp_15_lines-15_de7jyu1squgi3-fill" data-item-order="-403180" transform="translate(486.25, 545.69921875)"></g><g id="g-root-cp_15_lines-15_de7jyu1squgi3-stroke" data-item-order="-403180" transform="translate(486.25, 545.69921875)"><g id="cp_15_lines-15_de7jyu1squgi3-stroke" fill="none" stroke-linecap="round" stroke-linejoin="round" stroke-miterlimit="4" stroke="#000000" stroke-width="1" stroke-opacity="1"><g><path d="M 16 10L 14 10C 11.7909 10 10 11.7909 10 14L 10 16M 10 16L 10 32.799988M 60.15625 16L 60.15625 32.799988M 16 10L 54.15625 10M 16 38.799988L 14 38.799988C 11.7909 38.799988 10 37.009088 10 34.799988L 10 32.799988M 54.15625 10L 56.15625 10C 58.36535 10 60.15625 11.7909 60.15625 14L 60.15625 16M 54.15625 38.799988L 16 38.799988M 54.15625 38.799988L 56.15625 38.799988C 58.36535 38.799988 60.15625 37.009088 60.15625 34.799988L 60.15625 32.799988"></path></g></g></g><g id="g-root-cp_16_lines-16_1lt12ae1squgb0-fill" data-item-order="-403130" transform="translate(486.25, 594.5)"></g><g id="g-root-cp_16_lines-16_1lt12ae1squgb0-stroke" data-item-order="-403130" transform="translate(486.25, 594.5)"><g id="cp_16_lines-16_1lt12ae1squgb0-stroke" fill="none" stroke-linecap="round" stroke-linejoin="round" stroke-miterlimit="4" stroke="#000000" stroke-width="1" stroke-opacity="1"><g><path d="M 16 10L 14 10C 11.7909 10 10 11.7909 10 14L 10 16M 10 16L 10 43.596863M 139.375 16L 139.375 43.596863M 16 10L 133.375 10M 16 49.596863L 14 49.596863C 11.7909 49.596863 10 47.805963 10 45.596863L 10 43.596863M 133.375 10L 135.375 10C 137.5841 10 139.375 11.7909 139.375 14L 139.375 16M 133.375 49.596863L 16 49.596863M 133.375 49.596863L 135.375 49.596863C 137.5841 49.596863 139.375 47.805963 139.375 45.596863L 139.375 43.596863"></path></g></g></g><g id="g-root-cp_17_lines-17_142divq1squfid-fill" data-item-order="-403080" transform="translate(486.25, 654.09765625)"></g><g id="g-root-cp_17_lines-17_142divq1squfid-stroke" data-item-order="-403080" transform="translate(486.25, 654.09765625)"><g id="cp_17_lines-17_142divq1squfid-stroke" fill="none" stroke-linecap="round" stroke-linejoin="round" stroke-miterlimit="4" stroke="#000000" stroke-width="1" stroke-opacity="1"><g><path d="M 16 10L 14 10C 11.7909 10 10 11.7909 10 14L 10 16M 10 16L 10 32.799988M 52 16L 52 32.799988M 16 10L 46 10M 16 38.799988L 14 38.799988C 11.7909 38.799988 10 37.009088 10 34.799988L 10 32.799988M 46 10L 48 10C 50.2091 10 52 11.7909 52 14L 52 16M 46 38.799988L 16 38.799988M 46 38.799988L 48 38.799988C 50.2091 38.799988 52 37.009088 52 34.799988L 52 32.799988"></path></g></g></g><g id="g-root-cp_18_lines-18_hvwhcm1squeq6-fill" data-item-order="-403030" transform="translate(486.25, 702.896484375)"></g><g id="g-root-cp_18_lines-18_hvwhcm1squeq6-stroke" data-item-order="-403030" transform="translate(486.25, 702.896484375)"><g id="cp_18_lines-18_hvwhcm1squeq6-stroke" fill="none" stroke-linecap="round" stroke-linejoin="round" stroke-miterlimit="4" stroke="#000000" stroke-width="1" stroke-opacity="1"><g><path d="M 16 10L 14 10C 11.7909 10 10 11.7909 10 14L 10 16M 10 16L 10 32.799988M 64.09375 16L 64.09375 32.799988M 16 10L 58.09375 10M 16 38.799988L 14 38.799988C 11.7909 38.799988 10 37.009088 10 34.799988L 10 32.799988M 58.09375 10L 60.09375 10C 62.30285 10 64.09375 11.7909 64.09375 14L 64.09375 16M 58.09375 38.799988L 16 38.799988M 58.09375 38.799988L 60.09375 38.799988C 62.30285 38.799988 64.09375 37.009088 64.09375 34.799988L 64.09375 32.799988"></path></g></g></g><g id="g-root-cp_19_lines-19_4mguu1squh3b-fill" data-item-order="-402980" transform="translate(486.25, 751.697265625)"></g><g id="g-root-cp_19_lines-19_4mguu1squh3b-stroke" data-item-order="-402980" transform="translate(486.25, 751.697265625)"><g id="cp_19_lines-19_4mguu1squh3b-stroke" fill="none" stroke-linecap="round" stroke-linejoin="round" stroke-miterlimit="4" stroke="#000000" stroke-width="1" stroke-opacity="1"><g><path d="M 16 10L 14 10C 11.7909 10 10 11.7909 10 14L 10 16M 10 16L 10 32.799988M 52.90625 16L 52.90625 32.799988M 16 10L 46.90625 10M 16 38.799988L 14 38.799988C 11.7909 38.799988 10 37.009088 10 34.799988L 10 32.799988M 46.90625 10L 48.90625 10C 51.11535 10 52.90625 11.7909 52.90625 14L 52.90625 16M 46.90625 38.799988L 16 38.799988M 46.90625 38.799988L 48.90625 38.799988C 51.11535 38.799988 52.90625 37.009088 52.90625 34.799988L 52.90625 32.799988"></path></g></g></g><g id="g-root-he_dhbxee1squhoj-fill" data-item-order="-402930" transform="translate(213.90625, 120.900390625)"></g><g id="g-root-he_dhbxee1squhoj-stroke" data-item-order="-402930" transform="translate(213.90625, 120.900390625)"><g id="he_dhbxee1squhoj-stroke" fill="none" stroke-linecap="round" stroke-linejoin="round" stroke-miterlimit="4" stroke="#000000" stroke-width="1" stroke-opacity="1"><style>.fillAsStrokeColor-mk-1hgykug1yafbwt { fill:#000000; }</style><g><path d="M 10 229.6L 34 229.6C 40.63 229.6 46 224.23 46 217.6L 46 22C 46 15.37 51.37 10 58 10L 79.17 10"></path><path d="M 80.6 10L 75.6 12.8L 75.6 7.2Z" stroke-dasharray="none" class="fillAsStrokeColor-mk-1hgykug1yafbwt" fill="#000000"></path></g></g></g><g id="g-root-he_4mbe8m1squfbh-fill" data-item-order="-402928" transform="translate(213.90625, 218.5)"></g><g id="g-root-he_4mbe8m1squfbh-stroke" data-item-order="-402928" transform="translate(213.90625, 218.5)"><g id="he_4mbe8m1squfbh-stroke" fill="none" stroke-linecap="round" stroke-linejoin="round" stroke-miterlimit="4" stroke="#000000" stroke-width="1" stroke-opacity="1"><style>.fillAsStrokeColor-mk-1uqjnyg1yafbb6 { fill:#000000; }</style><g><path d="M 10 132L 34 132C 40.63 132 46 126.63 46 120L 46 22C 46 15.37 51.37 10 58 10L 79.17 10"></path><path d="M 80.6 10L 75.6 12.8L 75.6 7.2Z" stroke-dasharray="none" class="fillAsStrokeColor-mk-1uqjnyg1yafbb6" fill="#000000"></path></g></g></g><g id="g-root-he_6hw461squg3r-fill" data-item-order="-402926" transform="translate(213.90625, 340.5)"></g><g id="g-root-he_6hw461squg3r-stroke" data-item-order="-402926" transform="translate(213.90625, 340.5)"><g id="he_6hw461squg3r-stroke" fill="none" stroke-linecap="round" stroke-linejoin="round" stroke-miterlimit="4" stroke="#000000" stroke-width="1" stroke-opacity="1"><style>.fillAsStrokeColor-mk-1luwnpk1yafc3w { fill:#000000; }</style><g><path d="M 10 10L 34 10C 40.63 10 46 15.37 46 22L 46 120C 46 126.63 51.37 132 58 132L 79.17 132"></path><path d="M 80.6 132L 75.6 134.8L 75.6 129.2Z" stroke-dasharray="none" class="fillAsStrokeColor-mk-1luwnpk1yafc3w" fill="#000000"></path></g></g></g><g id="g-root-he_1ursfyu1squgox-fill" data-item-order="-402924" transform="translate(213.90625, 340.5)"></g><g id="g-root-he_1ursfyu1squgox-stroke" data-item-order="-402924" transform="translate(213.90625, 340.5)"><g id="he_1ursfyu1squgox-stroke" fill="none" stroke-linecap="round" stroke-linejoin="round" stroke-miterlimit="4" stroke="#000000" stroke-width="1" stroke-opacity="1"><style>.fillAsStrokeColor-mk-v7d5vs1yaf9xm { fill:#000000; }</style><g><path d="M 10 10L 34 10C 40.63 10 46 15.37 46 22L 46 374.8C 46 381.42 51.37 386.8 58 386.8L 79.17 386.8"></path><path d="M 80.6 386.8L 75.6 389.6L 75.6 384Z" stroke-dasharray="none" class="fillAsStrokeColor-mk-v7d5vs1yaf9xm" fill="#000000"></path></g></g></g><g id="g-root-he_1lw5fpy1squhhn-fill" data-item-order="-402922" transform="translate(410.59375, 120.900390625)"></g><g id="g-root-he_1lw5fpy1squhhn-stroke" data-item-order="-402922" transform="translate(410.59375, 120.900390625)"><g id="he_1lw5fpy1squhhn-stroke" fill="none" stroke-linecap="round" stroke-linejoin="round" stroke-miterlimit="4" stroke="#000000" stroke-width="1" stroke-opacity="1"><style>.fillAsStrokeColor-mk-1lrsaa01yafawz { fill:#000000; }</style><g><path d="M 10 10L 82.83 10"></path><path d="M 84.2 10L 79.3 12.8L 79.3 7.2Z" stroke-dasharray="none" class="fillAsStrokeColor-mk-1lrsaa01yafawz" fill="#000000"></path></g></g></g><g id="g-root-he_1hgyeom1squf45-fill" data-item-order="-402920" transform="translate(408.859375, 169.69921875)"></g><g id="g-root-he_1hgyeom1squf45-stroke" data-item-order="-402920" transform="translate(408.859375, 169.69921875)"><g id="he_1hgyeom1squf45-stroke" fill="none" stroke-linecap="round" stroke-linejoin="round" stroke-miterlimit="4" stroke="#000000" stroke-width="1" stroke-opacity="1"><style>.fillAsStrokeColor-mk-8x59u01yafb4d { fill:#000000; }</style><g><path d="M 10 58.8L 39.39 58.8C 46.02 58.8 51.39 53.43 51.39 46.8L 51.39 22C 51.39 15.37 56.76 10 63.39 10L 84.56 10"></path><path d="M 86 10L 81 12.8L 81 7.2Z" stroke-dasharray="none" class="fillAsStrokeColor-mk-8x59u01yafb4d" fill="#000000"></path></g></g></g><g id="g-root-he_18lbefq1squfwv-fill" data-item-order="-402918" transform="translate(408.859375, 218.5)"></g><g id="g-root-he_18lbefq1squfwv-stroke" data-item-order="-402918" transform="translate(408.859375, 218.5)"><g id="he_18lbefq1squfwv-stroke" fill="none" stroke-linecap="round" stroke-linejoin="round" stroke-miterlimit="4" stroke="#000000" stroke-width="1" stroke-opacity="1"><style>.fillAsStrokeColor-mk-9bew1yaf9qn { fill:#000000; }</style><g><path d="M 10 10L 84.56 10"></path><path d="M 86 10L 81 12.8L 81 7.2Z" stroke-dasharray="none" class="fillAsStrokeColor-mk-9bew1yaf9qn" fill="#000000"></path></g></g></g><g id="g-root-he_1d14wk61squfwh-fill" data-item-order="-402916" transform="translate(408.859375, 218.5)"></g><g id="g-root-he_1d14wk61squfwh-stroke" data-item-order="-402916" transform="translate(408.859375, 218.5)"><g id="he_1d14wk61squfwh-stroke" fill="none" stroke-linecap="round" stroke-linejoin="round" stroke-miterlimit="4" stroke="#000000" stroke-width="1" stroke-opacity="1"><style>.fillAsStrokeColor-mk-zjfthk1yafb47 { fill:#000000; }</style><g><path d="M 10 10L 39.39 10C 46.02 10 51.39 15.37 51.39 22L 51.39 46.8C 51.39 53.43 56.76 58.8 63.39 58.8L 84.56 58.8"></path><path d="M 86 58.8L 81 61.6L 81 56Z" stroke-dasharray="none" class="fillAsStrokeColor-mk-zjfthk1yafb47" fill="#000000"></path></g></g></g><g id="g-root-he_145hwba1squgp7-fill" data-item-order="-402914" transform="translate(414.25, 316.099609375)"></g><g id="g-root-he_145hwba1squgp7-stroke" data-item-order="-402914" transform="translate(414.25, 316.099609375)"><g id="he_145hwba1squgp7-stroke" fill="none" stroke-linecap="round" stroke-linejoin="round" stroke-miterlimit="4" stroke="#000000" stroke-width="1" stroke-opacity="1"><style>.fillAsStrokeColor-mk-147dhqg1yadwqw { fill:#000000; }</style><g><path d="M 10 156.4L 34 156.4C 40.63 156.4 46 151.03 46 144.4L 46 22C 46 15.37 51.37 10 58 10L 79.17 10"></path><path d="M 80.6 10L 75.6 12.8L 75.6 7.2Z" stroke-dasharray="none" class="fillAsStrokeColor-mk-147dhqg1yadwqw" fill="#000000"></path></g></g></g><g id="g-root-he_zpoe6u1squhhh-fill" data-item-order="-402912" transform="translate(414.25, 364.900390625)"></g><g id="g-root-he_zpoe6u1squhhh-stroke" data-item-order="-402912" transform="translate(414.25, 364.900390625)"><g id="he_zpoe6u1squhhh-stroke" fill="none" stroke-linecap="round" stroke-linejoin="round" stroke-miterlimit="4" stroke="#000000" stroke-width="1" stroke-opacity="1"><style>.fillAsStrokeColor-mk-1haptzc1yagpae { fill:#000000; }</style><g><path d="M 10 107.6L 34 107.6C 40.63 107.6 46 102.23 46 95.6L 46 22C 46 15.37 51.37 10 58 10L 79.17 10"></path><path d="M 80.6 10L 75.6 12.8L 75.6 7.2Z" stroke-dasharray="none" class="fillAsStrokeColor-mk-1haptzc1yagpae" fill="#000000"></path></g></g></g><g id="g-root-he_meucwm1squfwn-fill" data-item-order="-402910" transform="translate(414.25, 413.69921875)"></g><g id="g-root-he_meucwm1squfwn-stroke" data-item-order="-402910" transform="translate(414.25, 413.69921875)"><g id="he_meucwm1squfwn-stroke" fill="none" stroke-linecap="round" stroke-linejoin="round" stroke-miterlimit="4" stroke="#000000" stroke-width="1" stroke-opacity="1"><style>.fillAsStrokeColor-mk-4o6zns1yafbwo { fill:#000000; }</style><g><path d="M 10 58.8L 34 58.8C 40.63 58.8 46 53.43 46 46.8L 46 22C 46 15.37 51.37 10 58 10L 79.17 10"></path><path d="M 80.6 10L 75.6 12.8L 75.6 7.2Z" stroke-dasharray="none" class="fillAsStrokeColor-mk-4o6zns1yafbwo" fill="#000000"></path></g></g></g><g id="g-root-he_meucwm1squfwp-fill" data-item-order="-402908" transform="translate(414.25, 462.5)"></g><g id="g-root-he_meucwm1squfwp-stroke" data-item-order="-402908" transform="translate(414.25, 462.5)"><g id="he_meucwm1squfwp-stroke" fill="none" stroke-linecap="round" stroke-linejoin="round" stroke-miterlimit="4" stroke="#000000" stroke-width="1" stroke-opacity="1"><style>.fillAsStrokeColor-mk-8zymg1yaf9j5 { fill:#000000; }</style><g><path d="M 10 10L 79.17 10"></path><path d="M 80.6 10L 75.6 12.8L 75.6 7.2Z" stroke-dasharray="none" class="fillAsStrokeColor-mk-8zymg1yaf9j5" fill="#000000"></path></g></g></g><g id="g-root-he_93duja1squhhn-fill" data-item-order="-402906" transform="translate(414.25, 462.5)"></g><g id="g-root-he_93duja1squhhn-stroke" data-item-order="-402906" transform="translate(414.25, 462.5)"><g id="he_93duja1squhhn-stroke" fill="none" stroke-linecap="round" stroke-linejoin="round" stroke-miterlimit="4" stroke="#000000" stroke-width="1" stroke-opacity="1"><style>.fillAsStrokeColor-mk-dhyknc1yafbbi { fill:#000000; }</style><g><path d="M 10 10L 34 10C 40.63 10 46 15.37 46 22L 46 46.8C 46 53.43 51.37 58.8 58 58.8L 79.17 58.8"></path><path d="M 80.6 58.8L 75.6 61.6L 75.6 56Z" stroke-dasharray="none" class="fillAsStrokeColor-mk-dhyknc1yafbbi" fill="#000000"></path></g></g></g><g id="g-root-he_93duja1squhhp-fill" data-item-order="-402904" transform="translate(414.25, 462.5)"></g><g id="g-root-he_93duja1squhhp-stroke" data-item-order="-402904" transform="translate(414.25, 462.5)"><g id="he_93duja1squhhp-stroke" fill="none" stroke-linecap="round" stroke-linejoin="round" stroke-miterlimit="4" stroke="#000000" stroke-width="1" stroke-opacity="1"><style>.fillAsStrokeColor-mk-9252iw1yafc3r { fill:#000000; }</style><g><path d="M 10 10L 34 10C 40.63 10 46 15.37 46 22L 46 95.6C 46 102.23 51.37 107.6 58 107.6L 79.17 107.6"></path><path d="M 80.6 107.6L 75.6 110.4L 75.6 104.8Z" stroke-dasharray="none" class="fillAsStrokeColor-mk-9252iw1yafc3r" fill="#000000"></path></g></g></g><g id="g-root-he_4o6thy1squf47-fill" data-item-order="-402902" transform="translate(414.25, 462.5)"></g><g id="g-root-he_4o6thy1squf47-stroke" data-item-order="-402902" transform="translate(414.25, 462.5)"><g id="he_4o6thy1squf47-stroke" fill="none" stroke-linecap="round" stroke-linejoin="round" stroke-miterlimit="4" stroke="#000000" stroke-width="1" stroke-opacity="1"><style>.fillAsStrokeColor-mk-1uqjnyg1yafbb7 { fill:#000000; }</style><g><path d="M 10 10L 34 10C 40.63 10 46 15.37 46 22L 46 149.8C 46 156.43 51.37 161.8 58 161.8L 79.17 161.8"></path><path d="M 80.6 161.8L 75.6 164.6L 75.6 159Z" stroke-dasharray="none" class="fillAsStrokeColor-mk-1uqjnyg1yafbb7" fill="#000000"></path></g></g></g><g id="g-root-he_8dbdi1squfwh-fill" data-item-order="-402900" transform="translate(410.078125, 668.49609375)"></g><g id="g-root-he_8dbdi1squfwh-stroke" data-item-order="-402900" transform="translate(410.078125, 668.49609375)"><g id="he_8dbdi1squfwh-stroke" fill="none" stroke-linecap="round" stroke-linejoin="round" stroke-miterlimit="4" stroke="#000000" stroke-width="1" stroke-opacity="1"><style>.fillAsStrokeColor-mk-1hfpmo81yaf9qd { fill:#000000; }</style><g><path d="M 10 58.8L 38.17 58.8C 44.8 58.8 50.17 53.43 50.17 46.8L 50.17 22C 50.17 15.37 55.54 10 62.17 10L 83.34 10"></path><path d="M 84.8 10L 79.8 12.8L 79.8 7.2Z" stroke-dasharray="none" class="fillAsStrokeColor-mk-1hfpmo81yaf9qd" fill="#000000"></path></g></g></g><g id="g-root-he_1qdud3q1squgi3-fill" data-item-order="-402898" transform="translate(410.078125, 717.296875)"></g><g id="g-root-he_1qdud3q1squgi3-stroke" data-item-order="-402898" transform="translate(410.078125, 717.296875)"><g id="he_1qdud3q1squgi3-stroke" fill="none" stroke-linecap="round" stroke-linejoin="round" stroke-miterlimit="4" stroke="#000000" stroke-width="1" stroke-opacity="1"><style>.fillAsStrokeColor-mk-1q8uqko1yafcaz { fill:#000000; }</style><g><path d="M 10 10L 83.34 10"></path><path d="M 84.8 10L 79.8 12.8L 79.8 7.2Z" stroke-dasharray="none" class="fillAsStrokeColor-mk-1q8uqko1yafcaz" fill="#000000"></path></g></g></g><g id="g-root-he_1ly0uza1squhad-fill" data-item-order="-402896" transform="translate(410.078125, 717.296875)"></g><g id="g-root-he_1ly0uza1squhad-stroke" data-item-order="-402896" transform="translate(410.078125, 717.296875)"><g id="he_1ly0uza1squhad-stroke" fill="none" stroke-linecap="round" stroke-linejoin="round" stroke-miterlimit="4" stroke="#000000" stroke-width="1" stroke-opacity="1"><style>.fillAsStrokeColor-mk-1cw5a141yafbpo { fill:#000000; }</style><g><path d="M 10 10L 38.17 10C 44.8 10 50.17 15.37 50.17 22L 50.17 46.8C 50.17 53.43 55.54 58.8 62.17 58.8L 83.34 58.8"></path><path d="M 84.8 58.8L 79.8 61.6L 79.8 56Z" stroke-dasharray="none" class="fillAsStrokeColor-mk-1cw5a141yafbpo" fill="#000000"></path></g></g></g><g id="g-root-tx_grupo3st_1q6z55i1sqyn0m-fill" data-item-order="0" transform="translate(294.90625, 458.201171875)"><g id="tx_grupo3st_1q6z55i1sqyn0m-fill-merged" stroke="none" fill="#000000" fill-opacity="1"><g><text style="font: bold 9px Roboto, sans-serif; white-space: pre;" transform="translate(65.171875, 20.798828125)" font-weight="bold" font-size="9px" font-family="Roboto, sans-serif"><tspan x="-51.08" y="-0.8" dominant-baseline="ideographic">Grupo 3: Studio - Presets </tspan><tspan x="-53.17" y="10" dominant-baseline="ideographic">de Presentación y Entorno</tspan></text></g></g></g><g id="g-root-tx_grupo3st_1q6z55i1sqyn0m-stroke" data-item-order="0" transform="translate(294.90625, 458.201171875)"></g><g id="g-root-tx_blueprin_v7d2vq1sqhrta-fill" data-item-order="0" transform="translate(495.25, 408.298828125)"><g id="tx_blueprin_v7d2vq1sqhrta-fill-merged" stroke="none" fill="#000000" fill-opacity="1"><g><text style="font: bold 9px Roboto, sans-serif; white-space: pre;" transform="translate(30.4296875, 15.400390625)" font-weight="bold" font-size="9px" font-family="Roboto, sans-serif"><tspan x="-18.43" y="4.6" dominant-baseline="ideographic">Blueprint</tspan></text></g></g></g><g id="g-root-tx_blueprin_v7d2vq1sqhrta-stroke" data-item-order="0" transform="translate(495.25, 408.298828125)"></g><g id="g-root-tx_studioli_18n6tp21sr2wi5-fill" data-item-order="0" transform="translate(495.25, 359.5)"><g id="tx_studioli_18n6tp21sr2wi5-fill-merged" stroke="none" fill="#000000" fill-opacity="1"><g><text style="font: bold 9px Roboto, sans-serif; white-space: pre;" transform="translate(36.4375, 15.400390625)" font-weight="bold" font-size="9px" font-family="Roboto, sans-serif"><tspan x="-24.44" y="4.6" dominant-baseline="ideographic">Studio Light</tspan></text></g></g></g><g id="g-root-tx_studioli_18n6tp21sr2wi5-stroke" data-item-order="0" transform="translate(495.25, 359.5)"></g><g id="g-root-tx_night_1luwkpi1sqj7d4-fill" data-item-order="0" transform="translate(495.25, 505.900390625)"><g id="tx_night_1luwkpi1sqj7d4-fill-merged" stroke="none" fill="#000000" fill-opacity="1"><g><text style="font: bold 9px Roboto, sans-serif; white-space: pre;" transform="translate(22.984375, 15.400390625)" font-weight="bold" font-size="9px" font-family="Roboto, sans-serif"><tspan x="-10.98" y="4.6" dominant-baseline="ideographic">Night</tspan></text></g></g></g><g id="g-root-tx_night_1luwkpi1sqj7d4-stroke" data-item-order="0" transform="translate(495.25, 505.900390625)"></g><g id="g-root-tx_mapademo_4kfyza1sqvv9n-fill" data-item-order="0" transform="translate(97.09375, 326.701171875)"><g id="tx_mapademo_4kfyza1sqvv9n-fill-merged" stroke="none" fill="#000000" fill-opacity="1"><g><text style="font: bold 9px Roboto, sans-serif; white-space: pre;" transform="translate(63.90625, 20.798828125)" font-weight="bold" font-size="9px" font-family="Roboto, sans-serif"><tspan x="-51.91" y="-0.8" dominant-baseline="ideographic">Mapa de Modos Visuales </tspan><tspan x="-28.56" y="10" dominant-baseline="ideographic">por Propósito</tspan></text></g></g></g><g id="g-root-tx_mapademo_4kfyza1sqvv9n-stroke" data-item-order="0" transform="translate(97.09375, 326.701171875)"></g><g id="g-root-tx_sunset_qnsq8m1sqkm4h-fill" data-item-order="0" transform="translate(495.25, 554.69921875)"><g id="tx_sunset_qnsq8m1sqkm4h-fill-merged" stroke="none" fill="#000000" fill-opacity="1"><g><text style="font: bold 9px Roboto, sans-serif; white-space: pre;" transform="translate(26.078125, 15.400390625)" font-weight="bold" font-size="9px" font-family="Roboto, sans-serif"><tspan x="-14.08" y="4.6" dominant-baseline="ideographic">Sunset</tspan></text></g></g></g><g id="g-root-tx_sunset_qnsq8m1sqkm4h-stroke" data-item-order="0" transform="translate(495.25, 554.69921875)"></g><g id="g-root-tx_studio_1ltnjdi1sr2vik-fill" data-item-order="0" transform="translate(495.25, 310.69921875)"><g id="tx_studio_1ltnjdi1sr2vik-fill-merged" stroke="none" fill="#000000" fill-opacity="1"><g><text style="font: bold 9px Roboto, sans-serif; white-space: pre;" transform="translate(25.078125, 15.400390625)" font-weight="bold" font-size="9px" font-family="Roboto, sans-serif"><tspan x="-13.08" y="4.6" dominant-baseline="ideographic">Studio</tspan></text></g></g></g><g id="g-root-tx_studio_1ltnjdi1sr2vik-stroke" data-item-order="0" transform="translate(495.25, 310.69921875)"></g><g id="g-root-tx_presetsd_6hz9y1sqklj6-fill" data-item-order="0" transform="translate(495.25, 603.5)"><g id="tx_presetsd_6hz9y1sqklj6-fill-merged" stroke="none" fill="#000000" fill-opacity="1"><g><text style="font: bold 9px Roboto, sans-serif; white-space: pre;" transform="translate(65.6875, 20.798828125)" font-weight="bold" font-size="9px" font-family="Roboto, sans-serif"><tspan x="-53.69" y="-0.8" dominant-baseline="ideographic">Presets de color plano del </tspan><tspan x="-36.59" y="10" dominant-baseline="ideographic">fondo o ambiente</tspan></text></g></g></g><g id="g-root-tx_presetsd_6hz9y1sqklj6-stroke" data-item-order="0" transform="translate(495.25, 603.5)"></g><g id="g-root-tx_thermal_940bme1sr1iir-fill" data-item-order="0" transform="translate(495.25, 261.900390625)"><g id="tx_thermal_940bme1sr1iir-fill-merged" stroke="none" fill="#000000" fill-opacity="1"><g><text style="font: bold 9px Roboto, sans-serif; white-space: pre;" transform="translate(28.890625, 15.400390625)" font-weight="bold" font-size="9px" font-family="Roboto, sans-serif"><tspan x="-16.89" y="4.6" dominant-baseline="ideographic">Thermal</tspan></text></g></g></g><g id="g-root-tx_thermal_940bme1sr1iir-stroke" data-item-order="0" transform="translate(495.25, 261.900390625)"></g><g id="g-root-tx_solidvie_mah1au1sr1hj6-fill" data-item-order="0" transform="translate(495.25, 213.099609375)"><g id="tx_solidvie_mah1au1sr1hj6-fill-merged" stroke="none" fill="#000000" fill-opacity="1"><g><text style="font: bold 9px Roboto, sans-serif; white-space: pre;" transform="translate(59.328125, 15.400390625)" font-weight="bold" font-size="9px" font-family="Roboto, sans-serif"><tspan x="-47.33" y="4.6" dominant-baseline="ideographic">Solid View / Solid Color</tspan></text></g></g></g><g id="g-root-tx_solidvie_mah1au1sr1hj6-stroke" data-item-order="0" transform="translate(495.25, 213.099609375)"></g><g id="g-root-tx_cut_1cvipxy1sqm1or-fill" data-item-order="0" transform="translate(498.2578125, 663.095703125)"><g id="tx_cut_1cvipxy1sqm1or-fill-merged" stroke="none" fill="#000000" fill-opacity="1"><g><text style="font: bold 9px Roboto, sans-serif; white-space: pre;" transform="translate(18.9921875, 15.400390625)" font-weight="bold" font-size="9px" font-family="Roboto, sans-serif"><tspan x="-6.99" y="4.6" dominant-baseline="ideographic">Cut</tspan></text></g></g></g><g id="g-root-tx_cut_1cvipxy1sqm1or-stroke" data-item-order="0" transform="translate(498.2578125, 663.095703125)"></g><g id="g-root-tx_grupo2st_mcyxna1sqx8gd-fill" data-item-order="0" transform="translate(294.90625, 214.201171875)"><g id="tx_grupo2st_mcyxna1sqx8gd-fill-merged" stroke="none" fill="#000000" fill-opacity="1"><g><text style="font: bold 9px Roboto, sans-serif; white-space: pre;" transform="translate(62.4765625, 20.798828125)" font-weight="bold" font-size="9px" font-family="Roboto, sans-serif"><tspan x="-50.48" y="-0.8" dominant-baseline="ideographic">Grupo 2: Studio - Modos </tspan><tspan x="-38.73" y="10" dominant-baseline="ideographic">de Shader Visibles</tspan></text></g></g></g><g id="g-root-tx_grupo2st_mcyxna1sqx8gd-stroke" data-item-order="0" transform="translate(294.90625, 214.201171875)"></g><g id="g-root-tx_xray_146quhi1sr016x-fill" data-item-order="0" transform="translate(495.25, 164.298828125)"><g id="tx_xray_146quhi1sr016x-fill-merged" stroke="none" fill="#000000" fill-opacity="1"><g><text style="font: bold 9px Roboto, sans-serif; white-space: pre;" transform="translate(23.890625, 15.400390625)" font-weight="bold" font-size="9px" font-family="Roboto, sans-serif"><tspan x="-11.89" y="4.6" dominant-baseline="ideographic">X-Ray</tspan></text></g></g></g><g id="g-root-tx_xray_146quhi1sr016x-stroke" data-item-order="0" transform="translate(495.25, 164.298828125)"></g><g id="g-root-tx_grupo4an_me7vti1sqyo07-fill" data-item-order="0" transform="translate(294.90625, 707.599609375)"><g id="tx_grupo4an_me7vti1sqyo07-fill-merged" stroke="none" fill="#000000" fill-opacity="1"><g><text style="font: bold 9px Roboto, sans-serif; white-space: pre;" transform="translate(63.0859375, 26.197265625)" font-weight="bold" font-size="9px" font-family="Roboto, sans-serif"><tspan x="-38.43" y="-6.2" dominant-baseline="ideographic">Grupo 4: Analyze - </tspan><tspan x="-51.09" y="4.6" dominant-baseline="ideographic">Herramientas de Lectura </tspan><tspan x="-23.23" y="15.4" dominant-baseline="ideographic">Estructural</tspan></text></g></g></g><g id="g-root-tx_grupo4an_me7vti1sqyo07-stroke" data-item-order="0" transform="translate(294.90625, 707.599609375)"></g><g id="g-root-tx_realisti_1uo1lg61sr01s8-fill" data-item-order="0" transform="translate(495.25, 115.5)"><g id="tx_realisti_1uo1lg61sr01s8-fill-merged" stroke="none" fill="#000000" fill-opacity="1"><g><text style="font: bold 9px Roboto, sans-serif; white-space: pre;" transform="translate(29.4765625, 15.400390625)" font-weight="bold" font-size="9px" font-family="Roboto, sans-serif"><tspan x="-17.48" y="4.6" dominant-baseline="ideographic">Realistic</tspan></text></g></g></g><g id="g-root-tx_realisti_1uo1lg61sr01s8-stroke" data-item-order="0" transform="translate(495.25, 115.5)"></g><g id="g-root-tx_grupo1re_1cu9oly1sqx91o-fill" data-item-order="0" transform="translate(294.90625, 122)"><g id="tx_grupo1re_1cu9oly1sqx91o-fill-merged" stroke="none" fill="#000000" fill-opacity="1"><g><text style="font: bold 9px Roboto, sans-serif; white-space: pre;" transform="translate(63.34375, 15.400390625)" font-weight="bold" font-size="9px" font-family="Roboto, sans-serif"><tspan x="-51.34" y="4.6" dominant-baseline="ideographic">Grupo 1: Referencia Base</tspan></text></g></g></g><g id="g-root-tx_grupo1re_1cu9oly1sqx91o-stroke" data-item-order="0" transform="translate(294.90625, 122)"></g><g id="g-root-tx_explode_v9uz861sqm0as-fill" data-item-order="0" transform="translate(495.25, 711.896484375)"><g id="tx_explode_v9uz861sqm0as-fill-merged" stroke="none" fill="#000000" fill-opacity="1"><g><text style="font: bold 9px Roboto, sans-serif; white-space: pre;" transform="translate(28.046875, 15.400390625)" font-weight="bold" font-size="9px" font-family="Roboto, sans-serif"><tspan x="-16.05" y="4.6" dominant-baseline="ideographic">Explode</tspan></text></g></g></g><g id="g-root-tx_explode_v9uz861sqm0as-stroke" data-item-order="0" transform="translate(495.25, 711.896484375)"></g><g id="g-root-tx_mapademo_147dbkm1squghu-fill" data-item-order="0" transform="translate(129.5, 38)"><g id="tx_mapademo_147dbkm1squghu-fill-merged" stroke="none" fill="#000000" fill-opacity="1"><g><text style="font: bold 25px Roboto, sans-serif; white-space: pre;" transform="translate(232.359375, 25)" font-weight="bold" font-size="25px" font-family="Roboto, sans-serif"><tspan x="-220.36" y="15" dominant-baseline="ideographic">Mapa de Modos Visuales por Propósito</tspan></text></g></g></g><g id="g-root-tx_mapademo_147dbkm1squghu-stroke" data-item-order="0" transform="translate(129.5, 38)"></g><g id="g-root-tx_filter_1uo1oly1sqnevh-fill" data-item-order="0" transform="translate(495.25, 760.697265625)"><g id="tx_filter_1uo1oly1sqnevh-fill-merged" stroke="none" fill="#000000" fill-opacity="1"><g><text style="font: bold 9px Roboto, sans-serif; white-space: pre;" transform="translate(22.453125, 15.400390625)" font-weight="bold" font-size="9px" font-family="Roboto, sans-serif"><tspan x="-10.45" y="4.6" dominant-baseline="ideographic">Filter</tspan></text></g></g></g><g id="g-root-tx_filter_1uo1oly1sqnevh-stroke" data-item-order="0" transform="translate(495.25, 760.697265625)"></g><g id="g-root-tx_day_4pfuty1sqhudr-fill" data-item-order="0" transform="translate(497.6796875, 457.099609375)"><g id="tx_day_4pfuty1sqhudr-fill-merged" stroke="none" fill="#000000" fill-opacity="1"><g><text style="font: bold 9px Roboto, sans-serif; white-space: pre;" transform="translate(19.5703125, 15.400390625)" font-weight="bold" font-size="9px" font-family="Roboto, sans-serif"><tspan x="-7.57" y="4.6" dominant-baseline="ideographic">Day</tspan></text></g></g></g><g id="g-root-tx_day_4pfuty1sqhudr-stroke" data-item-order="0" transform="translate(497.6796875, 457.099609375)"></g></g></g></svg>