<?xml version="1.0" encoding="utf-8" standalone="yes"?>
<!DOCTYPE svg PUBLIC "-//W3C//DTD SVG 1.1//EN" "http://www.w3.org/Graphics/SVG/1.1/DTD/svg11.dtd">
<svg style="fill:none;stroke:none;fill-rule:evenodd;clip-rule:evenodd;stroke-linecap:round;stroke-linejoin:round;stroke-miterlimit:1.5;" version="1.1" xmlns="http://www.w3.org/2000/svg" xmlns:xlink="http://www.w3.org/1999/xlink" width="816" height="642" viewBox="0 0 816 642"><style class="text-font-style fontImports" data-font-family="Roboto">@import url(https://fonts.googleapis.com/css2?family=Roboto:wght@400;700&amp;amp;display=block);</style><g id="items" style="isolation: isolate"><g id="blend" style="mix-blend-mode: normal"><g id="g-root-cp_3_g-3_8x4u5y1qj4qgx-fill" data-item-order="-419317" transform="translate(206, 116)"></g><g id="g-root-cp_3_g-3_8x4u5y1qj4qgx-stroke" data-item-order="-419317" transform="translate(206, 116)"><g id="cp_3_g-3_8x4u5y1qj4qgx-stroke" fill="none" stroke-linecap="round" stroke-linejoin="round" stroke-miterlimit="4" stroke="#000000" stroke-width="1" stroke-opacity="1"><g><path d="M 154.8798 144.6049C 116.3044 161.0914 88.1202 197.2057 82.8798 240.3952C 40.0287 222.0813 10 179.5475 10 130C 10 63.7258 63.7258 10 130 10C 157.0145 10 181.9442 18.9267 202 33.9912C 231.1467 55.8842 250 90.7404 250 130C 250 134.9438 249.701 139.8178 249.1202 144.6049C 234.6541 138.4223 218.7267 135 202 135C 185.2733 135 169.3459 138.4223 154.8798 144.6049Z"></path></g></g></g><g id="g-root-cp_2_g-2_1uneuuu1qj4ooy-fill" data-item-order="-419313" transform="translate(278, 250.60546875)"></g><g id="g-root-cp_2_g-2_1uneuuu1qj4ooy-stroke" data-item-order="-419313" transform="translate(278, 250.60546875)"><g id="cp_2_g-2_1uneuuu1qj4ooy-stroke" fill="none" stroke-linecap="round" stroke-linejoin="round" stroke-miterlimit="4" stroke="#000000" stroke-width="1" stroke-opacity="1"><g><path d="M 249.1202 105.7903C 234.6541 111.9729 218.7267 115.3951 202 115.3951C 174.9855 115.3951 150.0558 106.4685 130 91.4039C 104.5236 72.2679 86.9114 43.2278 82.8798 10C 44.3044 26.4865 16.1202 62.6008 10.8798 105.7903C 10.299 110.5774 10 115.4513 10 120.3951C 10 186.6693 63.7258 240.3951 130 240.3951C 196.2742 240.3951 250 186.6693 250 120.3951C 250 115.4513 249.701 110.5774 249.1202 105.7903Z"></path></g></g></g><g id="g-root-cp_1_g-1_1hbychi1qj4q9v-fill" data-item-order="-419309" transform="translate(398, 116)"></g><g id="g-root-cp_1_g-1_1hbychi1qj4q9v-stroke" data-item-order="-419309" transform="translate(398, 116)"><g id="cp_1_g-1_1hbychi1qj4q9v-stroke" fill="none" stroke-linecap="round" stroke-linejoin="round" stroke-miterlimit="4" stroke="#000000" stroke-width="1" stroke-opacity="1"><g><path d="M 58 130C 58 134.9438 57.701 139.8178 57.1202 144.6049C 53.0885 177.8327 35.4764 206.8727 10 226.0088C 30.0559 241.0733 54.9855 250 82 250C 98.7267 250 114.6541 246.5777 129.1202 240.3952C 171.9713 222.0813 202 179.5475 202 130C 202 63.7258 148.2742 10 82 10C 54.9855 10 30.0559 18.9267 10 33.9912C 39.1467 55.8842 58 90.7404 58 130Z"></path></g></g></g><g id="g-root-tx_coherenc_4j6rau1qj4pho-fill" data-item-order="0" transform="translate(137.8125, 38)"><g id="tx_coherenc_4j6rau1qj4pho-fill-merged" stroke="none" fill="#000000" fill-opacity="1"><g><text style="font: bold 25px Roboto, sans-serif; white-space: pre;" transform="translate(270.1875, 25)" font-weight="bold" font-size="25px" font-family="Roboto, sans-serif"><tspan x="-258.19" y="15" dominant-baseline="ideographic">Coherencia en la Documentación del Proyecto</tspan></text></g></g></g><g id="g-root-tx_coherenc_4j6rau1qj4pho-stroke" data-item-order="0" transform="translate(137.8125, 38)"></g><g id="g-root-tx_informef_18nt4fq1qiz2tg-fill" data-item-order="0" transform="translate(100.4375, 137)"><g id="tx_informef_18nt4fq1qiz2tg-fill-merged" stroke="none" fill="#000000" fill-opacity="1"><g><text style="font: bold 15px Roboto, sans-serif; white-space: pre;" transform="translate(103.5625, 19)" font-weight="bold" font-size="15px" font-family="Roboto, sans-serif"><tspan x="-91.56" y="9" dominant-baseline="ideographic">Informe Final</tspan></text></g></g></g><g id="g-root-tx_informef_18nt4fq1qiz2tg-stroke" data-item-order="0" transform="translate(100.4375, 137)"></g><g id="g-root-tx_appreal_ziszw61qiwavc-fill" data-item-order="0" transform="translate(602, 137)"><g id="tx_appreal_ziszw61qiwavc-fill-merged" stroke="none" fill="#000000" fill-opacity="1"><g><text style="font: bold 15px Roboto, sans-serif; white-space: pre;" transform="translate(10, 19)" font-weight="bold" font-size="15px" font-family="Roboto, sans-serif"><tspan x="2" y="9" dominant-baseline="ideographic">App Real</tspan></text></g></g></g><g id="g-root-tx_appreal_ziszw61qiwavc-stroke" data-item-order="0" transform="translate(602, 137)"></g><g id="g-root-ic_grap_1hckwqe1qinw1t-fill" data-item-order="0" transform="translate(290, 164)"></g><g id="g-root-ic_grap_1hckwqe1qinw1t-stroke" data-item-order="0" transform="translate(290, 164)"><g id="ic_grap_1hckwqe1qinw1t-stroke" fill="none" stroke-linecap="round" stroke-linejoin="round" stroke-miterlimit="4" stroke="#000000" stroke-width="1" stroke-opacity="1"><g><path d="M 21 25.998001C 21 30.416279 24.581722 33.998001 29 33.998001C 33.418278 33.998001 37 30.416279 37 25.998001C 37 21.579723 33.418278 17.998001 29 17.998001C 24.581722 17.998001 21 21.579723 21 25.998001ZM 22.341999 30.436001L 29 25.998001L 29 17.998001M 52.414001 19C 52.789101 19.374985 52.999886 19.88361 53 20.414L 53 55C 53 56.104568 52.104568 57 51 57L 17 57C 15.895431 57 15 56.104568 15 55L 15 13C 15 11.895431 15.895431 11 17 11L 43.585999 11C 44.115818 10.999052 44.624359 11.208367 45 11.582ZM 42 20.998001L 47 20.998001M 21 38.998001L 47 38.998001M 21 44.998001L 47 44.998001M 21 50.998001L 47 50.998001M 42 26.997999L 47 26.997999M 42 32.998001L 47 32.998001"></path></g></g></g><g id="g-root-tx_interpre_18n6ncm1qj0jd1-fill" data-item-order="0" transform="translate(27.53125, 167)"><g id="tx_interpre_18n6ncm1qj0jd1-fill-merged" stroke="none" fill="#000000" fill-opacity="1"><g><text style="font: 15px Roboto, sans-serif; white-space: pre;" transform="translate(176.46875, 28)" font-size="15px" font-family="Roboto, sans-serif"><tspan x="-164.47" y="0" dominant-baseline="ideographic">Interpreta los resultados </tspan><tspan x="-121.08" y="18" dominant-baseline="ideographic">y el marco teórico</tspan></text></g></g></g><g id="g-root-tx_interpre_18n6ncm1qj0jd1-stroke" data-item-order="0" transform="translate(27.53125, 167)"></g><g id="g-root-tx_definela_zpo7ue1qiw9a9-fill" data-item-order="0" transform="translate(602, 167)"><g id="tx_definela_zpo7ue1qiw9a9-fill-merged" stroke="none" fill="#000000" fill-opacity="1"><g><text style="font: 15px Roboto, sans-serif; white-space: pre;" transform="translate(10, 28)" font-size="15px" font-family="Roboto, sans-serif"><tspan x="2" y="0" dominant-baseline="ideographic">Define la funcionalidad y </tspan><tspan x="2" y="18" dominant-baseline="ideographic">experiencia del usuario</tspan></text></g></g></g><g id="g-root-tx_definela_zpo7ue1qiw9a9-stroke" data-item-order="0" transform="translate(602, 167)"></g><g id="g-root-ic_smar_1qdu6ra1qitgr3-fill" data-item-order="0" transform="translate(482, 212)"></g><g id="g-root-ic_smar_1qdu6ra1qitgr3-stroke" data-item-order="0" transform="translate(482, 212)"><g id="ic_smar_1qdu6ra1qitgr3-stroke" fill="none" stroke-linecap="round" stroke-linejoin="round" stroke-miterlimit="4" stroke="#000000" stroke-width="1" stroke-opacity="1"><g><path d="M 47.334 49L 21.334 49M 34.334 53.5L 34.334 53.5M 34.834 53C 34.834 53.276142 34.610142 53.5 34.334 53.5M 34.834 53L 34.834 53M 34.334 52.5C 34.610142 52.5 34.834 52.723858 34.834 53M 34.334 52.5L 34.334 52.5M 33.834 53C 33.833466 52.867226 33.885971 52.739738 33.979858 52.645855C 34.073738 52.551971 34.201225 52.499466 34.334 52.5M 33.834 53L 33.834 53M 34.334 53.5C 34.201225 53.500534 34.073738 53.448025 33.979858 53.354141C 33.885971 53.260258 33.833466 53.132771 33.834 53M 25.334 11L 43.334 11C 43.334 11 47.334 11 47.334 15L 47.334 53C 47.334 53 47.334 57 43.334 57L 25.334 57C 25.334 57 21.334 57 21.334 53L 21.334 15C 21.334 15 21.334 11 25.334 11M 27.334 17L 27.334 19M 25.334 21C 25.334 22.104568 26.229431 23 27.334 23C 28.43857 23 29.334 22.104568 29.334 21C 29.334 19.895432 28.43857 19 27.334 19C 26.229431 19 25.334 19.895432 25.334 21M 25.334 31C 25.334 32.104568 26.229431 33 27.334 33C 28.43857 33 29.334 32.104568 29.334 31C 29.334 29.89543 28.43857 29 27.334 29C 26.229431 29 25.334 29.89543 25.334 31M 25.334 41C 25.334 42.104568 26.229431 43 27.334 43C 28.43857 43 29.334 42.104568 29.334 41C 29.334 39.895432 28.43857 39 27.334 39C 26.229431 39 25.334 39.895432 25.334 41M 27.334 23L 27.334 29M 27.334 33L 27.334 39M 27.334 43L 27.334 45M 33.334 21L 43.334 21M 33.334 31L 41.334 31M 33.334 41L 43.334 41"></path></g></g></g><g id="g-root-ic_fing_hwis3a1qip98j-fill" data-item-order="0" transform="translate(351, 368)"></g><g id="g-root-ic_fing_hwis3a1qip98j-stroke" data-item-order="0" transform="translate(351, 368)"><g id="ic_fing_hwis3a1qip98j-stroke" fill="none" stroke-linecap="round" stroke-linejoin="round" stroke-miterlimit="4" stroke="#000000" stroke-width="1" stroke-opacity="1"><g><path d="M 34 50.259998C 32.841949 50.97541 31.825092 51.897362 31 52.98L 31 20C 31 20 26.879999 13.62 13.12 13.02C 12.569099 12.986885 12.029001 13.182888 11.627556 13.561609C 11.22611 13.940331 10.999005 14.468105 11 15.02L 11 44.099998C 10.998092 45.159355 11.822552 46.036442 12.88 46.099998C 26.879999 46.639999 31 53 31 53M 31 20C 31 20 35.120003 13.72 48.880001 13.12C 49.430901 13.086885 49.971001 13.282887 50.372444 13.66161C 50.773888 14.040331 51.000996 14.568106 51 15.12L 51 40M 17.5 23.48C 17.510941 23.20673 17.739407 22.992954 18.012802 23.000175C 18.286198 23.007397 18.503059 23.232933 18.499557 23.506401C 18.496058 23.779869 18.273491 23.999781 18 24C 17.723858 24 17.5 23.776142 17.5 23.5M 24 23.48C 24.010941 23.20673 24.239407 22.992954 24.512802 23.000175C 24.786198 23.007397 25.003059 23.232933 24.999557 23.506401C 24.996058 23.779869 24.773491 23.999781 24.5 24C 24.363853 24.000109 24.233547 23.944695 24.139183 23.846554C 24.044819 23.748415 23.994555 23.616039 24 23.48M 37.5 23.48C 37.510941 23.20673 37.739407 22.992954 38.012802 23.000175C 38.286194 23.007397 38.503059 23.232933 38.499557 23.506401C 38.496056 23.779869 38.273491 23.999781 38 24C 37.723858 24 37.5 23.776142 37.5 23.5M 43.5 23.48C 43.510941 23.20673 43.739407 22.992954 44.012802 23.000175C 44.286198 23.007397 44.503059 23.232933 44.499557 23.506401C 44.496056 23.779869 44.273491 23.999781 44 24C 43.723858 24 43.5 23.776142 43.5 23.5M 43.5 30C 43.5 29.723858 43.723858 29.5 44 29.5C 44.276142 29.5 44.5 29.723858 44.5 30C 44.5 30.276142 44.276142 30.5 44 30.5C 43.723858 30.5 43.5 30.276142 43.5 30M 17.5 30.48C 17.5 30.203857 17.723858 29.98 18 29.98C 18.276142 29.98 18.5 30.203857 18.5 30.48C 18.5 30.756142 18.276142 30.98 18 30.98C 17.723858 30.98 17.5 30.756142 17.5 30.48M 24 30.48C 24 30.203857 24.223858 29.98 24.5 29.98C 24.776142 29.98 25 30.203857 25 30.48C 25 30.756142 24.776142 30.98 24.5 30.98C 24.223858 30.98 24 30.756142 24 30.48M 17.5 37.48C 17.510941 37.20673 17.739407 36.99295 18.012802 37.000175C 18.286198 37.007397 18.503059 37.232933 18.499557 37.506401C 18.496058 37.779869 18.273491 37.999779 18 38C 17.723858 38 17.5 37.776142 17.5 37.5M 42.580002 54.98L 37.459999 49.279999C 36.895889 48.428539 37.06398 47.288826 37.849884 46.636475C 38.635788 45.984123 39.786964 46.028759 40.52 46.740002L 43 49.400002L 43 38.279999C 43 37.17543 43.895432 36.279999 45 36.279999C 46.104568 36.279999 47 37.17543 47 38.279999L 47 44.98L 51.700001 44.98C 54.638157 44.98 57.02 47.361847 57.02 50.299999L 57.02 54.98"></path></g></g></g><g id="g-root-tx_manuales_znssl21qixnnu-fill" data-item-order="0" transform="translate(363.109375, 500)"><g id="tx_manuales_znssl21qixnnu-fill-merged" stroke="none" fill="#000000" fill-opacity="1"><g><text style="font: bold 15px Roboto, sans-serif; white-space: pre;" transform="translate(44.890625, 19)" font-weight="bold" font-size="15px" font-family="Roboto, sans-serif"><tspan x="-32.89" y="9" dominant-baseline="ideographic">Manuales</tspan></text></g></g></g><g id="g-root-tx_manuales_znssl21qixnnu-stroke" data-item-order="0" transform="translate(363.109375, 500)"></g><g id="g-root-tx_proporci_1hckwqe1qiz3lv-fill" data-item-order="0" transform="translate(317.84375, 530)"><g id="tx_proporci_1hckwqe1qiz3lv-fill-merged" stroke="none" fill="#000000" fill-opacity="1"><g><text style="font: 15px Roboto, sans-serif; white-space: pre;" transform="translate(90.15625, 37)" font-size="15px" font-family="Roboto, sans-serif"><tspan x="-40.69" y="-9" dominant-baseline="ideographic">Proporciona </tspan><tspan x="-50.33" y="9" dominant-baseline="ideographic">instrucciones y </tspan><tspan x="-78.16" y="27" dominant-baseline="ideographic">documentación técnica</tspan></text></g></g></g><g id="g-root-tx_proporci_1hckwqe1qiz3lv-stroke" data-item-order="0" transform="translate(317.84375, 530)"></g></g></g></svg>