<?xml version="1.0" encoding="utf-8" standalone="yes"?>
<!DOCTYPE svg PUBLIC "-//W3C//DTD SVG 1.1//EN" "http://www.w3.org/Graphics/SVG/1.1/DTD/svg11.dtd">
<svg style="fill:none;stroke:none;fill-rule:evenodd;clip-rule:evenodd;stroke-linecap:round;stroke-linejoin:round;stroke-miterlimit:1.5;" version="1.1" xmlns="http://www.w3.org/2000/svg" xmlns:xlink="http://www.w3.org/1999/xlink" width="672" height="654" viewBox="0 0 672 654"><style class="text-font-style fontImports" data-font-family="Roboto">@import url(https://fonts.googleapis.com/css2?family=Roboto:wght@400;700&amp;amp;display=block);</style><g id="items" style="isolation: isolate"><g id="blend" style="mix-blend-mode: normal"><g id="g-root-cp_2_sign-2_142zdp11tuj0g7-fill" data-item-order="-348179" transform="translate(326, 236)"></g><g id="g-root-cp_2_sign-2_142zdp11tuj0g7-stroke" data-item-order="-348179" transform="translate(326, 236)"><g id="cp_2_sign-2_142zdp11tuj0g7-stroke" fill="none" stroke-linecap="round" stroke-linejoin="round" stroke-miterlimit="4" stroke="#000000" stroke-width="1" stroke-opacity="1"><g><path d="M 228.375 106L 10 106M 10 10L 228.375 10M 228.375 10C 254.8847 10 276.375 31.4903 276.375 58C 276.375 84.5097 254.8847 106 228.375 106M 10 106L 10 10"></path></g></g></g><g id="g-root-cp_4_sign-4_mcbuad1tuiznk-fill" data-item-order="-348155" transform="translate(326, 476)"></g><g id="g-root-cp_4_sign-4_mcbuad1tuiznk-stroke" data-item-order="-348155" transform="translate(326, 476)"><g id="cp_4_sign-4_mcbuad1tuiznk-stroke" fill="none" stroke-linecap="round" stroke-linejoin="round" stroke-miterlimit="4" stroke="#000000" stroke-width="1" stroke-opacity="1"><g><path d="M 214.5625 106L 10 106M 10 10L 214.5625 10M 214.5625 10C 241.0722 10 262.5625 31.4903 262.5625 58C 262.5625 84.5097 241.0722 106 214.5625 106M 10 106L 10 10"></path></g></g></g><g id="g-root-cp_1_sign-1_1ur5clx1tuizgh-fill" data-item-order="-348135" transform="translate(98.265625, 116)"></g><g id="g-root-cp_1_sign-1_1ur5clx1tuizgh-stroke" data-item-order="-348135" transform="translate(98.265625, 116)"><g id="cp_1_sign-1_1ur5clx1tuizgh-stroke" fill="none" stroke-linecap="round" stroke-linejoin="round" stroke-miterlimit="4" stroke="#000000" stroke-width="1" stroke-opacity="1"><g><path d="M 58 10L 237.734375 10M 237.734375 106L 58 106M 58 106C 31.4903 106 10 84.5097 10 58C 10 31.4903 31.4903 10 58 10M 237.734375 10L 237.734375 106"></path></g></g></g><g id="g-root-cp_3_sign-3_18kob2t1tuiyoa-fill" data-item-order="-348111" transform="translate(88.734375, 356)"></g><g id="g-root-cp_3_sign-3_18kob2t1tuiyoa-stroke" data-item-order="-348111" transform="translate(88.734375, 356)"><g id="cp_3_sign-3_18kob2t1tuiyoa-stroke" fill="none" stroke-linecap="round" stroke-linejoin="round" stroke-miterlimit="4" stroke="#000000" stroke-width="1" stroke-opacity="1"><g><path d="M 58 10L 247.265625 10M 247.265625 106L 58 106M 58 106C 31.4903 106 10 84.5097 10 58C 10 31.4903 31.4903 10 58 10M 247.265625 10L 247.265625 106"></path></g></g></g><g id="g-root-tx_pasosdea_qteal11tuj11f-fill" data-item-order="0" transform="translate(146.921875, 38)"><g id="tx_pasosdea_qteal11tuj11f-fill-merged" stroke="none" fill="#000000" fill-opacity="1"><g><text style="font: bold 25px Roboto, sans-serif; white-space: pre;" transform="translate(189.078125, 25)" font-weight="bold" font-size="25px" font-family="Roboto, sans-serif"><tspan x="-177.08" y="15" dominant-baseline="ideographic">Pasos de adaptación de MAD-T</tspan></text></g></g></g><g id="g-root-tx_pasosdea_qteal11tuj11f-stroke" data-item-order="0" transform="translate(146.921875, 38)"></g><g id="g-root-ic_carv_1lt0g0l1tuygw5-fill" data-item-order="0" transform="translate(128.265625, 146)"></g><g id="g-root-ic_carv_1lt0g0l1tuygw5-stroke" data-item-order="0" transform="translate(128.265625, 146)"><g id="ic_carv_1lt0g0l1tuygw5-stroke" fill="none" stroke-linecap="round" stroke-linejoin="round" stroke-miterlimit="4" stroke="#000000" stroke-width="1" stroke-opacity="1"><g><path d="M 29.02 31.925499L 21.379 39.230499C 20.991488 39.601532 20.831642 40.151279 20.959795 40.672249C 21.087948 41.193218 21.484585 41.606079 22 41.755001L 26.563 43.088501C 27.33025 43.312534 28.138401 42.895596 28.400501 42.140499L 31.285 33.834999M 45.25 19.315001L 35.199997 33.010002C 34.729126 33.653294 34.021572 34.08271 33.233555 34.203445C 32.445541 34.324181 31.641874 34.126305 31 33.6535L 29.791 32.765499C 28.455952 31.785242 28.1679 29.908529 29.147501 28.573L 40.689999 12.85M 30.0415 27.362499L 36.088001 31.801001M 17.102501 37.410999C 20.149744 35.771854 21.291382 31.972885 19.6525 28.925501C 18.340452 26.488045 15.300704 25.575985 12.8635 26.8885C 10.912054 27.93688 10.180569 30.369118 11.23 32.32C 11.633459 33.070244 12.318827 33.629143 13.134902 33.873402C 13.950977 34.117661 14.830703 34.02721 15.58 33.622002C 16.827948 32.95042 17.294786 31.394068 16.622499 30.1465"></path></g></g></g><g id="g-root-tx_modelado_18gxjpx1tuhm33-fill" data-item-order="0" transform="translate(176.265625, 155)"><g id="tx_modelado_18gxjpx1tuhm33-fill-merged" stroke="none" fill="#000000" fill-opacity="1"><g><text style="font: bold 15px Roboto, sans-serif; white-space: pre;" transform="translate(147.734375, 19)" font-weight="bold" font-size="15px" font-family="Roboto, sans-serif"><tspan x="-135.73" y="9" dominant-baseline="ideographic">Modelado adaptado</tspan></text></g></g></g><g id="g-root-tx_modelado_18gxjpx1tuhm33-stroke" data-item-order="0" transform="translate(176.265625, 155)"></g><g id="g-root-tx_piezasin_qoehw51tukf0k-fill" data-item-order="0" transform="translate(338, 128)"><g id="tx_piezasin_qoehw51tukf0k-fill-merged" stroke="none" fill="#000000" fill-opacity="1"><g><text style="font: 15px Roboto, sans-serif; white-space: pre;" transform="translate(10, 46)" font-size="15px" font-family="Roboto, sans-serif"><tspan x="2" y="-18" dominant-baseline="ideographic">Piezas inexistentes modeladas </tspan><tspan x="2" y="0" dominant-baseline="ideographic">desde cero, piezas existentes </tspan><tspan x="2" y="18" dominant-baseline="ideographic">retopologizadas y piezas CAD </tspan><tspan x="2" y="36" dominant-baseline="ideographic">corregidas.</tspan></text></g></g></g><g id="g-root-tx_piezasin_qoehw51tukf0k-stroke" data-item-order="0" transform="translate(338, 128)"></g><g id="g-root-ic_1_qteal11tukef9-fill" data-item-order="0" transform="translate(526.375, 266)"></g><g id="g-root-ic_1_qteal11tukef9-stroke" data-item-order="0" transform="translate(526.375, 266)"><g id="ic_1_qteal11tukef9-stroke" fill="none" stroke-linecap="round" stroke-linejoin="round" stroke-miterlimit="4" stroke="#000000" stroke-width="1" stroke-opacity="1"><g><path d="M 10 10M 29.599899 20.243065L 30.199902 22.193066C 30.349899 22.943066 31.099899 23.243065 31.849899 23.093065L 33.7999 22.643064C 35.599899 22.193066 36.7999 24.293066 35.599899 25.643051L 34.249901 27.143051C 33.7999 27.74305 33.7999 28.49305 34.249901 28.94305L 35.599899 30.44305C 36.7999 31.793049 35.599899 33.893051 33.7999 33.44305L 31.849899 32.99305C 31.099899 32.843048 30.499901 33.293049 30.199902 33.893051L 29.599899 35.843052C 28.999901 37.643051 26.599899 37.643051 26.149899 35.843052L 25.5499 33.893051C 25.399899 33.143051 24.649899 32.843048 23.899899 32.99305L 21.949915 33.44305C 20.149916 33.893051 18.9499 31.793049 20.1499 30.44305L 21.499914 28.94305C 21.949915 28.34305 21.949915 27.59305 21.499914 27.143051L 20.1499 25.643051C 18.9499 24.293066 20.149916 22.193066 21.949915 22.643064L 23.899899 23.093065C 24.649899 23.243065 25.249901 22.793066 25.5499 22.193066L 26.149899 20.243065C 26.599899 18.443066 29.149899 18.443066 29.599899 20.243065ZM 40.212551 32.847851C 40.362549 33.447849 40.962551 33.747849 41.412552 33.597851L 42.912552 33.297852C 44.26255 32.997849 45.162552 34.64785 44.26255 35.697853L 43.212551 36.89785C 42.76255 37.347847 42.76255 37.947853 43.212551 38.39785L 44.26255 39.597847C 45.162552 40.64785 44.26255 42.297852 42.912552 41.997849L 41.412552 41.697853C 40.81255 41.547852 40.362549 41.847847 40.212551 42.447853L 39.76255 43.947853C 39.31255 45.297852 37.51255 45.297852 37.06255 43.947853L 36.612549 42.447853C 36.462551 41.847847 35.862549 41.547852 35.412552 41.697853L 33.912552 41.997849C 32.56255 42.297852 31.66255 40.64785 32.56255 39.597847L 33.612549 38.39785M 15.9625 39.383202C 9.5125 32.933201 9.5125 22.433214 15.9625 15.983215C 20.9125 11.033211 28.112499 9.833206 34.112503 12.5332M 10 10M 43.412498 16.433304L 39.212502 16.133305L 38.912498 20.333305M 10 10M 11.762395 38.933651L 15.962395 39.383652L 16.412395 35.183651M 39.212502 16.133305C 42.662498 19.583305 44.3125 24.083305 44.012497 28.583349M 27.962502 44.33395C 25.5625 44.33395 23.3125 43.883949 21.0625 42.983948M 27.874901 30.171549C 29.050301 30.171549 30.00325 29.218599 30.00325 28.0432C 30.00325 26.867649 29.050301 25.91485 27.874901 25.91485C 26.699501 25.91485 25.74655 26.867649 25.74655 28.0432C 25.74655 29.218599 26.699501 30.171549 27.874901 30.171549ZM 38.412552 39.259598C 39.284203 39.259598 39.990852 38.552948 39.990852 37.681149C 39.990852 36.809498 39.284203 36.102848 38.412552 36.102848C 37.540749 36.102848 36.834099 36.809498 36.834099 37.681149C 36.834099 38.552948 37.540749 39.259598 38.412552 39.259598Z"></path></g></g></g><g id="g-root-tx_bevelsge_1qd7cwl1tuhjwg-fill" data-item-order="0" transform="translate(104.53125, 239)"><g id="tx_bevelsge_1qd7cwl1tuhjwg-fill-merged" stroke="none" fill="#000000" fill-opacity="1"><g><text style="font: 15px Roboto, sans-serif; white-space: pre;" transform="translate(219.46875, 55)" font-size="15px" font-family="Roboto, sans-serif"><tspan x="-204.64" y="-27" dominant-baseline="ideographic">Bevels generales, selección de </tspan><tspan x="-207.47" y="-9" dominant-baseline="ideographic">aristas duras, marcado/control </tspan><tspan x="-188.17" y="9" dominant-baseline="ideographic">de seams, normalización de </tspan><tspan x="-184.8" y="27" dominant-baseline="ideographic">bordes, weighted normals y </tspan><tspan x="-157.19" y="45" dominant-baseline="ideographic">operaciones repetibles.</tspan></text></g></g></g><g id="g-root-tx_bevelsge_1qd7cwl1tuhjwg-stroke" data-item-order="0" transform="translate(104.53125, 239)"></g><g id="g-root-tx_automati_1cymdxx1turgg4-fill" data-item-order="0" transform="translate(338, 275)"><g id="tx_automati_1cymdxx1turgg4-fill-merged" stroke="none" fill="#000000" fill-opacity="1"><g><text style="font: bold 15px Roboto, sans-serif; white-space: pre;" transform="translate(10, 19)" font-weight="bold" font-size="15px" font-family="Roboto, sans-serif"><tspan x="2" y="9" dominant-baseline="ideographic">Automatización adaptada</tspan></text></g></g></g><g id="g-root-tx_automati_1cymdxx1turgg4-stroke" data-item-order="0" transform="translate(338, 275)"></g><g id="g-root-ic_rect_hsrkt11tuj18h-fill" data-item-order="0" transform="translate(118.734375, 386)"></g><g id="g-root-ic_rect_hsrkt11tuj18h-stroke" data-item-order="0" transform="translate(118.734375, 386)"><g id="ic_rect_hsrkt11tuj18h-stroke" fill="none" stroke-linecap="round" stroke-linejoin="round" stroke-miterlimit="4" stroke="#000000" stroke-width="1" stroke-opacity="1"><g><path d="M 42.25 21.25L 42.25 34.75M 16.75 13.75L 39.25 18.25M 13.75 39.25L 13.75 16.75M 39.25 37.75L 16.75 42.25M 11.5 10.75L 16 10.75C 16 10.75 16.75 10.75 16.75 11.5L 16.75 16C 16.75 16 16.75 16.75 16 16.75L 11.5 16.75C 11.5 16.75 10.75 16.75 10.75 16L 10.75 11.5C 10.75 11.5 10.75 10.75 11.5 10.75M 40 15.25L 44.5 15.25C 44.5 15.25 45.25 15.25 45.25 16L 45.25 20.5C 45.25 20.5 45.25 21.25 44.5 21.25L 40 21.25C 40 21.25 39.25 21.25 39.25 20.5L 39.25 16C 39.25 16 39.25 15.25 40 15.25M 11.5 39.25L 16 39.25C 16 39.25 16.75 39.25 16.75 40L 16.75 44.5C 16.75 44.5 16.75 45.25 16 45.25L 11.5 45.25C 11.5 45.25 10.75 45.25 10.75 44.5L 10.75 40C 10.75 40 10.75 39.25 11.5 39.25M 40 34.75L 44.5 34.75C 44.5 34.75 45.25 34.75 45.25 35.5L 45.25 40C 45.25 40 45.25 40.75 44.5 40.75L 40 40.75C 40 40.75 39.25 40.75 39.25 40L 39.25 35.5C 39.25 35.5 39.25 34.75 40 34.75"></path></g></g></g><g id="g-root-tx_decimati_m97n6d1tug6ww-fill" data-item-order="0" transform="translate(166.734375, 395)"><g id="tx_decimati_m97n6d1tug6ww-fill-merged" stroke="none" fill="#000000" fill-opacity="1"><g><text style="font: bold 15px Roboto, sans-serif; white-space: pre;" transform="translate(157.265625, 19)" font-weight="bold" font-size="15px" font-family="Roboto, sans-serif"><tspan x="-145.27" y="9" dominant-baseline="ideographic">Decimation adaptado</tspan></text></g></g></g><g id="g-root-tx_decimati_m97n6d1tug6ww-stroke" data-item-order="0" transform="translate(166.734375, 395)"></g><g id="g-root-tx_reduccin_94m6fp1turf9p-fill" data-item-order="0" transform="translate(338, 350)"><g id="tx_reduccin_94m6fp1turf9p-fill-merged" stroke="none" fill="#000000" fill-opacity="1"><g><text style="font: 15px Roboto, sans-serif; white-space: pre;" transform="translate(10, 64)" font-size="15px" font-family="Roboto, sans-serif"><tspan x="2" y="-36" dominant-baseline="ideographic">Reducción de polígonos donde </tspan><tspan x="2" y="-18" dominant-baseline="ideographic">el detalle no aporta lectura </tspan><tspan x="2" y="0" dominant-baseline="ideographic">técnica, conservación de </tspan><tspan x="2" y="18" dominant-baseline="ideographic">silueta y equilibrio entre </tspan><tspan x="2" y="36" dominant-baseline="ideographic">fidelidad visual y presupuesto </tspan><tspan x="2" y="54" dominant-baseline="ideographic">WebGL.</tspan></text></g></g></g><g id="g-root-tx_reduccin_94m6fp1turf9p-stroke" data-item-order="0" transform="translate(338, 350)"></g><g id="g-root-ic_pyra_18hjxn91tussg6-fill" data-item-order="0" transform="translate(512.5625, 506)"></g><g id="g-root-ic_pyra_18hjxn91tussg6-stroke" data-item-order="0" transform="translate(512.5625, 506)"><g id="ic_pyra_18hjxn91tussg6-stroke" fill="none" stroke-linecap="round" stroke-linejoin="round" stroke-miterlimit="4" stroke="#000000" stroke-width="1" stroke-opacity="1"><g><path d="M 41.810501 16.75C 42.091827 17.031239 42.249916 17.412708 42.25 17.810499L 42.25 43.75C 42.25 44.578426 41.578426 45.25 40.75 45.25L 15.25 45.25C 14.421573 45.25 13.75 44.578426 13.75 43.75L 13.75 12.25C 13.75 11.421573 14.421573 10.75 15.25 10.75L 35.189499 10.75C 35.587292 10.750085 35.968761 10.908176 36.25 11.1895ZM 21.25 36.25C 21.25 37.906857 24.272079 39.25 28 39.25C 31.727921 39.25 34.75 37.906857 34.75 36.25C 34.75 34.593143 31.727921 33.25 28 33.25C 24.272079 33.25 21.25 34.593143 21.25 36.25ZM 21.723999 35.142998L 27.309999 22.108C 27.427816 21.831434 27.699385 21.651939 28 21.651939C 28.300615 21.651939 28.572184 21.831434 28.690001 22.108L 34.276001 35.142998"></path></g></g></g><g id="g-root-tx_cierreex_1qbc0t11tug7wh-fill" data-item-order="0" transform="translate(109.09375, 479)"><g id="tx_cierreex_1qbc0t11tug7wh-fill-merged" stroke="none" fill="#000000" fill-opacity="1"><g><text style="font: 15px Roboto, sans-serif; white-space: pre;" transform="translate(214.90625, 55)" font-size="15px" font-family="Roboto, sans-serif"><tspan x="-180.17" y="-27" dominant-baseline="ideographic">Cierre explícito de la malla, </tspan><tspan x="-198.77" y="-9" dominant-baseline="ideographic">topología estable para Unity y </tspan><tspan x="-202.91" y="9" dominant-baseline="ideographic">menor riesgo de artefactos de </tspan><tspan x="-180.86" y="27" dominant-baseline="ideographic">sombreado o triangulación </tspan><tspan x="-63.11" y="45" dominant-baseline="ideographic">implícita.</tspan></text></g></g></g><g id="g-root-tx_cierreex_1qbc0t11tug7wh-stroke" data-item-order="0" transform="translate(109.09375, 479)"></g><g id="g-root-tx_triangul_4l1tsl1tux0cj-fill" data-item-order="0" transform="translate(338, 515)"><g id="tx_triangul_4l1tsl1tux0cj-fill-merged" stroke="none" fill="#000000" fill-opacity="1"><g><text style="font: bold 15px Roboto, sans-serif; white-space: pre;" transform="translate(10, 19)" font-weight="bold" font-size="15px" font-family="Roboto, sans-serif"><tspan x="2" y="9" dominant-baseline="ideographic">Triangulación adaptada</tspan></text></g></g></g><g id="g-root-tx_triangul_4l1tsl1tux0cj-stroke" data-item-order="0" transform="translate(338, 515)"></g></g></g></svg>