<?xml version="1.0" encoding="utf-8" standalone="yes"?>
<!DOCTYPE svg PUBLIC "-//W3C//DTD SVG 1.1//EN" "http://www.w3.org/Graphics/SVG/1.1/DTD/svg11.dtd">
<svg style="fill:none;stroke:none;fill-rule:evenodd;clip-rule:evenodd;stroke-linecap:round;stroke-linejoin:round;stroke-miterlimit:1.5;" version="1.1" xmlns="http://www.w3.org/2000/svg" xmlns:xlink="http://www.w3.org/1999/xlink" width="541" height="336" viewBox="0 0 541 336"><style class="text-font-style fontImports" data-font-family="Roboto">@import url(https://fonts.googleapis.com/css2?family=Roboto:wght@400;700&amp;amp;display=block);</style><g id="items" style="isolation: isolate"><g id="blend" style="mix-blend-mode: normal"><g id="g-root-cp_1_g-1_1q5qa1h1t0k93g-fill" data-item-order="-118309" transform="translate(379.5, 101)"></g><g id="g-root-cp_1_g-1_1q5qa1h1t0k93g-stroke" data-item-order="-118309" transform="translate(379.5, 101)"><g id="cp_1_g-1_1q5qa1h1t0k93g-stroke" fill="none" stroke-linecap="round" stroke-linejoin="round" stroke-miterlimit="4" stroke="#000000" stroke-width="1" stroke-opacity="1"><g><path d="M 71 64L 10 64L 40.5 10L 71 64Z"></path></g></g></g><g id="g-root-cp_2_g-2_1cuw8r91t0k7il-fill" data-item-order="-118305" transform="translate(349, 155)"></g><g id="g-root-cp_2_g-2_1cuw8r91t0k7il-stroke" data-item-order="-118305" transform="translate(349, 155)"><g id="cp_2_g-2_1cuw8r91t0k7il-stroke" fill="none" stroke-linecap="round" stroke-linejoin="round" stroke-miterlimit="4" stroke="#000000" stroke-width="1" stroke-opacity="1"><g><path d="M 132 64L 10 64L 40.5 10L 101.5 10L 132 64Z"></path></g></g></g><g id="g-root-cp_3_g-3_zjfqdx1t0k93i-fill" data-item-order="-118301" transform="translate(318.5, 209)"></g><g id="g-root-cp_3_g-3_zjfqdx1t0k93i-stroke" data-item-order="-118301" transform="translate(318.5, 209)"><g id="cp_3_g-3_zjfqdx1t0k93i-stroke" fill="none" stroke-linecap="round" stroke-linejoin="round" stroke-miterlimit="4" stroke="#000000" stroke-width="1" stroke-opacity="1"><g><path d="M 193 64L 10 64L 40.5 10L 162.5 10L 193 64Z"></path></g></g></g><g id="g-root-sy_-1_Line_hss6z91t0k8av-fill" data-item-order="-118257" transform="translate(284, 233)"></g><g id="g-root-sy_-1_Line_hss6z91t0k8av-stroke" data-item-order="-118257" transform="translate(284, 233)"><g id="sy_-1_Line_hss6z91t0k8av-stroke" fill="none" stroke-linecap="round" stroke-linejoin="round" stroke-miterlimit="4" stroke="#000000" stroke-width="1" stroke-opacity="1"><style>.fillAsStrokeColor-mk-v5hqmg1yagqof { fill:#000000; }</style><g><path d="M 10 10L 42.17 10"></path><path d="M 43.6 10L 38.6 12.8L 38.6 7.2Z" stroke-dasharray="none" class="fillAsStrokeColor-mk-v5hqmg1yagqof" fill="#000000"></path></g></g></g><g id="g-root-sy_-1_Line_1_dcyout1t0k934-fill" data-item-order="-118253" transform="translate(284, 179)"></g><g id="g-root-sy_-1_Line_1_dcyout1t0k934-stroke" data-item-order="-118253" transform="translate(284, 179)"><g id="sy_-1_Line_1_dcyout1t0k934-stroke" fill="none" stroke-linecap="round" stroke-linejoin="round" stroke-miterlimit="4" stroke="#000000" stroke-width="1" stroke-opacity="1"><style>.fillAsStrokeColor-mk-1unfaiw1yagpvk { fill:#000000; }</style><g><path d="M 10 10L 73.17 10"></path><path d="M 74.6 10L 69.6 12.8L 69.6 7.2Z" stroke-dasharray="none" class="fillAsStrokeColor-mk-1unfaiw1yagpvk" fill="#000000"></path></g></g></g><g id="g-root-sy_-1_Line_2_24nkl1t0k7i9-fill" data-item-order="-118249" transform="translate(284, 125)"></g><g id="g-root-sy_-1_Line_2_24nkl1t0k7i9-stroke" data-item-order="-118249" transform="translate(284, 125)"><g id="sy_-1_Line_2_24nkl1t0k7i9-stroke" fill="none" stroke-linecap="round" stroke-linejoin="round" stroke-miterlimit="4" stroke="#000000" stroke-width="1" stroke-opacity="1"><style>.fillAsStrokeColor-mk-1hcl98o1yagoar { fill:#000000; }</style><g><path d="M 10 10L 104.17 10"></path><path d="M 105.6 10L 100.6 12.8L 100.6 7.2Z" stroke-dasharray="none" class="fillAsStrokeColor-mk-1hcl98o1yagoar" fill="#000000"></path></g></g></g><g id="g-root-tx_jerarqua_1lrs76d1t0k8w2-fill" data-item-order="0" transform="translate(92.078125, 38)"><g id="tx_jerarqua_1lrs76d1t0k8w2-fill-merged" stroke="none" fill="#000000" fill-opacity="1"><g><text style="font: bold 20px Roboto, sans-serif; white-space: pre;" transform="translate(178.421875, 22)" font-weight="bold" font-size="20px" font-family="Roboto, sans-serif"><tspan x="-166.42" y="12" dominant-baseline="ideographic">Jerarquía de Taxonomia del Proyecto</tspan></text></g></g></g><g id="g-root-tx_jerarqua_1lrs76d1t0k8w2-stroke" data-item-order="0" transform="translate(92.078125, 38)"></g><g id="g-root-tx_renderer_1lwrzv91t0k8ar-fill" data-item-order="0" transform="translate(170.546875, 102.203125)"><g id="tx_renderer_1lwrzv91t0k8ar-fill-merged" stroke="none" fill="#000000" fill-opacity="1"><g><text style="font: bold 12px Roboto, sans-serif; white-space: pre;" transform="translate(69.453125, 17.2001953125)" font-weight="bold" font-size="12px" font-family="Roboto, sans-serif"><tspan x="-57.45" y="6.8" dominant-baseline="ideographic">Renderers</tspan></text></g></g></g><g id="g-root-tx_renderer_1lwrzv91t0k8ar-stroke" data-item-order="0" transform="translate(170.546875, 102.203125)"></g><g id="g-root-ic_1_1hf32hh1t0oe89-fill" data-item-order="0" transform="translate(242, 110)"></g><g id="g-root-ic_1_1hf32hh1t0oe89-stroke" data-item-order="0" transform="translate(242, 110)"><g id="ic_1_1hf32hh1t0oe89-stroke" fill="none" stroke-linecap="round" stroke-linejoin="round" stroke-miterlimit="4" stroke="#000000" stroke-width="1" stroke-opacity="1"><g><path d="M 15.625 18.125C 14.934644 18.125 14.375 18.684645 14.375 19.375L 14.375 30.625C 14.375 31.315355 14.934644 31.875 15.625 31.875L 34.375 31.875C 35.065353 31.875 35.625 31.315355 35.625 30.625L 35.625 29.375M 19.375 13.125L 38.125 13.125C 38.125 13.125 39.375 13.125 39.375 14.375L 39.375 25.625C 39.375 25.625 39.375 26.875 38.125 26.875L 19.375 26.875C 19.375 26.875 18.125 26.875 18.125 25.625L 18.125 14.375C 18.125 14.375 18.125 13.125 19.375 13.125M 11.875 23.125C 11.184644 23.125 10.625 23.684643 10.625 24.375L 10.625 35.625C 10.625 36.315353 11.184644 36.875 11.875 36.875L 30.625 36.875C 31.315355 36.875 31.875 36.315353 31.875 35.625L 31.875 34.375"></path></g></g></g><g id="g-root-tx_fragment_1q7lpat1t0llho-fill" data-item-order="0" transform="translate(60.265625, 122.603515625)"><g id="tx_fragment_1q7lpat1t0llho-fill-merged" stroke="none" fill="#000000" fill-opacity="1"><g><text style="font: 10.5px Roboto, sans-serif; white-space: pre;" transform="translate(179.734375, 22.5966796875)" font-size="10.5px" font-family="Roboto, sans-serif"><tspan x="-167.73" y="-0.6" dominant-baseline="ideographic">Fragmentos visuales concretos que </tspan><tspan x="-99.16" y="12" dominant-baseline="ideographic">aparecen en pantalla</tspan></text></g></g></g><g id="g-root-tx_fragment_1q7lpat1t0llho-stroke" data-item-order="0" transform="translate(60.265625, 122.603515625)"></g><g id="g-root-tx_anchorsd_6hz6d1t0lngl-fill" data-item-order="0" transform="translate(123.09375, 156.203125)"><g id="tx_anchorsd_6hz6d1t0lngl-fill-merged" stroke="none" fill="#000000" fill-opacity="1"><g><text style="font: bold 12px Roboto, sans-serif; white-space: pre;" transform="translate(116.90625, 17.2001953125)" font-weight="bold" font-size="12px" font-family="Roboto, sans-serif"><tspan x="-104.91" y="6.8" dominant-baseline="ideographic">Anchors de Escena</tspan></text></g></g></g><g id="g-root-tx_anchorsd_6hz6d1t0lngl-stroke" data-item-order="0" transform="translate(123.09375, 156.203125)"></g><g id="g-root-ic_squa_dgpjdh1t0u0i2-fill" data-item-order="0" transform="translate(242, 164)"></g><g id="g-root-ic_squa_dgpjdh1t0u0i2-stroke" data-item-order="0" transform="translate(242, 164)"><g id="ic_squa_dgpjdh1t0u0i2-stroke" fill="none" stroke-linecap="round" stroke-linejoin="round" stroke-miterlimit="4" stroke="#000000" stroke-width="1" stroke-opacity="1"><g><path d="M 36.875 15.625L 36.875 34.375M 15.625 13.125L 34.375 13.125M 13.125 34.375L 13.125 15.625M 34.375 36.875L 15.625 36.875M 11.875 10.625L 14.375 10.625C 14.375 10.625 15.625 10.625 15.625 11.875L 15.625 14.375C 15.625 14.375 15.625 15.625 14.375 15.625L 11.875 15.625C 11.875 15.625 10.625 15.625 10.625 14.375L 10.625 11.875C 10.625 11.875 10.625 10.625 11.875 10.625M 35.625 10.625L 38.125 10.625C 38.125 10.625 39.375 10.625 39.375 11.875L 39.375 14.375C 39.375 14.375 39.375 15.625 38.125 15.625L 35.625 15.625C 35.625 15.625 34.375 15.625 34.375 14.375L 34.375 11.875C 34.375 11.875 34.375 10.625 35.625 10.625M 11.875 34.375L 14.375 34.375C 14.375 34.375 15.625 34.375 15.625 35.625L 15.625 38.125C 15.625 38.125 15.625 39.375 14.375 39.375L 11.875 39.375C 11.875 39.375 10.625 39.375 10.625 38.125L 10.625 35.625C 10.625 35.625 10.625 34.375 11.875 34.375M 35.625 34.375L 38.125 34.375C 38.125 34.375 39.375 34.375 39.375 35.625L 39.375 38.125C 39.375 38.125 39.375 39.375 38.125 39.375L 35.625 39.375C 35.625 39.375 34.375 39.375 34.375 38.125L 34.375 35.625C 34.375 35.625 34.375 34.375 35.625 34.375"></path></g></g></g><g id="g-root-tx_objetosp_1i6hh1t0n1fq-fill" data-item-order="0" transform="translate(53.5, 176.603515625)"><g id="tx_objetosp_1i6hh1t0n1fq-fill-merged" stroke="none" fill="#000000" fill-opacity="1"><g><text style="font: 10.5px Roboto, sans-serif; white-space: pre;" transform="translate(186.5, 22.5966796875)" font-size="10.5px" font-family="Roboto, sans-serif"><tspan x="-174.5" y="-0.6" dominant-baseline="ideographic">Objetos para seleccionar y manipular </tspan><tspan x="-86.33" y="12" dominant-baseline="ideographic">partes del modelo</tspan></text></g></g></g><g id="g-root-tx_objetosp_1i6hh1t0n1fq-stroke" data-item-order="0" transform="translate(53.5, 176.603515625)"></g><g id="g-root-tx_piezasca_dhyhjp1t0mz9j-fill" data-item-order="0" transform="translate(130.421875, 210.203125)"><g id="tx_piezasca_dhyhjp1t0mz9j-fill-merged" stroke="none" fill="#000000" fill-opacity="1"><g><text style="font: bold 12px Roboto, sans-serif; white-space: pre;" transform="translate(109.578125, 17.2001953125)" font-weight="bold" font-size="12px" font-family="Roboto, sans-serif"><tspan x="-97.58" y="6.8" dominant-baseline="ideographic">Piezas Canonicas</tspan></text></g></g></g><g id="g-root-tx_piezasca_dhyhjp1t0mz9j-stroke" data-item-order="0" transform="translate(130.421875, 210.203125)"></g><g id="g-root-ic_targ_mg3e511t0y9kz-fill" data-item-order="0" transform="translate(242, 218)"></g><g id="g-root-ic_targ_mg3e511t0y9kz-stroke" data-item-order="0" transform="translate(242, 218)"><g id="ic_targ_mg3e511t0y9kz-stroke" fill="none" stroke-linecap="round" stroke-linejoin="round" stroke-miterlimit="4" stroke="#000000" stroke-width="1" stroke-opacity="1"><g><path d="M 23.125 31.875C 23.125002 36.017136 26.482864 39.375 30.625 39.375C 34.767136 39.375 38.125 36.017136 38.125 31.875C 38.125 27.732864 34.767136 24.375002 30.625 24.375002C 26.482864 24.375002 23.125002 27.732864 23.125002 31.875ZM 23.125 39.375L 14.375 39.375C 12.994288 39.375 11.875 38.255714 11.875 36.875L 11.875 13.125M 35.625 10.625L 14.375 10.625C 12.994288 10.625 11.875 11.744288 11.875 13.125C 11.875 14.505712 12.994288 15.625 14.375 15.625L 34.375 15.625C 35.065353 15.625 35.625 16.184645 35.625 16.875L 35.625 21.875M 14.375 13.125L 34.375 13.125M 28.125 31.875C 28.125 33.255714 29.244287 34.375 30.625 34.375C 32.005714 34.375 33.125 33.255714 33.125 31.875C 33.125 30.494287 32.005714 29.375 30.625 29.375C 29.244287 29.375 28.125 30.494287 28.125 31.875Z"></path></g></g></g><g id="g-root-tx_familias_13ymrf91t0ogeg-fill" data-item-order="0" transform="translate(59.390625, 230.603515625)"><g id="tx_familias_13ymrf91t0ogeg-fill-merged" stroke="none" fill="#000000" fill-opacity="1"><g><text style="font: 10.5px Roboto, sans-serif; white-space: pre;" transform="translate(180.609375, 22.5966796875)" font-size="10.5px" font-family="Roboto, sans-serif"><tspan x="-168.61" y="-0.6" dominant-baseline="ideographic">Familias principales con significado </tspan><tspan x="-36.34" y="12" dominant-baseline="ideographic">técnico</tspan></text></g></g></g><g id="g-root-tx_familias_13ymrf91t0ogeg-stroke" data-item-order="0" transform="translate(59.390625, 230.603515625)"></g></g></g></svg>