<?xml version="1.0" encoding="utf-8" standalone="yes"?>
<!DOCTYPE svg PUBLIC "-//W3C//DTD SVG 1.1//EN" "http://www.w3.org/Graphics/SVG/1.1/DTD/svg11.dtd">
<svg style="fill:none;stroke:none;fill-rule:evenodd;clip-rule:evenodd;stroke-linecap:round;stroke-linejoin:round;stroke-miterlimit:1.5;" version="1.1" xmlns="http://www.w3.org/2000/svg" xmlns:xlink="http://www.w3.org/1999/xlink" width="918" height="712" viewBox="0 0 918 712"><style class="text-font-style fontImports" data-font-family="Roboto">@import url(https://fonts.googleapis.com/css2?family=Roboto:wght@400;700&amp;amp;display=block);</style><g id="items" style="isolation: isolate"><g id="blend" style="mix-blend-mode: normal"><g id="g-root-cp_0_g-0_18n6tpu1u4fqww-fill" data-item-order="-551437" transform="translate(344, 149)"></g><g id="g-root-cp_0_g-0_18n6tpu1u4fqww-stroke" data-item-order="-551437" transform="translate(344, 149)"><g id="cp_0_g-0_18n6tpu1u4fqww-stroke" fill="none" stroke-linecap="round" stroke-linejoin="round" stroke-miterlimit="4" stroke="#000000" stroke-width="1" stroke-opacity="1"><g><path d="M 460 64L 550 10L 550 25.2042L 472 72.0089L 472 125.9996L 382 180.0119L 382 233.9815L 292 288.009L 292 342L 202 396.009L 202 450.1089L 100 511.6089L 10 457.6089L 10 442L 100 496L 190 442L 190 388L 280 334L 280 280L 370 226L 370 172.0029L 460 118L 460 64Z"></path></g></g><g id="cp_0_g-0_18n6tpu1u4fqww-stroke" fill="none" stroke-linecap="round" stroke-linejoin="round" stroke-miterlimit="4" stroke="#000000" stroke-width="1" stroke-opacity="1"><g><path d="M 460 64L 370 10L 370 64L 460 118L 460 64Z"></path></g></g><g id="cp_0_g-0_18n6tpu1u4fqww-stroke" fill="none" stroke-linecap="round" stroke-linejoin="round" stroke-miterlimit="4" stroke="#000000" stroke-width="1" stroke-opacity="1"><g><path d="M 370 172L 280 118L 280 172L 370 226L 370 172Z"></path></g></g><g id="cp_0_g-0_18n6tpu1u4fqww-stroke" fill="none" stroke-linecap="round" stroke-linejoin="round" stroke-miterlimit="4" stroke="#000000" stroke-width="1" stroke-opacity="1"><g><path d="M 280 280L 190 226L 190 280L 280 334L 280 280Z"></path></g></g><g id="cp_0_g-0_18n6tpu1u4fqww-stroke" fill="none" stroke-linecap="round" stroke-linejoin="round" stroke-miterlimit="4" stroke="#000000" stroke-width="1" stroke-opacity="1"><g><path d="M 190 388L 100 334L 100 389L 190 442L 190 388Z"></path></g></g></g><g id="g-root-cp_1_g-1_mg3b3m1u4ftah-fill" data-item-order="-551425" transform="translate(344, 527)"></g><g id="g-root-cp_1_g-1_mg3b3m1u4ftah-stroke" data-item-order="-551425" transform="translate(344, 527)"><g id="cp_1_g-1_mg3b3m1u4ftah-stroke" fill="none" stroke-linecap="round" stroke-linejoin="round" stroke-miterlimit="4" stroke="#000000" stroke-width="1" stroke-opacity="1"><g><path d="M 100 10L 10 64L 100 118L 190 64L 100 10ZM 29 64L 100 22L 171 64L 100 106L 29 64Z"></path></g></g></g><g id="g-root-cp_2_g-2_i0wa2a1u4fqwy-fill" data-item-order="-551421" transform="translate(434, 419)"></g><g id="g-root-cp_2_g-2_i0wa2a1u4fqwy-stroke" data-item-order="-551421" transform="translate(434, 419)"><g id="cp_2_g-2_i0wa2a1u4fqwy-stroke" fill="none" stroke-linecap="round" stroke-linejoin="round" stroke-miterlimit="4" stroke="#000000" stroke-width="1" stroke-opacity="1"><g><path d="M 100 10L 10 64L 100 118L 190 64L 100 10ZM 29 64L 100 22L 171 64L 100 106L 29 64Z"></path></g></g></g><g id="g-root-cp_3_g-3_4pfroy1u4fshv-fill" data-item-order="-551417" transform="translate(524, 311)"></g><g id="g-root-cp_3_g-3_4pfroy1u4fshv-stroke" data-item-order="-551417" transform="translate(524, 311)"><g id="cp_3_g-3_4pfroy1u4fshv-stroke" fill="none" stroke-linecap="round" stroke-linejoin="round" stroke-miterlimit="4" stroke="#000000" stroke-width="1" stroke-opacity="1"><g><path d="M 100 10L 10 64L 100 118L 190 64L 100 10ZM 29 64L 100 22L 171 64L 100 106L 29 64Z"></path></g></g></g><g id="g-root-cp_4_g-4_1uuwtf61u4ft3g-fill" data-item-order="-551413" transform="translate(614, 203)"></g><g id="g-root-cp_4_g-4_1uuwtf61u4ft3g-stroke" data-item-order="-551413" transform="translate(614, 203)"><g id="cp_4_g-4_1uuwtf61u4ft3g-stroke" fill="none" stroke-linecap="round" stroke-linejoin="round" stroke-miterlimit="4" stroke="#000000" stroke-width="1" stroke-opacity="1"><g><path d="M 100 10L 10 64L 100 118L 190 64L 100 10ZM 29 64L 100 22L 171 64L 100 106L 29 64Z"></path></g></g></g><g id="g-root-cp_5_g-5_1q5q7021u4h5ad-fill" data-item-order="-551409" transform="translate(704, 95)"></g><g id="g-root-cp_5_g-5_1q5q7021u4h5ad-stroke" data-item-order="-551409" transform="translate(704, 95)"><g id="cp_5_g-5_1q5q7021u4h5ad-stroke" fill="none" stroke-linecap="round" stroke-linejoin="round" stroke-miterlimit="4" stroke="#000000" stroke-width="1" stroke-opacity="1"><g><path d="M 100 10L 10 64L 100 118L 190 64L 100 10ZM 29 64L 100 22L 171 64L 100 106L 29 64Z"></path></g></g></g><g id="g-root-cp_2_text-2_1cu9omq1u4h6va-fill" data-item-order="-551395" transform="translate(158, 440)"></g><g id="g-root-cp_2_text-2_1cu9omq1u4h6va-stroke" data-item-order="-551395" transform="translate(158, 440)"><g id="cp_2_text-2_1cu9omq1u4h6va-stroke" fill="none" stroke-linecap="round" stroke-linejoin="round" stroke-miterlimit="4" stroke="#000000" stroke-width="1" stroke-opacity="1"><g><path d="M 10 10L 16 10L 16 76L 10 76Z"></path></g></g></g><g id="g-root-cp_3_text-3_zjfnci1u4h5af-fill" data-item-order="-551381" transform="translate(248, 332)"></g><g id="g-root-cp_3_text-3_zjfnci1u4h5af-stroke" data-item-order="-551381" transform="translate(248, 332)"><g id="cp_3_text-3_zjfnci1u4h5af-stroke" fill="none" stroke-linecap="round" stroke-linejoin="round" stroke-miterlimit="4" stroke="#000000" stroke-width="1" stroke-opacity="1"><g><path d="M 10 10L 16 10L 16 76L 10 76Z"></path></g></g></g><g id="g-root-cp_1_text-1_m7z4z61u4h6vc-fill" data-item-order="-551367" transform="translate(68, 551)"></g><g id="g-root-cp_1_text-1_m7z4z61u4h6vc-stroke" data-item-order="-551367" transform="translate(68, 551)"><g id="cp_1_text-1_m7z4z61u4h6vc-stroke" fill="none" stroke-linecap="round" stroke-linejoin="round" stroke-miterlimit="4" stroke="#000000" stroke-width="1" stroke-opacity="1"><g><path d="M 10 10L 16 10L 16 76L 10 76Z"></path></g></g></g><g id="g-root-cp_4_text-4_8x53oy1u4h5ah-fill" data-item-order="-551351" transform="translate(338, 224)"></g><g id="g-root-cp_4_text-4_8x53oy1u4h5ah-stroke" data-item-order="-551351" transform="translate(338, 224)"><g id="cp_4_text-4_8x53oy1u4h5ah-stroke" fill="none" stroke-linecap="round" stroke-linejoin="round" stroke-miterlimit="4" stroke="#000000" stroke-width="1" stroke-opacity="1"><g><path d="M 10 10L 16 10L 16 76L 10 76Z"></path></g></g></g><g id="g-root-cp_5_text-5_1umsnaq1u4h6oa-fill" data-item-order="-551337" transform="translate(428, 116)"></g><g id="g-root-cp_5_text-5_1umsnaq1u4h6oa-stroke" data-item-order="-551337" transform="translate(428, 116)"><g id="cp_5_text-5_1umsnaq1u4h6oa-stroke" fill="none" stroke-linecap="round" stroke-linejoin="round" stroke-miterlimit="4" stroke="#000000" stroke-width="1" stroke-opacity="1"><g><path d="M 10 10L 16 10L 16 76L 10 76Z"></path></g></g></g><g id="g-root-tx_livedigi_1hf32lu1u4jy8a-fill" data-item-order="0" transform="translate(356, 224)"><g id="tx_livedigi_1hf32lu1u4jy8a-fill-merged" stroke="none" fill="#000000" fill-opacity="1"><g><text style="font: bold 15px Roboto, sans-serif; white-space: pre;" transform="translate(10, 19)" font-weight="bold" font-size="15px" font-family="Roboto, sans-serif"><tspan x="2" y="9" dominant-baseline="ideographic">Live Digital Shadow</tspan></text></g></g></g><g id="g-root-tx_livedigi_1hf32lu1u4jy8a-stroke" data-item-order="0" transform="translate(356, 224)"></g><g id="g-root-ic_cube_qu1dyq1u4v8cv-fill" data-item-order="0" transform="translate(680, 233)"></g><g id="g-root-ic_cube_qu1dyq1u4v8cv-stroke" data-item-order="0" transform="translate(680, 233)"><g id="ic_cube_qu1dyq1u4v8cv-stroke" fill="none" stroke-linecap="round" stroke-linejoin="round" stroke-miterlimit="4" stroke="#000000" stroke-width="1" stroke-opacity="1"><g><path d="M 26 34C 27.10457 34 28 33.104568 28 32L 28 17.327999C 27.999887 16.797611 27.789099 16.288986 27.414 15.914L 23.086 11.586C 22.711014 11.210901 22.202389 11.000113 21.672001 11L 13 11C 11.895431 11 11 11.895431 11 13L 11 32C 11 33.104568 11.895431 34 13 34ZM 36 43L 50 43L 50 57L 36 57ZM 50 57L 57 50L 57 36L 43 36L 36 43M 50 43L 57 36M 52 24C 48.861038 19.132793 43.463615 16.194496 37.672001 16.200001L 34.573997 16.200001M 39.222 11.544L 34.573997 16.194L 39.222 20.841999M 12 42C 15.138965 46.86721 20.536388 49.805504 26.328001 49.800003L 29.426001 49.799999M 24.778 54.456001L 29.426001 49.806L 24.778 45.158001"></path></g></g></g><g id="g-root-tx_modeloac_znt2421u4k0lf-fill" data-item-order="0" transform="translate(356, 254)"><g id="tx_modeloac_znt2421u4k0lf-fill-merged" stroke="none" fill="#000000" fill-opacity="1"><g><text style="font: 15px Roboto, sans-serif; white-space: pre;" transform="translate(10, 28)" font-size="15px" font-family="Roboto, sans-serif"><tspan x="2" y="0" dominant-baseline="ideographic">Modelo actualizado en tiempo real </tspan><tspan x="2" y="18" dominant-baseline="ideographic">con datos en vivo.</tspan></text></g></g></g><g id="g-root-tx_modeloac_znt2421u4k0lf-stroke" data-item-order="0" transform="translate(356, 254)"></g><g id="g-root-tx_4_dhc0ky1u4jzt8-fill" data-item-order="0" transform="translate(284, 224)"><g id="tx_4_dhc0ky1u4jzt8-fill-merged" stroke="none" fill="#000000" fill-opacity="1"><g><text style="font: bold 25px Roboto, sans-serif; white-space: pre;" transform="translate(19.171875, 25)" font-weight="bold" font-size="25px" font-family="Roboto, sans-serif"><tspan x="-7.17" y="15" dominant-baseline="ideographic">4</tspan></text></g></g></g><g id="g-root-tx_4_dhc0ky1u4jzt8-stroke" data-item-order="0" transform="translate(284, 224)"></g><g id="g-root-tx_modelosi_145hzhu1u4jyti-fill" data-item-order="0" transform="translate(446, 146)"><g id="tx_modelosi_145hzhu1u4jyti-fill-merged" stroke="none" fill="#000000" fill-opacity="1"><g><text style="font: 15px Roboto, sans-serif; white-space: pre;" transform="translate(10, 28)" font-size="15px" font-family="Roboto, sans-serif"><tspan x="2" y="0" dominant-baseline="ideographic">Modelo sincronizado con datos, </tspan><tspan x="2" y="18" dominant-baseline="ideographic">simulación y soporte a decisiones.</tspan></text></g></g></g><g id="g-root-tx_modelosi_145hzhu1u4jyti-stroke" data-item-order="0" transform="translate(446, 146)"></g><g id="g-root-tx_3_1uo1omq1u4k0su-fill" data-item-order="0" transform="translate(194, 332)"><g id="tx_3_1uo1omq1u4k0su-fill-merged" stroke="none" fill="#000000" fill-opacity="1"><g><text style="font: bold 25px Roboto, sans-serif; white-space: pre;" transform="translate(19.171875, 25)" font-weight="bold" font-size="25px" font-family="Roboto, sans-serif"><tspan x="-7.17" y="15" dominant-baseline="ideographic">3</tspan></text></g></g></g><g id="g-root-tx_3_1uo1omq1u4k0su-stroke" data-item-order="0" transform="translate(194, 332)"></g><g id="g-root-tx_historic_zkoooi1u4jzf0-fill" data-item-order="0" transform="translate(266, 332)"><g id="tx_historic_zkoooi1u4jzf0-fill-merged" stroke="none" fill="#000000" fill-opacity="1"><g><text style="font: bold 15px Roboto, sans-serif; white-space: pre;" transform="translate(10, 19)" font-weight="bold" font-size="15px" font-family="Roboto, sans-serif"><tspan x="2" y="9" dominant-baseline="ideographic">Historical Digital Shadow</tspan></text></g></g></g><g id="g-root-tx_historic_zkoooi1u4jzf0-stroke" data-item-order="0" transform="translate(266, 332)"></g><g id="g-root-ic_shar_zjfnci1u4sf7n-fill" data-item-order="0" transform="translate(590, 341)"></g><g id="g-root-ic_shar_zjfnci1u4sf7n-stroke" data-item-order="0" transform="translate(590, 341)"><g id="ic_shar_zjfnci1u4sf7n-stroke" fill="none" stroke-linecap="round" stroke-linejoin="round" stroke-miterlimit="4" stroke="#000000" stroke-width="1" stroke-opacity="1"><g><path d="M 31 57L 13 57C 11.895431 57 11 56.104568 11 55L 11 13C 11 11.895431 11.895431 11 13 11L 39.585999 11C 40.116676 11.000644 40.625343 11.212168 41 11.588L 48.414001 19C 48.789101 19.374985 48.999886 19.88361 49 20.414L 49 27M 29 41C 24.680614 40.986954 20.857788 38.202053 19.52109 34.094681C 18.184391 29.987309 19.635971 25.485909 23.120365 22.933212C 26.604759 20.380512 31.334341 20.353535 34.84763 22.866318C 38.360916 25.379101 39.863754 29.863647 38.574001 33.986M 29 25.001999L 29 31.002001L 33 31.002001M 33 46.501999C 33 48.987282 35.014717 51.001999 37.5 51.001999C 39.985283 51.001999 42 48.987282 42 46.501999C 42 44.01672 39.985283 42.001999 37.5 42.001999C 35.014717 42.001999 33 44.01672 33 46.501999ZM 48 52.501999C 48 54.987282 50.014717 57.001999 52.5 57.001999C 54.985283 57.001999 57 54.987282 57 52.501999C 57 50.01672 54.985283 48.001999 52.5 48.001999C 50.014717 48.001999 48 50.01672 48 52.501999ZM 48 37.501999C 48 39.987282 50.014717 42.001999 52.5 42.001999C 54.985283 42.001999 57 39.987282 57 37.501999C 57 35.016716 54.985283 33.001999 52.5 33.001999C 50.014717 33.001999 48 35.016716 48 37.501999ZM 41.349998 44.192001L 48.650002 39.812M 41.676003 48.172001L 48.324001 50.832001"></path></g></g></g><g id="g-root-tx_modeloco_hu159u1u4jymd-fill" data-item-order="0" transform="translate(266, 362)"><g id="tx_modeloco_hu159u1u4jymd-fill-merged" stroke="none" fill="#000000" fill-opacity="1"><g><text style="font: 15px Roboto, sans-serif; white-space: pre;" transform="translate(10, 28)" font-size="15px" font-family="Roboto, sans-serif"><tspan x="2" y="0" dominant-baseline="ideographic">Modelo con datos registrados para </tspan><tspan x="2" y="18" dominant-baseline="ideographic">reproducir estados pasados.</tspan></text></g></g></g><g id="g-root-tx_modeloco_hu159u1u4jymd-stroke" data-item-order="0" transform="translate(266, 362)"></g><g id="g-root-ic_up_18f2qr61u4fsar-fill" data-item-order="0" transform="translate(770, 125)"></g><g id="g-root-ic_up_18f2qr61u4fsar-stroke" data-item-order="0" transform="translate(770, 125)"><g id="ic_up_18f2qr61u4fsar-stroke" fill="none" stroke-linecap="round" stroke-linejoin="round" stroke-miterlimit="4" stroke="#000000" stroke-width="1" stroke-opacity="1"><g><path d="M 11.5 56.5C 14.48672 56.5 17.473461 56.5 20.46018 53.5C 23.446899 56.5 26.43362 56.5 27.23008 56.5C 28.026541 56.5 31.013201 56.5 34 53.5C 36.986801 56.5 39.9734 56.5 40.77 56.5C 41.566399 56.5 44.553001 56.5 47.539799 53.5C 50.5266 56.5 53.513199 56.5 56.5 56.5M 50.299999 18.79162C 53.9716 18.79162 56.9482 17.15934 56.9482 15.145821C 56.9482 13.13228 53.9716 11.5 50.299999 11.5C 46.628201 11.5 43.651798 13.13228 43.651798 15.145821C 43.651798 17.15934 46.628201 18.79162 50.299999 18.79162ZM 43.651798 15.1457L 43.651798 25.010841C 43.651798 26.940981 46.654202 28.65666 50.299999 28.65666C 53.945801 28.65666 56.9482 26.940981 56.9482 25.010841L 56.9482 15.1457M 14.59252 48.799801C 14.59252 48.137199 14.37164 47.474602 13.70896 46.811798L 12.38358 45.486401C 11.500006 44.823799 11.279104 43.498402 11.720892 42.614799C 12.16268 41.510399 13.04626 41.0686 14.15074 41.0686L 15.9179 41.0686C 16.58058 41.0686 17.46414 40.847801 17.905941 40.405998C 18.347721 39.964199 18.568619 39.312401 18.568619 38.417801L 18.568619 36.650803C 18.568619 35.5462 19.2313 34.441799 20.11488 34.220802C 21.219341 33.779198 22.32382 34 22.9865 34.883598L 24.31188 36.209C 24.75366 36.650803 25.41634 37.092598 26.299919 37.092598C 27.183479 37.092598 27.625259 36.871597 28.287939 36.209L 29.613319 34.883598C 30.275999 34 31.6014 33.779198 32.485001 34.220802C 33.589401 34.662598 34.0312 35.5462 34.0312 36.650803L 34.0312 38.417801C 34.0312 39.080601 34.252197 39.964199 34.693802 40.405998C 35.135597 40.847801 36.019199 41.2896 36.681999 41.0686L 38.448997 41.0686C 39.5536 41.0686 40.658001 41.731201 40.878998 42.614799C 41.320801 43.719398 41.0998 44.823799 40.216202 45.486401L 38.8908 46.811798C 38.448997 47.253601 38.007202 47.916401 38.007202 48.799801M 21.44018 48.799801C 21.44018 46.148998 23.649139 43.7192 26.52076 43.7192C 29.17148 43.7192 31.3804 45.928001 31.3804 48.799801M 50.299999 33.399799L 50.299999 47.999802M 10 10M 46.299999 37.400002L 50.299999 33.400002L 54.299999 37.400002M 56.9482 20.039661C 56.9482 22.095821 53.971802 23.76268 50.299999 23.76268C 46.628201 23.76268 43.651798 22.095821 43.651798 20.039661"></path></g></g></g><g id="g-root-tx_operatio_1lw5iwi1u4jzm5-fill" data-item-order="0" transform="translate(446, 116)"><g id="tx_operatio_1lw5iwi1u4jzm5-fill-merged" stroke="none" fill="#000000" fill-opacity="1"><g><text style="font: bold 15px Roboto, sans-serif; white-space: pre;" transform="translate(10, 19)" font-weight="bold" font-size="15px" font-family="Roboto, sans-serif"><tspan x="2" y="9" dominant-baseline="ideographic">Operational Digital Twin</tspan></text></g></g></g><g id="g-root-tx_operatio_1lw5iwi1u4jzm5-stroke" data-item-order="0" transform="translate(446, 116)"></g><g id="g-root-tx_2_1q6z8c21u4jzez-fill" data-item-order="0" transform="translate(104, 440)"><g id="tx_2_1q6z8c21u4jzez-fill-merged" stroke="none" fill="#000000" fill-opacity="1"><g><text style="font: bold 25px Roboto, sans-serif; white-space: pre;" transform="translate(19.171875, 25)" font-weight="bold" font-size="25px" font-family="Roboto, sans-serif"><tspan x="-7.17" y="15" dominant-baseline="ideographic">2</tspan></text></g></g></g><g id="g-root-tx_2_1q6z8c21u4jzez-stroke" data-item-order="0" transform="translate(104, 440)"></g><g id="g-root-tx_visualpr_18eg9o21u4jzm1-fill" data-item-order="0" transform="translate(176, 440)"><g id="tx_visualpr_18eg9o21u4jzm1-fill-merged" stroke="none" fill="#000000" fill-opacity="1"><g><text style="font: bold 15px Roboto, sans-serif; white-space: pre;" transform="translate(10, 19)" font-weight="bold" font-size="15px" font-family="Roboto, sans-serif"><tspan x="2" y="9" dominant-baseline="ideographic">Visual Product Twin</tspan></text></g></g></g><g id="g-root-tx_visualpr_18eg9o21u4jzm1-stroke" data-item-order="0" transform="translate(176, 440)"></g><g id="g-root-ic_cata_1hhkvsi1u4k0lp-fill" data-item-order="0" transform="translate(500, 449)"></g><g id="g-root-ic_cata_1hhkvsi1u4k0lp-stroke" data-item-order="0" transform="translate(500, 449)"><g id="ic_cata_1hhkvsi1u4k0lp-stroke" fill="none" stroke-linecap="round" stroke-linejoin="round" stroke-miterlimit="4" stroke="#000000" stroke-width="1" stroke-opacity="1"><g><path d="M 10 10M 43 36.798203L 34 41.798203L 25 36.798203L 25 27.19824L 34 22.19824L 43 27.19824L 43 36.798203ZM 43 27.19824L 34 32.1982L 25 27.19824M 34 32.1982L 34 41.798203M 18.625 18.55468C 22.314999 14.19738 27.85 11.5 34 11.5C 40.150002 11.5 45.685001 14.19738 49.375 18.55468M 38.062401 52C 47.4716 50.159 54.454601 41.773399 54.454601 31.9552C 54.454601 29.77606 54.070801 27.596861 53.489201 25.603519M 29.921881 52.015598C 20.512779 50.174801 13.54554 41.773003 13.54554 31.9548C 13.54554 29.909439 13.95462 27.863979 14.36372 25.818539L 14.422359 25.55958M 34 56.500198C 36.259399 56.500198 38.091 54.668598 38.091 52.409199C 38.091 50.150002 36.259399 48.318401 34 48.318401C 31.740801 48.318401 29.90918 50.150002 29.90918 52.409199C 29.90918 54.668598 31.740801 56.500198 34 56.500198ZM 51.693199 26.01824C 53.952599 26.01824 55.784199 24.18668 55.784199 21.92734C 55.784199 19.66798 53.952599 17.83642 51.693199 17.83642C 49.4338 17.83642 47.6022 19.66798 47.6022 21.92734C 47.6022 24.18668 49.4338 26.01824 51.693199 26.01824ZM 16.30698 26.01824C 18.56632 26.01824 20.397881 24.18668 20.397881 21.92734C 20.397881 19.66798 18.56632 17.83642 16.30698 17.83642C 14.04762 17.83642 12.21606 19.66798 12.21606 21.92734C 12.21606 24.18668 14.04762 26.01824 16.30698 26.01824Z"></path></g></g></g><g id="g-root-tx_modelodi_hs5q0i1u4jzm2-fill" data-item-order="0" transform="translate(176, 470)"><g id="tx_modelodi_hs5q0i1u4jzm2-fill-merged" stroke="none" fill="#000000" fill-opacity="1"><g><text style="font: 15px Roboto, sans-serif; white-space: pre;" transform="translate(10, 28)" font-size="15px" font-family="Roboto, sans-serif"><tspan x="2" y="0" dominant-baseline="ideographic">Modelo digital con organización de </tspan><tspan x="2" y="18" dominant-baseline="ideographic">piezas y modos de inspección.</tspan></text></g></g></g><g id="g-root-tx_modelodi_hs5q0i1u4jzm2-stroke" data-item-order="0" transform="translate(176, 470)"></g><g id="g-root-tx_5_hyegvm1u4k173-fill" data-item-order="0" transform="translate(374, 116)"><g id="tx_5_hyegvm1u4k173-fill-merged" stroke="none" fill="#000000" fill-opacity="1"><g><text style="font: bold 25px Roboto, sans-serif; white-space: pre;" transform="translate(19.171875, 25)" font-weight="bold" font-size="25px" font-family="Roboto, sans-serif"><tspan x="-7.17" y="15" dominant-baseline="ideographic">5</tspan></text></g></g></g><g id="g-root-tx_5_hyegvm1u4k173-stroke" data-item-order="0" transform="translate(374, 116)"></g><g id="g-root-tx_represen_v6qlte1u4jz7k-fill" data-item-order="0" transform="translate(86, 581)"><g id="tx_represen_v6qlte1u4jz7k-fill-merged" stroke="none" fill="#000000" fill-opacity="1"><g><text style="font: 15px Roboto, sans-serif; white-space: pre;" transform="translate(10, 28)" font-size="15px" font-family="Roboto, sans-serif"><tspan x="2" y="0" dominant-baseline="ideographic">Representación digital básica sin </tspan><tspan x="2" y="18" dominant-baseline="ideographic">flujo de datos.</tspan></text></g></g></g><g id="g-root-tx_represen_v6qlte1u4jz7k-stroke" data-item-order="0" transform="translate(86, 581)"></g><g id="g-root-tx_1_4kg25u1u4jz7l-fill" data-item-order="0" transform="translate(14, 551)"><g id="tx_1_4kg25u1u4jz7l-fill-merged" stroke="none" fill="#000000" fill-opacity="1"><g><text style="font: bold 25px Roboto, sans-serif; white-space: pre;" transform="translate(19.171875, 25)" font-weight="bold" font-size="25px" font-family="Roboto, sans-serif"><tspan x="-7.17" y="15" dominant-baseline="ideographic">1</tspan></text></g></g></g><g id="g-root-tx_1_4kg25u1u4jz7l-stroke" data-item-order="0" transform="translate(14, 551)"></g><g id="g-root-tx_digitalm_1cxe5821u4k007-fill" data-item-order="0" transform="translate(86, 551)"><g id="tx_digitalm_1cxe5821u4k007-fill-merged" stroke="none" fill="#000000" fill-opacity="1"><g><text style="font: bold 15px Roboto, sans-serif; white-space: pre;" transform="translate(10, 19)" font-weight="bold" font-size="15px" font-family="Roboto, sans-serif"><tspan x="2" y="9" dominant-baseline="ideographic">Digital Model</tspan></text></g></g></g><g id="g-root-tx_digitalm_1cxe5821u4k007-stroke" data-item-order="0" transform="translate(86, 551)"></g><g id="g-root-ic_desk_zkoliq1u4h7gk-fill" data-item-order="0" transform="translate(410, 557)"></g><g id="g-root-ic_desk_zkoliq1u4h7gk-stroke" data-item-order="0" transform="translate(410, 557)"><g id="ic_desk_zkoliq1u4h7gk-stroke" fill="none" stroke-linecap="round" stroke-linejoin="round" stroke-miterlimit="4" stroke="#000000" stroke-width="1" stroke-opacity="1"><g><path d="M 45.0924 11.865662L 34.170998 17.340679L 34.170998 30.480801L 45.0924 35.955799L 56.013599 30.480801L 56.013599 17.340679L 45.0924 11.865662ZM 10 10M 34.160599 17.529659L 45.130001 23.190319L 56.0462 17.529659M 10 10M 45.0784 35.9562L 45.0784 23.189461M 28.02022 27.474979L 14.082661 27.474979C 12.9069 27.474979 11.95375 28.42812 11.95375 29.60388L 11.95375 47.618801C 11.95375 48.794601 12.9069 49.747601 14.082661 49.747601L 41.758598 49.747601C 42.9342 49.747601 43.887402 48.794601 43.887402 47.618801L 43.887402 41.413799M 19.40464 56.134399L 36.436001 56.134399M 10 10M 25.2626 49.773602L 22.24332 56.134201M 10 10M 30.5786 49.773602L 33.597801 56.134201"></path></g></g></g><g id="g-root-tx_lograrla_1q6z56a1u4h7gj-fill" data-item-order="0" transform="translate(302.7265625, 38)"><g id="tx_lograrla_1q6z56a1u4h7gj-fill-merged" stroke="none" fill="#000000" fill-opacity="1"><g><text style="font: bold 25px Roboto, sans-serif; white-space: pre;" transform="translate(153.2734375, 25)" font-weight="bold" font-size="25px" font-family="Roboto, sans-serif"><tspan x="-141.27" y="15" dominant-baseline="ideographic">Lograr la Madurez Digital</tspan></text></g></g></g><g id="g-root-tx_lograrla_1q6z56a1u4h7gj-stroke" data-item-order="0" transform="translate(302.7265625, 38)"></g></g></g></svg>