<?xml version="1.0" encoding="utf-8" standalone="yes"?>
<!DOCTYPE svg PUBLIC "-//W3C//DTD SVG 1.1//EN" "http://www.w3.org/Graphics/SVG/1.1/DTD/svg11.dtd">
<svg style="fill:none;stroke:none;fill-rule:evenodd;clip-rule:evenodd;stroke-linecap:round;stroke-linejoin:round;stroke-miterlimit:1.5;" version="1.1" xmlns="http://www.w3.org/2000/svg" xmlns:xlink="http://www.w3.org/1999/xlink" width="542" height="745" viewBox="0 0 542 745"><style class="text-font-style fontImports" data-font-family="Roboto">@import url(https://fonts.googleapis.com/css2?family=Roboto:wght@400;700&amp;amp;display=block);</style><g id="items" style="isolation: isolate"><g id="blend" style="mix-blend-mode: normal"><g id="g-root-cp_1_lines-1_i0wswz1qiz280-fill" data-item-order="-320332" transform="translate(141.2578125, 98)"></g><g id="g-root-cp_1_lines-1_i0wswz1qiz280-stroke" data-item-order="-320332" transform="translate(141.2578125, 98)"><g id="cp_1_lines-1_i0wswz1qiz280-stroke" fill="none" stroke-linecap="round" stroke-linejoin="round" stroke-miterlimit="4" stroke="#000000" stroke-width="1" stroke-opacity="1"><g><path d="M 16 10L 14 10C 11.7909 10 10 11.7909 10 14L 10 16M 10 16L 10 32.799988M 117.85936 16L 117.85936 32.799988M 16 10L 111.85936 10M 16 38.799988L 14 38.799988C 11.7909 38.799988 10 37.009088 10 34.799988L 10 32.799988M 111.85936 10L 113.85936 10C 116.06846 10 117.85936 11.7909 117.85936 14L 117.85936 16M 111.85936 38.799988L 16 38.799988M 111.85936 38.799988L 113.85936 38.799988C 116.06846 38.799988 117.85936 37.009088 117.85936 34.799988L 117.85936 32.799988"></path></g></g></g><g id="g-root-cp_2_lines-2_1qf3u5f1qiz56p-fill" data-item-order="-320280" transform="translate(141.9140625, 198.7998046875)"></g><g id="g-root-cp_2_lines-2_1qf3u5f1qiz56p-stroke" data-item-order="-320280" transform="translate(141.9140625, 198.7998046875)"><g id="cp_2_lines-2_1qf3u5f1qiz56p-stroke" fill="none" stroke-linecap="round" stroke-linejoin="round" stroke-miterlimit="4" stroke="#000000" stroke-width="1" stroke-opacity="1"><g><path d="M 16 10L 14 10C 11.7909 10 10 11.7909 10 14L 10 16M 10 16L 10 32.799988M 116.546875 16L 116.546875 32.799988M 16 10L 110.546875 10M 16 38.799988L 14 38.799988C 11.7909 38.799988 10 37.009088 10 34.799988L 10 32.799988M 110.546875 10L 112.546875 10C 114.755975 10 116.546875 11.7909 116.546875 14L 116.546875 16M 110.546875 38.799988L 16 38.799988M 110.546875 38.799988L 112.546875 38.799988C 114.755975 38.799988 116.546875 37.009088 116.546875 34.799988L 116.546875 32.799988"></path></g></g></g><g id="g-root-cp_3_lines-3_13yn78j1qj0iyy-fill" data-item-order="-320228" transform="translate(130.2578125, 299.60009765625)"></g><g id="g-root-cp_3_lines-3_13yn78j1qj0iyy-stroke" data-item-order="-320228" transform="translate(130.2578125, 299.60009765625)"><g id="cp_3_lines-3_13yn78j1qj0iyy-stroke" fill="none" stroke-linecap="round" stroke-linejoin="round" stroke-miterlimit="4" stroke="#000000" stroke-width="1" stroke-opacity="1"><g><path d="M 16 10L 14 10C 11.7909 10 10 11.7909 10 14L 10 16M 10 16L 10 32.799957M 139.859375 16L 139.859375 32.799957M 16 10L 133.859375 10M 16 38.799957L 14 38.799957C 11.7909 38.799957 10 37.009057 10 34.799957L 10 32.799957M 133.859375 10L 135.859375 10C 138.068475 10 139.859375 11.7909 139.859375 14L 139.859375 16M 133.859375 38.799957L 16 38.799957M 133.859375 38.799957L 135.859375 38.799957C 138.068475 38.799957 139.859375 37.009057 139.859375 34.799957L 139.859375 32.799957"></path></g></g></g><g id="g-root-cp_4_lines-4_qnt5yb1qj0he3-fill" data-item-order="-320176" transform="translate(142.0078125, 400.39990234375)"></g><g id="g-root-cp_4_lines-4_qnt5yb1qj0he3-stroke" data-item-order="-320176" transform="translate(142.0078125, 400.39990234375)"><g id="cp_4_lines-4_qnt5yb1qj0he3-stroke" fill="none" stroke-linecap="round" stroke-linejoin="round" stroke-miterlimit="4" stroke="#000000" stroke-width="1" stroke-opacity="1"><g><path d="M 10 41C 10 39.5 10.793747 38 12.343854 37.128901L 60.341179 10.8325C 62.189899 9.7225 64.169472 9.7225 66.018188 10.8325L 114.015511 37.128901C 115.56562 38 116.359375 39.5 116.359375 41M 10 46.999969C 10 48.499969 10.793747 49.999969 12.343854 50.871071L 60.341179 77.167473C 62.189899 78.277466 64.169472 78.277466 66.018188 77.167473L 114.015511 50.871071C 115.56562 49.999969 116.359375 48.499969 116.359375 46.999969M 10.000242 41.00005C 9.999758 42.312443 10.000081 45.731476 10.000242 46.999969M 116.359375 46.999969C 116.359375 45.731476 116.359375 42.481392 116.359375 41"></path></g></g></g><g id="g-root-cp_5_lines-5_8wj5gj1qj0jr8-fill" data-item-order="-320132" transform="translate(137.6484375, 540.39990234375)"></g><g id="g-root-cp_5_lines-5_8wj5gj1qj0jr8-stroke" data-item-order="-320132" transform="translate(137.6484375, 540.39990234375)"><g id="cp_5_lines-5_8wj5gj1qj0jr8-stroke" fill="none" stroke-linecap="round" stroke-linejoin="round" stroke-miterlimit="4" stroke="#000000" stroke-width="1" stroke-opacity="1"><g><path d="M 16 10L 14 10C 11.7909 10 10 11.7909 10 14L 10 16M 10 16L 10 43.596924M 125.078125 16L 125.078125 43.596924M 16 10L 119.078125 10M 16 49.596924L 14 49.596924C 11.7909 49.596924 10 47.806024 10 45.596924L 10 43.596924M 119.078125 10L 121.078125 10C 123.287225 10 125.078125 11.7909 125.078125 14L 125.078125 16M 119.078125 49.596924L 16 49.596924M 119.078125 49.596924L 121.078125 49.596924C 123.287225 49.596924 125.078125 47.806024 125.078125 45.596924L 125.078125 43.596924"></path></g></g></g><g id="g-root-cp_6_lines-6_1lr65wj1qj0irx-fill" data-item-order="-320080" transform="translate(272.7265625, 540.39990234375)"></g><g id="g-root-cp_6_lines-6_1lr65wj1qj0irx-stroke" data-item-order="-320080" transform="translate(272.7265625, 540.39990234375)"><g id="cp_6_lines-6_1lr65wj1qj0irx-stroke" fill="none" stroke-linecap="round" stroke-linejoin="round" stroke-miterlimit="4" stroke="#000000" stroke-width="1" stroke-opacity="1"><g><path d="M 16 10L 14 10C 11.7909 10 10 11.7909 10 14L 10 16M 10 16L 10 32.800049M 128.765625 16L 128.765625 32.800049M 16 10L 122.765625 10M 16 38.800049L 14 38.800049C 11.7909 38.800049 10 37.009149 10 34.800049L 10 32.800049M 122.765625 10L 124.765625 10C 126.974725 10 128.765625 11.7909 128.765625 14L 128.765625 16M 122.765625 38.800049L 16 38.800049M 122.765625 38.800049L 124.765625 38.800049C 126.974725 38.800049 128.765625 37.009149 128.765625 34.800049L 128.765625 32.800049"></path></g></g></g><g id="g-root-cp_7_lines-7_18gc4mb1qj0h72-fill" data-item-order="-320028" transform="translate(202.1484375, 651.9970703125)"></g><g id="g-root-cp_7_lines-7_18gc4mb1qj0h72-stroke" data-item-order="-320028" transform="translate(202.1484375, 651.9970703125)"><g id="cp_7_lines-7_18gc4mb1qj0h72-stroke" fill="none" stroke-linecap="round" stroke-linejoin="round" stroke-miterlimit="4" stroke="#000000" stroke-width="1" stroke-opacity="1"><g><path d="M 16 10L 14 10C 11.7909 10 10 11.7909 10 14L 10 16M 10 16L 10 32.800049M 131.15625 16L 131.15625 32.800049M 16 10L 125.15625 10M 16 38.800049L 14 38.800049C 11.7909 38.800049 10 37.009149 10 34.800049L 10 32.800049M 125.15625 10L 127.15625 10C 129.36535 10 131.15625 11.7909 131.15625 14L 131.15625 16M 125.15625 38.800049L 16 38.800049M 125.15625 38.800049L 127.15625 38.800049C 129.36535 38.800049 131.15625 37.009149 131.15625 34.800049L 131.15625 32.800049"></path></g></g></g><g id="g-root-he_zkp4df1qj0irk-fill" data-item-order="-319978" transform="translate(195.1875, 126.7998046875)"></g><g id="g-root-he_zkp4df1qj0irk-stroke" data-item-order="-319978" transform="translate(195.1875, 126.7998046875)"><g id="he_zkp4df1qj0irk-stroke" fill="none" stroke-linecap="round" stroke-linejoin="round" stroke-miterlimit="4" stroke="#000000" stroke-width="1" stroke-opacity="1"><style>.fillAsStrokeColor-mk-1q7lpfb1x6id59 { fill:#000000; }</style><g><path d="M 10 10L 10 79.17"></path><path d="M 10 80.6L 7.2 75.6L 12.8 75.6Z" stroke-dasharray="none" class="fillAsStrokeColor-mk-1q7lpfb1x6id59" fill="#000000"></path></g></g></g><g id="g-root-he_qp244j1qj0jka-fill" data-item-order="-319976" transform="translate(195.1875, 227.60009765625)"></g><g id="g-root-he_qp244j1qj0jka-stroke" data-item-order="-319976" transform="translate(195.1875, 227.60009765625)"><g id="he_qp244j1qj0jka-stroke" fill="none" stroke-linecap="round" stroke-linejoin="round" stroke-miterlimit="4" stroke="#000000" stroke-width="1" stroke-opacity="1"><style>.fillAsStrokeColor-mk-1qegxdj1x6gxe4 { fill:#000000; }</style><g><path d="M 10 10L 10 79.17"></path><path d="M 10 80.6L 7.2 75.6L 12.8 75.6Z" stroke-dasharray="none" class="fillAsStrokeColor-mk-1qegxdj1x6gxe4" fill="#000000"></path></g></g></g><g id="g-root-he_m9v3371qj0h6s-fill" data-item-order="-319974" transform="translate(195.1875, 328.39990234375)"></g><g id="g-root-he_m9v3371qj0h6s-stroke" data-item-order="-319974" transform="translate(195.1875, 328.39990234375)"><g id="he_m9v3371qj0h6s-stroke" fill="none" stroke-linecap="round" stroke-linejoin="round" stroke-miterlimit="4" stroke="#000000" stroke-width="1" stroke-opacity="1"><style>.fillAsStrokeColor-mk-hznf1z1x6gxl5 { fill:#000000; }</style><g><path d="M 10 10L 10 79.17"></path><path d="M 10 80.6L 7.2 75.6L 12.8 75.6Z" stroke-dasharray="none" class="fillAsStrokeColor-mk-hznf1z1x6gxl5" fill="#000000"></path></g></g></g><g id="g-root-he_de82ub1qj0hzi-fill" data-item-order="-319972" transform="translate(195.1875, 468.39990234375)"></g><g id="g-root-he_de82ub1qj0hzi-stroke" data-item-order="-319972" transform="translate(195.1875, 468.39990234375)"><g id="he_de82ub1qj0hzi-stroke" fill="none" stroke-linecap="round" stroke-linejoin="round" stroke-miterlimit="4" stroke="#000000" stroke-width="1" stroke-opacity="1"><style>.fillAsStrokeColor-mk-1czw1kn1x6gxsb { fill:#000000; }</style><g><path d="M 10 10L 10 79.17"></path><path d="M 10 80.6L 7.2 75.6L 12.8 75.6Z" stroke-dasharray="none" class="fillAsStrokeColor-mk-1czw1kn1x6gxsb" fill="#000000"></path></g></g></g><g id="g-root-he_8yekpv1qj0irs-fill" data-item-order="-319970" transform="translate(248.3671875, 434.39990234375)"></g><g id="g-root-he_8yekpv1qj0irs-stroke" data-item-order="-319970" transform="translate(248.3671875, 434.39990234375)"><g id="he_8yekpv1qj0irs-stroke" fill="none" stroke-linecap="round" stroke-linejoin="round" stroke-miterlimit="4" stroke="#000000" stroke-width="1" stroke-opacity="1"><style>.fillAsStrokeColor-mk-v7d2wn1x6gxz9 { fill:#000000; }</style><g><path d="M 10 10L 81.74 10C 88.37 10 93.74 15.37 93.74 22L 93.74 113.17"></path><path d="M 93.7 114.6L 90.9 109.6L 96.6 109.6Z" stroke-dasharray="none" class="fillAsStrokeColor-mk-v7d2wn1x6gxz9" fill="#000000"></path></g></g></g><g id="g-root-he_4il2lf1qj0jk2-fill" data-item-order="-319968" transform="translate(195.1875, 579.9970703125)"></g><g id="g-root-he_4il2lf1qj0jk2-stroke" data-item-order="-319968" transform="translate(195.1875, 579.9970703125)"><g id="he_4il2lf1qj0jk2-stroke" fill="none" stroke-linecap="round" stroke-linejoin="round" stroke-miterlimit="4" stroke="#000000" stroke-width="1" stroke-opacity="1"><style>.fillAsStrokeColor-mk-v5hnnb1x6gyys { fill:#000000; }</style><g><path d="M 10 10L 10 34C 10 40.63 15.37 46 22 46L 65.54 46C 72.17 46 77.54 51.37 77.54 58L 77.54 79.17"></path><path d="M 77.5 80.6L 74.7 75.6L 80.4 75.6Z" stroke-dasharray="none" class="fillAsStrokeColor-mk-v5hnnb1x6gyys" fill="#000000"></path></g></g></g><g id="g-root-he_4il2lf1qj0jk4-fill" data-item-order="-319966" transform="translate(262.7265625, 569.2001953125)"></g><g id="g-root-he_4il2lf1qj0jk4-stroke" data-item-order="-319966" transform="translate(262.7265625, 569.2001953125)"><g id="he_4il2lf1qj0jk4-stroke" fill="none" stroke-linecap="round" stroke-linejoin="round" stroke-miterlimit="4" stroke="#000000" stroke-width="1" stroke-opacity="1"><style>.fillAsStrokeColor-mk-mah4hj1x6gwlp { fill:#000000; }</style><g><path d="M 79.38 10L 79.38 44.8C 79.38 51.42 74.01 56.8 67.38 56.8L 22 56.8C 15.37 56.8 10 62.17 10 68.8L 10 89.97"></path><path d="M 10 91.4L 7.2 86.4L 12.8 86.4Z" stroke-dasharray="none" class="fillAsStrokeColor-mk-mah4hj1x6gwlp" fill="#000000"></path></g></g></g><g id="g-root-tx_gestorca_1q88m771qj64ui-fill" data-item-order="0" transform="translate(150.9140625, 207.80029296875)"><g id="tx_gestorca_1q88m771qj64ui-fill-merged" stroke="none" fill="#000000" fill-opacity="1"><g><text style="font: bold 9px Roboto, sans-serif; white-space: pre;" transform="translate(54.2734375, 15.39990234375)" font-weight="bold" font-size="9px" font-family="Roboto, sans-serif"><tspan x="-42.27" y="4.6" dominant-baseline="ideographic">Gestor Calcula Plano</tspan></text></g></g></g><g id="g-root-tx_gestorca_1q88m771qj64ui-stroke" data-item-order="0" transform="translate(150.9140625, 207.80029296875)"></g><g id="g-root-tx_shaderev_vb4d431qj651j-fill" data-item-order="0" transform="translate(139.2578125, 308.60009765625)"><g id="tx_shaderev_vb4d431qj651j-fill-merged" stroke="none" fill="#000000" fill-opacity="1"><g><text style="font: bold 9px Roboto, sans-serif; white-space: pre;" transform="translate(65.9296875, 15.39990234375)" font-weight="bold" font-size="9px" font-family="Roboto, sans-serif"><tspan x="-53.93" y="4.6" dominant-baseline="ideographic">Shader Evalúa Fragmentos</tspan></text></g></g></g><g id="g-root-tx_shaderev_vb4d431qj651j-stroke" data-item-order="0" transform="translate(139.2578125, 308.60009765625)"></g><g id="g-root-tx_no_18lyhk31qimh39-fill" data-item-order="0" transform="translate(280.53515625, 411)"><g id="tx_no_18lyhk31qimh39-fill-merged" stroke="none" fill="#000000" fill-opacity="1"><g><text style="font: 12px Roboto, sans-serif; white-space: pre;" transform="translate(19.703125, 17.2001953125)" font-size="12px" font-family="Roboto, sans-serif"><tspan x="-7.7" y="6.8" dominant-baseline="ideographic">No</tspan></text></g></g></g><g id="g-root-tx_no_18lyhk31qimh39-stroke" data-item-order="0" transform="translate(280.53515625, 411)"></g><g id="g-root-tx_puntoenl_zly5pf1qimfbc-fill" data-item-order="0" transform="translate(163.0078125, 423.6015625)"><g id="tx_puntoenl_zly5pf1qimfbc-fill-merged" stroke="none" fill="#000000" fill-opacity="1"><g><text style="font: bold 9px Roboto, sans-serif; white-space: pre;" transform="translate(42.1796875, 20.79833984375)" font-weight="bold" font-size="9px" font-family="Roboto, sans-serif"><tspan x="-30.18" y="-0.8" dominant-baseline="ideographic">Punto en Lado </tspan><tspan x="-17.15" y="10" dominant-baseline="ideographic">Visible?</tspan></text></g></g></g><g id="g-root-tx_puntoenl_zly5pf1qimfbc-stroke" data-item-order="0" transform="translate(163.0078125, 423.6015625)"></g><g id="g-root-tx_s_18k32ar1qimi2z-fill" data-item-order="0" transform="translate(207.1328125, 479.19970703125)"><g id="tx_s_18k32ar1qimi2z-fill-merged" stroke="none" fill="#000000" fill-opacity="1"><g><text style="font: 12px Roboto, sans-serif; white-space: pre;" transform="translate(17.0546875, 17.2001953125)" font-size="12px" font-family="Roboto, sans-serif"><tspan x="-5.05" y="6.8" dominant-baseline="ideographic">Sí</tspan></text></g></g></g><g id="g-root-tx_s_18k32ar1qimi2z-stroke" data-item-order="0" transform="translate(207.1328125, 479.19970703125)"></g><g id="g-root-tx_usuariom_hx5yeb1qj4owa-fill" data-item-order="0" transform="translate(150.2578125, 107)"><g id="tx_usuariom_hx5yeb1qj4owa-fill-merged" stroke="none" fill="#000000" fill-opacity="1"><g><text style="font: bold 9px Roboto, sans-serif; white-space: pre;" transform="translate(54.9296875, 15.39990234375)" font-weight="bold" font-size="9px" font-family="Roboto, sans-serif"><tspan x="-42.93" y="4.6" dominant-baseline="ideographic">Usuario Mueve Plano</tspan></text></g></g></g><g id="g-root-tx_usuariom_hx5yeb1qj4owa-stroke" data-item-order="0" transform="translate(150.2578125, 107)"></g><g id="g-root-tx_procesod_7rd5v1qj3c3u-fill" data-item-order="0" transform="translate(14, 38)"><g id="tx_procesod_7rd5v1qj3c3u-fill-merged" stroke="none" fill="#000000" fill-opacity="1"><g><text style="font: bold 25px Roboto, sans-serif; white-space: pre;" transform="translate(256.875, 25)" font-weight="bold" font-size="25px" font-family="Roboto, sans-serif"><tspan x="-244.88" y="15" dominant-baseline="ideographic">Proceso de Corte Transversal de Aplicación</tspan></text></g></g></g><g id="g-root-tx_procesod_7rd5v1qj3c3u-stroke" data-item-order="0" transform="translate(14, 38)"></g><g id="g-root-tx_conserva_m7d9wj1qintvr-fill" data-item-order="0" transform="translate(146.6484375, 549.39990234375)"><g id="tx_conserva_m7d9wj1qintvr-fill-merged" stroke="none" fill="#000000" fill-opacity="1"><g><text style="font: bold 9px Roboto, sans-serif; white-space: pre;" transform="translate(58.5390625, 20.79833984375)" font-weight="bold" font-size="9px" font-family="Roboto, sans-serif"><tspan x="-46.54" y="-0.8" dominant-baseline="ideographic">Conserva Fragmento y </tspan><tspan x="-21.46" y="10" dominant-baseline="ideographic">Renderiza</tspan></text></g></g></g><g id="g-root-tx_conserva_m7d9wj1qintvr-stroke" data-item-order="0" transform="translate(146.6484375, 549.39990234375)"></g><g id="g-root-tx_fragment_14156qr1qinvuq-fill" data-item-order="0" transform="translate(281.7265625, 549.39990234375)"><g id="tx_fragment_14156qr1qinvuq-fill-merged" stroke="none" fill="#000000" fill-opacity="1"><g><text style="font: bold 9px Roboto, sans-serif; white-space: pre;" transform="translate(60.3828125, 15.39990234375)" font-weight="bold" font-size="9px" font-family="Roboto, sans-serif"><tspan x="-48.38" y="4.6" dominant-baseline="ideographic">Fragmento No se Dibuja</tspan></text></g></g></g><g id="g-root-tx_fragment_14156qr1qinvuq-stroke" data-item-order="0" transform="translate(281.7265625, 549.39990234375)"></g><g id="g-root-tx_cortetra_1czwkf71qinvgl-fill" data-item-order="0" transform="translate(211.1484375, 660.9970703125)"><g id="tx_cortetra_1czwkf71qinvgl-fill-merged" stroke="none" fill="#000000" fill-opacity="1"><g><text style="font: bold 9px Roboto, sans-serif; white-space: pre;" transform="translate(61.578125, 15.39990234375)" font-weight="bold" font-size="9px" font-family="Roboto, sans-serif"><tspan x="-49.58" y="4.6" dominant-baseline="ideographic">Corte Transversal Visual</tspan></text></g></g></g><g id="g-root-tx_cortetra_1czwkf71qinvgl-stroke" data-item-order="0" transform="translate(211.1484375, 660.9970703125)"></g></g></g></svg>