<?xml version="1.0" encoding="utf-8" standalone="yes"?>
<!DOCTYPE svg PUBLIC "-//W3C//DTD SVG 1.1//EN" "http://www.w3.org/Graphics/SVG/1.1/DTD/svg11.dtd">
<svg style="fill:none;stroke:none;fill-rule:evenodd;clip-rule:evenodd;stroke-linecap:round;stroke-linejoin:round;stroke-miterlimit:1.5;" version="1.1" xmlns="http://www.w3.org/2000/svg" xmlns:xlink="http://www.w3.org/1999/xlink" width="870" height="918" viewBox="0 0 870 918"><style class="text-font-style fontImports" data-font-family="Roboto">@import url(https://fonts.googleapis.com/css2?family=Roboto:wght@400;700&amp;amp;display=block);</style><g id="items" style="isolation: isolate"><g id="blend" style="mix-blend-mode: normal"><g id="g-root-cp_4_text-4_1hbz1oi1kfavpq-fill" data-item-order="-751591" transform="translate(14, 260)"></g><g id="g-root-cp_4_text-4_1hbz1oi1kfavpq-stroke" data-item-order="-751591" transform="translate(14, 260)"><g id="cp_4_text-4_1hbz1oi1kfavpq-stroke" fill="none" stroke-linecap="round" stroke-linejoin="round" stroke-miterlimit="4" stroke="#000000" stroke-width="1" stroke-opacity="1"><g><path d="M 16 10C 12.6863 10 10 12.6863 10 16M 16 10L 303.5 10M 303.5 10C 306.8137 10 309.5 12.6863 309.5 16M 309.5 52L 309.5 16M 10 52L 10 16M 10 52C 10 55.3137 12.6863 58 16 58M 303.5 58L 16 58M 303.5 58C 306.8137 58 309.5 55.3137 309.5 52"></path></g></g></g><g id="g-root-cp_1_text-1_qpoi0y1kfavpr-fill" data-item-order="-751513" transform="translate(637.5, 116)"></g><g id="g-root-cp_1_text-1_qpoi0y1kfavpr-stroke" data-item-order="-751513" transform="translate(637.5, 116)"><g id="cp_1_text-1_qpoi0y1kfavpr-stroke" fill="none" stroke-linecap="round" stroke-linejoin="round" stroke-miterlimit="4" stroke="#000000" stroke-width="1" stroke-opacity="1"><g><path d="M 16 10C 12.6863 10 10 12.6863 10 16M 16 10L 184.484375 10M 184.484375 10C 187.798075 10 190.484375 12.6863 190.484375 16M 190.484375 52L 190.484375 16M 10 52L 10 16M 10 52C 10 55.3137 12.6863 58 16 58M 184.484375 58L 16 58M 184.484375 58C 187.798075 58 190.484375 55.3137 190.484375 52"></path></g></g></g><g id="g-root-cp_start_g-start_4j7ghu1kfavpc-fill" data-item-order="-751407" transform="translate(361.5, 320)"></g><g id="g-root-cp_start_g-start_4j7ghu1kfavpc-stroke" data-item-order="-751407" transform="translate(361.5, 320)"><g id="cp_start_g-start_4j7ghu1kfavpc-stroke" fill="none" stroke-linecap="round" stroke-linejoin="round" stroke-miterlimit="4" stroke="#000000" stroke-width="1" stroke-opacity="1"><g><path d="M 16 10C 12.6863 10 10 12.6863 10 16M 16 10L 232 10M 232 10C 235.3137 10 238 12.6863 238 16M 238 154L 238 16M 10 154L 10 16M 10 154C 10 157.3137 12.6863 160 16 160M 232 160L 16 160M 232 160C 235.3137 160 238 157.3137 238 154"></path></g></g></g><g id="g-root-cp_3_text-3_1cy0yte1kfavi9-fill" data-item-order="-751321" transform="translate(162.546875, 458)"></g><g id="g-root-cp_3_text-3_1cy0yte1kfavi9-stroke" data-item-order="-751321" transform="translate(162.546875, 458)"><g id="cp_3_text-3_1cy0yte1kfavi9-stroke" fill="none" stroke-linecap="round" stroke-linejoin="round" stroke-miterlimit="4" stroke="#000000" stroke-width="1" stroke-opacity="1"><g><path d="M 16 10C 12.6863 10 10 12.6863 10 16M 16 10L 154.953125 10M 154.953125 10C 158.266825 10 160.953125 12.6863 160.953125 16M 160.953125 52L 160.953125 16M 10 52L 10 16M 10 52C 10 55.3137 12.6863 58 16 58M 154.953125 58L 16 58M 154.953125 58C 158.266825 58 160.953125 55.3137 160.953125 52"></path></g></g></g><g id="g-root-cp_2_text-2_qrjxaa1kfauq2-fill" data-item-order="-751251" transform="translate(637.5, 458)"></g><g id="g-root-cp_2_text-2_qrjxaa1kfauq2-stroke" data-item-order="-751251" transform="translate(637.5, 458)"><g id="cp_2_text-2_qrjxaa1kfauq2-stroke" fill="none" stroke-linecap="round" stroke-linejoin="round" stroke-miterlimit="4" stroke="#000000" stroke-width="1" stroke-opacity="1"><g><path d="M 16 10C 12.6863 10 10 12.6863 10 16M 16 10L 201.875 10M 201.875 10C 205.1887 10 207.875 12.6863 207.875 16M 207.875 52L 207.875 16M 10 52L 10 16M 10 52C 10 55.3137 12.6863 58 16 58M 201.875 58L 16 58M 201.875 58C 205.1887 58 207.875 55.3137 207.875 52"></path></g></g></g><g id="g-root-he_90wdvm1kfatxg-fill" data-item-order="-751123" transform="translate(589.5, 143)"></g><g id="g-root-he_90wdvm1kfatxg-stroke" data-item-order="-751123" transform="translate(589.5, 143)"><g id="he_90wdvm1kfatxg-stroke" fill="none" stroke-linecap="round" stroke-linejoin="round" stroke-miterlimit="4" stroke="#000000" stroke-width="1" stroke-opacity="1"><g><path d="M 10 297.399902L 22 297.399902C 28.627418 297.399911 34.000001 292.027328 34.000001 285.399911L 34 22C 34.000001 15.372583 39.372584 10 46.000001 10L 58 10"></path></g></g></g><g id="g-root-he_59dmq1kfauq6-fill" data-item-order="-751121" transform="translate(649.5, 164)"></g><g id="g-root-he_59dmq1kfauq6-stroke" data-item-order="-751121" transform="translate(649.5, 164)"><g id="he_59dmq1kfauq6-stroke" fill="none" stroke-linecap="round" stroke-linejoin="round" stroke-miterlimit="4" stroke="#000000" stroke-width="1" stroke-opacity="1"><g><path d="M 10 10L 10 238C 10 244.627424 15.372583 250.000007 22 250.000007L 22 250M 10 34L 22 34M 10 70L 22 70M 10 106L 22 106M 10 142L 22 142M 10 178L 22 178M 10 214L 22 214"></path></g></g></g><g id="g-root-he_1uqjxhe1kfavbc-fill" data-item-order="-751119" transform="translate(589.5, 449.599609375)"></g><g id="g-root-he_1uqjxhe1kfavbc-stroke" data-item-order="-751119" transform="translate(589.5, 449.599609375)"><g id="he_1uqjxhe1kfavbc-stroke" fill="none" stroke-linecap="round" stroke-linejoin="round" stroke-miterlimit="4" stroke="#000000" stroke-width="1" stroke-opacity="1"><g><path d="M 10 10.000488L 22 10.000488C 28.627418 10.000488 34.000001 15.373071 34.000001 22.000489L 34 33.400391C 34.000001 40.027809 39.372584 45.400392 46.000001 45.400392L 58 45.400391"></path></g></g></g><g id="g-root-he_1qbcwg21kfasxu-fill" data-item-order="-751117" transform="translate(649.5, 506)"></g><g id="g-root-he_1qbcwg21kfasxu-stroke" data-item-order="-751117" transform="translate(649.5, 506)"><g id="he_1qbcwg21kfasxu-stroke" fill="none" stroke-linecap="round" stroke-linejoin="round" stroke-miterlimit="4" stroke="#000000" stroke-width="1" stroke-opacity="1"><g><path d="M 10 10L 10 346C 10 352.627427 15.372583 358.000011 22 358.00001L 22 358M 10 34L 22 34M 10 70L 22 70M 10 106L 22 106M 10 142L 22 142M 10 178L 22 178M 10 214L 22 214M 10 250L 22 250M 10 286L 22 286M 10 322L 22 322"></path></g></g></g><g id="g-root-he_1hfpw761kfatqk-fill" data-item-order="-751115" transform="translate(313.5, 449.599609375)"></g><g id="g-root-he_1hfpw761kfatqk-stroke" data-item-order="-751115" transform="translate(313.5, 449.599609375)"><g id="he_1hfpw761kfatqk-stroke" fill="none" stroke-linecap="round" stroke-linejoin="round" stroke-miterlimit="4" stroke="#000000" stroke-width="1" stroke-opacity="1"><g><path d="M 58 10.000488L 46 10.000488C 39.372584 10.000488 34.000001 15.373071 34.000001 22.000489L 34 33.400391C 34.000001 40.027809 28.627418 45.400392 22 45.400392L 10 45.400391"></path></g></g></g><g id="g-root-he_1hfpw761kfatqm-fill" data-item-order="-751113" transform="translate(289.5, 506)"></g><g id="g-root-he_1hfpw761kfatqm-stroke" data-item-order="-751113" transform="translate(289.5, 506)"><g id="he_1hfpw761kfatqm-stroke" fill="none" stroke-linecap="round" stroke-linejoin="round" stroke-miterlimit="4" stroke="#000000" stroke-width="1" stroke-opacity="1"><g><path d="M 22 10L 22 58C 22.000001 64.627419 16.627417 70.000002 10 70.000002L 10 70M 22 34L 10 34"></path></g></g></g><g id="g-root-he_1czwe2q1kfauiw-fill" data-item-order="-751111" transform="translate(313.5, 287)"></g><g id="g-root-he_1czwe2q1kfauiw-stroke" data-item-order="-751111" transform="translate(313.5, 287)"><g id="he_1czwe2q1kfauiw-stroke" fill="none" stroke-linecap="round" stroke-linejoin="round" stroke-miterlimit="4" stroke="#000000" stroke-width="1" stroke-opacity="1"><g><path d="M 58 153.399902L 46 153.399902C 39.372584 153.399907 34.000001 148.027324 34.000001 141.399906L 34 22C 34.000001 15.372583 28.627418 10 22 10L 10 10"></path></g></g></g><g id="g-root-he_18k2vya1kfavb6-fill" data-item-order="-751109" transform="translate(289.5, 308)"></g><g id="g-root-he_18k2vya1kfavb6-stroke" data-item-order="-751109" transform="translate(289.5, 308)"><g id="he_18k2vya1kfavb6-stroke" fill="none" stroke-linecap="round" stroke-linejoin="round" stroke-miterlimit="4" stroke="#000000" stroke-width="1" stroke-opacity="1"><g><path d="M 22 10L 22 94C 22.000001 100.62742 16.627417 106.000003 10 106.000003L 10 106M 22 34L 10 34M 22 70L 10 70"></path></g></g></g><g id="g-root-tx_telemetr_1hcllxe1kezle0-fill" data-item-order="0" transform="translate(673.5, 284)"><g id="tx_telemetr_1hcllxe1kezle0-fill-merged" stroke="none" fill="#000000" fill-opacity="1"><g><text style="font: 15px Roboto, sans-serif; white-space: pre;" transform="translate(10, 19)" font-size="15px" font-family="Roboto, sans-serif"><tspan x="2" y="9" dominant-baseline="ideographic">Telemetría IoT</tspan></text></g></g></g><g id="g-root-tx_telemetr_1hcllxe1kezle0-stroke" data-item-order="0" transform="translate(673.5, 284)"></g><g id="g-root-tx_mantenim_1qcluma1kfav44-fill" data-item-order="0" transform="translate(26, 275)"><g id="tx_mantenim_1qcluma1kfav44-fill-merged" stroke="none" fill="#000000" fill-opacity="1"><g><text style="font: bold 15px Roboto, sans-serif; white-space: pre;" transform="translate(249.5, 19)" font-weight="bold" font-size="15px" font-family="Roboto, sans-serif"><tspan x="-237.5" y="9" dominant-baseline="ideographic">Mantenimiento/Operación/Análisis</tspan></text></g></g></g><g id="g-root-tx_mantenim_1qcluma1kfav44-stroke" data-item-order="0" transform="translate(26, 275)"></g><g id="g-root-tx_mantenim_zly2iq1kevfnw-fill" data-item-order="0" transform="translate(172.8125, 320)"><g id="tx_mantenim_zly2iq1kevfnw-fill-merged" stroke="none" fill="#000000" fill-opacity="1"><g><text style="font: 15px Roboto, sans-serif; white-space: pre;" transform="translate(114.6875, 19)" font-size="15px" font-family="Roboto, sans-serif"><tspan x="-102.69" y="9" dominant-baseline="ideographic">Mantenimiento</tspan></text></g></g></g><g id="g-root-tx_mantenim_zly2iq1kevfnw-stroke" data-item-order="0" transform="translate(172.8125, 320)"></g><g id="g-root-ic_3d_4mye6a1kezls5-fill" data-item-order="0" transform="translate(439.5, 338)"></g><g id="g-root-ic_3d_4mye6a1kezls5-stroke" data-item-order="0" transform="translate(439.5, 338)"><g id="ic_3d_4mye6a1kezls5-stroke" fill="none" stroke-linecap="round" stroke-linejoin="round" stroke-miterlimit="4" stroke="#000000" stroke-width="1" stroke-opacity="1"><g><path d="M 10 10M 23.875 67.894302L 35.364853 61.645897M 68.116898 67.894302L 56.627201 61.645897M 10 10M 46 27.18334L 46 37.992607M 39.478001 20.656C 39.477295 24.261814 42.400188 27.185276 46.006004 27.185276C 49.611816 27.185276 52.534706 24.261814 52.534 20.656C 52.534706 17.050188 49.611816 14.126725 46.006004 14.126725C 42.400188 14.126725 39.477295 17.050188 39.478001 20.656M 11.611 71.344002C 11.610296 74.949814 14.533187 77.873276 18.139 77.873276C 21.744814 77.873276 24.667706 74.949814 24.667 71.344002C 24.667706 67.73819 21.744814 64.814728 18.139 64.814728C 14.533187 64.814728 11.610296 67.73819 11.611 71.344002M 67.333 71.344002C 67.332298 74.949814 70.255188 77.873276 73.861 77.873276C 77.46682 77.873276 80.389709 74.949814 80.389008 71.344002C 80.389709 67.73819 77.46682 64.814728 73.861 64.814728C 70.255188 64.814728 67.332298 67.73819 67.333 71.344002M 10 10M 32.67577 45.2374L 45.998199 37.992428L 59.320602 45.2374M 10 10M 46 66.998505L 32.684742 59.753799L 32.684742 45.2374L 46 52.482399L 46 66.998505ZM 10 10M 46 66.998505L 59.315201 59.753799L 59.315201 45.2374L 46 52.482399L 46 66.998505Z"></path></g></g></g><g id="g-root-tx_logsmavl_deujwi1kezmyx-fill" data-item-order="0" transform="translate(673.5, 320)"><g id="tx_logsmavl_deujwi1kezmyx-fill-merged" stroke="none" fill="#000000" fill-opacity="1"><g><text style="font: 15px Roboto, sans-serif; white-space: pre;" transform="translate(10, 19)" font-size="15px" font-family="Roboto, sans-serif"><tspan x="2" y="9" dominant-baseline="ideographic">Logs MAVLink/ROS</tspan></text></g></g></g><g id="g-root-tx_logsmavl_deujwi1kezmyx-stroke" data-item-order="0" transform="translate(673.5, 320)"></g><g id="g-root-tx_operacin_1qa41fm1keveo5-fill" data-item-order="0" transform="translate(205.515625, 356)"><g id="tx_operacin_1qa41fm1keveo5-fill-merged" stroke="none" fill="#000000" fill-opacity="1"><g><text style="font: 15px Roboto, sans-serif; white-space: pre;" transform="translate(81.984375, 19)" font-size="15px" font-family="Roboto, sans-serif"><tspan x="-69.98" y="9" dominant-baseline="ideographic">Operación</tspan></text></g></g></g><g id="g-root-tx_operacin_1qa41fm1keveo5-stroke" data-item-order="0" transform="translate(205.515625, 356)"></g><g id="g-root-tx_basesder_1heh16q1kezkea-fill" data-item-order="0" transform="translate(673.5, 356)"><g id="tx_basesder_1heh16q1kezkea-fill-merged" stroke="none" fill="#000000" fill-opacity="1"><g><text style="font: 15px Roboto, sans-serif; white-space: pre;" transform="translate(10, 19)" font-size="15px" font-family="Roboto, sans-serif"><tspan x="2" y="9" dominant-baseline="ideographic">Bases de Repuestos</tspan></text></g></g></g><g id="g-root-tx_basesder_1heh16q1kezkea-stroke" data-item-order="0" transform="translate(673.5, 356)"></g><g id="g-root-tx_anlisis_mczghu1kevd3a-fill" data-item-order="0" transform="translate(220.84375, 392)"><g id="tx_anlisis_mczghu1kevd3a-fill-merged" stroke="none" fill="#000000" fill-opacity="1"><g><text style="font: 15px Roboto, sans-serif; white-space: pre;" transform="translate(66.65625, 19)" font-size="15px" font-family="Roboto, sans-serif"><tspan x="-54.66" y="9" dominant-baseline="ideographic">Análisis</tspan></text></g></g></g><g id="g-root-tx_anlisis_mczghu1kevd3a-stroke" data-item-order="0" transform="translate(220.84375, 392)"></g><g id="g-root-tx_manuales_hwjhaa1kezl6z-fill" data-item-order="0" transform="translate(673.5, 392)"><g id="tx_manuales_hwjhaa1kezl6z-fill-merged" stroke="none" fill="#000000" fill-opacity="1"><g><text style="font: 15px Roboto, sans-serif; white-space: pre;" transform="translate(10, 19)" font-size="15px" font-family="Roboto, sans-serif"><tspan x="2" y="9" dominant-baseline="ideographic">Manuales Técnicos</tspan></text></g></g></g><g id="g-root-tx_manuales_hwjhaa1kezl6z-stroke" data-item-order="0" transform="translate(673.5, 392)"></g><g id="g-root-tx_cmms_ddllqa1kezksv-fill" data-item-order="0" transform="translate(673.5, 248)"><g id="tx_cmms_ddllqa1kezksv-fill-merged" stroke="none" fill="#000000" fill-opacity="1"><g><text style="font: 15px Roboto, sans-serif; white-space: pre;" transform="translate(10, 19)" font-size="15px" font-family="Roboto, sans-serif"><tspan x="2" y="9" dominant-baseline="ideographic">CMMS</tspan></text></g></g></g><g id="g-root-tx_cmms_ddllqa1kezksv-stroke" data-item-order="0" transform="translate(673.5, 248)"></g><g id="g-root-tx_twinmani_18k2z421keznd0-fill" data-item-order="0" transform="translate(414.4453125, 422)"><g id="tx_twinmani_18k2z421keznd0-fill-merged" stroke="none" fill="#000000" fill-opacity="1"><g><text style="font: 18.8px Roboto, sans-serif; white-space: pre;" transform="translate(71.0546875, 21.25)" font-size="18.8px" font-family="Roboto, sans-serif"><tspan x="-59.05" y="10.75" dominant-baseline="ideographic">Twin Manifest</tspan></text></g></g></g><g id="g-root-tx_twinmani_18k2z421keznd0-stroke" data-item-order="0" transform="translate(414.4453125, 422)"></g><g id="g-root-ic_1_dju9fm1kfaubx-fill" data-item-order="0" transform="translate(271.5, 269)"></g><g id="g-root-ic_1_dju9fm1kfaubx-stroke" data-item-order="0" transform="translate(271.5, 269)"><g id="ic_1_dju9fm1kfaubx-stroke" fill="none" stroke-linecap="round" stroke-linejoin="round" stroke-miterlimit="4" stroke="#000000" stroke-width="1" stroke-opacity="1"><g><path d="M 24.375 31.875C 24.375002 36.017136 27.732864 39.375 31.875 39.375C 36.017136 39.375 39.375 36.017136 39.375 31.875C 39.375 27.732864 36.017136 24.375002 31.875 24.375002C 27.732864 24.375002 24.375002 27.732864 24.375002 31.875ZM 29.53125 30.0525C 29.531252 28.758083 30.580582 27.708752 31.875 27.708752C 33.169418 27.708752 34.21875 28.758083 34.21875 30.052502C 34.21875 31.34692 33.169418 32.396252 31.875 32.396252L 31.875 33.646248M 31.875 36.146248C 31.702412 36.146248 31.5625 36.28616 31.5625 36.458748C 31.5625 36.63134 31.702412 36.771248 31.875 36.771248C 32.047588 36.771248 32.1875 36.63134 32.1875 36.458748C 32.1875 36.28616 32.047588 36.146248 31.875 36.146248L 31.875 36.146248M 16.875 35.625L 20.625 35.625M 20.626251 29.375L 20.626251 35.625M 14.0625 35C 13.889911 35 13.75 35.139912 13.75 35.3125C 13.75 35.485088 13.889911 35.625 14.0625 35.625C 14.235089 35.625 14.375 35.485088 14.375 35.3125C 14.375 35.139912 14.235089 35 14.0625 35L 14.0625 35M 10.9375 35C 10.764911 35 10.625 35.139912 10.625 35.3125C 10.625 35.485088 10.764911 35.625 10.9375 35.625C 11.110089 35.625 11.25 35.485088 11.25 35.3125C 11.25 35.139912 11.110089 35 10.9375 35L 10.9375 35M 15.3125 25.9375C 15.139912 25.9375 15 26.077412 15 26.25C 15 26.422588 15.139912 26.5625 15.3125 26.5625C 15.485088 26.5625 15.625 26.422588 15.625 26.25C 15.625 26.077412 15.485088 25.9375 15.3125 25.9375L 15.3125 25.9375M 18.4375 25.9375C 18.264912 25.9375 18.125 26.077412 18.125 26.25C 18.125 26.422588 18.264912 26.5625 18.4375 26.5625C 18.610088 26.5625 18.75 26.422588 18.75 26.25C 18.75 26.077412 18.610088 25.9375 18.4375 25.9375L 18.4375 25.9375M 25.625 23.125L 13.75 23.125C 12.02411 23.125 10.625 24.524111 10.625 26.25C 10.625 27.975891 12.02411 29.375 13.75 29.375L 21.875 29.375M 15.3125 19.6875C 15.139912 19.6875 15 19.827412 15 20C 15 20.172588 15.139912 20.3125 15.3125 20.3125C 15.485088 20.3125 15.625 20.172588 15.625 20C 15.625 19.827412 15.485088 19.6875 15.3125 19.6875L 15.3125 19.6875M 18.4375 19.6875C 18.264912 19.6875 18.125 19.827412 18.125 20C 18.125 20.172588 18.264912 20.3125 18.4375 20.3125C 18.610088 20.3125 18.75 20.172588 18.75 20C 18.75 19.827412 18.610088 19.6875 18.4375 19.6875L 18.4375 19.6875M 31.875 20C 31.875 18.274111 30.475891 16.875 28.75 16.875L 13.75 16.875C 12.02411 16.875 10.625 18.274111 10.625 20C 10.625 21.725889 12.02411 23.125 13.75 23.125L 25.625 23.125M 15.3125 13.4375C 15.139912 13.4375 15 13.577411 15 13.75C 15 13.922589 15.139912 14.0625 15.3125 14.0625C 15.485088 14.0625 15.625 13.922589 15.625 13.75C 15.625 13.577411 15.485088 13.4375 15.3125 13.4375L 15.3125 13.4375M 18.4375 13.4375C 18.264912 13.4375 18.125 13.577411 18.125 13.75C 18.125 13.922589 18.264912 14.0625 18.4375 14.0625C 18.610088 14.0625 18.75 13.922589 18.75 13.75C 18.75 13.577411 18.610088 13.4375 18.4375 13.4375L 18.4375 13.4375M 31.875 13.75C 31.875 12.02411 30.475891 10.625 28.75 10.625L 13.75 10.625C 12.02411 10.625 10.625 12.02411 10.625 13.75C 10.625 15.47589 12.02411 16.875 13.75 16.875L 28.75 16.875C 30.475891 16.875 31.875 15.47589 31.875 13.75Z"></path></g></g></g><g id="g-root-tx_erpbom_1cuwojm1kezn5y-fill" data-item-order="0" transform="translate(673.5, 212)"><g id="tx_erpbom_1cuwojm1kezn5y-fill-merged" stroke="none" fill="#000000" fill-opacity="1"><g><text style="font: 15px Roboto, sans-serif; white-space: pre;" transform="translate(10, 19)" font-size="15px" font-family="Roboto, sans-serif"><tspan x="2" y="9" dominant-baseline="ideographic">ERP/BOM</tspan></text></g></g></g><g id="g-root-tx_erpbom_1cuwojm1kezn5y-stroke" data-item-order="0" transform="translate(673.5, 212)"></g><g id="g-root-tx_cadplm_m7d6pu1kezkzx-fill" data-item-order="0" transform="translate(673.5, 176)"><g id="tx_cadplm_m7d6pu1kezkzx-fill-merged" stroke="none" fill="#000000" fill-opacity="1"><g><text style="font: 15px Roboto, sans-serif; white-space: pre;" transform="translate(10, 19)" font-size="15px" font-family="Roboto, sans-serif"><tspan x="2" y="9" dominant-baseline="ideographic">CAD/PLM</tspan></text></g></g></g><g id="g-root-tx_cadplm_m7d6pu1kezkzx-stroke" data-item-order="0" transform="translate(673.5, 176)"></g><g id="g-root-ic_wave_1qbzgoy1kf3uh7-fill" data-item-order="0" transform="translate(271.5, 467)"></g><g id="g-root-ic_wave_1qbzgoy1kf3uh7-stroke" data-item-order="0" transform="translate(271.5, 467)"><g id="ic_wave_1qbzgoy1kf3uh7-stroke" fill="none" stroke-linecap="round" stroke-linejoin="round" stroke-miterlimit="4" stroke="#000000" stroke-width="1" stroke-opacity="1"><g><path d="M 13.125 11.25L 36.875 11.25C 36.875 11.25 39.375 11.25 39.375 13.75L 39.375 36.25C 39.375 36.25 39.375 38.75 36.875 38.75L 13.125 38.75C 13.125 38.75 10.625 38.75 10.625 36.25L 10.625 13.75C 10.625 13.75 10.625 11.25 13.125 11.25M 10.625 17.5L 39.375 17.5M 15 14.0625C 15.172588 14.0625 15.3125 14.202411 15.3125 14.375C 15.3125 14.547589 15.172588 14.6875 15 14.6875C 14.827411 14.6875 14.6875 14.547589 14.6875 14.375C 14.6875 14.202411 14.827411 14.0625 15 14.0625M 18.75 14.0625C 18.922588 14.0625 19.0625 14.202411 19.0625 14.375C 19.0625 14.547589 18.922588 14.6875 18.75 14.6875C 18.577412 14.6875 18.4375 14.547589 18.4375 14.375C 18.4375 14.202411 18.577412 14.0625 18.75 14.0625M 22.5 14.0625C 22.672588 14.0625 22.8125 14.202411 22.8125 14.375C 22.8125 14.547589 22.672588 14.6875 22.5 14.6875C 22.327412 14.6875 22.1875 14.547589 22.1875 14.375C 22.1875 14.202411 22.327412 14.0625 22.5 14.0625M 10.625 28.125L 39.375 28.125M 17.5 17.5L 17.5 38.75M 17.5 26.25L 19.331249 22.588751C 19.922148 21.406214 21.135609 20.664116 22.457497 20.676876C 23.779385 20.689638 24.978292 21.455027 25.546249 22.64875L 26.0375 23.678749C 26.580408 24.819338 27.701942 25.573235 28.963089 25.645336C 30.224236 25.71744 31.424385 25.096279 32.09375 24.025L 32.09375 24.025C 32.72282 23.017839 33.82473 22.403973 35.012199 22.399151C 36.199665 22.394331 37.306522 22.999231 37.943748 24.001251L 39.375 26.25M 17.5 33.866249L 19.55125 31.814999C 19.964569 31.401669 20.543123 31.198223 21.124176 31.261894C 21.705231 31.325565 22.225998 31.649471 22.540001 32.142502L 24.07625 34.556252C 24.421577 35.099537 25.015476 35.43441 25.659069 35.448723C 26.30266 35.463036 26.91086 35.1549 27.279999 34.627499L 28.331249 33.127502C 28.70154 32.597549 29.313122 32.288868 29.959398 32.305725C 30.605677 32.322578 31.200335 32.66272 31.5425 33.21125L 31.5975 33.298752C 31.938593 33.844223 32.529343 34.183563 33.172379 34.203392C 33.815414 34.223217 34.425949 33.920921 34.799999 33.397499L 34.799999 33.397499C 35.14716 32.912159 35.699532 32.614975 36.295834 32.592716C 36.892139 32.570461 37.46513 32.825638 37.8475 33.283752L 39.375 35.116249"></path></g></g></g><g id="g-root-ic_orga_dj7via1kf6l8i-fill" data-item-order="0" transform="translate(649.5, 467)"></g><g id="g-root-ic_orga_dj7via1kf6l8i-stroke" data-item-order="0" transform="translate(649.5, 467)"><g id="ic_orga_dj7via1kf6l8i-stroke" fill="none" stroke-linecap="round" stroke-linejoin="round" stroke-miterlimit="4" stroke="#000000" stroke-width="1" stroke-opacity="1"><g><path d="M 10 10M 30.875 21.062511L 24.625 24.5625L 18.374937 21.062511L 18.374937 14.312475L 24.625 10.9375L 30.875 14.312475L 30.875 21.062511ZM 10 10M 30.875 14.31275L 24.625 17.812763L 18.374937 14.31275M 24.625 17.8125L 24.625 24.562376M 24.625 27.312624L 24.625 32.812622M 14.249875 32.8125L 14.249875 30.321751C 14.249875 29.491499 14.749875 28.938 15.499875 28.938L 34.249874 28.938C 34.999878 28.938 35.499874 29.491499 35.499874 30.321751L 35.499874 32.8125M 27.75 37.8125C 27.75 38.5625 27.25 39.0625 26.5 39.0625L 22.75 39.0625C 21.999937 39.0625 21.499937 38.5625 21.499937 37.8125L 21.499937 34.0625C 21.499937 33.3125 21.999937 32.8125 22.75 32.8125L 26.5 32.8125C 27.25 32.8125 27.75 33.3125 27.75 34.0625L 27.75 37.8125ZM 17.5 37.8125C 17.5 38.5625 17 39.0625 16.25 39.0625L 12.5 39.0625C 11.75 39.0625 11.25 38.5625 11.25 37.8125L 11.25 34.0625C 11.25 33.3125 11.75 32.8125 12.5 32.8125L 16.25 32.8125C 17 32.8125 17.5 33.3125 17.5 34.0625L 17.5 37.8125ZM 38.75 37.8125C 38.75 38.5625 38.25 39.0625 37.5 39.0625L 33.75 39.0625C 33 39.0625 32.5 38.5625 32.5 37.8125L 32.5 34.0625C 32.5 33.3125 33 32.8125 33.75 32.8125L 37.5 32.8125C 38.25 32.8125 38.75 33.3125 38.75 34.0625L 38.75 37.8125Z"></path></g></g></g><g id="g-root-tx_visorweb_1uqk0n61kf3saq-fill" data-item-order="0" transform="translate(174.546875, 473)"><g id="tx_visorweb_1uqk0n61kf3saq-fill-merged" stroke="none" fill="#000000" fill-opacity="1"><g><text style="font: bold 15px Roboto, sans-serif; white-space: pre;" transform="translate(100.953125, 19)" font-weight="bold" font-size="15px" font-family="Roboto, sans-serif"><tspan x="-88.95" y="9" dominant-baseline="ideographic">Visor WebGL</tspan></text></g></g></g><g id="g-root-tx_visorweb_1uqk0n61kf3saq-stroke" data-item-order="0" transform="translate(174.546875, 473)"></g><g id="g-root-tx_fuentese_1qehd1e1key80c-fill" data-item-order="0" transform="translate(685.5, 131)"><g id="tx_fuentese_1qehd1e1key80c-fill-merged" stroke="none" fill="#000000" fill-opacity="1"><g><text style="font: bold 15px Roboto, sans-serif; white-space: pre;" transform="translate(10, 19)" font-weight="bold" font-size="15px" font-family="Roboto, sans-serif"><tspan x="2" y="9" dominant-baseline="ideographic">Fuentes Externas</tspan></text></g></g></g><g id="g-root-tx_fuentese_1qehd1e1key80c-stroke" data-item-order="0" transform="translate(685.5, 131)"></g><g id="g-root-tx_entidade_253cy1kfaupz-fill" data-item-order="0" transform="translate(685.5, 473)"><g id="tx_entidade_253cy1kfaupz-fill-merged" stroke="none" fill="#000000" fill-opacity="1"><g><text style="font: bold 15px Roboto, sans-serif; white-space: pre;" transform="translate(10, 19)" font-weight="bold" font-size="15px" font-family="Roboto, sans-serif"><tspan x="2" y="9" dominant-baseline="ideographic">Entidades por Pieza</tspan></text></g></g></g><g id="g-root-tx_entidade_253cy1kfaupz-stroke" data-item-order="0" transform="translate(685.5, 473)"></g><g id="g-root-ic_velo_1hgcgg21keveh3-fill" data-item-order="0" transform="translate(649.5, 125)"></g><g id="g-root-ic_velo_1hgcgg21keveh3-stroke" data-item-order="0" transform="translate(649.5, 125)"><g id="ic_velo_1hgcgg21keveh3-stroke" fill="none" stroke-linecap="round" stroke-linejoin="round" stroke-miterlimit="4" stroke="#000000" stroke-width="1" stroke-opacity="1"><g><path d="M 34.375 16.5625C 36.963749 16.5625 39.0625 15.30375 39.0625 13.75C 39.0625 12.19625 36.963749 10.9375 34.375 10.9375C 31.786251 10.9375 29.6875 12.19625 29.6875 13.75C 29.6875 15.30375 31.786251 16.5625 34.375 16.5625ZM 29.6875 13.75L 29.6875 19.375C 29.6875 20.9275 31.786251 22.1875 34.375 22.1875C 36.963749 22.1875 39.0625 20.9275 39.0625 19.375L 39.0625 13.75M 34.375 33.4375C 36.963749 33.4375 39.0625 32.178749 39.0625 30.625C 39.0625 29.071251 36.963749 27.8125 34.375 27.8125C 31.786251 27.8125 29.6875 29.071251 29.6875 30.625C 29.6875 32.178749 31.786251 33.4375 34.375 33.4375ZM 29.6875 30.625L 29.6875 36.25C 29.6875 37.802502 31.786251 39.0625 34.375 39.0625C 36.963749 39.0625 39.0625 37.802502 39.0625 36.25L 39.0625 30.625M 18.90625 32.96875C 23.30727 32.96875 26.875 29.40102 26.875 25.000002C 26.875 20.598982 23.307268 17.03125 18.90625 17.03125C 14.505231 17.03125 10.9375 20.598982 10.9375 25C 10.9375 29.40102 14.505231 32.96875 18.90625 32.96875ZM 11.3375 27.5L 26.25 27.5M 11.3375 22.5L 26.25 22.5M 17.1875 17.217501C 15.75723 22.378048 15.967793 27.855728 17.790001 32.891251M 20.625 17.217501C 21.249779 19.463322 21.565187 21.783894 21.5625 24.115C 21.567225 27.107605 21.047707 30.077908 20.0275 32.891251M 22.5 13.75L 22.5 11.875L 26.25 11.875M 22.5 36.25L 22.5 38.125L 26.25 38.125"></path></g></g></g><g id="g-root-tx_twinmani_zp2csi1kfasy3-fill" data-item-order="0" transform="translate(168.5625, 38)"><g id="tx_twinmani_zp2csi1kfasy3-fill-merged" stroke="none" fill="#000000" fill-opacity="1"><g><text style="font: bold 25px Roboto, sans-serif; white-space: pre;" transform="translate(316.9375, 25)" font-weight="bold" font-size="25px" font-family="Roboto, sans-serif"><tspan x="-304.94" y="15" dominant-baseline="ideographic">Twin Manifest: Interoperabilidad y Estructura de Datos</tspan></text></g></g></g><g id="g-root-tx_twinmani_zp2csi1kfasy3-stroke" data-item-order="0" transform="translate(168.5625, 38)"></g><g id="g-root-tx_informac_1upxjk21kf6m88-fill" data-item-order="0" transform="translate(117.015625, 518)"><g id="tx_informac_1upxjk21kf6m88-fill-merged" stroke="none" fill="#000000" fill-opacity="1"><g><text style="font: 15px Roboto, sans-serif; white-space: pre;" transform="translate(170.484375, 19)" font-size="15px" font-family="Roboto, sans-serif"><tspan x="-158.48" y="9" dominant-baseline="ideographic">Información Contextual</tspan></text></g></g></g><g id="g-root-tx_informac_1upxjk21kf6m88-stroke" data-item-order="0" transform="translate(117.015625, 518)"></g><g id="g-root-tx_identifi_qqb29u1kfatq8-fill" data-item-order="0" transform="translate(673.5, 518)"><g id="tx_identifi_qqb29u1kfatq8-fill-merged" stroke="none" fill="#000000" fill-opacity="1"><g><text style="font: 15px Roboto, sans-serif; white-space: pre;" transform="translate(10, 19)" font-size="15px" font-family="Roboto, sans-serif"><tspan x="2" y="9" dominant-baseline="ideographic">Identificador Estable</tspan></text></g></g></g><g id="g-root-tx_identifi_qqb29u1kfatq8-stroke" data-item-order="0" transform="translate(673.5, 518)"></g><g id="g-root-tx_repuesto_1cuwojm1kfc8w9-fill" data-item-order="0" transform="translate(673.5, 842)"><g id="tx_repuesto_1cuwojm1kfc8w9-fill-merged" stroke="none" fill="#000000" fill-opacity="1"><g><text style="font: 15px Roboto, sans-serif; white-space: pre;" transform="translate(10, 19)" font-size="15px" font-family="Roboto, sans-serif"><tspan x="2" y="9" dominant-baseline="ideographic">Repuestos</tspan></text></g></g></g><g id="g-root-tx_repuesto_1cuwojm1kfc8w9-stroke" data-item-order="0" transform="translate(673.5, 842)"></g><g id="g-root-tx_nombre_1lto2821kfav41-fill" data-item-order="0" transform="translate(673.5, 554)"><g id="tx_nombre_1lto2821kfav41-fill-merged" stroke="none" fill="#000000" fill-opacity="1"><g><text style="font: 15px Roboto, sans-serif; white-space: pre;" transform="translate(10, 19)" font-size="15px" font-family="Roboto, sans-serif"><tspan x="2" y="9" dominant-baseline="ideographic">Nombre</tspan></text></g></g></g><g id="g-root-tx_nombre_1lto2821kfav41-stroke" data-item-order="0" transform="translate(673.5, 554)"></g><g id="g-root-tx_categora_hwjhaa1kfatj6-fill" data-item-order="0" transform="translate(673.5, 590)"><g id="tx_categora_hwjhaa1kfatj6-fill-merged" stroke="none" fill="#000000" fill-opacity="1"><g><text style="font: 15px Roboto, sans-serif; white-space: pre;" transform="translate(10, 19)" font-size="15px" font-family="Roboto, sans-serif"><tspan x="2" y="9" dominant-baseline="ideographic">Categoría</tspan></text></g></g></g><g id="g-root-tx_categora_hwjhaa1kfatj6-stroke" data-item-order="0" transform="translate(673.5, 590)"></g><g id="g-root-tx_material_1hfpzcy1kfau4r-fill" data-item-order="0" transform="translate(673.5, 626)"><g id="tx_material_1hfpzcy1kfau4r-fill-merged" stroke="none" fill="#000000" fill-opacity="1"><g><text style="font: 15px Roboto, sans-serif; white-space: pre;" transform="translate(10, 19)" font-size="15px" font-family="Roboto, sans-serif"><tspan x="2" y="9" dominant-baseline="ideographic">Material</tspan></text></g></g></g><g id="g-root-tx_material_1hfpzcy1kfau4r-stroke" data-item-order="0" transform="translate(673.5, 626)"></g><g id="g-root-tx_funcin_mdlxky1kfaux0-fill" data-item-order="0" transform="translate(673.5, 662)"><g id="tx_funcin_mdlxky1kfaux0-fill-merged" stroke="none" fill="#000000" fill-opacity="1"><g><text style="font: 15px Roboto, sans-serif; white-space: pre;" transform="translate(10, 19)" font-size="15px" font-family="Roboto, sans-serif"><tspan x="2" y="9" dominant-baseline="ideographic">Función</tspan></text></g></g></g><g id="g-root-tx_funcin_mdlxky1kfaux0-stroke" data-item-order="0" transform="translate(673.5, 662)"></g><g id="g-root-tx_subsiste_1lwsfnm1kfavil-fill" data-item-order="0" transform="translate(673.5, 698)"><g id="tx_subsiste_1lwsfnm1kfavil-fill-merged" stroke="none" fill="#000000" fill-opacity="1"><g><text style="font: 15px Roboto, sans-serif; white-space: pre;" transform="translate(10, 19)" font-size="15px" font-family="Roboto, sans-serif"><tspan x="2" y="9" dominant-baseline="ideographic">Subsistema</tspan></text></g></g></g><g id="g-root-tx_subsiste_1lwsfnm1kfavil-stroke" data-item-order="0" transform="translate(673.5, 698)"></g><g id="g-root-tx_sensores_djucle1kfaupy-fill" data-item-order="0" transform="translate(673.5, 734)"><g id="tx_sensores_djucle1kfaupy-fill-merged" stroke="none" fill="#000000" fill-opacity="1"><g><text style="font: 15px Roboto, sans-serif; white-space: pre;" transform="translate(10, 19)" font-size="15px" font-family="Roboto, sans-serif"><tspan x="2" y="9" dominant-baseline="ideographic">Sensores Posibles</tspan></text></g></g></g><g id="g-root-tx_sensores_djucle1kfaupy-stroke" data-item-order="0" transform="translate(673.5, 734)"></g><g id="g-root-tx_variable_1d30uo21kfavbj-fill" data-item-order="0" transform="translate(673.5, 770)"><g id="tx_variable_1d30uo21kfavbj-fill-merged" stroke="none" fill="#000000" fill-opacity="1"><g><text style="font: 15px Roboto, sans-serif; white-space: pre;" transform="translate(10, 19)" font-size="15px" font-family="Roboto, sans-serif"><tspan x="2" y="9" dominant-baseline="ideographic">Variables Esperadas</tspan></text></g></g></g><g id="g-root-tx_variable_1d30uo21kfavbj-stroke" data-item-order="0" transform="translate(673.5, 770)"></g><g id="g-root-tx_fallasco_dbq6gy1kfc8ao-fill" data-item-order="0" transform="translate(673.5, 806)"><g id="tx_fallasco_dbq6gy1kfc8ao-fill-merged" stroke="none" fill="#000000" fill-opacity="1"><g><text style="font: 15px Roboto, sans-serif; white-space: pre;" transform="translate(10, 19)" font-size="15px" font-family="Roboto, sans-serif"><tspan x="2" y="9" dominant-baseline="ideographic">Fallas Comunes</tspan></text></g></g></g><g id="g-root-tx_fallasco_dbq6gy1kfc8ao-stroke" data-item-order="0" transform="translate(673.5, 806)"></g><g id="g-root-tx_interfaz_91iy4i1kf6n0h-fill" data-item-order="0" transform="translate(177.515625, 554)"><g id="tx_interfaz_91iy4i1kf6n0h-fill-merged" stroke="none" fill="#000000" fill-opacity="1"><g><text style="font: 15px Roboto, sans-serif; white-space: pre;" transform="translate(109.984375, 19)" font-size="15px" font-family="Roboto, sans-serif"><tspan x="-97.98" y="9" dominant-baseline="ideographic">Interfaz Visual</tspan></text></g></g></g><g id="g-root-tx_interfaz_91iy4i1kf6n0h-stroke" data-item-order="0" transform="translate(177.515625, 554)"></g></g></g></svg>