<?xml version="1.0" encoding="utf-8" standalone="yes"?>
<!DOCTYPE svg PUBLIC "-//W3C//DTD SVG 1.1//EN" "http://www.w3.org/Graphics/SVG/1.1/DTD/svg11.dtd">
<svg style="fill:none;stroke:none;fill-rule:evenodd;clip-rule:evenodd;stroke-linecap:round;stroke-linejoin:round;stroke-miterlimit:1.5;" version="1.1" xmlns="http://www.w3.org/2000/svg" xmlns:xlink="http://www.w3.org/1999/xlink" width="888" height="738" viewBox="0 0 888 738"><style class="text-font-style fontImports" data-font-family="Roboto">@import url(https://fonts.googleapis.com/css2?family=Roboto:wght@400;700&amp;amp;display=block);</style><g id="items" style="isolation: isolate"><g id="blend" style="mix-blend-mode: normal"><g id="g-root-cp_3_g-3_1haq0c41qt2xvp-fill" data-item-order="-539270" transform="translate(313.9990234375, 430.486328125)"><g id="cp_3_g-3_1haq0c41qt2xvp-fill-merged" stroke="none" fill="#edf4ff" fill-opacity="1"><g><path d="M190.001 44.642L130.002 10L70.002 44.641L10.002 10 V79.284L130 148.566L250 79.284 V10.002L190.001 44.642"></path></g></g></g><g id="g-root-cp_3_g-3_1haq0c41qt2xvp-stroke" data-item-order="-539270" transform="translate(313.9990234375, 430.486328125)"><g id="cp_3_g-3_1haq0c41qt2xvp-stroke" fill="none" stroke-linecap="round" stroke-linejoin="round" stroke-miterlimit="4" stroke="#484848" stroke-width="1" stroke-opacity="1"><g><path d="M 190.0012 44.6419L 130.0017 10L 70.0017 44.6411L 10.0016 10L 10 79.2841L 130.0001 148.5663L 250.0002 79.2841L 250.0002 10.002L 190.0012 44.6419Z"></path></g></g></g><g id="g-root-cp_2_g-2_v48yt01qt2x3i-fill" data-item-order="-539266" transform="translate(434, 188.001953125)"><g id="cp_2_g-2_v48yt01qt2x3i-fill-merged" stroke="none" fill="#edf4ff" fill-opacity="1"><g><path d="M70 10L190 79.282 V217.846L129.999 252.488 V183.206L70.001 148.563 V79.281L10 44.641L70 10"></path></g></g></g><g id="g-root-cp_2_g-2_v48yt01qt2x3i-stroke" data-item-order="-539266" transform="translate(434, 188.001953125)"><g id="cp_2_g-2_v48yt01qt2x3i-stroke" fill="none" stroke-linecap="round" stroke-linejoin="round" stroke-miterlimit="4" stroke="#484848" stroke-width="1" stroke-opacity="1"><g><path d="M 70.0001 10L 190.0002 79.2821L 190.0002 217.8463L 129.9991 252.4885L 129.9991 183.2064L 70.0007 148.5633L 70.0007 79.2812L 10 44.641L 70.0001 10Z"></path></g></g></g><g id="g-root-cp_1_g-1_htexis1qt2vin-fill" data-item-order="-539262" transform="translate(254.0009765625, 188)"><g id="cp_1_g-1_htexis1qt2vin-fill-merged" stroke="none" fill="#edf4ff" fill-opacity="1"><g><path d="M129.999 79.283L189.999 44.642L130 10L10 79.282 V217.846L70 252.487 V183.207L129.999 148.565 V79.283"></path></g></g></g><g id="g-root-cp_1_g-1_htexis1qt2vin-stroke" data-item-order="-539262" transform="translate(254.0009765625, 188)"><g id="cp_1_g-1_htexis1qt2vin-stroke" fill="none" stroke-linecap="round" stroke-linejoin="round" stroke-miterlimit="4" stroke="#484848" stroke-width="1" stroke-opacity="1"><g><path d="M 129.9995 79.283L 189.9995 44.6419L 130.0001 10L 10 79.2821L 10 217.8463L 70.0001 252.4873L 69.9984 183.2073L 129.9995 148.5651L 129.9995 79.283Z"></path></g></g></g><g id="g-root-cp_3-2_g-3-2_8xrx9w1qt2x34-fill" data-item-order="-539258" transform="translate(434.0009765625, 326.564453125)"><g id="cp_3-2_g-3-2_8xrx9w1qt2x34-fill-merged" stroke="none" fill="#dce9ff" fill-opacity="1"><g><path d="M69.999 148.565L10 113.923L70 79.282 V10L129.999 44.643 V113.925L69.999 148.565"></path></g></g></g><g id="g-root-cp_3-2_g-3-2_8xrx9w1qt2x34-stroke" data-item-order="-539258" transform="translate(434.0009765625, 326.564453125)"><g id="cp_3-2_g-3-2_8xrx9w1qt2x34-stroke" fill="none" stroke-linecap="round" stroke-linejoin="round" stroke-miterlimit="4" stroke="#484848" stroke-width="1" stroke-opacity="1"><g><path d="M 69.9994 148.5651L 10 113.9231L 70.0001 79.2821L 70.0001 10L 129.9985 44.6431L 129.9985 113.9252L 69.9994 148.5651Z"></path></g></g></g><g id="g-root-cp_3-1_g-3-1_24x101qt2xvt-fill" data-item-order="-539254" transform="translate(313.9990234375, 326.564453125)"><g id="cp_3-1_g-3-1_24x101qt2xvt-fill-merged" stroke="none" fill="#dce9ff" fill-opacity="1"><g><path d="M70.002 79.282 V10L10 44.642 V113.922L70.002 148.563L130.002 113.922L70.002 79.282"></path></g></g></g><g id="g-root-cp_3-1_g-3-1_24x101qt2xvt-stroke" data-item-order="-539254" transform="translate(313.9990234375, 326.564453125)"><g id="cp_3-1_g-3-1_24x101qt2xvt-stroke" fill="none" stroke-linecap="round" stroke-linejoin="round" stroke-miterlimit="4" stroke="#484848" stroke-width="1" stroke-opacity="1"><g><path d="M 70.0017 79.2821L 70.0011 10L 10 44.6422L 10.0016 113.9223L 70.0017 148.5633L 130.0017 113.9223L 70.0017 79.2821Z"></path></g></g></g><g id="g-root-cp_2-1_g-2-1_1uo1xys1qt2vb6-fill" data-item-order="-539250" transform="translate(374, 222.642578125)"><g id="cp_2-1_g-2-1_1uo1xys1qt2vb6-fill-merged" stroke="none" fill="#dce9ff" fill-opacity="1"><g><path d="M69.999 79.283L130.001 113.922 V44.64L70 10L10 44.641 V113.923L69.999 79.283"></path></g></g></g><g id="g-root-cp_2-1_g-2-1_1uo1xys1qt2vb6-stroke" data-item-order="-539250" transform="translate(374, 222.642578125)"><g id="cp_2-1_g-2-1_1uo1xys1qt2vb6-stroke" fill="none" stroke-linecap="round" stroke-linejoin="round" stroke-miterlimit="4" stroke="#484848" stroke-width="1" stroke-opacity="1"><g><path d="M 69.9992 79.2833L 130.0007 113.9223L 130.0007 44.6402L 70.0001 10L 10 44.641L 10 113.9231L 69.9992 79.2833Z"></path></g></g></g><g id="g-root-cp_3-2-1_g-3-2-1_1hclflg1qt2ww3-fill" data-item-order="-539246" transform="translate(374, 291.92578125)"><g id="cp_3-2-1_g-3-2-1_1hclflg1qt2ww3-fill-merged" stroke="none" fill="#95bdff" fill-opacity="1"><g><path d="M69.999 10L10 44.64 V113.922L70.001 148.562L130.001 113.921 V44.639L69.999 10"></path></g></g></g><g id="g-root-cp_3-2-1_g-3-2-1_1hclflg1qt2ww3-stroke" data-item-order="-539246" transform="translate(374, 291.92578125)"><g id="cp_3-2-1_g-3-2-1_1hclflg1qt2ww3-stroke" fill="none" stroke-linecap="round" stroke-linejoin="round" stroke-miterlimit="4" stroke="#484848" stroke-width="1" stroke-opacity="1"><g><path d="M 69.9992 10L 10 44.6399L 10.0006 113.922L 70.0007 148.5621L 130.0007 113.9211L 130.0007 44.639L 69.9992 10Z"></path></g></g></g><g id="g-root-tx_legibili_zits8k1qsufwm-fill" data-item-order="0" transform="translate(638, 234.998046875)"><g id="tx_legibili_zits8k1qsufwm-fill-merged" stroke="none" fill="#484848" fill-opacity="1"><g><text style="font: bold 15px Roboto, sans-serif; white-space: pre;" transform="translate(10, 19)" font-weight="bold" font-size="15px" font-family="Roboto, sans-serif"><tspan x="2" y="9" dominant-baseline="ideographic">Legibilidad Técnica</tspan></text></g></g></g><g id="g-root-tx_legibili_zits8k1qsufwm-stroke" data-item-order="0" transform="translate(638, 234.998046875)"></g><g id="g-root-ic_dron_18fpnhw1qt4cnj-fill" data-item-order="0" transform="translate(302, 266)"></g><g id="g-root-ic_dron_18fpnhw1qt4cnj-stroke" data-item-order="0" transform="translate(302, 266)"><g id="ic_dron_18fpnhw1qt4cnj-stroke" fill="none" stroke-linecap="round" stroke-linejoin="round" stroke-miterlimit="4" stroke="#484848" stroke-width="1" stroke-opacity="1"><g><path d="M 45.299999 30L 37 30M 31 30L 22.700001 30M 45.82 35.200001C 39.237225 41.594414 28.762777 41.594414 22.18 35.200001M 22 37C 22 38.656853 20.656855 40 19 40C 17.343145 40 16 38.656853 16 37L 15.110001 28.1C 15.081648 27.81793 15.174349 27.537081 15.365046 27.327314C 15.555743 27.117548 15.826512 26.998579 16.110001 27L 21.91 27C 22.193489 26.998579 22.464256 27.117548 22.654953 27.327314C 22.84565 27.537081 22.938353 27.81793 22.91 28.1ZM 37 39.736L 37 43C 37 44.656857 35.656853 46 34 46C 32.343147 46 31 44.656857 31 43L 31 39.736M 11 23L 27 23M 19 19L 19 17M 46 37C 46 38.656853 47.343147 40 49 40C 50.656857 40 52 38.656853 52 37L 52.889999 28.1C 52.918354 27.81793 52.825649 27.537081 52.634953 27.327314C 52.444256 27.117548 52.173489 26.998579 51.889999 27L 46.09 27C 45.806511 26.998579 45.535744 27.117548 45.345047 27.327314C 45.15435 27.537081 45.061646 27.81793 45.09 28.1ZM 57 23L 41 23M 49 19L 49 17M 31 43C 26.379921 44.155094 22.633694 47.526699 21 52M 37 43C 41.620079 44.155094 45.366302 47.526699 47 52M 31 30C 31 31.656855 32.343147 33 34 33C 35.656853 33 37 31.656855 37 30C 37 28.343147 35.656853 27 34 27C 32.343147 27 31 28.343147 31 30Z"></path></g></g></g><g id="g-root-ic_heig_1hhlelw1qsnfv1-fill" data-item-order="0" transform="translate(518, 266)"></g><g id="g-root-ic_heig_1hhlelw1qsnfv1-stroke" data-item-order="0" transform="translate(518, 266)"><g id="ic_heig_1hhlelw1qsnfv1-stroke" fill="none" stroke-linecap="round" stroke-linejoin="round" stroke-miterlimit="4" stroke="#484848" stroke-width="1" stroke-opacity="1"><g><path d="M 11 35L 15 35M 11 57L 15 57M 57 20C 57 18.343147 55.656857 17 54 17L 47 17C 45.551338 16.999395 44.170681 16.385366 43.200001 15.31C 41.872608 13.837053 39.982815 12.99615 38 12.99615C 36.017189 12.99615 34.127396 13.837053 32.800003 15.31C 31.829323 16.385366 30.448666 16.999395 29 17L 22 17C 20.343147 17 19 18.343147 19 20C 19 21.656855 20.343147 23 22 23L 29 23C 30.448343 23.00211 31.828419 23.615879 32.799999 24.689999C 34.127396 26.162947 36.017189 27.003851 38 27.003851C 39.982815 27.003851 41.872608 26.162947 43.200001 24.690001C 44.17128 23.615465 45.551552 23.00161 47 23L 54 23C 55.656857 23 57 21.656855 57 20ZM 25 17L 25 13M 19 11L 23 11M 27 11L 31 11M 51 17L 51 13M 57 11L 53 11M 49 11L 45 11M 31 35C 29.89543 35 29 34.104568 29 33L 29 30C 29.001177 28.730116 29.550947 27.522661 30.508001 26.688002L 32.804001 24.688M 45 35C 46.104568 35 47 34.104568 47 33L 47 30C 47.000164 28.729397 46.44931 27.521164 45.490002 26.688002L 43.195999 24.688M 35 30C 35 31.656855 36.343147 33 38 33C 39.656853 33 41 31.656855 41 30C 41 28.343147 39.656853 27 38 27C 36.343147 27 35 28.343147 35 30ZM 13 35L 13 57M 23 41L 19 41L 19 44C 19 44.552284 19.447716 45 20 45L 21 45C 22.104568 45 23 45.895432 23 47C 23 48.104568 22.104568 49 21 49L 19 49M 31 47C 31 48.104568 30.10457 49 29 49C 27.89543 49 27 48.104568 27 47L 27 43C 27 41.895432 27.89543 41 29 41C 30.10457 41 31 41.895432 31 43Z"></path></g></g></g><g id="g-root-tx_represen_1lsf7781qsvuh7-fill" data-item-order="0" transform="translate(45.875, 264.998046875)"><g id="tx_represen_1lsf7781qsvuh7-fill-merged" stroke="none" fill="#484848" fill-opacity="1"><g><text style="font: 15px Roboto, sans-serif; white-space: pre;" transform="translate(194.125, 26.001953125)" font-size="15px" font-family="Roboto, sans-serif"><tspan x="-182.13" y="1" dominant-baseline="ideographic">Representación precisa del </tspan><tspan x="-32.23" y="17" dominant-baseline="ideographic">dron</tspan></text></g></g></g><g id="g-root-tx_represen_1lsf7781qsvuh7-stroke" data-item-order="0" transform="translate(45.875, 264.998046875)"></g><g id="g-root-ic_1_146rdbo1qsuhom-fill" data-item-order="0" transform="translate(415.9990234375, 248)"></g><g id="g-root-ic_1_146rdbo1qsuhom-stroke" data-item-order="0" transform="translate(415.9990234375, 248)"><g id="ic_1_146rdbo1qsuhom-stroke" fill="none" stroke-linecap="round" stroke-linejoin="round" stroke-miterlimit="4" stroke="#484848" stroke-width="1" stroke-opacity="1"><g><path d="M 45.25 23.5C 45.25 22.257359 44.242641 21.25 43 21.25L 37.75 21.25C 33.8125 21.25 32.405502 18.25 28 18.25C 23.5945 18.25 22.1875 21.25 18.25 21.25L 13 21.25C 11.75736 21.25 10.75 22.257359 10.75 23.5L 10.75 23.5C 10.75 24.742641 11.75736 25.75 13 25.75L 18.25 25.75C 22.1875 25.75 23.593 28.75 28 28.75C 32.406998 28.75 33.8125 25.75 37.75 25.75L 43 25.75C 44.242641 25.75 45.25 24.742641 45.25 23.5ZM 15.25 16.75L 15.25 16.75C 14.421573 16.75 13.75 17.421574 13.75 18.25L 13.75 21.25L 16.75 21.25L 16.75 18.25C 16.75 17.421574 16.078426 16.75 15.25 16.75ZM 21.25 26.5L 21.25 30.25C 21.25 31.078428 21.921574 31.75 22.75 31.75L 33.25 31.75C 34.078426 31.75 34.75 31.078428 34.75 30.25L 34.75 26.5M 21.25 40.75L 18.25 40.75C 17.421574 40.75 16.75 40.078426 16.75 39.25C 16.556829 35.66613 18.266998 32.245789 21.25 30.250002M 34.75 40.75L 37.75 40.75C 38.578426 40.75 39.25 40.078426 39.25 39.25C 39.443172 35.66613 37.733006 32.245789 34.750004 30.250002M 10.75 13.75L 13.75 13.75M 16.75 13.75L 19.75 13.75M 15.25 16.75L 15.25 15.25M 40.75 16.75L 40.75 16.75C 41.578426 16.75 42.25 17.421574 42.25 18.25L 42.25 21.25L 39.25 21.25L 39.25 18.25C 39.25 17.421574 39.921574 16.75 40.75 16.75ZM 45.25 13.75L 42.25 13.75M 39.25 13.75L 36.25 13.75M 40.75 16.75L 40.75 15.25M 21.25 39.25L 21.25 42.25M 34.75 39.25L 34.75 42.25"></path></g></g></g><g id="g-root-tx_comprens_ddlovo1qsuhaf-fill" data-item-order="0" transform="translate(638, 264.998046875)"><g id="tx_comprens_ddlovo1qsuhaf-fill-merged" stroke="none" fill="#484848" fill-opacity="1"><g><text style="font: 15px Roboto, sans-serif; white-space: pre;" transform="translate(10, 26.001953125)" font-size="15px" font-family="Roboto, sans-serif"><tspan x="2" y="1" dominant-baseline="ideographic">Comprensión clara de las </tspan><tspan x="2" y="17" dominant-baseline="ideographic">piezas</tspan></text></g></g></g><g id="g-root-tx_comprens_ddlovo1qsuhaf-stroke" data-item-order="0" transform="translate(638, 264.998046875)"></g><g id="g-root-tx_fidelida_m7d9v81qsvuve-fill" data-item-order="0" transform="translate(118.78125, 234.998046875)"><g id="tx_fidelida_m7d9v81qsvuve-fill-merged" stroke="none" fill="#484848" fill-opacity="1"><g><text style="font: bold 15px Roboto, sans-serif; white-space: pre;" transform="translate(121.21875, 19)" font-weight="bold" font-size="15px" font-family="Roboto, sans-serif"><tspan x="-109.22" y="9" dominant-baseline="ideographic">Fidelidad Visual</tspan></text></g></g></g><g id="g-root-tx_fidelida_m7d9v81qsvuve-stroke" data-item-order="0" transform="translate(118.78125, 234.998046875)"></g><g id="g-root-ic_came_htf0ok1qsxc0b-fill" data-item-order="0" transform="translate(404, 332)"></g><g id="g-root-ic_came_htf0ok1qsxc0b-stroke" data-item-order="0" transform="translate(404, 332)"><g id="ic_came_htf0ok1qsxc0b-stroke" fill="none" stroke-linecap="round" stroke-linejoin="round" stroke-miterlimit="4" stroke="#484848" stroke-width="1" stroke-opacity="1"><g><path d="M 67.5 33.75C 67.5 31.678932 65.821068 30 63.75 30L 56.25 30C 49.6875 30 47.342499 25 40 25C 32.657501 25 30.3125 30 23.75 30L 16.25 30C 14.178932 30 12.5 31.678932 12.5 33.75L 12.5 33.75C 12.5 35.821068 14.178932 37.5 16.25 37.5L 23.75 37.5C 30.3125 37.5 32.654999 42.5 40 42.5C 47.345001 42.5 49.6875 37.5 56.25 37.5L 63.75 37.5C 65.821068 37.5 67.5 35.821068 67.5 33.75ZM 20 22.5L 20 22.5C 18.619287 22.5 17.5 23.619287 17.5 25L 17.5 30L 22.5 30L 22.5 25C 22.5 23.619287 21.380713 22.5 20 22.5ZM 30 39.162498L 30 45C 30 46.380714 31.119287 47.5 32.5 47.5L 47.5 47.5C 48.880714 47.5 50 46.380714 50 45L 50 39.162498M 30 62.5L 25 62.5C 23.619287 62.5 22.5 61.380711 22.5 60C 22.178047 54.026878 25.028328 48.326317 30.000002 45.000004M 50 62.5L 55 62.5C 56.380711 62.5 57.5 61.380711 57.5 60C 57.821957 54.026878 54.971676 48.326317 50.000004 45.000004M 12.5 17.5L 17.5 17.5M 22.5 17.5L 27.5 17.5M 20 22.5L 20 20M 60 22.5L 60 22.5C 61.380711 22.5 62.5 23.619287 62.5 25L 62.5 30L 57.5 30L 57.5 25C 57.5 23.619287 58.619289 22.5 60 22.5ZM 67.5 17.5L 62.5 17.5M 57.5 17.5L 52.5 17.5M 60 22.5L 60 20M 37.5 55C 37.5 56.380711 38.619286 57.5 40 57.5C 41.380714 57.5 42.5 56.380711 42.5 55C 42.5 53.619289 41.380714 52.5 40 52.5C 38.619286 52.5 37.5 53.619289 37.5 55ZM 32.5 55C 32.5 59.142136 35.857864 62.5 40 62.5C 44.142136 62.5 47.5 59.142136 47.5 55C 47.5 50.857864 44.142136 47.500004 40 47.500004C 35.857864 47.500004 32.5 50.857864 32.5 55Z"></path></g></g></g><g id="g-root-tx_claridad_zn73uc1qsuih4-fill" data-item-order="0" transform="translate(374.9296875, 129.994140625)"><g id="tx_claridad_zn73uc1qsuih4-fill-merged" stroke="none" fill="#484848" fill-opacity="1"><g><text style="font: bold 15px Roboto, sans-serif; white-space: pre;" transform="translate(69.0703125, 19)" font-weight="bold" font-size="15px" font-family="Roboto, sans-serif"><tspan x="-57.07" y="9" dominant-baseline="ideographic">Claridad Estética</tspan></text></g></g></g><g id="g-root-tx_claridad_zn73uc1qsuih4-stroke" data-item-order="0" transform="translate(374.9296875, 129.994140625)"></g><g id="g-root-ic_vide_v3mkvo1qt4bnw-fill" data-item-order="0" transform="translate(326, 392)"></g><g id="g-root-ic_vide_v3mkvo1qt4bnw-stroke" data-item-order="0" transform="translate(326, 392)"><g id="ic_vide_v3mkvo1qt4bnw-stroke" fill="none" stroke-linecap="round" stroke-linejoin="round" stroke-miterlimit="4" stroke="#484848" stroke-width="1" stroke-opacity="1"><g><path d="M 39.25 34C 39.25 32.757362 38.242641 31.75 37 31.75L 31.75 31.75C 30.663504 31.749546 29.62801 31.289024 28.900002 30.482502C 27.904455 29.377792 26.48711 28.747112 25 28.747112C 23.51289 28.747112 22.095547 29.377792 21.1 30.482502C 20.371992 31.289024 19.336498 31.749546 18.25 31.750002L 13 31.75C 11.75736 31.75 10.75 32.757362 10.75 34C 10.75 35.242641 11.75736 36.25 13 36.25L 18.25 36.25C 19.336258 36.251583 20.371315 36.71191 21.1 37.517498C 22.095547 38.622211 23.51289 39.252892 25 39.252892C 26.48711 39.252892 27.904455 38.622211 28.900002 37.517502C 29.628462 36.711601 30.663662 36.251205 31.75 36.25L 37 36.25C 38.242641 36.25 39.25 35.242641 39.25 34ZM 15.25 31.75L 15.25 28.75M 10.75 27.25L 13.75 27.25M 16.75 27.25L 19.75 27.25M 34.75 31.75L 34.75 28.75M 39.25 27.25L 36.25 27.25M 33.25 27.25L 30.25 27.25M 19.75 45.25C 18.921574 45.25 18.25 44.578426 18.25 43.75L 18.25 41.5C 18.250881 40.547588 18.66321 39.641998 19.381001 39.016003L 21.103001 37.515999M 30.25 45.25C 31.078428 45.25 31.75 44.578426 31.75 43.75L 31.75 41.5C 31.750122 40.54705 31.336983 39.640877 30.6175 39.016003L 28.896999 37.515999M 22.75 41.5C 22.75 42.742641 23.75736 43.75 25 43.75C 26.242641 43.75 27.25 42.742641 27.25 41.5C 27.25 40.257362 26.242641 39.25 25 39.25C 23.75736 39.25 22.75 40.257362 22.75 41.5ZM 45.25 12.25L 42.25 13.126L 42.25 12.25C 42.25 11.421573 41.578426 10.75 40.75 10.75L 31.75 10.75C 30.921572 10.75 30.25 11.421573 30.25 12.25L 30.25 19.75C 30.25 20.578426 30.921572 21.25 31.75 21.25L 40.75 21.25C 41.578426 21.25 42.25 20.578426 42.25 19.75L 42.25 18.750999L 45.25 19.75Z"></path></g></g></g><g id="g-root-ic_dron_1lza8tw1qsou81-fill" data-item-order="0" transform="translate(506, 392)"></g><g id="g-root-ic_dron_1lza8tw1qsou81-stroke" data-item-order="0" transform="translate(506, 392)"><g id="ic_dron_1lza8tw1qsou81-stroke" fill="none" stroke-linecap="round" stroke-linejoin="round" stroke-miterlimit="4" stroke="#484848" stroke-width="1" stroke-opacity="1"><g><path d="M 45.25 20.5C 45.25 19.25736 44.242641 18.25 43 18.25L 37.75 18.25C 33.8125 18.25 32.405502 15.25 28 15.25C 23.5945 15.25 22.1875 18.25 18.25 18.25L 13 18.25C 11.75736 18.25 10.75 19.25736 10.75 20.5L 10.75 20.5C 10.75 21.742641 11.75736 22.75 13 22.75L 18.25 22.75C 22.1875 22.75 23.593 25.75 28 25.75C 32.406998 25.75 33.8125 22.75 37.75 22.75L 43 22.75C 44.242641 22.75 45.25 21.742641 45.25 20.5ZM 15.25 13.75L 15.25 13.75C 14.421573 13.75 13.75 14.421573 13.75 15.25L 13.75 18.25L 16.75 18.25L 16.75 15.25C 16.75 14.421573 16.078426 13.75 15.25 13.75ZM 21.25 23.5L 21.25 27.25C 21.25 28.078428 21.921574 28.75 22.75 28.75L 33.25 28.75C 34.078426 28.75 34.75 28.078428 34.75 27.25L 34.75 23.5M 19.75 37.75L 18.25 37.75C 17.421574 37.75 16.75 37.078426 16.75 36.25C 16.556217 32.665997 18.266529 29.245375 21.25 27.25M 36.25 37.75L 37.75 37.75C 38.578426 37.75 39.25 37.078426 39.25 36.25C 39.443779 32.665997 37.733467 29.245375 34.75 27.25M 10.75 10.75L 13.75 10.75M 16.75 10.75L 19.75 10.75M 15.25 13.75L 15.25 12.25M 40.75 13.75L 40.75 13.75C 41.578426 13.75 42.25 14.421573 42.25 15.25L 42.25 18.25L 39.25 18.25L 39.25 15.25C 39.25 14.421573 39.921574 13.75 40.75 13.75ZM 45.25 10.75L 42.25 10.75M 39.25 10.75L 36.25 10.75M 40.75 13.75L 40.75 12.25M 19.75 36.25L 19.75 39.25M 36.25 36.25L 36.25 39.25M 25.5205 37.1455L 30.4795 42.1045M 28.3615 44.2225C 26.985855 45.554405 24.796185 45.536716 23.442234 44.182766C 22.088284 42.828815 22.070595 40.639145 23.4025 39.2635L 27.6385 35.0275C 29.014145 33.695595 31.203815 33.713284 32.557766 35.067234C 33.911716 36.421185 33.929405 38.610855 32.5975 39.9865Z"></path></g></g></g><g id="g-root-tx_elequili_v64e2c1qt2w3w-fill" data-item-order="0" transform="translate(168.3359375, 38)"><g id="tx_elequili_v64e2c1qt2w3w-fill-merged" stroke="none" fill="#484848" fill-opacity="1"><g><text style="font: bold 25px Roboto, sans-serif; white-space: pre;" transform="translate(275.6640625, 25)" font-weight="bold" font-size="25px" font-family="Roboto, sans-serif"><tspan x="-263.66" y="15" dominant-baseline="ideographic">El Equilibrio de la Excelencia Técnica en el Arte</tspan></text></g></g></g><g id="g-root-tx_elequili_v64e2c1qt2w3w-stroke" data-item-order="0" transform="translate(168.3359375, 38)"></g><g id="g-root-tx_eficienc_4il5pw1qsro5k-fill" data-item-order="0" transform="translate(174.703125, 440)"><g id="tx_eficienc_4il5pw1qsro5k-fill-merged" stroke="none" fill="#484848" fill-opacity="1"><g><text style="font: bold 15px Roboto, sans-serif; white-space: pre;" transform="translate(125.296875, 19)" font-weight="bold" font-size="15px" font-family="Roboto, sans-serif"><tspan x="-113.3" y="9" dominant-baseline="ideographic">Eficiencia Visual</tspan></text></g></g></g><g id="g-root-tx_eficienc_4il5pw1qsro5k-stroke" data-item-order="0" transform="translate(174.703125, 440)"></g><g id="g-root-tx_interacc_vb4g8k1qsrpqa-fill" data-item-order="0" transform="translate(578, 440)"><g id="tx_interacc_vb4g8k1qsrpqa-fill-merged" stroke="none" fill="#484848" fill-opacity="1"><g><text style="font: bold 15px Roboto, sans-serif; white-space: pre;" transform="translate(10, 19)" font-weight="bold" font-size="15px" font-family="Roboto, sans-serif"><tspan x="2" y="9" dominant-baseline="ideographic">Interacción Eficiente</tspan></text></g></g></g><g id="g-root-tx_interacc_vb4g8k1qsrpqa-stroke" data-item-order="0" transform="translate(578, 440)"></g><g id="g-root-ic_bar_1hfpt101qt2xal-fill" data-item-order="0" transform="translate(410, 464)"></g><g id="g-root-ic_bar_1hfpt101qt2xal-stroke" data-item-order="0" transform="translate(410, 464)"><g id="ic_bar_1hfpt101qt2xal-stroke" fill="none" stroke-linecap="round" stroke-linejoin="round" stroke-miterlimit="4" stroke="#484848" stroke-width="1" stroke-opacity="1"><g><path d="M 57 49C 57 51.209141 55.209141 53 53 53L 15 53C 12.790861 53 11 51.209141 11 49L 11 21C 11 18.790861 12.790861 17 15 17L 53 17C 55.209141 17 57 18.790861 57 21ZM 11 26.996L 57 26.996M 18.5 20.996L 18.5 20.996M 18.5 21C 18.223858 21 18 21.223858 18 21.5C 18 21.776142 18.223858 22 18.5 22C 18.776142 22 19 21.776142 19 21.5C 19.000534 21.367229 18.948029 21.23974 18.854143 21.145857C 18.760258 21.051971 18.632771 20.999466 18.5 21M 24.5 20.996L 24.5 20.996M 24.5 21C 24.223858 21 24 21.223858 24 21.5C 24 21.776142 24.223858 22 24.5 22C 24.776142 22 25 21.776142 25 21.5C 25.000534 21.367229 24.948027 21.23974 24.854143 21.145857C 24.760258 21.051971 24.632771 20.999466 24.5 21M 30.5 20.996L 30.5 20.996M 30.5 21C 30.223858 21 30 21.223858 30 21.5C 30 21.776142 30.223858 22 30.5 22C 30.776142 22 31 21.776142 31 21.5C 31.000534 21.367229 30.948027 21.23974 30.854143 21.145857C 30.760258 21.051971 30.632771 20.999466 30.5 21M 17 40C 17 37.238579 19.238575 35 22 35L 46 35C 48.761425 35 51 37.238579 51 40C 51 42.761425 48.761425 45 46 45L 22 45C 19.238575 45 17 42.761425 17 40ZM 18.562 43.619999L 27.186001 34.996002M 23.188 44.995998L 33.186001 34.996002M 29.188 44.995998L 39.186001 34.996002"></path></g></g></g><g id="g-root-tx_represen_dhcjec1qsrnrd-fill" data-item-order="0" transform="translate(116.8125, 470)"><g id="tx_represen_dhcjec1qsrnrd-fill-merged" stroke="none" fill="#484848" fill-opacity="1"><g><text style="font: 15px Roboto, sans-serif; white-space: pre;" transform="translate(183.1875, 26.001953125)" font-size="15px" font-family="Roboto, sans-serif"><tspan x="-171.19" y="1" dominant-baseline="ideographic">Representación detallada </tspan><tspan x="-77.23" y="17" dominant-baseline="ideographic">pero rápida</tspan></text></g></g></g><g id="g-root-tx_represen_dhcjec1qsrnrd-stroke" data-item-order="0" transform="translate(116.8125, 470)"></g><g id="g-root-tx_comprens_v4vpdg1qst1jf-fill" data-item-order="0" transform="translate(578, 470)"><g id="tx_comprens_v4vpdg1qst1jf-fill-merged" stroke="none" fill="#484848" fill-opacity="1"><g><text style="font: 15px Roboto, sans-serif; white-space: pre;" transform="translate(10, 26.001953125)" font-size="15px" font-family="Roboto, sans-serif"><tspan x="2" y="1" dominant-baseline="ideographic">Comprensión clara con </tspan><tspan x="2" y="17" dominant-baseline="ideographic">rendimiento rápido</tspan></text></g></g></g><g id="g-root-tx_comprens_v4vpdg1qst1jf-stroke" data-item-order="0" transform="translate(578, 470)"></g><g id="g-root-tx_rendimie_1heh4c41qst2q4-fill" data-item-order="0" transform="translate(363.5703125, 596)"><g id="tx_rendimie_1heh4c41qst2q4-fill-merged" stroke="none" fill="#484848" fill-opacity="1"><g><text style="font: bold 15px Roboto, sans-serif; white-space: pre;" transform="translate(80.4296875, 19)" font-weight="bold" font-size="15px" font-family="Roboto, sans-serif"><tspan x="-68.43" y="9" dominant-baseline="ideographic">Rendimiento WebGL</tspan></text></g></g></g><g id="g-root-tx_rendimie_1heh4c41qst2q4-stroke" data-item-order="0" transform="translate(363.5703125, 596)"></g><g id="g-root-tx_cargayej_4myhbo1qst43x-fill" data-item-order="0" transform="translate(319.3515625, 626)"><g id="tx_cargayej_4myhbo1qst43x-fill-merged" stroke="none" fill="#484848" fill-opacity="1"><g><text style="font: 15px Roboto, sans-serif; white-space: pre;" transform="translate(124.6484375, 26.001953125)" font-size="15px" font-family="Roboto, sans-serif"><tspan x="-112.65" y="1" dominant-baseline="ideographic">Carga y ejecución eficientes en el </tspan><tspan x="-36.95" y="17" dominant-baseline="ideographic">navegador</tspan></text></g></g></g><g id="g-root-tx_cargayej_4myhbo1qst43x-stroke" data-item-order="0" transform="translate(319.3515625, 626)"></g><g id="g-root-tx_comprens_1usfj1w1qsuiv5-fill" data-item-order="0" transform="translate(339.8984375, 159.99609375)"><g id="tx_comprens_1usfj1w1qsuiv5-fill-merged" stroke="none" fill="#484848" fill-opacity="1"><g><text style="font: 15px Roboto, sans-serif; white-space: pre;" transform="translate(104.1015625, 18.001953125)" font-size="15px" font-family="Roboto, sans-serif"><tspan x="-92.1" y="9" dominant-baseline="ideographic">Comprensión visual precisa</tspan></text></g></g></g><g id="g-root-tx_comprens_1usfj1w1qsuiv5-stroke" data-item-order="0" transform="translate(339.8984375, 159.99609375)"></g></g></g></svg>