<?xml version="1.0" encoding="utf-8" standalone="yes"?>
<!DOCTYPE svg PUBLIC "-//W3C//DTD SVG 1.1//EN" "http://www.w3.org/Graphics/SVG/1.1/DTD/svg11.dtd">
<svg style="fill:none;stroke:none;fill-rule:evenodd;clip-rule:evenodd;stroke-linecap:round;stroke-linejoin:round;stroke-miterlimit:1.5;" version="1.1" xmlns="http://www.w3.org/2000/svg" xmlns:xlink="http://www.w3.org/1999/xlink" width="1104" height="810" viewBox="0 0 1104 810"><style class="text-font-style fontImports" data-font-family="Roboto">@import url(https://fonts.googleapis.com/css2?family=Roboto:wght@400;700&amp;amp;display=block);</style><g id="items" style="isolation: isolate"><g id="blend" style="mix-blend-mode: normal"><g id="g-root-cp_0-1_lines_dik65f1r2zpxl-fill" data-item-order="-753967" transform="translate(49, 128)"></g><g id="g-root-cp_0-1_lines_dik65f1r2zpxl-stroke" data-item-order="-753967" transform="translate(49, 128)"><g id="cp_0-1_lines_dik65f1r2zpxl-stroke" fill="none" stroke-linecap="round" stroke-linejoin="round" stroke-miterlimit="4" stroke="#000000" stroke-width="1" stroke-opacity="1"><g><path d="M 10 10L 395 10L 395 82L 10 82L 10 10Z"></path></g></g></g><g id="g-root-cp_0-2_lines_2_7q4v71r2zocq-fill" data-item-order="-753957" transform="translate(650, 128)"></g><g id="g-root-cp_0-2_lines_2_7q4v71r2zocq-stroke" data-item-order="-753957" transform="translate(650, 128)"><g id="cp_0-2_lines_2_7q4v71r2zocq-stroke" fill="none" stroke-linecap="round" stroke-linejoin="round" stroke-miterlimit="4" stroke="#000000" stroke-width="1" stroke-opacity="1"><g><path d="M 395 10L 10 10L 10 82L 395 82L 395 10Z"></path></g></g></g><g id="g-root-cp_0-1_g-0-1_vlines_1ut0opv1r2zoxv-fill" data-item-order="-753947" transform="translate(362, 200)"></g><g id="g-root-cp_0-1_g-0-1_vlines_1ut0opv1r2zoxv-stroke" data-item-order="-753947" transform="translate(362, 200)"><g id="cp_0-1_g-0-1_vlines_1ut0opv1r2zoxv-stroke" fill="none" stroke-linecap="round" stroke-linejoin="round" stroke-miterlimit="4" stroke="#000000" stroke-width="1" stroke-opacity="1"><g><path d="M 82 10L 82 526L 10 526L 10 10L 82 10Z"></path></g></g></g><g id="g-root-cp_0-2_g-0-2_vlines_1lxdogz1r2zpqk-fill" data-item-order="-753941" transform="translate(650, 200)"></g><g id="g-root-cp_0-2_g-0-2_vlines_1lxdogz1r2zpqk-stroke" data-item-order="-753941" transform="translate(650, 200)"><g id="cp_0-2_g-0-2_vlines_1lxdogz1r2zpqk-stroke" fill="none" stroke-linecap="round" stroke-linejoin="round" stroke-miterlimit="4" stroke="#000000" stroke-width="1" stroke-opacity="1"><g><path d="M 10 10L 10 526L 82 526L 82 10L 10 10Z"></path></g></g></g><g id="g-root-tx_document_4osl5v1r2zpqm-fill" data-item-order="0" transform="translate(226.328125, 150.5)"><g id="tx_document_4osl5v1r2zpqm-fill-merged" stroke="none" fill="#000000" fill-opacity="1"><g><text style="font: bold 22.5px Roboto, sans-serif; white-space: pre;" transform="translate(205.671875, 23.5)" font-weight="bold" font-size="22.5px" font-family="Roboto, sans-serif"><tspan x="-193.67" y="13.5" dominant-baseline="ideographic">Documentación 2D</tspan></text></g></g></g><g id="g-root-tx_document_4osl5v1r2zpqm-stroke" data-item-order="0" transform="translate(226.328125, 150.5)"></g><g id="g-root-tx_qumtodod_146q52b1r2zoxx-fill" data-item-order="0" transform="translate(70.7734375, 38)"><g id="tx_qumtodod_146q52b1r2zoxx-fill-merged" stroke="none" fill="#000000" fill-opacity="1"><g><text style="font: bold 25px Roboto, sans-serif; white-space: pre;" transform="translate(481.2265625, 25)" font-weight="bold" font-size="25px" font-family="Roboto, sans-serif"><tspan x="-469.23" y="15" dominant-baseline="ideographic">¿Qué método de visualización minimiza la carga cognitiva para hardware complejo?</tspan></text></g></g></g><g id="g-root-tx_qumtodod_146q52b1r2zoxx-stroke" data-item-order="0" transform="translate(70.7734375, 38)"></g><g id="g-root-ic_2_1lr4xlv1r312bm-fill" data-item-order="0" transform="translate(374, 236)"></g><g id="g-root-ic_2_1lr4xlv1r312bm-stroke" data-item-order="0" transform="translate(374, 236)"><g id="ic_2_1lr4xlv1r312bm-stroke" fill="none" stroke-linecap="round" stroke-linejoin="round" stroke-miterlimit="4" stroke="#000000" stroke-width="1" stroke-opacity="1"><g><path d="M 26.321939 56.0826L 26.321939 45.810799C 24.05648 43.712002 22.476521 40.978798 21.788399 37.968201C 21.715221 37.648003 21.602119 37.216599 21.549801 36.893799L 28.018881 36.868401C 28.018881 38.759003 29.53158 40.291599 31.3976 40.291599C 33.263599 40.291599 34.776199 38.759003 34.776199 36.868401L 39.1856 36.893799L 39.172199 31.8494C 37.2906 31.8494 35.765198 30.336599 35.765198 28.470659C 35.765198 26.604679 37.2906 25.09202 39.172199 25.09202L 39.174801 19.34082C 48.853001 20.59354 51.307201 29.61314 55.178001 39.654198C 55.249599 39.840599 55.274601 40.041401 55.251202 40.239601C 55.227798 40.437798 55.156601 40.627399 55.043598 40.792C 54.930801 40.9566 54.7794 41.091202 54.603001 41.184402C 54.426399 41.277397 54.23 41.326202 54.030399 41.326599L 50.915199 41.326599L 50.915199 46.245201C 50.915199 47.549801 50.396999 48.8008 49.474602 49.723202C 48.5522 50.645599 47.300999 51.163799 45.996601 51.163799L 43.537201 51.163799L 43.537201 56.0826M 22.15472 26.6057C 22.31826 26.23436 22.41568 25.850681 22.45212 25.467941L 26.390961 27.20256L 28.08222 23.362141C 27.971359 23.32716 27.86128 23.28578 27.752439 23.237839C 26.13966 22.527599 25.40686 20.647041 26.115681 19.0375C 26.824499 17.427959 28.70652 16.698919 30.319201 17.409161C 30.4282 17.4571 30.533001 17.51038 30.6336 17.56852L 32.458401 13.42482C 23.314781 9.599638 15.08002 13.368259 12.74024 21.190979L 16.09564 22.668659C 15.8379 22.953941 15.62064 23.28484 15.4571 23.656181C 14.63906 25.513779 15.475201 27.67992 17.324699 28.4944C 19.1742 29.308901 21.33666 28.463301 22.15472 26.6057Z"></path></g></g></g><g id="g-root-ic_farg_mgp2qr1r35bt5-fill" data-item-order="0" transform="translate(662, 236)"></g><g id="g-root-ic_farg_mgp2qr1r35bt5-stroke" data-item-order="0" transform="translate(662, 236)"><g id="ic_farg_mgp2qr1r35bt5-stroke" fill="none" stroke-linecap="round" stroke-linejoin="round" stroke-miterlimit="4" stroke="#000000" stroke-width="1" stroke-opacity="1"><g><path d="M 10 10M 34.099998 38.500198L 20.700081 31.5002L 20.700081 16.900139L 34.099998 22.500141L 34.099998 38.500198ZM 10 10M 34.099998 38.500198L 47.700001 31.5002L 47.700001 16.900139L 34.099998 22.500141L 34.099998 38.500198ZM 20.700081 16.9L 34.099998 11.5M 10 10M 47.700001 16.9L 34.099998 11.5M 52.700001 26.5C 54.099998 28.1 54.900002 30.1 54.900002 32.099998C 54.900002 38.900002 45.5 44.299999 33.900002 44.299999C 22.30002 44.299999 12.90002 38.900002 12.90002 32.099998C 12.90002 30.1 13.70004 28.299999 15.10004 26.5M 10 10M 16.49988 56.5L 11.499878 54.299999L 11.499878 48.299999M 10 10M 16.49988 56.5L 21.2999 54.299999L 21.2999 48.299999M 10 10M 51.700001 56.5L 46.700001 54.299999L 46.700001 48.299999M 10 10M 51.700001 56.5L 56.5 54.299999L 56.5 48.299999"></path></g></g></g><g id="g-root-tx_requiere_v2yyoz1r313bc-fill" data-item-order="0" transform="translate(87.65625, 236)"><g id="tx_requiere_v2yyoz1r313bc-fill-merged" stroke="none" fill="#000000" fill-opacity="1"><g><text style="font: bold 15px Roboto, sans-serif; white-space: pre;" transform="translate(260.34375, 37)" font-weight="bold" font-size="15px" font-family="Roboto, sans-serif"><tspan x="-233.16" y="-9" dominant-baseline="ideographic">Requiere la reconstrucción mental </tspan><tspan x="-248.34" y="9" dominant-baseline="ideographic">manual de relaciones espaciales y la </tspan><tspan x="-154.91" y="27" dominant-baseline="ideographic">posición de las piezas.</tspan></text></g></g></g><g id="g-root-tx_requiere_v2yyoz1r313bc-stroke" data-item-order="0" transform="translate(87.65625, 236)"></g><g id="g-root-tx_procesam_1d2zmeb1r35bt4-fill" data-item-order="0" transform="translate(487.1953125, 248)"><g id="tx_procesam_1d2zmeb1r35bt4-fill-merged" stroke="none" fill="#000000" fill-opacity="1"><g><text style="font: bold 15px Roboto, sans-serif; white-space: pre;" transform="translate(64.8046875, 28)" font-weight="bold" font-size="15px" font-family="Roboto, sans-serif"><tspan x="-52.8" y="0" dominant-baseline="ideographic">Procesamiento </tspan><tspan x="-33.99" y="18" dominant-baseline="ideographic">Cognitivo</tspan></text></g></g></g><g id="g-root-tx_procesam_1d2zmeb1r35bt4-stroke" data-item-order="0" transform="translate(487.1953125, 248)"></g><g id="g-root-tx_external_1ut0rvn1r2ogzs-fill" data-item-order="0" transform="translate(746, 236)"><g id="tx_external_1ut0rvn1r2ogzs-fill-merged" stroke="none" fill="#000000" fill-opacity="1"><g><text style="font: bold 15px Roboto, sans-serif; white-space: pre;" transform="translate(10, 37)" font-weight="bold" font-size="15px" font-family="Roboto, sans-serif"><tspan x="2" y="-9" dominant-baseline="ideographic">Externaliza tareas espaciales a través </tspan><tspan x="2" y="9" dominant-baseline="ideographic">de cámaras orbitales y selección </tspan><tspan x="2" y="27" dominant-baseline="ideographic">directa.</tspan></text></g></g></g><g id="g-root-tx_external_1ut0rvn1r2ogzs-stroke" data-item-order="0" transform="translate(746, 236)"></g><g id="g-root-tx_altacarg_4gof1f1r313bd-fill" data-item-order="0" transform="translate(65.578125, 302)"><g id="tx_altacarg_4gof1f1r313bd-fill-merged" stroke="none" fill="#000000" fill-opacity="1"><g><text style="font: 15px Roboto, sans-serif; white-space: pre;" transform="translate(282.421875, 37)" font-size="15px" font-family="Roboto, sans-serif"><tspan x="-219.2" y="-9" dominant-baseline="ideographic">Alta carga extrínseca debido a la </tspan><tspan x="-270.42" y="9" dominant-baseline="ideographic">interpretación de diferentes formatos de </tspan><tspan x="-55.47" y="27" dominant-baseline="ideographic">medios.</tspan></text></g></g></g><g id="g-root-tx_altacarg_4gof1f1r313bd-stroke" data-item-order="0" transform="translate(65.578125, 302)"></g><g id="g-root-tx_reduceel_zqwq3n1r2ohs1-fill" data-item-order="0" transform="translate(746, 302)"><g id="tx_reduceel_zqwq3n1r2ohs1-fill-merged" stroke="none" fill="#000000" fill-opacity="1"><g><text style="font: 15px Roboto, sans-serif; white-space: pre;" transform="translate(10, 28)" font-size="15px" font-family="Roboto, sans-serif"><tspan x="2" y="0" dominant-baseline="ideographic">Reduce el esfuerzo al descargar la </tspan><tspan x="2" y="18" dominant-baseline="ideographic">rotación mental en la interfaz.</tspan></text></g></g></g><g id="g-root-tx_reduceel_zqwq3n1r2ohs1-stroke" data-item-order="0" transform="translate(746, 302)"></g><g id="g-root-ic_page_dcbig31r2pukk-fill" data-item-order="0" transform="translate(374, 404)"></g><g id="g-root-ic_page_dcbig31r2pukk-stroke" data-item-order="0" transform="translate(374, 404)"><g id="ic_page_dcbig31r2pukk-stroke" fill="none" stroke-linecap="round" stroke-linejoin="round" stroke-miterlimit="4" stroke="#000000" stroke-width="1" stroke-opacity="1"><g><path d="M 21.84506 49.493401C 22.36972 49.493401 22.793259 49.069801 22.793259 48.5452L 22.793259 38.0392C 22.793259 37.7864 22.69212 37.539803 22.508801 37.362801L 20.612419 35.5424C 20.435421 35.365402 20.1952 35.270599 19.948681 35.270599L 12.784121 35.270599C 12.25946 35.270599 11.835938 35.694 11.835938 36.2188L 11.835938 48.5452C 11.835938 49.069801 12.25946 49.493401 12.784121 49.493401L 21.84506 49.493401ZM 38.583401 49.493401C 39.108002 49.493401 39.531601 49.069801 39.531601 48.5452L 39.531601 38.0392C 39.531601 37.7864 39.430401 37.539803 39.247002 37.362801L 37.350601 35.5424C 37.173599 35.365402 36.933399 35.270599 36.687 35.270599L 29.522421 35.270599C 28.99774 35.270599 28.574221 35.694 28.574221 36.2188L 28.574221 48.5452C 28.574221 49.069801 28.99774 49.493401 29.522421 49.493401L 38.583401 49.493401ZM 55.216202 49.493401C 55.740799 49.493401 56.164398 49.069801 56.164398 48.5452L 56.164398 38.0392C 56.164398 37.7864 56.063202 37.539803 55.879799 37.362801L 53.983601 35.5424C 53.806599 35.365402 53.566399 35.270599 53.319801 35.270599L 46.155201 35.270599C 45.6306 35.270599 45.207001 35.694 45.207001 36.2188L 45.207001 48.5452C 45.207001 49.069801 45.6306 49.493401 46.155201 49.493401L 55.216202 49.493401ZM 10 10M 42.042999 26.889641L 48.5672 27.61422L 49.291599 21.0898M 19.949219 26.89006C 22.201439 23.508881 27.27454 18.50684 33.753799 18.50684C 40.233002 18.50684 45.024399 22.59314 47.6306 26.89006"></path></g></g></g><g id="g-root-ic_1_1cxdfs31r2pu6e-fill" data-item-order="0" transform="translate(662, 404)"></g><g id="g-root-ic_1_1cxdfs31r2pu6e-stroke" data-item-order="0" transform="translate(662, 404)"><g id="ic_1_1cxdfs31r2pu6e-stroke" fill="none" stroke-linecap="round" stroke-linejoin="round" stroke-miterlimit="4" stroke="#000000" stroke-width="1" stroke-opacity="1"><g><path d="M 37.622002 17.166L 28.622 22.416L 37.622002 27.666L 46.622002 22.416L 37.622002 17.166ZM 46.622002 22.416L 46.622002 32.916L 37.622002 38.166L 28.622 32.916L 28.622 22.416M 37.622002 27.666L 37.622002 38.166M 20.622 28C 20.622 37.38884 28.23316 45 37.622002 45C 47.010841 45 54.622002 37.38884 54.622002 28C 54.622002 18.61116 47.010841 11 37.622002 11C 28.23316 11 20.622 18.61116 20.622 28M 49.641998 40.02L 57 47.377998M 37 49L 11 49M 24 52.5C 24.276142 52.5 24.5 52.723858 24.5 53L 24.5 53C 24.5 53.276142 24.276142 53.5 24 53.5L 24 53.5C 23.723858 53.5 23.5 53.276142 23.5 53L 23.5 53C 23.5 52.723858 23.723858 52.5 24 52.5M 24 52.5L 24 52.5M 37 49L 37 53C 37 55.209141 35.209137 57 33 57L 15 57C 12.790861 57 11 55.209141 11 53L 11 15C 11 12.790861 12.790861 11 15 11L 26 11"></path></g></g></g><g id="g-root-tx_obligaal_1uuw74z1r2og02-fill" data-item-order="0" transform="translate(73.953125, 404)"><g id="tx_obligaal_1uuw74z1r2og02-fill-merged" stroke="none" fill="#000000" fill-opacity="1"><g><text style="font: bold 15px Roboto, sans-serif; white-space: pre;" transform="translate(274.046875, 28)" font-weight="bold" font-size="15px" font-family="Roboto, sans-serif"><tspan x="-262.05" y="0" dominant-baseline="ideographic">Obliga al usuario a navegar a través de </tspan><tspan x="-254.38" y="18" dominant-baseline="ideographic">planos, imágenes y tablas separadas.</tspan></text></g></g></g><g id="g-root-tx_obligaal_1uuw74z1r2og02-stroke" data-item-order="0" transform="translate(73.953125, 404)"></g><g id="g-root-tx_recupera_8ydfkz1r2ptl9-fill" data-item-order="0" transform="translate(481.7890625, 416)"><g id="tx_recupera_8ydfkz1r2ptl9-fill-merged" stroke="none" fill="#000000" fill-opacity="1"><g><text style="font: bold 15px Roboto, sans-serif; white-space: pre;" transform="translate(70.2109375, 28)" font-weight="bold" font-size="15px" font-family="Roboto, sans-serif"><tspan x="-58.21" y="0" dominant-baseline="ideographic">Recuperación de </tspan><tspan x="-42.77" y="18" dominant-baseline="ideographic">Información</tspan></text></g></g></g><g id="g-root-tx_recupera_8ydfkz1r2ptl9-stroke" data-item-order="0" transform="translate(481.7890625, 416)"></g><g id="g-root-tx_utilizap_5usrn1r2r8y2-fill" data-item-order="0" transform="translate(746, 404)"><g id="tx_utilizap_5usrn1r2r8y2-fill-merged" stroke="none" fill="#000000" fill-opacity="1"><g><text style="font: bold 15px Roboto, sans-serif; white-space: pre;" transform="translate(10, 37)" font-weight="bold" font-size="15px" font-family="Roboto, sans-serif"><tspan x="2" y="-9" dominant-baseline="ideographic">Utiliza puntos de acceso y hojas </tspan><tspan x="2" y="9" dominant-baseline="ideographic">inferiores para la entrega de datos </tspan><tspan x="2" y="27" dominant-baseline="ideographic">inmediata y contextual.</tspan></text></g></g></g><g id="g-root-tx_utilizap_5usrn1r2r8y2-stroke" data-item-order="0" transform="translate(746, 404)"></g><g id="g-root-tx_aumentae_v2z1ur1r2pvd7-fill" data-item-order="0" transform="translate(91.875, 452)"><g id="tx_aumentae_v2z1ur1r2pvd7-fill-merged" stroke="none" fill="#000000" fill-opacity="1"><g><text style="font: 15px Roboto, sans-serif; white-space: pre;" transform="translate(256.125, 28)" font-size="15px" font-family="Roboto, sans-serif"><tspan x="-244.13" y="0" dominant-baseline="ideographic">Aumenta el tiempo de búsqueda y la </tspan><tspan x="-195.39" y="18" dominant-baseline="ideographic">integración manual de datos.</tspan></text></g></g></g><g id="g-root-tx_aumentae_v2z1ur1r2pvd7-stroke" data-item-order="0" transform="translate(91.875, 452)"></g><g id="g-root-tx_simplifi_144usyr1r2r9j7-fill" data-item-order="0" transform="translate(746, 470)"><g id="tx_simplifi_144usyr1r2r9j7-fill-merged" stroke="none" fill="#000000" fill-opacity="1"><g><text style="font: 15px Roboto, sans-serif; white-space: pre;" transform="translate(10, 37)" font-size="15px" font-family="Roboto, sans-serif"><tspan x="2" y="-9" dominant-baseline="ideographic">Simplifica el acceso a detalles </tspan><tspan x="2" y="9" dominant-baseline="ideographic">específicos del sistema y relaciones </tspan><tspan x="2" y="27" dominant-baseline="ideographic">ocultas.</tspan></text></g></g></g><g id="g-root-tx_simplifi_144usyr1r2r9j7-stroke" data-item-order="0" transform="translate(746, 470)"></g><g id="g-root-ic_boar_hzmplv1r2rax2-fill" data-item-order="0" transform="translate(374, 572)"></g><g id="g-root-ic_boar_hzmplv1r2rax2-stroke" data-item-order="0" transform="translate(374, 572)"><g id="ic_boar_hzmplv1r2rax2-stroke" fill="none" stroke-linecap="round" stroke-linejoin="round" stroke-miterlimit="4" stroke="#000000" stroke-width="1" stroke-opacity="1"><g><path d="M 53.5 31.700001L 53.5 37.5M 53.5 45.7188L 53.5 49.5C 53.5 51.700001 51.700001 53.5 49.5 53.5L 18.5 53.5C 16.299999 53.5 14.5 51.700001 14.5 49.5L 14.5 15.5C 14.5 13.3 16.299999 11.5 18.5 11.5L 49.5 11.5C 51.700001 11.5 53.5 13.3 53.5 15.5L 53.5 23.5M 25.25 18.6C 24.835781 18.6 24.5 18.264221 24.5 17.85C 24.5 17.435801 24.835781 17.1 25.25 17.1M 25.25 18.6C 25.664219 18.6 26 18.264221 26 17.85C 26 17.435801 25.664219 17.1 25.25 17.1M 34.099998 18.6C 33.685799 18.6 33.349998 18.264221 33.349998 17.85C 33.349998 17.435801 33.685799 17.1 34.099998 17.1M 34.099998 18.6C 34.514198 18.6 34.849998 18.264221 34.849998 17.85C 34.849998 17.435801 34.514198 17.1 34.099998 17.1M 42.950001 18.6C 42.535801 18.6 42.200001 18.264221 42.200001 17.85C 42.200001 17.435801 42.535801 17.1 42.950001 17.1M 42.950001 18.6C 43.364201 18.6 43.700001 18.264221 43.700001 17.85C 43.700001 17.435801 43.364201 17.1 42.950001 17.1M 39.5 38.5L 29.5 38.5L 29.5 29.700001L 36.5 29.700001L 39.5 32.5L 39.5 38.5ZM 56.5 23.700001L 48.5 23.700001L 48.5 31.700001L 56.5 31.700001L 56.5 23.700001ZM 56.5 37.700001L 48.5 37.700001L 48.5 45.700001L 56.5 45.700001L 56.5 37.700001ZM 21.5 23.700001L 14.5 23.700001L 14.5 44.700001L 21.5 44.700001L 21.5 23.700001ZM 11.5 28.5L 14.5 28.5M 11.5 34.5L 14.5 34.5M 11.5 40.5L 14.5 40.5M 32.5 49.700001L 32.5 56.5M 26.1 49.700001L 26.1 56.5M 38.900002 49.700001L 38.900002 56.5"></path></g></g></g><g id="g-root-ic_insp_m97gv71r2smps-fill" data-item-order="0" transform="translate(662, 572)"></g><g id="g-root-ic_insp_m97gv71r2smps-stroke" data-item-order="0" transform="translate(662, 572)"><g id="ic_insp_m97gv71r2smps-stroke" fill="none" stroke-linecap="round" stroke-linejoin="round" stroke-miterlimit="4" stroke="#000000" stroke-width="1" stroke-opacity="1"><g><path d="M 34.500198 49.899601C 43.005402 49.899601 49.900002 43.004799 49.900002 34.499599C 49.900002 25.99444 43.005402 19.0996 34.500198 19.0996C 25.99494 19.0996 19.1001 25.99444 19.1001 34.499599C 19.1001 43.004799 25.99494 49.899601 34.500198 49.899601ZM 10 10M 56.500198 56.499802L 45.500198 45.299801M 29.1001 31.898399C 31.861601 31.898399 34.099998 29.659861 34.099998 26.898439C 34.099998 24.13702 31.861601 21.898441 29.1001 21.898441C 26.33868 21.898441 24.1001 24.13702 24.1001 26.898439C 24.1001 29.659861 26.33868 31.898399 29.1001 31.898399ZM 15.1001 17.5C 16.75696 17.5 18.1001 16.15686 18.1001 14.5C 18.1001 12.84314 16.75696 11.5 15.1001 11.5C 13.44324 11.5 12.1001 12.84314 12.1001 14.5C 12.1001 16.15686 13.44324 17.5 15.1001 17.5ZM 14.5 50.5C 16.15686 50.5 17.5 49.156799 17.5 47.5C 17.5 45.843201 16.15686 44.5 14.5 44.5C 12.84314 44.5 11.5 45.843201 11.5 47.5C 11.5 49.156799 12.84314 50.5 14.5 50.5ZM 29.1001 42.5C 30.757 42.5 32.099998 41.156799 32.099998 39.5C 32.099998 37.843201 30.757 36.5 29.1001 36.5C 27.443239 36.5 26.1001 37.843201 26.1001 39.5C 26.1001 41.156799 27.443239 42.5 29.1001 42.5ZM 41.099998 38.898399C 42.757 38.898399 44.099998 37.555199 44.099998 35.898399C 44.099998 34.2416 42.757 32.898399 41.099998 32.898399C 39.443199 32.898399 38.099998 34.2416 38.099998 35.898399C 38.099998 37.555199 39.443199 38.898399 41.099998 38.898399ZM 10 10M 32.028999 38.6744L 38.2812 36.916M 29.1001 31.898399L 29.1001 36.5M 10 10M 17.359379 46.5704L 22.414059 44.042999M 10 10M 17.300039 16.5L 20.70002 19.099979"></path></g></g></g><g id="g-root-tx_limitala_4mx92b1r2rabw-fill" data-item-order="0" transform="translate(140.359375, 572)"><g id="tx_limitala_4mx92b1r2rabw-fill-merged" stroke="none" fill="#000000" fill-opacity="1"><g><text style="font: bold 15px Roboto, sans-serif; white-space: pre;" transform="translate(207.640625, 37)" font-weight="bold" font-size="15px" font-family="Roboto, sans-serif"><tspan x="-163.48" y="-9" dominant-baseline="ideographic">Limita la comprensión a </tspan><tspan x="-195.64" y="9" dominant-baseline="ideographic">representaciones estáticas y </tspan><tspan x="-191.05" y="27" dominant-baseline="ideographic">fragmentadas del hardware.</tspan></text></g></g></g><g id="g-root-tx_limitala_4mx92b1r2rabw-stroke" data-item-order="0" transform="translate(140.359375, 572)"></g><g id="g-root-tx_comprens_1hap1k31r2sp3b-fill" data-item-order="0" transform="translate(480.9453125, 584)"><g id="tx_comprens_1hap1k31r2sp3b-fill-merged" stroke="none" fill="#000000" fill-opacity="1"><g><text style="font: bold 15px Roboto, sans-serif; white-space: pre;" transform="translate(71.0546875, 28)" font-weight="bold" font-size="15px" font-family="Roboto, sans-serif"><tspan x="-59.05" y="0" dominant-baseline="ideographic">Comprensión del </tspan><tspan x="-29.43" y="18" dominant-baseline="ideographic">Sistema</tspan></text></g></g></g><g id="g-root-tx_comprens_1hap1k31r2sp3b-stroke" data-item-order="0" transform="translate(480.9453125, 584)"></g><g id="g-root-tx_empleamo_3zdib1r2u1hh-fill" data-item-order="0" transform="translate(746, 572)"><g id="tx_empleamo_3zdib1r2u1hh-fill-merged" stroke="none" fill="#000000" fill-opacity="1"><g><text style="font: bold 15px Roboto, sans-serif; white-space: pre;" transform="translate(10, 37)" font-weight="bold" font-size="15px" font-family="Roboto, sans-serif"><tspan x="2" y="-9" dominant-baseline="ideographic">Emplea modos de análisis para revelar </tspan><tspan x="2" y="9" dominant-baseline="ideographic">relaciones internas y conexiones </tspan><tspan x="2" y="27" dominant-baseline="ideographic">funcionales.</tspan></text></g></g></g><g id="g-root-tx_empleamo_3zdib1r2u1hh-stroke" data-item-order="0" transform="translate(746, 572)"></g><g id="g-root-tx_dificult_1d1qrdv1r2ra4t-fill" data-item-order="0" transform="translate(84.515625, 638)"><g id="tx_dificult_1d1qrdv1r2ra4t-fill-merged" stroke="none" fill="#000000" fill-opacity="1"><g><text style="font: 15px Roboto, sans-serif; white-space: pre;" transform="translate(263.484375, 37)" font-size="15px" font-family="Roboto, sans-serif"><tspan x="-249.58" y="-9" dominant-baseline="ideographic">Dificulta la capacidad de comprender </tspan><tspan x="-251.48" y="9" dominant-baseline="ideographic">rápidamente las complejas funciones </tspan><tspan x="-83.05" y="27" dominant-baseline="ideographic">del sistema.</tspan></text></g></g></g><g id="g-root-tx_dificult_1d1qrdv1r2ra4t-stroke" data-item-order="0" transform="translate(84.515625, 638)"></g><g id="g-root-tx_favorece_zn5vkz1r2u232-fill" data-item-order="0" transform="translate(746, 638)"><g id="tx_favorece_zn5vkz1r2u232-fill-merged" stroke="none" fill="#000000" fill-opacity="1"><g><text style="font: 15px Roboto, sans-serif; white-space: pre;" transform="translate(10, 37)" font-size="15px" font-family="Roboto, sans-serif"><tspan x="2" y="-9" dominant-baseline="ideographic">Favorece una profunda comprensión </tspan><tspan x="2" y="9" dominant-baseline="ideographic">espacial y un aprendizaje intuitivo del </tspan><tspan x="2" y="27" dominant-baseline="ideographic">sistema.</tspan></text></g></g></g><g id="g-root-tx_favorece_zn5vkz1r2u232-stroke" data-item-order="0" transform="translate(746, 638)"></g><g id="g-root-tx_visor3d_1lz93qb1r2zoqv-fill" data-item-order="0" transform="translate(662, 150.5)"><g id="tx_visor3d_1lz93qb1r2zoqv-fill-merged" stroke="none" fill="#000000" fill-opacity="1"><g><text style="font: bold 22.5px Roboto, sans-serif; white-space: pre;" transform="translate(10, 23.5)" font-weight="bold" font-size="22.5px" font-family="Roboto, sans-serif"><tspan x="2" y="13.5" dominant-baseline="ideographic">Visor 3D</tspan></text></g></g></g><g id="g-root-tx_visor3d_1lz93qb1r2zoqv-stroke" data-item-order="0" transform="translate(662, 150.5)"></g></g></g></svg>