<?xml version="1.0" encoding="utf-8" standalone="yes"?>
<!DOCTYPE svg PUBLIC "-//W3C//DTD SVG 1.1//EN" "http://www.w3.org/Graphics/SVG/1.1/DTD/svg11.dtd">
<svg style="fill:none;stroke:none;fill-rule:evenodd;clip-rule:evenodd;stroke-linecap:round;stroke-linejoin:round;stroke-miterlimit:1.5;" version="1.1" xmlns="http://www.w3.org/2000/svg" xmlns:xlink="http://www.w3.org/1999/xlink" width="806" height="624" viewBox="0 0 806 624"><style class="text-font-style fontImports" data-font-family="Roboto">@import url(https://fonts.googleapis.com/css2?family=Roboto:wght@400;700&amp;amp;display=block);</style><g id="items" style="isolation: isolate"><g id="blend" style="mix-blend-mode: normal"><g id="g-root-sy_0_cu_v9911w1tav1my-fill" data-item-order="-150736" transform="translate(287.96197509765625, 236)"></g><g id="g-root-sy_0_cu_v9911w1tav1my-stroke" data-item-order="-150736" transform="translate(287.96197509765625, 236)"><g id="sy_0_cu_v9911w1tav1my-stroke" fill="none" stroke-linecap="round" stroke-linejoin="round" stroke-miterlimit="4" stroke="#000000" stroke-width="1" stroke-opacity="1"><g><path d="M 41.8313 44.4598C 26.76 59.2893 15.5897 78.0715 10 99.1266M 10 160.8734C 15.625 182.0616 26.9016 200.9481 42.1177 215.8211M 93.3555 245.5088C 103.7319 248.4347 114.6787 250 125.9911 250C 136.9428 250 147.5518 248.5329 157.6324 245.7846M 209.6662 216.0146C 224.6048 201.4798 235.7702 183.0868 241.5537 162.4445M 241.5536 97.5554C 235.8074 77.0458 224.748 58.7566 209.9536 44.266M 157.5289 14.1873C 147.4793 11.4571 136.9054 10 125.9911 10C 114.7164 10 103.8049 11.5549 93.4592 14.462"></path></g></g></g><g id="g-root-sy_6_cu_cu_qtfixg1tav2f7-fill" data-item-order="-150732" transform="translate(278.51416015625, 174.5615234375)"></g><g id="g-root-sy_6_cu_cu_qtfixg1tav2f7-stroke" data-item-order="-150732" transform="translate(278.51416015625, 174.5615234375)"><g id="sy_6_cu_cu_qtfixg1tav2f7-stroke" fill="none" stroke-linecap="round" stroke-linejoin="round" stroke-miterlimit="4" stroke="#000000" stroke-width="1" stroke-opacity="1"><g><path d="M 45.585069 104.372569C 33.719169 101.193169 23.066269 93.487169 16.438769 82.007969C 3.183969 59.049969 11.049969 29.693569 34.007969 16.438769C 56.966069 3.183969 86.322369 11.049969 99.577169 34.007969C 106.204669 45.486969 107.551869 58.565569 104.372469 70.431269L 91.949469 116.795869L 45.595669 104.375369C 45.592169 104.374469 45.588569 104.373469 45.585069 104.372569Z"></path></g></g></g><g id="g-root-sy_5_cu_cu_dilhn81tav0uc-fill" data-item-order="-150728" transform="translate(202.953125, 308)"></g><g id="g-root-sy_5_cu_cu_dilhn81tav0uc-stroke" data-item-order="-150728" transform="translate(202.953125, 308)"><g id="sy_5_cu_cu_dilhn81tav0uc-stroke" fill="none" stroke-linecap="round" stroke-linejoin="round" stroke-miterlimit="4" stroke="#000000" stroke-width="1" stroke-opacity="1"><g><path d="M 91.9414 91.9408C 83.2551 100.6273 71.255 106 58 106C 31.4903 106 10 84.5097 10 58C 10 31.4903 31.4903 10 58 10C 71.2548 9.999999 83.2548 15.3726 91.9411 24.0589L 125.8825 57.9997L 91.9492 91.9331C 91.9466 91.9356 91.944 91.9382 91.9414 91.9408Z"></path></g></g></g><g id="g-root-sy_4_cu_cu_4myhec1tav1n1-fill" data-item-order="-150724" transform="translate(278.51416015625, 431)"></g><g id="g-root-sy_4_cu_cu_4myhec1tav1n1-stroke" data-item-order="-150724" transform="translate(278.51416015625, 431)"><g id="sy_4_cu_cu_4myhec1tav1n1-stroke" fill="none" stroke-linecap="round" stroke-linejoin="round" stroke-miterlimit="4" stroke="#000000" stroke-width="1" stroke-opacity="1"><g><path d="M 104.372369 56.3644C 107.551869 68.2302 106.204669 81.309 99.577169 92.7881C 86.322369 115.7462 56.966069 123.6122 34.007969 110.3574C 11.049969 97.1025 3.183969 67.7462 16.438769 44.7881C 23.066169 33.3091 33.718969 25.6031 45.584669 22.4237L 91.948969 10L 104.369469 56.3538C 104.370369 56.3573 104.371369 56.3609 104.372369 56.3644Z"></path></g></g></g><g id="g-root-sy_3_cu_cu_1qcm1041tav30u-fill" data-item-order="-150720" transform="translate(432.45556640625, 431)"></g><g id="g-root-sy_3_cu_cu_1qcm1041tav30u-stroke" data-item-order="-150720" transform="translate(432.45556640625, 431)"><g id="sy_3_cu_cu_1qcm1041tav30u-stroke" fill="none" stroke-linecap="round" stroke-linejoin="round" stroke-miterlimit="4" stroke="#000000" stroke-width="1" stroke-opacity="1"><g><path d="M 11.6437 56.3644C 8.4641 68.2302 9.8113 81.309 16.4388 92.7881C 29.6936 115.7462 59.05 123.6122 82.008 110.3574C 104.9661 97.1025 112.8321 67.7462 99.5772 44.7881C 92.9498 33.3091 82.297 25.6031 70.4313 22.4237L 24.067 10L 11.6465 56.3538C 11.6456 56.3573 11.6446 56.3609 11.6437 56.3644Z"></path></g></g></g><g id="g-root-sy_2_cu_cu_1lxezys1tav0nb-fill" data-item-order="-150716" transform="translate(487.07080078125, 308)"></g><g id="g-root-sy_2_cu_cu_1lxezys1tav0nb-stroke" data-item-order="-150716" transform="translate(487.07080078125, 308)"><g id="sy_2_cu_cu_1lxezys1tav0nb-stroke" fill="none" stroke-linecap="round" stroke-linejoin="round" stroke-miterlimit="4" stroke="#000000" stroke-width="1" stroke-opacity="1"><g><path d="M 43.9411 91.9408C 52.6274 100.6273 64.6276 106 77.8825 106C 104.3922 106 125.8825 84.5097 125.8825 58C 125.8825 31.4903 104.3922 10 77.8825 10C 64.6277 9.999999 52.6277 15.3726 43.9414 24.0589L 10 57.9997L 43.9333 91.9331C 43.9359 91.9356 43.9385 91.9382 43.9411 91.9408Z"></path></g></g></g><g id="g-root-sy_1_cu_cu_18lyhlg1tav288-fill" data-item-order="-150712" transform="translate(432.45562744140625, 174.5615234375)"></g><g id="g-root-sy_1_cu_cu_18lyhlg1tav288-stroke" data-item-order="-150712" transform="translate(432.45562744140625, 174.5615234375)"><g id="sy_1_cu_cu_18lyhlg1tav288-stroke" fill="none" stroke-linecap="round" stroke-linejoin="round" stroke-miterlimit="4" stroke="#000000" stroke-width="1" stroke-opacity="1"><g><path d="M 70.430808 104.372569C 82.296708 101.193169 92.949608 93.487169 99.577108 82.007969C 112.832008 59.049969 104.966008 29.693569 82.007908 16.438769C 59.049908 3.183969 29.693508 11.049969 16.438708 34.007969C 9.811308 45.486969 8.464108 58.565569 11.643508 70.431269L 24.066408 116.795869L 70.420208 104.375369C 70.423708 104.374469 70.427308 104.373469 70.430808 104.372569Z"></path></g></g></g><g id="g-root-tx_mideelre_m7c4us1tl07wo-fill" data-item-order="0" transform="translate(546.953125, 176)"><g id="tx_mideelre_m7c4us1tl07wo-fill-merged" stroke="none" fill="#000000" fill-opacity="1"><g><text style="font: 15px Roboto, sans-serif; white-space: pre;" transform="translate(10, 46)" font-size="15px" font-family="Roboto, sans-serif"><tspan x="2" y="-18" dominant-baseline="ideographic">Mide el rendimiento del </tspan><tspan x="2" y="0" dominant-baseline="ideographic">proyecto en </tspan><tspan x="2" y="18" dominant-baseline="ideographic">navegadores y </tspan><tspan x="2" y="36" dominant-baseline="ideographic">dispositivos</tspan></text></g></g></g><g id="g-root-tx_mideelre_m7c4us1tl07wo-stroke" data-item-order="0" transform="translate(546.953125, 176)"></g><g id="g-root-ic_grap_qns0wk1tkm7lz-fill" data-item-order="0" transform="translate(456.953125, 200)"></g><g id="g-root-ic_grap_qns0wk1tkm7lz-stroke" data-item-order="0" transform="translate(456.953125, 200)"><g id="ic_grap_qns0wk1tkm7lz-stroke" fill="none" stroke-linecap="round" stroke-linejoin="round" stroke-miterlimit="4" stroke="#000000" stroke-width="1" stroke-opacity="1"><g><path d="M 56.5 24.099979L 36.299999 41.099998L 30.700001 34.5L 11.5 49.700001M 10 10M 16.5 55.700001L 16.5 45.734402M 16.5 39.5L 16.5 21.699959M 26.5 29.700001L 26.5 11.5M 36.5 30.5L 36.5 17.699961M 46.5 17.700001L 46.5 11.5M 10 10M 26.5 48.099998L 26.5 37.875M 10 10M 36.5 50.5L 36.5 40.9688M 10 10M 46.5 56.5L 46.5 32.5M 47.5 24.099979L 56.5 24.099979L 56.5 32.5"></path></g></g></g><g id="g-root-ic_man_256l01tawgei-fill" data-item-order="0" transform="translate(300.953125, 200)"></g><g id="g-root-ic_man_256l01tawgei-stroke" data-item-order="0" transform="translate(300.953125, 200)"><g id="ic_man_256l01tawgei-stroke" fill="none" stroke-linecap="round" stroke-linejoin="round" stroke-miterlimit="4" stroke="#000000" stroke-width="1" stroke-opacity="1"><g><path d="M 17.700001 26.280001C 20.351929 29.050932 24.024555 30.612522 27.860001 30.6C 29.779863 30.600025 31.679213 30.205179 33.440002 29.440001M 16.52 30.6C 16.52 35.294418 20.325581 39.099998 25.02 39.099998C 29.71442 39.099998 33.52 35.294418 33.52 30.6C 33.52 25.905579 29.71442 22.1 25.02 22.1C 20.325581 22.1 16.52 25.905579 16.52 30.6M 11.02 56.099998C 11.02 48.368015 17.288013 42.100002 25.02 42.100002C 32.751987 42.100002 39.02 48.368015 39.02 56.100002ZM 25.02 46.099998L 25.02 51.099998M 35.02 21.16C 35.020004 26.1637 39.076302 30.220001 44.080002 30.220001C 49.083702 30.220001 53.140003 26.1637 53.140003 21.16C 53.140003 16.1563 49.083702 12.1 44.080002 12.1C 39.076302 12.1 35.020004 16.1563 35.020004 21.16M 57.02 34.099998L 50.52 27.6M 43.02 56.099998L 57.02 56.099998C 57.002491 52.279419 55.007313 48.740517 51.747448 46.747921C 48.487583 44.755329 44.428226 44.593399 41.02 46.32M 52.400002 36.099998C 52.175858 38.50798 50.633385 40.592434 48.396122 41.510731C 46.158859 42.429028 43.596752 42.029324 41.745514 40.473198C 39.894279 38.917068 39.060028 36.46183 39.580002 34.099998"></path></g></g></g><g id="g-root-ic_puzz_zn5vo41tl1o91-fill" data-item-order="0" transform="translate(354.953125, 308)"></g><g id="g-root-ic_puzz_zn5vo41tl1o91-stroke" data-item-order="0" transform="translate(354.953125, 308)"><g id="ic_puzz_zn5vo41tl1o91-stroke" fill="none" stroke-linecap="round" stroke-linejoin="round" stroke-miterlimit="4" stroke="#000000" stroke-width="1" stroke-opacity="1"><g><path d="M 91.959999 58C 91.959999 57.68 91.959999 57.32 91.959999 57C 91.959999 52.029438 87.930565 48 82.959999 48C 77.989441 48 73.959999 52.029438 73.959999 57C 73.959999 57.32 73.959999 57.68 73.959999 58L 63 58L 63 70L 64 70C 68.970566 70 73 74.029434 73 79C 73 83.970566 68.970566 88 64 88L 63 88L 63 100L 100 100C 102.209137 100 104 98.209137 104 96L 104 58ZM 64 70L 63 70L 63 58L 52.959999 58C 52.959999 58.32 52.959999 58.68 52.959999 59C 52.959999 63.970562 48.930565 68 43.959999 68C 38.989437 68 34.959999 63.970562 34.959999 59C 34.959999 58.68 34.959999 58.32 34.959999 58L 22 58L 22 70L 21 70C 16.029438 70 12 74.029434 12 79C 12 83.970566 16.029438 88 21 88L 22 88L 22 96C 22 98.209137 23.790861 100 26 100L 63 100L 63 88L 64 88C 68.970566 88 73 83.970566 73 79C 73 74.029434 68.970566 70 64 70ZM 63 46L 62 46C 57.029438 46 53 41.970566 53 37C 53 32.029438 57.029438 28 62 28L 63 28L 63 16L 26 16C 23.790861 16 22 17.790861 22 20L 22 28L 23 28C 27.970562 28 32 32.029438 32 37C 32 41.970566 27.970562 46 23 46L 22 46L 22 58L 35.040001 58C 35.040001 58.32 35.040001 58.68 35.040001 59C 35.040001 63.970562 39.069435 68 44.040001 68C 49.010563 68 53.040001 63.970562 53.040001 59C 53.040001 58.68 53.040001 58.32 53.040001 58L 63.080002 58ZM 91.959999 16C 91.959999 16.32 91.959999 16.68 91.959999 17C 91.959999 21.970562 87.930565 26 82.959999 26C 77.989441 26 73.959999 21.970562 73.959999 17C 73.959999 16.68 73.959999 16.32 73.959999 16L 63 16L 63 28L 62 28C 57.029438 28 53 32.029438 53 37C 53 41.970566 57.029438 46 62 46L 63 46L 63 58L 74 58C 74 57.68 74 57.32 74 57C 74 52.029438 78.029434 48 83 48C 87.970566 48 92 52.029438 92 57C 92 57.32 92 57.68 92 58L 104 58L 104 20C 104 17.790861 102.209137 16 100 16Z"></path></g></g></g><g id="g-root-tx_registra_zs5ris1tkp0qz-fill" data-item-order="0" transform="translate(99.328125, 176)"><g id="tx_registra_zs5ris1tkp0qz-fill-merged" stroke="none" fill="#000000" fill-opacity="1"><g><text style="font: 15px Roboto, sans-serif; white-space: pre;" transform="translate(169.625, 37)" font-size="15px" font-family="Roboto, sans-serif"><tspan x="-154.72" y="-9" dominant-baseline="ideographic">Registra las acciones y </tspan><tspan x="-118.75" y="9" dominant-baseline="ideographic">reacciones de los </tspan><tspan x="-157.63" y="27" dominant-baseline="ideographic">usuarios durante el uso</tspan></text></g></g></g><g id="g-root-tx_registra_zs5ris1tkp0qz-stroke" data-item-order="0" transform="translate(99.328125, 176)"></g><g id="g-root-tx_thinkalo_1ums7f81tkgmpv-fill" data-item-order="0" transform="translate(93.59375, 314)"><g id="tx_thinkalo_1ums7f81tkgmpv-fill-merged" stroke="none" fill="#000000" fill-opacity="1"><g><text style="font: bold 15px Roboto, sans-serif; white-space: pre;" transform="translate(97.359375, 19)" font-weight="bold" font-size="15px" font-family="Roboto, sans-serif"><tspan x="-85.36" y="9" dominant-baseline="ideographic">Think-Aloud</tspan></text></g></g></g><g id="g-root-tx_thinkalo_1ums7f81tkgmpv-stroke" data-item-order="0" transform="translate(93.59375, 314)"></g><g id="g-root-ic_flip_1hit7ro1tkgmq4-fill" data-item-order="0" transform="translate(529.953125, 332)"></g><g id="g-root-ic_flip_1hit7ro1tkgmq4-stroke" data-item-order="0" transform="translate(529.953125, 332)"><g id="ic_flip_1hit7ro1tkgmq4-stroke" fill="none" stroke-linecap="round" stroke-linejoin="round" stroke-miterlimit="4" stroke="#000000" stroke-width="1" stroke-opacity="1"><g><path d="M 45 45C 43.895432 45 43 45.895432 43 47L 43 57L 15 57C 13.895431 57 13 56.104568 13 55L 13 17C 13 15.895431 13.895431 15 15 15L 53 15C 54.104568 15 55 15.895431 55 17L 55 45ZM 55 45L 43 57M 19 11L 19 20M 29 11L 29 20M 39 11L 39 20M 49 11L 49 20M 29 25L 23 31L 20 28M 29 36L 23 42L 20 39M 33 29L 46 29M 33 39L 46 39"></path></g></g></g><g id="g-root-tx_tareasde_hun05w1tl1mh5-fill" data-item-order="0" transform="translate(624.953125, 314)"><g id="tx_tareasde_hun05w1tl1mh5-fill-merged" stroke="none" fill="#000000" fill-opacity="1"><g><text style="font: bold 15px Roboto, sans-serif; white-space: pre;" transform="translate(10, 19)" font-weight="bold" font-size="15px" font-family="Roboto, sans-serif"><tspan x="2" y="9" dominant-baseline="ideographic">Tareas de Usuario</tspan></text></g></g></g><g id="g-root-tx_tareasde_hun05w1tl1mh5-stroke" data-item-order="0" transform="translate(624.953125, 314)"></g><g id="g-root-tx_explical_1cy00441tkrtos-fill" data-item-order="0" transform="translate(14, 344)"><g id="tx_explical_1cy00441tkrtos-fill-merged" stroke="none" fill="#000000" fill-opacity="1"><g><text style="font: 15px Roboto, sans-serif; white-space: pre;" transform="translate(176.953125, 46)" font-size="15px" font-family="Roboto, sans-serif"><tspan x="-158.98" y="-18" dominant-baseline="ideographic">Explica los procesos de </tspan><tspan x="-99.73" y="0" dominant-baseline="ideographic">pensamiento y </tspan><tspan x="-164.95" y="18" dominant-baseline="ideographic">comportamientos de los </tspan><tspan x="-59.47" y="36" dominant-baseline="ideographic">usuarios</tspan></text></g></g></g><g id="g-root-tx_explical_1cy00441tkrtos-stroke" data-item-order="0" transform="translate(14, 344)"></g><g id="g-root-tx_evalalae_4mxcb81tkxh5b-fill" data-item-order="0" transform="translate(624.953125, 344)"><g id="tx_evalalae_4mxcb81tkxh5b-fill-merged" stroke="none" fill="#000000" fill-opacity="1"><g><text style="font: 15px Roboto, sans-serif; white-space: pre;" transform="translate(10, 37)" font-size="15px" font-family="Roboto, sans-serif"><tspan x="2" y="-9" dominant-baseline="ideographic">Evalúa la eficiencia y </tspan><tspan x="2" y="9" dominant-baseline="ideographic">precisión de los </tspan><tspan x="2" y="27" dominant-baseline="ideographic">usuarios en tareas</tspan></text></g></g></g><g id="g-root-tx_evalalae_4mxcb81tkxh5b-stroke" data-item-order="0" transform="translate(624.953125, 344)"></g><g id="g-root-tx_kpistcni_6hg9g1tkhyxa-fill" data-item-order="0" transform="translate(546.953125, 146)"><g id="tx_kpistcni_6hg9g1tkhyxa-fill-merged" stroke="none" fill="#000000" fill-opacity="1"><g><text style="font: bold 15px Roboto, sans-serif; white-space: pre;" transform="translate(10, 19)" font-weight="bold" font-size="15px" font-family="Roboto, sans-serif"><tspan x="2" y="9" dominant-baseline="ideographic">KPIs Técnicos</tspan></text></g></g></g><g id="g-root-tx_kpistcni_6hg9g1tkhyxa-stroke" data-item-order="0" transform="translate(546.953125, 146)"></g><g id="g-root-tx_observac_mcyhsk1tkgmbo-fill" data-item-order="0" transform="translate(170.5625, 146)"><g id="tx_observac_mcyhsk1tkgmbo-fill-merged" stroke="none" fill="#000000" fill-opacity="1"><g><text style="font: bold 15px Roboto, sans-serif; white-space: pre;" transform="translate(98.390625, 19)" font-weight="bold" font-size="15px" font-family="Roboto, sans-serif"><tspan x="-86.39" y="9" dominant-baseline="ideographic">Observación</tspan></text></g></g></g><g id="g-root-tx_observac_mcyhsk1tkgmbo-stroke" data-item-order="0" transform="translate(170.5625, 146)"></g><g id="g-root-ic_jump_v97pn81tkrv2l-fill" data-item-order="0" transform="translate(300.953125, 464)"></g><g id="g-root-ic_jump_v97pn81tkrv2l-stroke" data-item-order="0" transform="translate(300.953125, 464)"><g id="ic_jump_v97pn81tkrv2l-stroke" fill="none" stroke-linecap="round" stroke-linejoin="round" stroke-miterlimit="4" stroke="#000000" stroke-width="1" stroke-opacity="1"><g><path d="M 56.486 56.5L 11.5 56.5L 11.5 11.5M 18 22.5L 26 22.5M 48 22.5L 56 22.5M 22 29.5L 30 29.5M 21.125 15.5L 29.125 15.5M 38 15.5L 46 15.5M 18 36.5L 26 36.5M 36 36.5L 44 36.5M 30 43.5L 38 43.5M 11.5 43.5L 19.5 43.5M 34 50.5L 42 50.5M 46 43.5L 54 43.5"></path></g></g></g><g id="g-root-ic_grea_zrj4441tkw2rs-fill" data-item-order="0" transform="translate(456.953125, 464)"></g><g id="g-root-ic_grea_zrj4441tkw2rs-stroke" data-item-order="0" transform="translate(456.953125, 464)"><g id="ic_grea_zrj4441tkw2rs-stroke" fill="none" stroke-linecap="round" stroke-linejoin="round" stroke-miterlimit="4" stroke="#000000" stroke-width="1" stroke-opacity="1"><g><path d="M 16.274 24.782C 19.874592 14.949579 30.168242 9.271944 40.405479 11.471878C 50.642715 13.671812 57.695129 23.077034 56.938507 33.520611C 56.181881 43.964184 47.847431 52.254646 37.400002 52.956001M 30.5 27C 30.223858 27 30 26.776142 30 26.5C 30 26.223858 30.223858 26 30.5 26C 30.776142 26 31 26.223858 31 26.5C 31 26.776142 30.776142 27 30.5 27M 48.5 27C 48.223858 27 48 26.776142 48 26.5C 48 26.223858 48.223858 26 48.5 26C 48.776142 26 49 26.223858 49 26.5C 49 26.776142 48.776142 27 48.5 27M 46.355999 33.984001C 46.859722 33.96793 47.341576 34.190132 47.656406 34.583675C 47.971241 34.977215 48.082253 35.496094 47.956001 35.984001C 46.757103 40.308628 42.311913 42.873024 37.968002 41.746002C 35.095184 41.046574 32.831078 38.838421 32.059998 35.984001C 31.954622 35.56876 32.020164 35.128601 32.241959 34.762085C 32.463753 34.395561 32.823265 34.133293 33.239998 34.034C 33.374767 34.000526 33.513138 33.983734 33.652 33.984001ZM 14 39.419998L 12.696 35.436001C 12.153709 33.788071 13.04874 32.012329 14.696 31.468L 14.696 31.468C 16.346745 30.927763 18.122971 31.827513 18.664 33.477997L 19.970001 37.461998M 26.694 37.774002L 26.676001 37.718002C 26.275019 36.496284 24.960148 35.830345 23.737999 36.23L 20.200001 37.400002L 18.75 37.874001L 16.228001 38.702C 12.252384 40.004433 10.082291 44.28019 11.378 48.258003L 12.532 51.776001C 13.83602 55.755226 18.118299 57.924568 22.098 56.622002L 24.619999 55.799999L 29.620001 54.166C 30.841978 53.764133 31.507765 52.448669 31.108 51.226002L 31.09 51.172001C 30.898296 50.584595 30.480928 50.097496 29.929848 49.818016C 29.378765 49.538536 28.739183 49.489605 28.152 49.682003C 29.373713 49.281017 30.039652 47.966148 29.639999 46.743999L 29.622 46.688C 29.221039 45.465244 27.904758 44.799046 26.681999 45.200001C 27.269409 45.008297 27.756508 44.590931 28.035988 44.039848C 28.315468 43.488766 28.364399 42.849182 28.172001 42.262001L 28.146 42.200001C 27.744133 40.97802 26.428667 40.312233 25.206001 40.711998C 25.793362 40.52034 26.280336 40.102867 26.55949 39.551689C 26.838646 39.000504 26.887041 38.360909 26.694 37.774002ZM 20.200001 37.400002L 23.742001 36.239998C 24.964149 35.840347 26.279018 36.506287 26.68 37.727997L 26.698 37.784C 27.09148 39.006096 26.421293 40.316048 25.200001 40.712002L 21.658001 41.872002M 21.664 41.872002L 25.206001 40.711998C 26.428667 40.312233 27.744133 40.97802 28.146 42.200001L 28.164 42.256001C 28.358248 42.843956 28.310255 43.485077 28.030636 44.03756C 27.751017 44.590042 27.262812 45.008362 26.674 45.200001L 23.133999 46.360001M 23.133999 46.354L 26.674 45.194C 27.896757 44.793045 29.213037 45.459244 29.614 46.681999L 29.632 46.737999C 30.031651 47.960148 29.365713 49.275017 28.143999 49.675999L 24.6 50.838001M 24.6 50.838001L 28.142 49.675999C 28.729183 49.483604 29.368765 49.532536 29.919847 49.812016C 30.470928 50.091496 30.888296 50.578594 31.080002 51.166L 31.098 51.220001C 31.497765 52.442669 30.831978 53.758133 29.610001 54.16L 26.068001 55.32"></path></g></g></g><g id="g-root-tx_nasatlx_vagu501tl1ngq-fill" data-item-order="0" transform="translate(182, 482)"><g id="tx_nasatlx_vagu501tl1ngq-fill-merged" stroke="none" fill="#000000" fill-opacity="1"><g><text style="font: bold 15px Roboto, sans-serif; white-space: pre;" transform="translate(86.953125, 19)" font-weight="bold" font-size="15px" font-family="Roboto, sans-serif"><tspan x="-74.95" y="9" dominant-baseline="ideographic">NASA-TLX</tspan></text></g></g></g><g id="g-root-tx_nasatlx_vagu501tl1ngq-stroke" data-item-order="0" transform="translate(182, 482)"></g><g id="g-root-tx_sus_dcbous1tki13h-fill" data-item-order="0" transform="translate(546.953125, 482)"><g id="tx_sus_dcbous1tki13h-fill-merged" stroke="none" fill="#000000" fill-opacity="1"><g><text style="font: bold 15px Roboto, sans-serif; white-space: pre;" transform="translate(10, 19)" font-weight="bold" font-size="15px" font-family="Roboto, sans-serif"><tspan x="2" y="9" dominant-baseline="ideographic">SUS</tspan></text></g></g></g><g id="g-root-tx_sus_dcbous1tki13h-stroke" data-item-order="0" transform="translate(546.953125, 482)"></g><g id="g-root-tx_comparal_958qs41tkt825-fill" data-item-order="0" transform="translate(103.515625, 512)"><g id="tx_comparal_958qs41tkt825-fill-merged" stroke="none" fill="#000000" fill-opacity="1"><g><text style="font: 15px Roboto, sans-serif; white-space: pre;" transform="translate(165.4375, 37)" font-size="15px" font-family="Roboto, sans-serif"><tspan x="-139.94" y="-9" dominant-baseline="ideographic">Compara la carga de </tspan><tspan x="-149.92" y="9" dominant-baseline="ideographic">trabajo subjetiva entre </tspan><tspan x="-153.44" y="27" dominant-baseline="ideographic">diferentes condiciones</tspan></text></g></g></g><g id="g-root-tx_comparal_958qs41tkt825-stroke" data-item-order="0" transform="translate(103.515625, 512)"></g><g id="g-root-tx_proporci_1ums49g1tkw0ee-fill" data-item-order="0" transform="translate(546.953125, 512)"><g id="tx_proporci_1ums49g1tkw0ee-fill-merged" stroke="none" fill="#000000" fill-opacity="1"><g><text style="font: 15px Roboto, sans-serif; white-space: pre;" transform="translate(10, 37)" font-size="15px" font-family="Roboto, sans-serif"><tspan x="2" y="-9" dominant-baseline="ideographic">Proporciona una medida </tspan><tspan x="2" y="9" dominant-baseline="ideographic">global de la usabilidad </tspan><tspan x="2" y="27" dominant-baseline="ideographic">percibida</tspan></text></g></g></g><g id="g-root-tx_proporci_1ums49g1tkw0ee-stroke" data-item-order="0" transform="translate(546.953125, 512)"></g><g id="g-root-tx_triangul_1464zh01tav30h-fill" data-item-order="0" transform="translate(70.640625, 38)"><g id="tx_triangul_1464zh01tav30h-fill-merged" stroke="none" fill="#000000" fill-opacity="1"><g><text style="font: bold 25px Roboto, sans-serif; white-space: pre;" transform="translate(360.3125, 25)" font-weight="bold" font-size="25px" font-family="Roboto, sans-serif"><tspan x="-348.31" y="15" dominant-baseline="ideographic">Triangulación Convergente para la Interpretación del Proyecto</tspan></text></g></g></g><g id="g-root-tx_triangul_1464zh01tav30h-stroke" data-item-order="0" transform="translate(70.640625, 38)"></g><g id="g-root-ic_1_18n64d01tknl6r-fill" data-item-order="0" transform="translate(222.953125, 332)"></g><g id="g-root-ic_1_18n64d01tknl6r-stroke" data-item-order="0" transform="translate(222.953125, 332)"><g id="ic_1_18n64d01tknl6r-stroke" fill="none" stroke-linecap="round" stroke-linejoin="round" stroke-miterlimit="4" stroke="#000000" stroke-width="1" stroke-opacity="1"><g><path d="M 19.350719 56.5L 19.350719 43.970001C 16.587181 41.409798 14.65988 38.075798 13.82048 34.4034C 12.9811 30.731001 13.26862 26.89068 14.64554 23.384159C 16.02244 19.87764 18.424721 16.8678 21.538681 14.7477C 24.652641 12.6276 28.33354 11.495768 32.1008 11.500012C 46.378799 11.500012 49.4608 23.25602 54.5508 36.459999C 54.638 36.687401 54.668598 36.9324 54.639999 37.174202C 54.611401 37.416 54.524601 37.647202 54.386799 37.848C 54.249001 38.048599 54.064602 38.212799 53.849201 38.326401C 53.633801 38.440002 53.394199 38.499599 53.150799 38.5L 49.3508 38.5L 49.3508 44.5C 49.3508 46.0914 48.718601 47.617401 47.593399 48.742599C 46.468201 49.867802 44.942001 50.5 43.3508 50.5L 40.3508 50.5L 40.3508 56.5M 19.621101 29.02228C 19.621101 34.787598 25.12652 39.461201 31.917801 39.461201C 32.819599 39.461201 33.698601 39.378799 34.544998 39.222401L 40.7244 43.252399L 39.699799 37.1054C 42.455601 35.191002 44.214401 32.280998 44.214401 29.02228C 44.214401 23.257 38.709 18.583321 31.917801 18.583321C 25.12652 18.583321 19.621101 23.257 19.621101 29.02228ZM 26.05242 29.545361C 26.43284 29.545361 26.74122 29.23698 26.74122 28.856581C 26.74122 28.47616 26.43284 28.16778 26.05242 28.16778M 26.05304 29.545361C 25.67264 29.545361 25.36426 29.23698 25.36426 28.856581C 25.36426 28.47616 25.67264 28.16778 26.05304 28.16778M 31.917601 29.545361C 32.298 29.545361 32.6064 29.23698 32.6064 28.856581C 32.6064 28.47616 32.298 28.16778 31.917601 28.16778M 31.9182 29.545361C 31.5378 29.545361 31.229401 29.23698 31.229401 28.856581C 31.229401 28.47616 31.5378 28.16778 31.9182 28.16778M 37.782799 29.545361C 38.1632 29.545361 38.4716 29.23698 38.4716 28.856581C 38.4716 28.47616 38.1632 28.16778 37.782799 28.16778M 37.7836 29.545361C 37.403198 29.545361 37.094803 29.23698 37.094803 28.856581C 37.094803 28.47616 37.403198 28.16778 37.7836 28.16778"></path></g></g></g></g></g></svg>