<?xml version="1.0" encoding="utf-8" standalone="yes"?>
<!DOCTYPE svg PUBLIC "-//W3C//DTD SVG 1.1//EN" "http://www.w3.org/Graphics/SVG/1.1/DTD/svg11.dtd">
<svg style="fill:none;stroke:none;fill-rule:evenodd;clip-rule:evenodd;stroke-linecap:round;stroke-linejoin:round;stroke-miterlimit:1.5;" version="1.1" xmlns="http://www.w3.org/2000/svg" xmlns:xlink="http://www.w3.org/1999/xlink" width="744" height="594" viewBox="0 0 744 594"><style class="text-font-style fontImports" data-font-family="Roboto">@import url(https://fonts.googleapis.com/css2?family=Roboto:wght@400;700&amp;amp;display=block);</style><g id="items" style="isolation: isolate"><g id="blend" style="mix-blend-mode: normal"><g id="g-root-cp_1_g-1_vahw1g1tkt72k-fill" data-item-order="-346597" transform="translate(38, 164)"></g><g id="g-root-cp_1_g-1_vahw1g1tkt72k-stroke" data-item-order="-346597" transform="translate(38, 164)"><g id="cp_1_g-1_vahw1g1tkt72k-stroke" fill="none" stroke-linecap="round" stroke-linejoin="round" stroke-miterlimit="4" stroke="#000000" stroke-width="1" stroke-opacity="1"><g><path d="M 10 10L 154 10L 154 105L 10 105L 10 10ZM 82 106L 82 154"></path></g></g></g><g id="g-root-cp_1_date_dj7vjo1tkt9fp-fill" data-item-order="-346589" transform="translate(38, 104)"></g><g id="g-root-cp_1_date_dj7vjo1tkt9fp-stroke" data-item-order="-346589" transform="translate(38, 104)"><g id="cp_1_date_dj7vjo1tkt9fp-stroke" fill="none" stroke-linecap="round" stroke-linejoin="round" stroke-miterlimit="4" stroke="#000000" stroke-width="1" stroke-opacity="1"><g><path d="M 10 10L 154 10M 154 70L 10 70M 10 10L 10 70M 154 10L 154 70"></path></g></g></g><g id="g-root-cp_2_g-2_1qduvzo1tkt8ge-fill" data-item-order="-346577" transform="translate(206, 164)"></g><g id="g-root-cp_2_g-2_1qduvzo1tkt8ge-stroke" data-item-order="-346577" transform="translate(206, 164)"><g id="cp_2_g-2_1qduvzo1tkt8ge-stroke" fill="none" stroke-linecap="round" stroke-linejoin="round" stroke-miterlimit="4" stroke="#000000" stroke-width="1" stroke-opacity="1"><g><path d="M 10 10L 154 10L 154 105L 10 105L 10 10ZM 82 106L 82 154"></path></g></g></g><g id="g-root-cp_2_date_1_18n7cl01tkt7nr-fill" data-item-order="-346569" transform="translate(206, 86)"></g><g id="g-root-cp_2_date_1_18n7cl01tkt7nr-stroke" data-item-order="-346569" transform="translate(206, 86)"><g id="cp_2_date_1_18n7cl01tkt7nr-stroke" fill="none" stroke-linecap="round" stroke-linejoin="round" stroke-miterlimit="4" stroke="#000000" stroke-width="1" stroke-opacity="1"><g><path d="M 10 10L 154 10M 154 88L 10 88M 10 10L 10 88M 154 10L 154 88"></path></g></g></g><g id="g-root-cp_3_g-3_qwjt6c1tkt6v4-fill" data-item-order="-346557" transform="translate(374, 164)"></g><g id="g-root-cp_3_g-3_qwjt6c1tkt6v4-stroke" data-item-order="-346557" transform="translate(374, 164)"><g id="cp_3_g-3_qwjt6c1tkt6v4-stroke" fill="none" stroke-linecap="round" stroke-linejoin="round" stroke-miterlimit="4" stroke="#000000" stroke-width="1" stroke-opacity="1"><g><path d="M 10 10L 154 10L 154 105L 10 105L 10 10ZM 82 106L 82 154"></path></g></g></g><g id="g-root-cp_3_date_2_9o501tkulfl-fill" data-item-order="-346549" transform="translate(374, 104)"></g><g id="g-root-cp_3_date_2_9o501tkulfl-stroke" data-item-order="-346549" transform="translate(374, 104)"><g id="cp_3_date_2_9o501tkulfl-stroke" fill="none" stroke-linecap="round" stroke-linejoin="round" stroke-miterlimit="4" stroke="#000000" stroke-width="1" stroke-opacity="1"><g><path d="M 10 10L 154 10M 154 70L 10 70M 10 10L 10 70M 154 10L 154 70"></path></g></g></g><g id="g-root-cp_4_g-4_1lpx7qs1tkumte-fill" data-item-order="-346537" transform="translate(542, 164)"></g><g id="g-root-cp_4_g-4_1lpx7qs1tkumte-stroke" data-item-order="-346537" transform="translate(542, 164)"><g id="cp_4_g-4_1lpx7qs1tkumte-stroke" fill="none" stroke-linecap="round" stroke-linejoin="round" stroke-miterlimit="4" stroke="#000000" stroke-width="1" stroke-opacity="1"><g><path d="M 10 10L 154 10L 154 105L 10 105L 10 10ZM 82 106L 82 154"></path></g></g></g><g id="g-root-cp_4_date_3_v3mo381tkumtf-fill" data-item-order="-346529" transform="translate(542, 86)"></g><g id="g-root-cp_4_date_3_v3mo381tkumtf-stroke" data-item-order="-346529" transform="translate(542, 86)"><g id="cp_4_date_3_v3mo381tkumtf-stroke" fill="none" stroke-linecap="round" stroke-linejoin="round" stroke-miterlimit="4" stroke="#000000" stroke-width="1" stroke-opacity="1"><g><path d="M 10 10L 154 10M 154 88L 10 88M 10 10L 10 88M 154 10L 154 88"></path></g></g></g><g id="g-root-tx_pipeline_3e4qc1tkjd3d-fill" data-item-order="0" transform="translate(218, 98)"><g id="tx_pipeline_3e4qc1tkjd3d-fill-merged" stroke="none" fill="#000000" fill-opacity="1"><g><text style="font: bold 15px Roboto, sans-serif; white-space: pre;" transform="translate(57.0859375, 37)" font-weight="bold" font-size="15px" font-family="Roboto, sans-serif"><tspan x="-37.45" y="-9" dominant-baseline="ideographic">Pipeline de </tspan><tspan x="-30.93" y="9" dominant-baseline="ideographic">Activos y </tspan><tspan x="-45.09" y="27" dominant-baseline="ideographic">Visualización</tspan></text></g></g></g><g id="g-root-tx_pipeline_3e4qc1tkjd3d-stroke" data-item-order="0" transform="translate(218, 98)"></g><g id="g-root-tx_analisis_v5i6ic1tkglje-fill" data-item-order="0" transform="translate(50, 116)"><g id="tx_analisis_v5i6ic1tkglje-fill-merged" stroke="none" fill="#000000" fill-opacity="1"><g><text style="font: bold 15px Roboto, sans-serif; white-space: pre;" transform="translate(68.3125, 28)" font-weight="bold" font-size="15px" font-family="Roboto, sans-serif"><tspan x="-32.44" y="0" dominant-baseline="ideographic">Analisis y </tspan><tspan x="-56.31" y="18" dominant-baseline="ideographic">Fundamentacion</tspan></text></g></g></g><g id="g-root-tx_analisis_v5i6ic1tkglje-stroke" data-item-order="0" transform="translate(50, 116)"></g><g id="g-root-tx_implemen_1uuxfg41tkksn4-fill" data-item-order="0" transform="translate(386, 116)"><g id="tx_implemen_1uuxfg41tkksn4-fill-merged" stroke="none" fill="#000000" fill-opacity="1"><g><text style="font: bold 15px Roboto, sans-serif; white-space: pre;" transform="translate(68.2890625, 28)" font-weight="bold" font-size="15px" font-family="Roboto, sans-serif"><tspan x="-56.29" y="0" dominant-baseline="ideographic">Implementación </tspan><tspan x="-45.2" y="18" dominant-baseline="ideographic">del Prototipo</tspan></text></g></g></g><g id="g-root-tx_implemen_1uuxfg41tkksn4-stroke" data-item-order="0" transform="translate(386, 116)"></g><g id="g-root-tx_evaluaci_1ur6kxg1tkw2yv-fill" data-item-order="0" transform="translate(554, 98)"><g id="tx_evaluaci_1ur6kxg1tkw2yv-fill-merged" stroke="none" fill="#000000" fill-opacity="1"><g><text style="font: bold 15px Roboto, sans-serif; white-space: pre;" transform="translate(53.3203125, 37)" font-weight="bold" font-size="15px" font-family="Roboto, sans-serif"><tspan x="-38.29" y="-9" dominant-baseline="ideographic">Evaluación </tspan><tspan x="-41.32" y="9" dominant-baseline="ideographic">Formativa y </tspan><tspan x="-22.29" y="27" dominant-baseline="ideographic">Cierre</tspan></text></g></g></g><g id="g-root-tx_evaluaci_1ur6kxg1tkw2yv-stroke" data-item-order="0" transform="translate(554, 98)"></g><g id="g-root-ic_3_1ursyus1tkumtp-fill" data-item-order="0" transform="translate(74, 176)"></g><g id="g-root-ic_3_1ursyus1tkumtp-stroke" data-item-order="0" transform="translate(74, 176)"><g id="ic_3_1ursyus1tkumtp-stroke" fill="none" stroke-linecap="round" stroke-linejoin="round" stroke-miterlimit="4" stroke="#000000" stroke-width="1" stroke-opacity="1"><g><path d="M 26.5 35.5C 26.5 37.156857 27.843145 38.5 29.5 38.5L 35.5 38.5L 44.5 47.5L 44.5 38.5L 68.5 38.5C 70.156853 38.5 71.5 37.156857 71.5 35.5L 71.5 14.5C 71.5 12.843145 70.156853 11.5 68.5 11.5L 29.5 11.5C 27.843145 11.5 26.5 12.843145 26.5 14.5ZM 18.25 54.25C 18.25 57.977921 21.272078 61 25 61C 28.727921 61 31.75 57.977921 31.75 54.25C 31.75 50.522079 28.727921 47.5 25 47.5C 21.272078 47.5 18.25 50.522079 18.25 54.25M 34.510002 67.809998C 30.928883 64.423813 25.821547 63.188873 21.088957 64.564842C 16.356365 65.940811 12.707318 69.721603 11.5 74.5M 60.25 54.25C 60.25 57.977921 63.272076 61 67 61C 70.727921 61 73.75 57.977921 73.75 54.25C 73.75 50.522079 70.727921 47.5 67 47.5C 63.272076 47.5 60.25 50.522079 60.25 54.25M 57.489998 67.809998C 61.071121 64.423813 66.178459 63.188873 70.911049 64.564842C 75.643639 65.940811 79.292679 69.721603 80.5 74.5M 39.25 60.25C 39.25 63.977924 42.272079 67 46 67C 49.727921 67 52.75 63.977924 52.75 60.25C 52.75 56.522079 49.727921 53.5 46 53.5C 42.272079 53.5 39.25 56.522079 39.25 60.25M 59.5 80.5C 57.899971 74.354118 52.35075 70.064613 46 70.064613C 39.64925 70.064613 34.100029 74.354118 32.5 80.5M 58 19L 64 25L 58 31M 40 19L 34 25L 40 31M 52 19L 46 31"></path></g></g></g><g id="g-root-ic_sett_hz1gtw1tkgmiz-fill" data-item-order="0" transform="translate(242, 176)"></g><g id="g-root-ic_sett_hz1gtw1tkgmiz-stroke" data-item-order="0" transform="translate(242, 176)"><g id="ic_sett_hz1gtw1tkgmiz-stroke" fill="none" stroke-linecap="round" stroke-linejoin="round" stroke-miterlimit="4" stroke="#000000" stroke-width="1" stroke-opacity="1"><g><path d="M 44.5 71.5L 17.5 71.5C 14.186292 71.5 11.5 68.813713 11.5 65.5L 11.5 17.5C 11.5 14.186292 14.186292 11.5 17.5 11.5L 65.5 11.5C 68.813713 11.5 71.5 14.186292 71.5 17.5L 71.5 41.5M 52 29.5L 71.5 29.5M 11.5 29.5L 25 29.5M 34 23.5C 32.343147 23.5 31 24.843145 31 26.5L 31 31L 35.5 38.5L 40 31L 40 26.5C 40 24.843145 38.656857 23.5 37 23.5ZM 37 23.5L 50.5 23.5C 52.156857 23.5 53.5 22.156855 53.5 20.5L 53.5 11.5M 29.5 42.25L 27.25 40M 26.5 46.75L 23.5 46.75M 41.5 42.25L 43.75 40M 44.5 46.75L 47.5 46.75M 26.125 59.5L 35.5 44.5L 44.875 59.5L 26.125 59.5ZM 22 65.5L 46 65.5M 61.75 63.625C 61.75 65.696068 63.428932 67.375 65.5 67.375C 67.571068 67.375 69.25 65.696068 69.25 63.625C 69.25 61.553932 67.571068 59.875 65.5 59.875C 63.428932 59.875 61.75 61.553932 61.75 63.625ZM 68.686005 49.119999L 69.790001 52.75C 70.168564 54.000515 71.450226 54.744877 72.723999 54.453999L 76.404999 53.598999C 77.838692 53.271149 79.318481 53.917305 80.052521 55.191719C 80.786575 56.466133 80.602982 58.07037 79.600006 59.146004L 77.026001 61.924004C 76.134583 62.883972 76.134583 64.369026 77.026001 65.329002L 79.600006 68.106995C 80.601822 69.180756 80.78614 70.782349 80.054428 72.055611C 79.322723 73.328865 77.846123 73.975975 76.413994 73.651001L 72.733002 72.799004C 71.459869 72.506287 70.177567 73.24971 69.799004 74.5L 68.695 78.133003C 68.272064 79.539116 66.977348 80.501701 65.509003 80.501701C 64.040657 80.501701 62.745934 79.539116 62.322998 78.132996L 61.209999 74.5C 60.831436 73.24971 59.549129 72.506287 58.276001 72.799004L 54.595001 73.651001C 53.161266 73.981636 51.679832 73.336578 50.945156 72.06176C 50.21048 70.786942 50.395096 69.18174 51.399998 68.106995L 53.973999 65.329002C 54.865414 64.369026 54.865414 62.883972 53.973999 61.924004L 51.400002 59.146C 50.400078 58.071373 50.21677 56.470715 50.947861 55.197845C 51.678955 53.92498 53.153923 53.276779 54.586006 53.599003L 58.267002 54.453999C 59.540771 54.744877 60.822433 54.000515 61.200996 52.75L 62.305 49.119999C 62.722923 47.706306 64.021324 46.736206 65.495499 46.736206C 66.969673 46.736206 68.268066 47.706306 68.686005 49.119999Z"></path></g></g></g><g id="g-root-ic_chat_93egl01tkjev6-fill" data-item-order="0" transform="translate(410, 176)"></g><g id="g-root-ic_chat_93egl01tkjev6-stroke" data-item-order="0" transform="translate(410, 176)"><g id="ic_chat_93egl01tkjev6-stroke" fill="none" stroke-linecap="round" stroke-linejoin="round" stroke-miterlimit="4" stroke="#000000" stroke-width="1" stroke-opacity="1"><g><path d="M 71.5 38.5C 71.5 40.156857 70.156853 41.5 68.5 41.5L 56.5 41.5L 47.5 50.5L 47.5 41.5L 26.5 41.5C 24.843145 41.5 23.5 40.156857 23.5 38.5L 23.5 14.5C 23.5 12.843145 24.843145 11.5 26.5 11.5L 68.5 11.5C 70.156853 11.5 71.5 12.843145 71.5 14.5ZM 16.389999 58.75C 16.389999 63.306351 20.083651 67 24.639999 67C 29.19635 67 32.889999 63.306351 32.889999 58.75C 32.889999 54.193653 29.19635 50.500004 24.639999 50.500004C 20.083651 50.500004 16.389999 54.193653 16.389999 58.75M 37.779999 80.5C 36.394577 74.356743 30.937534 69.993324 24.639999 69.993324C 18.342464 69.993324 12.885423 74.356743 11.5 80.499992M 59.110001 58.75C 59.110001 63.306351 62.80365 67 67.360001 67C 71.916351 67 75.610001 63.306351 75.610001 58.75C 75.610001 54.193653 71.916351 50.500004 67.360001 50.500004C 62.80365 50.500004 59.110001 54.193653 59.110001 58.75M 80.5 80.5C 79.114571 74.356743 73.657532 69.993324 67.360001 69.993324C 61.062462 69.993324 55.605423 74.356743 54.220001 80.499992M 56.5 20.5L 62.5 26.5L 56.5 32.5M 38.5 20.5L 32.5 26.5L 38.5 32.5M 50.5 20.5L 44.5 32.5"></path></g></g></g><g id="g-root-ic_stat_1qbd2t01tkm8sp-fill" data-item-order="0" transform="translate(578, 176)"></g><g id="g-root-ic_stat_1qbd2t01tkm8sp-stroke" data-item-order="0" transform="translate(578, 176)"><g id="ic_stat_1qbd2t01tkm8sp-stroke" fill="none" stroke-linecap="round" stroke-linejoin="round" stroke-miterlimit="4" stroke="#000000" stroke-width="1" stroke-opacity="1"><g><path d="M 49 53.5L 77.5 53.5C 79.156853 53.5 80.5 52.156857 80.5 50.5L 80.5 14.5C 80.5 12.843145 79.156853 11.5 77.5 11.5L 41.5 11.5M 71.5 41.5C 71.5 42.328426 70.82843 43 70 43L 67 43C 66.17157 43 65.5 42.328426 65.5 41.5L 65.5 22C 65.5 21.171574 66.17157 20.5 67 20.5L 70 20.5C 70.82843 20.5 71.5 21.171574 71.5 22ZM 41.5 52C 41.5 43.715729 34.784271 37 26.5 37C 18.215729 37 11.5 43.715729 11.5 52L 11.5 62.5L 19 62.5L 20.5 80.5L 32.5 80.5L 34 62.5M 16.011999 22C 16.012001 27.79899 20.713011 32.5 26.512001 32.5C 32.310989 32.5 37.012001 27.79899 37.012001 22C 37.012001 16.20101 32.310989 11.500001 26.512001 11.500001C 20.713011 11.500001 16.012001 16.20101 16.012001 22ZM 59.5 41.5C 59.5 42.328426 58.828426 43 58 43L 55 43C 54.171574 43 53.5 42.328426 53.5 41.5L 53.5 28C 53.5 27.171572 54.171574 26.5 55 26.5L 58 26.5C 58.828426 26.5 59.5 27.171572 59.5 28ZM 40.720001 65.050003C 40.720001 68.943604 43.876392 72.099998 47.77 72.099998C 51.663605 72.099998 54.82 68.943604 54.82 65.050003C 54.82 61.156387 51.663605 58 47.77 58C 43.876392 58 40.720001 61.156387 40.720001 65.050003ZM 62.403999 65.050003C 62.403999 68.943604 65.560394 72.099998 69.453995 72.099998C 73.34761 72.099998 76.503998 68.943604 76.503998 65.050003C 76.503998 61.156387 73.34761 58 69.453995 58C 65.560394 58 62.403999 61.156387 62.403999 65.050003ZM 80.5 80.5C 77.83239 77.19236 73.81131 75.269501 69.561996 75.269501C 65.312698 75.269501 61.291607 77.19236 58.624001 80.5C 55.86586 77.206467 51.795864 75.2966 47.500004 75.279999M 38.529999 78.415001C 41.080093 76.386871 44.241737 75.281876 47.5 75.279999"></path></g></g></g><g id="g-root-tx_fasesdet_1q6zo1g1tkuo78-fill" data-item-order="0" transform="translate(191.6484375, 38)"><g id="tx_fasesdet_1q6zo1g1tkuo78-fill-merged" stroke="none" fill="#000000" fill-opacity="1"><g><text style="font: bold 25px Roboto, sans-serif; white-space: pre;" transform="translate(180.3515625, 25)" font-weight="bold" font-size="25px" font-family="Roboto, sans-serif"><tspan x="-168.35" y="15" dominant-baseline="ideographic">Fases de Trabajo del Proyecto</tspan></text></g></g></g><g id="g-root-tx_fasesdet_1q6zo1g1tkuo78-stroke" data-item-order="0" transform="translate(191.6484375, 38)"></g><g id="g-root-tx_preparac_959vuc1tl1oui-fill" data-item-order="0" transform="translate(223.2265625, 320)"><g id="tx_preparac_959vuc1tl1oui-fill-merged" stroke="none" fill="#000000" fill-opacity="1"><g><text style="font: bold 15px Roboto, sans-serif; white-space: pre;" transform="translate(64.7734375, 28)" font-weight="bold" font-size="15px" font-family="Roboto, sans-serif"><tspan x="-52.77" y="0" dominant-baseline="ideographic">Preparación de </tspan><tspan x="-27.18" y="18" dominant-baseline="ideographic">Activos</tspan></text></g></g></g><g id="g-root-tx_preparac_959vuc1tl1oui-stroke" data-item-order="0" transform="translate(223.2265625, 320)"></g><g id="g-root-tx_desarrol_mg2lpw1tug83w-fill" data-item-order="0" transform="translate(388.8828125, 320)"><g id="tx_desarrol_mg2lpw1tug83w-fill-merged" stroke="none" fill="#000000" fill-opacity="1"><g><text style="font: bold 15px Roboto, sans-serif; white-space: pre;" transform="translate(67.1171875, 28)" font-weight="bold" font-size="15px" font-family="Roboto, sans-serif"><tspan x="-44.74" y="0" dominant-baseline="ideographic">Desarrollo de </tspan><tspan x="-55.12" y="18" dominant-baseline="ideographic">Funcionalidades</tspan></text></g></g></g><g id="g-root-tx_desarrol_mg2lpw1tug83w-stroke" data-item-order="0" transform="translate(388.8828125, 320)"></g><g id="g-root-tx_mediciny_i093lg1tuhm9y-fill" data-item-order="0" transform="translate(559.1484375, 320)"><g id="tx_mediciny_i093lg1tuhm9y-fill-merged" stroke="none" fill="#000000" fill-opacity="1"><g><text style="font: bold 15px Roboto, sans-serif; white-space: pre;" transform="translate(64.8515625, 28)" font-weight="bold" font-size="15px" font-family="Roboto, sans-serif"><tspan x="-36.79" y="0" dominant-baseline="ideographic">Medición y </tspan><tspan x="-52.85" y="18" dominant-baseline="ideographic">Documentación</tspan></text></g></g></g><g id="g-root-tx_mediciny_i093lg1tuhm9y-stroke" data-item-order="0" transform="translate(559.1484375, 320)"></g><g id="g-root-tx_revisarw_m7d9x01tl07wp-fill" data-item-order="0" transform="translate(40.8046875, 368)"><g id="tx_revisarw_m7d9x01tl07wp-fill-merged" stroke="none" fill="#000000" fill-opacity="1"><g><text style="font: 15px Roboto, sans-serif; white-space: pre;" transform="translate(79.1953125, 64)" font-size="15px" font-family="Roboto, sans-serif"><tspan x="-53.59" y="-36" dominant-baseline="ideographic">Revisar WebGL, </tspan><tspan x="-57.13" y="-18" dominant-baseline="ideographic">visualización 3D, </tspan><tspan x="-67.2" y="0" dominant-baseline="ideographic">carga cognitiva, UX, </tspan><tspan x="-65.32" y="18" dominant-baseline="ideographic">hardware, modelos </tspan><tspan x="-36.01" y="36" dominant-baseline="ideographic">digitales e </tspan><tspan x="-57.9" y="54" dominant-baseline="ideographic">interoperabilidad</tspan></text></g></g></g><g id="g-root-tx_revisarw_m7d9x01tl07wp-stroke" data-item-order="0" transform="translate(40.8046875, 368)"></g><g id="g-root-tx_limpiaro_mbpa441tug5jf-fill" data-item-order="0" transform="translate(207.921875, 368)"><g id="tx_limpiaro_mbpa441tug5jf-fill-merged" stroke="none" fill="#000000" fill-opacity="1"><g><text style="font: 15px Roboto, sans-serif; white-space: pre;" transform="translate(80.078125, 64)" font-size="15px" font-family="Roboto, sans-serif"><tspan x="-67.2" y="-36" dominant-baseline="ideographic">Limpiar, optimizar e </tspan><tspan x="-58.39" y="-18" dominant-baseline="ideographic">integrar modelos </tspan><tspan x="-47.5" y="0" dominant-baseline="ideographic">CAD, preparar </tspan><tspan x="-68.08" y="18" dominant-baseline="ideographic">materiales, mallas y </tspan><tspan x="-52.45" y="36" dominant-baseline="ideographic">estructura para </tspan><tspan x="-39.41" y="54" dominant-baseline="ideographic">tiempo real</tspan></text></g></g></g><g id="g-root-tx_limpiaro_mbpa441tug5jf-stroke" data-item-order="0" transform="translate(207.921875, 368)"></g><g id="g-root-tx_desarrol_mb2t101tuhm31-fill" data-item-order="0" transform="translate(375.3203125, 368)"><g id="tx_desarrol_mb2t101tuhm31-fill-merged" stroke="none" fill="#000000" fill-opacity="1"><g><text style="font: 15px Roboto, sans-serif; white-space: pre;" transform="translate(80.6796875, 82)" font-size="15px" font-family="Roboto, sans-serif"><tspan x="-37.73" y="-54" dominant-baseline="ideographic">Desarrollar </tspan><tspan x="-40.99" y="-36" dominant-baseline="ideographic">navegación, </tspan><tspan x="-58.04" y="-18" dominant-baseline="ideographic">selección, fichas, </tspan><tspan x="-63.48" y="0" dominant-baseline="ideographic">modos de análisis, </tspan><tspan x="-58.84" y="18" dominant-baseline="ideographic">corte transversal, </tspan><tspan x="-65.04" y="36" dominant-baseline="ideographic">vista explosionada, </tspan><tspan x="-68.68" y="54" dominant-baseline="ideographic">filtros, UI responsive </tspan><tspan x="-55.41" y="72" dominant-baseline="ideographic">y profiler interno</tspan></text></g></g></g><g id="g-root-tx_desarrol_mb2t101tuhm31-stroke" data-item-order="0" transform="translate(375.3203125, 368)"></g><g id="g-root-tx_medirkpi_8zmano1tuj11r-fill" data-item-order="0" transform="translate(542.6640625, 368)"><g id="tx_medirkpi_8zmano1tuj11r-fill-merged" stroke="none" fill="#000000" fill-opacity="1"><g><text style="font: 15px Roboto, sans-serif; white-space: pre;" transform="translate(81.3359375, 73)" font-size="15px" font-family="Roboto, sans-serif"><tspan x="-68.73" y="-45" dominant-baseline="ideographic">Medir KPIs técnicos, </tspan><tspan x="-69.34" y="-27" dominant-baseline="ideographic">preparar SUS, NASA-</tspan><tspan x="-53.27" y="-9" dominant-baseline="ideographic">TLX Raw, Think-</tspan><tspan x="-58.35" y="9" dominant-baseline="ideographic">Aloud, consolidar </tspan><tspan x="-64.12" y="27" dominant-baseline="ideographic">manuales, informe, </tspan><tspan x="-65.12" y="45" dominant-baseline="ideographic">bitácora y roadmap </tspan><tspan x="-20.74" y="63" dominant-baseline="ideographic">futuro</tspan></text></g></g></g><g id="g-root-tx_medirkpi_8zmano1tuj11r-stroke" data-item-order="0" transform="translate(542.6640625, 368)"></g><g id="g-root-tx_revisind_mcd2lw1tkytxk-fill" data-item-order="0" transform="translate(67.125, 320)"><g id="tx_revisind_mcd2lw1tkytxk-fill-merged" stroke="none" fill="#000000" fill-opacity="1"><g><text style="font: bold 15px Roboto, sans-serif; white-space: pre;" transform="translate(52.875, 28)" font-weight="bold" font-size="15px" font-family="Roboto, sans-serif"><tspan x="-40.88" y="0" dominant-baseline="ideographic">Revisión de </tspan><tspan x="-37.92" y="18" dominant-baseline="ideographic">Conceptos</tspan></text></g></g></g><g id="g-root-tx_revisind_mcd2lw1tkytxk-stroke" data-item-order="0" transform="translate(67.125, 320)"></g></g></g></svg>